<?xml version="1.0" encoding="utf-8"?>
<!-- Generator: Adobe Illustrator 22.0.1, SVG Export Plug-In . SVG Version: 6.00 Build 0)  -->
<svg version="1.1" id="Layer_1" xmlns="http://www.w3.org/2000/svg" xmlns:xlink="http://www.w3.org/1999/xlink" x="0px" y="0px"
	 viewBox="0 0 512 512" style="enable-background:new 0 0 512 512;" xml:space="preserve">
<style type="text/css">
	.st0{fill:#E2804D;}
	.st1{fill:#EFB095;}
	.st2{fill:#3E000E;}
</style>
<path class="st0" d="M456.8,0H57.1C41.6,0,29,12.6,29,28.1V484c0,15.5,12.6,28.1,28.1,28.1h399.8c15.5,0,28.1-12.6,28.1-28.1V28.1
	C484.9,12.6,472.3,0,456.8,0z"/>
<path class="st1" d="M85.7,56.7h342.6v398.7H85.7V56.7z"/>
<g>
	<path class="st2" d="M155.2,108.2c0,10-8.1,18.1-18.1,18.1s-18.1-8.1-18.1-18.1s8.1-18.1,18.1-18.1S155.2,98.2,155.2,108.2z"/>
	<path class="st2" d="M394.8,108.2c0,10-8.1,18.1-18.1,18.1s-18.1-8.1-18.1-18.1s8.1-18.1,18.1-18.1
		C386.7,90.1,394.8,98.2,394.8,108.2z"/>
	<path class="st2" d="M155.2,403.8c0,10-8.1,18.1-18.1,18.1s-18.1-8.1-18.1-18.1s8.1-18.1,18.1-18.1S155.2,393.8,155.2,403.8z"/>
	<path class="st2" d="M394.8,403.8c0,10-8.1,18.1-18.1,18.1s-18.1-8.1-18.1-18.1s8.1-18.1,18.1-18.1
		C386.7,385.7,394.8,393.8,394.8,403.8z"/>
</g>
<g>
	<path class="st0" d="M398.9,261.9c0,78.4-63.6,141.9-141.9,141.9s-141.9-63.6-141.9-141.9S178.6,119.9,257,119.9
		C335.4,119.7,398.9,183.3,398.9,261.9z"/>
	<path class="st2" d="M270.4,173.4h-27c-8.9,0-16.2,7.3-16.2,16.2V334c0,8.9,7.3,16.2,16.2,16.2h27c8.9,0,16.2-7.3,16.2-16.2V189.6
		C286.6,180.5,279.3,173.4,270.4,173.4z"/>
</g>
</svg>
