<?xml version="1.0" encoding="utf-8"?>
<!-- Generator: Adobe Illustrator 22.0.1, SVG Export Plug-In . SVG Version: 6.00 Build 0)  -->
<svg version="1.1" id="Layer_1" xmlns="http://www.w3.org/2000/svg" xmlns:xlink="http://www.w3.org/1999/xlink" x="0px" y="0px"
	 viewBox="0 0 512 512" style="enable-background:new 0 0 512 512;" xml:space="preserve">
<style type="text/css">
	.st0{fill:#E2804D;}
	.st1{fill:#EFB095;}
	.st2{fill:#3E000E;}
</style>
<path class="st0" d="M456.8,0H57.1C41.6,0,29,12.6,29,28.1v455.9c0,15.5,12.6,28.1,28.1,28.1h399.8c15.5,0,28.1-12.6,28.1-28.1V28.1
	C484.9,12.6,472.3,0,456.8,0z"/>
<path class="st1" d="M85.7,56.7h342.6v398.7H85.7V56.7z"/>
<g>
	<path class="st2" d="M155.2,108.2c0,10-8.1,18.1-18.1,18.1s-18.1-8.1-18.1-18.1c0-10,8.1-18.1,18.1-18.1S155.2,98.2,155.2,108.2z"
		/>
	<path class="st2" d="M394.8,108.2c0,10-8.1,18.1-18.1,18.1c-10,0-18.1-8.1-18.1-18.1c0-10,8.1-18.1,18.1-18.1
		C386.7,90.1,394.8,98.2,394.8,108.2z"/>
	<path class="st2" d="M155.2,403.8c0,10-8.1,18.1-18.1,18.1s-18.1-8.1-18.1-18.1c0-10,8.1-18.1,18.1-18.1S155.2,393.8,155.2,403.8z"
		/>
	<path class="st2" d="M394.8,403.8c0,10-8.1,18.1-18.1,18.1c-10,0-18.1-8.1-18.1-18.1c0-10,8.1-18.1,18.1-18.1
		C386.7,385.7,394.8,393.8,394.8,403.8z"/>
</g>
<path class="st0" d="M338.5,176.6c0,45-36.5,81.5-81.5,81.5c-45,0-81.5-36.5-81.5-81.5c0-45,36.5-81.5,81.5-81.5
	C302,95,338.5,131.5,338.5,176.6z"/>
<path class="st2" d="M264.7,125.8h-15.5c-5.1,0-9.3,4.2-9.3,9.3V218c0,5.1,4.2,9.3,9.3,9.3h15.5c5.1,0,9.3-4.2,9.3-9.3v-82.9
	C274,129.9,269.8,125.8,264.7,125.8z"/>
<path class="st2" d="M239.9,313.1H274V409h-34.1V313.1z"/>
<path class="st0" d="M325.8,288.4H188.1c-7,0-12.7,5.7-12.7,12.7v20.7c0,7,5.7,12.7,12.7,12.7h137.6c7,0,12.7-5.7,12.7-12.7v-20.7
	C338.5,294.1,332.8,288.4,325.8,288.4z"/>
<path class="st0" d="M294.9,391.1H219c-7,0-12.7,5.7-12.7,12.7v10.4c0,7,5.7,12.7,12.7,12.7h75.8c7,0,12.7-5.7,12.7-12.7v-10.4
	C307.6,396.8,301.9,391.1,294.9,391.1z"/>
</svg>
