<?xml version="1.0" encoding="utf-8"?>
<!-- Generator: Adobe Illustrator 22.0.1, SVG Export Plug-In . SVG Version: 6.00 Build 0)  -->
<svg version="1.1" id="Layer_1" xmlns="http://www.w3.org/2000/svg" xmlns:xlink="http://www.w3.org/1999/xlink" x="0px" y="0px"
	 viewBox="0 0 151.2 184" style="enable-background:new 0 0 151.2 184;" xml:space="preserve">
<style type="text/css">
	.st0{fill:#F8F1DA;}
	.st1{fill:#E2804C;}
</style>
<g>
	<g>
		<path class="st0" d="M42.8,26c-9.7,5.6-16.9,12.2-22.7,21c-5.7,8.7-10,19.3-10.5,33.2c-0.6,14.1,4,25.7,9.3,34.5
			c4.8,8,10.9,14.5,18.5,19.8c1.3,0.9,2.7,1.5,2.5,3c-0.2,1.7-2.2,1.4-3.7,1.7c-1.1,0.2-2.4,0.6-3.1,1c-1.5,0.8-3.4,2.6-4,4.2
			c-0.9,2.5-0.5,6.3-0.6,9.8c-0.1,2.7-0.4,5.5,0,7.3c0.8,3.4,4.8,5,8.3,6.2c10.1,3.5,22.2,4.8,35,4.8c12.4,0,25.7-0.6,35.6-3.8
			c3.4-1.1,6.8-2.5,8.1-5.1c1-2,1.3-4.7,1.4-7.7c0-2.8,0.4-6.1,0.1-8.7c-0.5-4-4.1-6.4-7.4-7.4c-1.1-0.3-3-0.1-3.8-1
			c-1.3-1.7,1-3.4,1.6-3.8c8.1-4.8,14.6-10.5,19.6-18c5.6-8.4,10.1-19.5,10.4-32.7c0.3-14.5-3.4-25.4-8.6-34.5
			C124,41.3,117,34.3,109.3,29c-0.5-0.3-1.2-0.6-1.4-1.1c-0.2-1.4,0.3-2.1,0.9-2.6"/>
		<path class="st0" d="M34,18.9"/>
		<path class="st0" d="M-15.4,54.2"/>
	</g>
	<path class="st1" d="M113,27.5c7.7,5.3,14.8,12.3,19.5,20.8c5.1,9.1,8.9,20,8.6,34.5c-0.3,13.1-4.8,24.3-10.4,32.7
		c-5.1,7.6-11.5,13.2-19.6,18.1c-0.6,0.3-2.9,2.1-1.6,3.8c0.7,0.9,2.7,0.7,3.8,1c3.3,1,6.9,3.4,7.4,7.4c0.3,2.6-0.1,5.9-0.1,8.7
		c0,2.9-0.4,5.7-1.4,7.7c-1.3,2.6-4.7,4.1-8.1,5.1c-10,3.2-23.3,3.8-35.6,3.8c-12.8,0-24.9-1.3-35-4.8c-3.5-1.2-7.6-2.8-8.3-6.2
		c-0.4-1.8-0.1-4.6,0-7.3c0.1-3.5-0.4-7.3,0.6-9.8c0.6-1.6,2.5-3.4,4-4.2c0.7-0.4,2-0.8,3.1-1c1.4-0.3,3.5,0,3.7-1.7
		c0.1-1.5-1.2-2.1-2.5-3c-7.6-5.3-13.7-11.8-18.5-19.8c-5.2-8.8-9.8-20.4-9.3-34.5c0.6-13.9,4.8-24.6,10.5-33.2
		c5.8-8.9,13-15.4,22.7-21C87.5,5.5,113,27.5,113,27.5z M67.4,26.5c-2.6,0.4-5.2,1.2-7.3,1.9c-13.5,4.4-24.3,13.9-30.5,24.7
		c-2.2,3.9-4.2,8-5.5,12.9c-1.3,5-2.3,10.6-2.1,16.3c0.5,11.5,3.8,20.5,8.7,28.1c4.7,7.3,10.9,13.5,18.7,18c7.7,4.4,18,8,29.1,7.4
		c19.6-0.9,33.5-9.9,42.5-21.8c1.3-1.8,2.9-3.5,3.9-5.4c1.1-2,1.7-4.3,2.7-6.4c2.9-6,4.7-14.4,4.3-22.8
		c-1.1-22.4-12.2-37.2-27.1-46.2c-7.2-4.4-17.7-8.2-29-7.7C73.2,25.8,70.2,26,67.4,26.5z M56.5,145.2c1.8,1.7,3.5-1.4,2.7-3.7
		C56.7,138.9,54.5,143.4,56.5,145.2z M68.1,142.9c-0.7-1.1-3-1.3-3.8-0.1c-0.7,1.1,0,2.5,0.8,3.5C67.7,147.3,69.4,144.7,68.1,142.9z
		 M75.2,147.5c1.3,0.1,1.4-2.8,0.9-4C73.9,142.6,73.7,147.4,75.2,147.5z M82.1,143.7c-0.5,1.6-0.4,4.7,1,4.7c1.3,0,2-3.4,1.7-4.6
		C84.3,143.2,82.7,143.2,82.1,143.7z M112.3,147.8c-9,2.4-20.1,3-31.1,3c-9,0-18.2-0.4-25.8-1.7c-1.8-0.3-3.9-0.8-5.6-0.9
		c-1.5-0.1-3.3-0.1-4.1,0.8c1.4,1.6,4.1,1.6,6.3,2.2c0.7,0.2,1.4,0.6,2.1,0.8c1.8,0.4,4,0.5,6.2,0.7c6.3,0.6,13.2,0.9,19.6,0.9
		c11.1-0.1,22.5-0.7,31.3-3.1c1.1-0.3,2.8-0.6,2.5-2.4C113.3,147.6,112.7,147.7,112.3,147.8z"/>
	<path class="st1" d="M54.2,95.7c-1.6-1-2.3-3.5-4.8-2.7c-2.2,0.6-0.5,3.7-1,5.6c-0.3,1.2-1.8,1.2-2.7,2.5c-1.8,2.4-0.4,6.7,0.3,9.4
		c0.6,2.1,1.5,5.2-1.1,5.4c-0.6,0-0.9-0.1-1.5-0.6c-2.5-1.9-5-5-6.6-7.5c-2.3-3.7-3.5-7.6-5-11.2c-0.4-1-1.3-2.1-1.5-3.1
		c-0.3-1.2-0.2-2.6-0.3-3.9c-0.3-3-0.7-6.8-0.3-10.4c0.1-1.1,0.4-2,0.6-3.1c0.1-1.1,0.1-2.2,0.2-3.3c0.2-1.8,0.9-3.7,1.4-5.5
		c1.8-6.9,5.1-12.9,8.5-18.4c0.4-0.7,0.9-1.3,1.4-1.9c0.5-0.7,0.9-1.4,1.4-1.9c1.5-1.8,3.7-3.2,5.6-4.8c2-1.6,4.2-2.9,6.4-3.9
		c2.6-1.1,5-1.9,8-2.3c1.4-0.2,2.9-0.6,4.3-0.8c4-0.6,7.1-0.7,11.2,0.3c3.6,0.9,5.9,1.5,7.5,4.2c0.6,1,1.4,2.6,1.3,3.9
		c-0.2,1.6-2.4,3.2-3.3,4.3c-1.2,1.5-2.7,2.7-3.7,4c-0.4,0.5-0.8,1.6-1.1,2.1c-0.6,0.7-1.5,1.1-2.2,1.8c-0.6,0.6-0.9,1.5-1.6,2.2
		c-0.6,0.6-1.4,1.1-1.9,1.7c-1.7,2-3.2,4.7-4.8,7.2c-1.2,1.8-2.2,3.7-3.3,5.7c-0.8,1.4-1.3,2.7-2.3,4.3c-1.2,2-1.9,3.7-2.6,6.6
		C60.3,83.4,61.1,87,60,88c-0.8,0.7-3.2-0.2-3.8,0.9c-0.5,0.9,1,2.9,1.6,3.9c0.4,0.6,0.7,1.2,1,1.8c0.4,0.7,0.8,1.2,0.7,2.1
		s-0.8,1.7-2.1,1.7C55.3,98.4,55.5,96.9,54.2,95.7z M56,42.9c-1.5,0.8-3.3,2-5.1,3.5c-0.9,0.7-3.2,2.8-2.9,4
		c0.2,0.7,2.6,1.6,3.5,1.4c0.6-0.1,1.4-1.3,1.8-1.9c0.6-0.8,1.1-1.5,1.6-2.3c1-1.5,2.9-2.9,2.5-4.7C57.1,42.5,56.3,42.8,56,42.9z
		 M57.7,50.1c-0.6,0.8-2.3,3.2-2.2,4c0.1,0.7,1.7,1.4,2.4,1.8c0.5,0.3,0.7,0.5,1.3,0.8c2.1,1.3,2,0,3.1-1.7c1.4-2,1.9-2.9,3.1-5.1
		c0.4-0.7,1.4-1.9,1.3-2.9c-0.2-1.1-2.7-2.1-3.8-1.9C60.2,45.4,59.2,48.1,57.7,50.1z M39.3,73.4c0.6-1.2,1.3-2.5,2.2-3.5
		c0.6-0.7,1.5-1.1,2.1-1.8c1.3-1.7,2.4-5.2,3.3-7.3c0.4-0.8,1-2.1,0.9-2.6c-0.2-1.2-3.2-1.8-4.3-1.3s-1.6,2.8-2.1,4
		c-1.4,3.8-2.7,7.9-3.3,12.1c-0.1,0.9-0.4,2,0,2.6C39.1,75.3,39,74.1,39.3,73.4z M53.4,76.5c0.9-3.2,2.1-5.8,3-9.1
		c0.4-1.5,1.4-3.9,1.1-5c-0.2-1.2-3.6-2.8-4.8-2.1c-1.3,1.1-1.8,3.2-2.6,5.3c-0.5,1.2-2.1,3.7-1.9,5c0.1,0.7,1.1,1.6,1.5,2.4
		c1,2.1,0.6,4.8,1.4,7.2C53.1,80.5,53,78,53.4,76.5z"/>
	<path class="st1" d="M116.4,50.1c1.5-0.2,1.7,0.3,2.9,1.7c0.7,0.8,1.4,1.5,1.8,2.1c0.8,1.2,1.4,3.1,2.2,4.9
		c1.5,3.4,2.3,6.8,3.1,11.1c0.3,2,1,4.9,0.6,6.5c-0.4,1.8-2.4,3.6-4.1,3.3c-2.7-0.4-1.7-4.7-1.8-7.4c-0.2-3.6-1.5-7.8-2.9-10.6
		c-0.9-1.9-2.3-4.6-3.4-6.6c-0.4-0.7-1-1.4-0.9-2.4C113.9,51.2,115.3,50.3,116.4,50.1z"/>
	<path class="st1" d="M123.2,85.8c0.3,0,1.1-0.2,1.6,0c1.5,0.5,2.4,2.7,2.5,4.3s-0.2,3.6-0.5,5c-0.4,2.5-1.7,5.3-2.7,7.7
		c-0.4,0.9-0.5,1.8-0.9,2.5c-0.3,0.6-0.9,1.1-1.3,1.8c-3.2,5.5-7.2,10.9-12.3,14.3c-1.1,0.7-2,1.6-3.1,2.2c-1,0.6-2.2,1-3.3,1.6
		c-2.1,1.2-4.3,2.1-7,2.6c-1.2,0.3-2.7,0.7-4,0.8c-5.3,0.5-9-0.6-13.7-1.1c-2-0.3-3.9-1.2-5.6-1.8c-1.5-0.6-4-1.7-3.9-3.5
		c0.2-2.6,3.2-1.7,5.3-1.4c3,0.5,4.5,0.8,6.6,0.9c7.9,0.5,15.2-1.6,20.6-5c2.4-1.5,5.1-3.7,7.3-5.5c3.9-3.1,6.5-5.7,8.2-10.6
		c0.6-1.5,1-2.5,1.4-4C119.5,92.1,118.4,86.3,123.2,85.8z"/>
</g>
</svg>
