<?xml version="1.0" encoding="utf-8"?>
<!-- Generator: Adobe Illustrator 22.0.1, SVG Export Plug-In . SVG Version: 6.00 Build 0)  -->
<svg version="1.1" id="Layer_1" xmlns="http://www.w3.org/2000/svg" xmlns:xlink="http://www.w3.org/1999/xlink" x="0px" y="0px"
	 viewBox="0 0 62 59.2" style="enable-background:new 0 0 62 59.2;" xml:space="preserve">
<style type="text/css">
	.st0{fill:#F9F0DA;}
	.st1{fill:#F7E1A6;}
	.st2{fill:#F3D279;}
	.st3{fill:#FCC480;}
	.st4{fill:#E2804C;}
	.st5{fill:#371117;}
	.st6{fill:#63434D;}
</style>
<g>
	<path class="st0" d="M30.8,0.8C17.7,0.8,6.9,11.5,6.9,24.6c0,13.2,10.7,23.9,23.9,23.9s23.9-10.7,23.9-23.9
		C54.7,11.5,44,0.8,30.8,0.8z"/>
	<path class="st1" d="M30.8,2.6c-12.1,0-22,9.9-22,22s9.9,22,22,22c12.1,0,22-9.9,22-22S43,2.6,30.8,2.6z"/>
	<g>
		<path class="st2" d="M30.8,2.6c6.7,0,12.1,9.9,12.1,22s-5.4,22-12.1,22c12.1,0,22-9.9,22-22S43,2.6,30.8,2.6z"/>
	</g>
	<path class="st3" d="M44.5,7.4c-0.8-0.6-1.6-1.2-2.5-1.7c-2.4,1.5-6.4,2.7-11.2,2.7c-4.8,0-8.8-1.1-11.2-2.7
		c-0.9,0.5-1.7,1.1-2.5,1.7c3,2.3,8,3.8,13.7,3.8C36.6,11.2,41.5,9.8,44.5,7.4z"/>
	<path class="st3" d="M12.8,37.2c1.3,1.9,2.9,3.5,4.7,4.9c4,1.1,8.5,1.8,13.4,1.8c4.9,0,9.4-0.6,13.4-1.8c1.8-1.4,3.4-3,4.7-4.9
		c-4.6,2.4-11,3.9-18.1,3.9S17.4,39.6,12.8,37.2z"/>
	<path class="st3" d="M30.8,31.2c-8.2,0-17-2.2-22-5.6c0.1,3.1,0.9,5.9,2.1,8.6c5.5,2.3,12.3,3.6,19.8,3.6c7.5,0,14.4-1.4,19.8-3.6
		c1.3-2.6,2-5.5,2.1-8.6C47.9,29,39,31.2,30.8,31.2z"/>
	<path class="st3" d="M52.8,23.1c0-0.7-0.1-1.4-0.2-2c-4.8,3.5-12.7,5.9-21.7,5.9c-9,0-16.9-2.3-21.7-5.9c-0.1,0.7-0.2,1.4-0.2,2
		c5.2,3.5,13.1,5.7,21.9,5.7C39.7,28.8,47.6,26.6,52.8,23.1z"/>
	<path class="st3" d="M51,15.8c-1-2.4-2.5-4.5-4.2-6.3c-2.4,2.3-8.2,4.6-15.9,4.6c-7.8,0-13.5-2.3-16-4.6c-1.7,1.8-3.2,4-4.2,6.3
		c4.4,3.6,11.7,5.8,20.2,5.8S46.6,19.4,51,15.8z"/>
	<g>
		<path class="st4" d="M44.5,7.4c-0.8-0.6-1.6-1.2-2.5-1.7c-1,0.6-2.3,1.2-3.7,1.6c0.5,0.8,1,1.6,1.5,2.5
			C41.7,9.2,43.3,8.4,44.5,7.4L44.5,7.4z"/>
		<path class="st4" d="M46.7,39.8C46.7,39.8,46.7,39.8,46.7,39.8c0.8-0.9,1.5-1.7,2.2-2.7c-2.6,1.4-5.9,2.4-9.5,3.1
			c-0.7,1.2-1.5,2.3-2.3,3.2c2.5-0.3,4.9-0.8,7.2-1.4c0,0,0,0,0,0C45.1,41.4,45.9,40.7,46.7,39.8z"/>
		<path class="st4" d="M42.6,29.8c-0.3,2.6-0.9,5-1.7,7.2c3.6-0.6,6.9-1.6,9.8-2.8c0.2-0.3,0.3-0.7,0.4-1c0,0,0-0.1,0-0.1
			c0.1-0.3,0.2-0.6,0.4-0.9c0,0,0-0.1,0-0.1c0.1-0.3,0.2-0.6,0.3-1c0,0,0,0,0,0c0.1-0.3,0.2-0.7,0.3-1c0,0,0,0,0,0
			c0.4-1.4,0.6-2.9,0.6-4.4C50.2,27.4,46.6,28.8,42.6,29.8z"/>
		<path class="st4" d="M52.8,23.1L52.8,23.1c0-0.7-0.1-1.4-0.2-2c-2.5,1.8-5.8,3.3-9.6,4.3c0,0.7,0,1.3-0.1,1.9
			C46.7,26.3,50.1,24.9,52.8,23.1z"/>
		<path class="st4" d="M46.8,9.5L46.8,9.5c-1.2,1.1-3.2,2.2-5.8,3.1c0.8,2.2,1.4,4.7,1.7,7.4c3.3-1,6.2-2.4,8.3-4.2
			C50,13.5,48.5,11.3,46.8,9.5z"/>
	</g>
	<g>
		<g>
			<path class="st0" d="M18.8,12.2c-0.8-0.8-1.2-1.1-2-1.9c2.7-2.6,4.3-3.7,7.9-5.1c0.9,0.7,1.4,1,2.4,1.6
				C23.3,8.3,21.6,9.5,18.8,12.2z"/>
			<path class="st0" d="M21.4,14.7c-0.8-0.8-1.2-1.1-2-1.9c2.8-2.8,4.5-4,8.4-5.5c0.9,0.7,1.4,1,2.4,1.6
				C26.1,10.5,24.3,11.7,21.4,14.7z"/>
			<path class="st0" d="M13.1,21.3c-0.7-0.9-1-1.4-1.7-2.3c1.3-3.6,2.3-5.3,4.9-8c0.8,0.8,1.2,1.1,1.9,1.9
				C15.5,15.8,14.4,17.5,13.1,21.3z"/>
			<path class="st0" d="M15.3,24.3c-0.7-0.9-1-1.4-1.7-2.3c1.4-3.9,2.4-5.6,5.2-8.5c0.8,0.8,1.2,1.1,1.9,1.9
				C17.9,18.4,16.8,20.3,15.3,24.3z"/>
		</g>
	</g>
	<g>
		<path class="st5" d="M41.7,46.1H19.1c-2.2,0-3.9,1.8-3.9,3.9v1.9h30.5V50C45.7,47.8,43.9,46.1,41.7,46.1z"/>
		<path class="st6" d="M40.8,46.1H20c-2.7,0-4.9,2.2-4.9,4.9v1h0.1c0.4-2.3,2.4-4.1,4.8-4.1h20.8c2.4,0,4.4,1.8,4.8,4.1h0.1v-1
			C45.7,48.2,43.5,46.1,40.8,46.1z"/>
		<path class="st5" d="M46.5,51.9H14.4c-2.2,0-3.9,1.8-3.9,3.9v1.9h39.9v-1.9C50.4,53.7,48.6,51.9,46.5,51.9z"/>
		<path class="st6" d="M45.5,51.9H15.3c-2.7,0-4.9,2.2-4.9,4.9v1h0.1c0.4-2.3,2.4-4.1,4.8-4.1h30.2c2.4,0,4.4,1.8,4.8,4.1h0.1v-1
			C50.4,54.1,48.2,51.9,45.5,51.9z"/>
	</g>
</g>
</svg>
