<?xml version="1.0" encoding="utf-8"?>
<!-- Generator: Adobe Illustrator 22.0.1, SVG Export Plug-In . SVG Version: 6.00 Build 0)  -->
<svg version="1.1" id="Layer_1" xmlns="http://www.w3.org/2000/svg" xmlns:xlink="http://www.w3.org/1999/xlink" x="0px" y="0px"
	 viewBox="0 0 166 110.4" style="enable-background:new 0 0 166 110.4;" xml:space="preserve">
<style type="text/css">
	.st0{fill:#E2804D;}
	.st1{fill:#FFFFFF;}
</style>
<g>
	<path class="st0" d="M81.8,95.9c-20.4-0.4-40-4.6-58.8-12.5c-3.4-1.4-6.8-3.4-9.7-5.7c-4.5-3.6-4.6-8.3,0.3-11.2
		c5.1-3.1,11-4.9,16.7-7.2c5.3-2.1,11-3.4,15.9-6.2c7.8-4.5,7.4-10.5-0.4-15.2c-0.8-0.5-1.6-0.9-2.4-1.4c-6.5-3.9-6.8-8.9,0.1-12.1
		c7-3.2,14.6-5.5,22.2-6.8c14-2.5,28.1-3.9,42.3-1.5c6.3,1.1,11.6,4,16.9,7.6c4.7,3.3,10.1,5.6,15.4,8c4.9,2.3,10.1,4,15,6.3
		c1.5,0.7,3.3,3.1,3.1,4.3c-0.3,1.6-2.3,3.7-3.9,4.1c-4.6,1.2-9.4,1.9-14.1,2.3c-6.5,0.6-13,0.4-19.4,1.2c-2.5,0.3-4.8,2.5-7.2,3.8
		c1.6,2.2,2.8,4.9,4.9,6.5c3.4,2.6,7.4,4.4,11,6.6c8.6,5.3,8.8,12,0.5,17.7c-8.7,5.9-18.8,8.2-29,9.6C94.8,95.2,88.3,95.4,81.8,95.9
		z M125.5,80.8c-23.7,8.6-48.2,7.5-72.8,5.4C77.5,91.2,102,92.1,125.5,80.8z M87,21.7c10.7,1.5,21.4,2.9,31.2,4.2
		C109.1,19.9,98,20.8,87,21.7z M134.5,42.7c-11.5-3.4-24.3,0.6-25.4,7.6C115.8,42.5,125.6,44.2,134.5,42.7z M58.2,46.4
		c2.7-6.8-2.6-14.1-9.5-13.9C53.7,35.6,57.8,39.2,58.2,46.4z"/>
	<path class="st1" d="M125.5,80.8c-23.5,11.3-48,10.4-72.8,5.4C77.3,88.4,101.7,89.4,125.5,80.8z"/>
	<path class="st1" d="M87,21.7c11-0.8,22.2-1.8,31.2,4.2C108.3,24.6,97.6,23.1,87,21.7z"/>
	<path class="st1" d="M134.5,42.7c-8.9,1.6-18.7-0.1-25.4,7.6C110.2,43.3,123,39.3,134.5,42.7z"/>
	<path class="st1" d="M58.2,46.4c-0.4-7.1-4.5-10.7-9.5-13.9C55.6,32.2,61,39.5,58.2,46.4z"/>
</g>
</svg>
