<?xml version="1.0" encoding="utf-8"?>
<!-- Generator: Adobe Illustrator 22.0.1, SVG Export Plug-In . SVG Version: 6.00 Build 0)  -->
<svg version="1.1" id="Layer_1" xmlns="http://www.w3.org/2000/svg" xmlns:xlink="http://www.w3.org/1999/xlink" x="0px" y="0px"
	 viewBox="0 0 166 110.4" style="enable-background:new 0 0 166 110.4;" xml:space="preserve">
<style type="text/css">
	.st0{fill-rule:evenodd;clip-rule:evenodd;fill:url(#SVGID_1_);}
	.st1{filter:url(#Adobe_OpacityMaskFilter);}
	.st2{filter:url(#Adobe_OpacityMaskFilter_1_);}
	.st3{mask:url(#XMLID_3_);fill-rule:evenodd;clip-rule:evenodd;fill:url(#XMLID_5_);}
	.st4{fill-rule:evenodd;clip-rule:evenodd;fill:url(#XMLID_10_);}
	.st5{filter:url(#Adobe_OpacityMaskFilter_2_);}
	.st6{filter:url(#Adobe_OpacityMaskFilter_3_);}
	.st7{mask:url(#XMLID_11_);fill-rule:evenodd;clip-rule:evenodd;fill:url(#XMLID_12_);}
	.st8{fill-rule:evenodd;clip-rule:evenodd;fill:url(#XMLID_14_);}
	.st9{fill-rule:evenodd;clip-rule:evenodd;fill:url(#XMLID_15_);}
	.st10{fill-rule:evenodd;clip-rule:evenodd;fill:#3E000E;}
</style>
<linearGradient id="SVGID_1_" gradientUnits="userSpaceOnUse" x1="36.2942" y1="55.2" x2="136.5042" y2="55.2">
	<stop  offset="4.639607e-03" style="stop-color:#3E000E"/>
	<stop  offset="1" style="stop-color:#3E000E"/>
</linearGradient>
<circle class="st0" cx="86.4" cy="55.2" r="50.1"/>
<defs>
	<filter id="Adobe_OpacityMaskFilter" filterUnits="userSpaceOnUse" x="36.3" y="5" width="100.2" height="100.2">
		<feFlood  style="flood-color:white;flood-opacity:1" result="back"/>
		<feBlend  in="SourceGraphic" in2="back" mode="normal"/>
	</filter>
</defs>
<mask maskUnits="userSpaceOnUse" x="36.3" y="5" width="100.2" height="100.2" id="XMLID_3_">
	<g id="XMLID_4_" class="st1">
		<defs>
			<filter id="Adobe_OpacityMaskFilter_1_" filterUnits="userSpaceOnUse" x="36.3" y="5" width="100.2" height="100.2">
				<feFlood  style="flood-color:white;flood-opacity:1" result="back"/>
				<feBlend  in="SourceGraphic" in2="back" mode="normal"/>
			</filter>
		</defs>
		<mask maskUnits="userSpaceOnUse" x="36.3" y="5" width="100.2" height="100.2" id="XMLID_3_">
			<g id="XMLID_7_" class="st2">
			</g>
		</mask>
		<radialGradient id="XMLID_5_" cx="86.3992" cy="55.1469" r="50.105" gradientUnits="userSpaceOnUse">
			<stop  offset="0" style="stop-color:#FFFFFF"/>
			<stop  offset="1" style="stop-color:#000000"/>
		</radialGradient>
		<circle id="XMLID_8_" class="st3" cx="86.4" cy="55.1" r="50.1"/>
	</g>
</mask>
<linearGradient id="XMLID_10_" gradientUnits="userSpaceOnUse" x1="36.2942" y1="55.1469" x2="136.5042" y2="55.1469">
	<stop  offset="4.639607e-03" style="stop-color:#3E000E"/>
	<stop  offset="1" style="stop-color:#3E000E"/>
</linearGradient>
<circle id="XMLID_83_" class="st4" cx="86.4" cy="55.1" r="50.1"/>
<g id="XMLID_47_">
	<defs>
		<filter id="Adobe_OpacityMaskFilter_2_" filterUnits="userSpaceOnUse" x="36.3" y="4.8" width="100.2" height="100.2">
			<feFlood  style="flood-color:white;flood-opacity:1" result="back"/>
			<feBlend  in="SourceGraphic" in2="back" mode="normal"/>
		</filter>
	</defs>
	<mask maskUnits="userSpaceOnUse" x="36.3" y="4.8" width="100.2" height="100.2" id="XMLID_11_">
		<g id="XMLID_6_" class="st5">
			<defs>
				<filter id="Adobe_OpacityMaskFilter_3_" filterUnits="userSpaceOnUse" x="36.3" y="4.8" width="100.2" height="100.2">
					<feFlood  style="flood-color:white;flood-opacity:1" result="back"/>
					<feBlend  in="SourceGraphic" in2="back" mode="normal"/>
				</filter>
			</defs>
			<mask maskUnits="userSpaceOnUse" x="36.3" y="4.8" width="100.2" height="100.2" id="XMLID_11_">
				<g id="XMLID_13_" class="st6">
				</g>
			</mask>
			<radialGradient id="XMLID_12_" cx="86.3923" cy="54.937" r="50.105" gradientUnits="userSpaceOnUse">
				<stop  offset="0" style="stop-color:#FFFFFF"/>
				<stop  offset="1" style="stop-color:#000000"/>
			</radialGradient>
			<circle id="XMLID_9_" class="st7" cx="86.4" cy="54.9" r="50.1"/>
		</g>
	</mask>
	<radialGradient id="XMLID_14_" cx="86.3923" cy="54.937" r="50.105" gradientUnits="userSpaceOnUse">
		<stop  offset="0" style="stop-color:#FFFFFF"/>
		<stop  offset="1.128078e-03" style="stop-color:#FEFEFE"/>
		<stop  offset="4.193568e-02" style="stop-color:#D5D0D1"/>
		<stop  offset="8.568454e-02" style="stop-color:#B0A7A9"/>
		<stop  offset="0.1349" style="stop-color:#8E8185"/>
		<stop  offset="0.1885" style="stop-color:#716165"/>
		<stop  offset="0.2477" style="stop-color:#58454B"/>
		<stop  offset="0.3145" style="stop-color:#452F35"/>
		<stop  offset="0.3926" style="stop-color:#351E25"/>
		<stop  offset="0.489" style="stop-color:#2B1319"/>
		<stop  offset="0.6244" style="stop-color:#250C13"/>
		<stop  offset="1" style="stop-color:#230A11"/>
	</radialGradient>
	<circle id="XMLID_50_" class="st8" cx="86.4" cy="54.9" r="50.1"/>
	<g id="XMLID_44_">
		<radialGradient id="XMLID_15_" cx="88.2149" cy="52.2746" r="31.4151" gradientUnits="userSpaceOnUse">
			<stop  offset="0" style="stop-color:#FFFFFF"/>
			<stop  offset="1" style="stop-color:#E2804D"/>
		</radialGradient>
		<path id="XMLID_16_" class="st9" d="M86.4,8c-26.4,4.6-45,32-31.6,55.9c6.7,12,22.7,19.5,34.8,11.2c-27,11.8-50.7-29.9-21.8-53.4
			c15.2-12.4,36.2-11.1,51.7,0.1C97.7,6.4,65.2,12.6,57.8,38.9C54.1,52.1,60,68.7,74.4,71.5C47,60.7,59.8,14.5,96.8,18.3
			c19.5,2,33.4,17.7,36.5,36.7c-4.6-26.4-32-45-55.9-31.6c-12,6.7-19.5,22.7-11.2,34.8c-11.8-27,29.9-50.7,53.4-21.7
			c12.4,15.2,11.1,36.1-0.1,51.7c15.4-21.9,9.1-54.4-17.2-61.8C89.2,22.6,72.6,28.6,69.9,43c10.8-27.4,57-14.7,53.2,22.4
			c-2,19.5-17.7,33.4-36.7,36.5c26.4-4.6,45-32,31.6-55.9c-6.7-12-22.7-19.5-34.8-11.2c27-11.8,50.7,29.9,21.8,53.4
			c-15.2,12.4-36.1,11.1-51.7-0.1c21.9,15.4,54.4,9.1,61.8-17.2c3.7-13.2-2.3-29.8-16.7-32.5c27.4,10.8,14.7,57-22.4,53.2
			c-19.5-2-33.4-17.7-36.5-36.7c4.6,26.4,32,45,55.9,31.6c12-6.7,19.5-22.7,11.2-34.8c11.8,27-29.9,50.7-53.5,21.8
			C40.7,58.2,42,37.3,53.2,21.7c-15.4,21.9-9.1,54.4,17.2,61.8c13.2,3.7,29.8-2.3,32.5-16.7c-10.7,27.4-57,14.7-53.2-22.4
			C51.7,24.9,67.5,11.1,86.4,8L86.4,8z"/>
		<path id="XMLID_17_" class="st10" d="M86.4,73.1c10,0,18.1-8.1,18.1-18.1c0-10-8.2-18.1-18.1-18.1s-18.1,8.1-18.1,18.1
			C68.3,64.9,76.4,73.1,86.4,73.1L86.4,73.1z"/>
	</g>
</g>
<path id="XMLID_1_" class="st10" d="M86.4,73.1c10,0,18.1-8.1,18.1-18.1c0-10-8.2-18.1-18.1-18.1s-18.1,8.1-18.1,18.1
	C68.3,64.9,76.4,73.1,86.4,73.1L86.4,73.1z"/>
</svg>
