<?xml version="1.0" encoding="utf-8"?>
<!-- Generator: Adobe Illustrator 22.0.1, SVG Export Plug-In . SVG Version: 6.00 Build 0)  -->
<svg version="1.1" id="Layer_1" xmlns="http://www.w3.org/2000/svg" xmlns:xlink="http://www.w3.org/1999/xlink" x="0px" y="0px"
	 viewBox="0 0 102.4 101.7" style="enable-background:new 0 0 102.4 101.7;" xml:space="preserve">
<style type="text/css">
	.st0{fill-rule:evenodd;clip-rule:evenodd;fill:url(#SVGID_1_);}
	.st1{filter:url(#Adobe_OpacityMaskFilter);}
	.st2{filter:url(#Adobe_OpacityMaskFilter_1_);}
	.st3{mask:url(#XMLID_3_);fill-rule:evenodd;clip-rule:evenodd;fill:url(#XMLID_5_);}
	.st4{fill-rule:evenodd;clip-rule:evenodd;fill:url(#XMLID_10_);}
	.st5{filter:url(#Adobe_OpacityMaskFilter_2_);}
	.st6{filter:url(#Adobe_OpacityMaskFilter_3_);}
	.st7{mask:url(#XMLID_11_);fill-rule:evenodd;clip-rule:evenodd;fill:url(#XMLID_12_);}
	.st8{fill-rule:evenodd;clip-rule:evenodd;fill:url(#XMLID_14_);}
	.st9{fill-rule:evenodd;clip-rule:evenodd;fill:url(#XMLID_15_);}
	.st10{fill-rule:evenodd;clip-rule:evenodd;fill:#3E000E;}
</style>
<linearGradient id="SVGID_1_" gradientUnits="userSpaceOnUse" x1="1.9853" y1="50.0966" x2="102.1953" y2="50.0966">
	<stop  offset="4.639607e-03" style="stop-color:#3E000E"/>
	<stop  offset="1" style="stop-color:#3E000E"/>
</linearGradient>
<circle class="st0" cx="52.1" cy="50.1" r="50.1"/>
<defs>
	<filter id="Adobe_OpacityMaskFilter" filterUnits="userSpaceOnUse" x="2" y="-0.1" width="100.2" height="100.2">
		<feFlood  style="flood-color:white;flood-opacity:1" result="back"/>
		<feBlend  in="SourceGraphic" in2="back" mode="normal"/>
	</filter>
</defs>
<mask maskUnits="userSpaceOnUse" x="2" y="-0.1" width="100.2" height="100.2" id="XMLID_3_">
	<g id="XMLID_4_" class="st1">
		<defs>
			<filter id="Adobe_OpacityMaskFilter_1_" filterUnits="userSpaceOnUse" x="2" y="-0.1" width="100.2" height="100.2">
				<feFlood  style="flood-color:white;flood-opacity:1" result="back"/>
				<feBlend  in="SourceGraphic" in2="back" mode="normal"/>
			</filter>
		</defs>
		<mask maskUnits="userSpaceOnUse" x="2" y="-0.1" width="100.2" height="100.2" id="XMLID_3_">
			<g id="XMLID_7_" class="st2">
			</g>
		</mask>
		<radialGradient id="XMLID_5_" cx="52.0903" cy="50.0435" r="50.105" gradientUnits="userSpaceOnUse">
			<stop  offset="0" style="stop-color:#FFFFFF"/>
			<stop  offset="1" style="stop-color:#000000"/>
		</radialGradient>
		<circle id="XMLID_8_" class="st3" cx="52.1" cy="50" r="50.1"/>
	</g>
</mask>
<linearGradient id="XMLID_10_" gradientUnits="userSpaceOnUse" x1="1.9853" y1="50.0435" x2="102.1953" y2="50.0435">
	<stop  offset="4.639607e-03" style="stop-color:#3E000E"/>
	<stop  offset="1" style="stop-color:#3E000E"/>
</linearGradient>
<circle id="XMLID_83_" class="st4" cx="52.1" cy="50" r="50.1"/>
<g id="XMLID_47_">
	<defs>
		<filter id="Adobe_OpacityMaskFilter_2_" filterUnits="userSpaceOnUse" x="2" y="-0.3" width="100.2" height="100.2">
			<feFlood  style="flood-color:white;flood-opacity:1" result="back"/>
			<feBlend  in="SourceGraphic" in2="back" mode="normal"/>
		</filter>
	</defs>
	<mask maskUnits="userSpaceOnUse" x="2" y="-0.3" width="100.2" height="100.2" id="XMLID_11_">
		<g id="XMLID_6_" class="st5">
			<defs>
				<filter id="Adobe_OpacityMaskFilter_3_" filterUnits="userSpaceOnUse" x="2" y="-0.3" width="100.2" height="100.2">
					<feFlood  style="flood-color:white;flood-opacity:1" result="back"/>
					<feBlend  in="SourceGraphic" in2="back" mode="normal"/>
				</filter>
			</defs>
			<mask maskUnits="userSpaceOnUse" x="2" y="-0.3" width="100.2" height="100.2" id="XMLID_11_">
				<g id="XMLID_13_" class="st6">
				</g>
			</mask>
			<radialGradient id="XMLID_12_" cx="52.0834" cy="49.8335" r="50.105" gradientUnits="userSpaceOnUse">
				<stop  offset="0" style="stop-color:#FFFFFF"/>
				<stop  offset="1" style="stop-color:#000000"/>
			</radialGradient>
			<circle id="XMLID_9_" class="st7" cx="52.1" cy="49.8" r="50.1"/>
		</g>
	</mask>
	<radialGradient id="XMLID_14_" cx="52.0834" cy="49.8335" r="50.105" gradientUnits="userSpaceOnUse">
		<stop  offset="0" style="stop-color:#FFFFFF"/>
		<stop  offset="1.128078e-03" style="stop-color:#FEFEFE"/>
		<stop  offset="4.193568e-02" style="stop-color:#D5D0D1"/>
		<stop  offset="8.568454e-02" style="stop-color:#B0A7A9"/>
		<stop  offset="0.1349" style="stop-color:#8E8185"/>
		<stop  offset="0.1885" style="stop-color:#716165"/>
		<stop  offset="0.2477" style="stop-color:#58454B"/>
		<stop  offset="0.3145" style="stop-color:#452F35"/>
		<stop  offset="0.3926" style="stop-color:#351E25"/>
		<stop  offset="0.489" style="stop-color:#2B1319"/>
		<stop  offset="0.6244" style="stop-color:#250C13"/>
		<stop  offset="1" style="stop-color:#230A11"/>
	</radialGradient>
	<circle id="XMLID_50_" class="st8" cx="52.1" cy="49.8" r="50.1"/>
	<g id="XMLID_44_">
		<radialGradient id="XMLID_15_" cx="53.906" cy="47.1712" r="31.4151" gradientUnits="userSpaceOnUse">
			<stop  offset="0" style="stop-color:#FFFFFF"/>
			<stop  offset="1" style="stop-color:#E2804D"/>
		</radialGradient>
		<path id="XMLID_16_" class="st9" d="M52.1,2.9c-26.4,4.6-45,32-31.6,55.9c6.7,12,22.7,19.5,34.8,11.2
			c-27,11.8-50.7-29.9-21.8-53.4C48.8,4.1,69.7,5.5,85.3,16.6C63.3,1.3,30.8,7.5,23.5,33.8C19.8,47,25.7,63.6,40.1,66.4
			c-27.4-10.8-14.7-57,22.4-53.2c19.5,2,33.4,17.7,36.5,36.7c-4.6-26.4-32-45-55.9-31.6C31.2,25,23.7,41,32,53.1
			c-11.8-27,29.9-50.7,53.4-21.7C97.8,46.5,96.5,67.5,85.3,83c15.4-21.9,9.1-54.4-17.2-61.8c-13.2-3.7-29.8,2.3-32.5,16.7
			c10.8-27.4,57-14.7,53.2,22.4c-2,19.5-17.7,33.4-36.7,36.5c26.4-4.6,45-32,31.6-55.9C76.9,29,61,21.4,48.9,29.7
			c27-11.8,50.7,29.9,21.8,53.4C55.4,95.5,34.5,94.2,18.9,83c21.9,15.4,54.4,9.1,61.8-17.2C84.4,52.6,78.5,36,64,33.3
			c27.4,10.8,14.7,57-22.4,53.2c-19.5-2-33.4-17.7-36.5-36.7c4.6,26.4,32,45,55.9,31.6c12-6.7,19.5-22.7,11.2-34.8
			c11.8,27-29.9,50.7-53.5,21.8C6.4,53.1,7.7,32.2,18.9,16.6C3.5,38.6,9.7,71.1,36.1,78.5c13.2,3.7,29.8-2.3,32.5-16.7
			c-10.7,27.4-57,14.7-53.2-22.4C17.4,19.8,33.2,6,52.1,2.9L52.1,2.9z"/>
		<path id="XMLID_17_" class="st10" d="M52.1,68c10,0,18.1-8.1,18.1-18.1c0-10-8.2-18.1-18.1-18.1s-18.1,8.1-18.1,18.1
			C33.9,59.8,42.1,68,52.1,68L52.1,68z"/>
	</g>
</g>
<path id="XMLID_1_" class="st10" d="M52.1,68c10,0,18.1-8.1,18.1-18.1c0-10-8.2-18.1-18.1-18.1s-18.1,8.1-18.1,18.1
	C33.9,59.8,42.1,68,52.1,68L52.1,68z"/>
</svg>
