<?xml version="1.0" encoding="utf-8"?>
<!-- Generator: Adobe Illustrator 22.0.1, SVG Export Plug-In . SVG Version: 6.00 Build 0)  -->
<svg version="1.1" id="Layer_1" xmlns="http://www.w3.org/2000/svg" xmlns:xlink="http://www.w3.org/1999/xlink" x="0px" y="0px"
	 viewBox="0 0 40 35.9" style="enable-background:new 0 0 40 35.9;" xml:space="preserve">
<style type="text/css">
	.st0{fill:url(#SVGID_1_);}
	.st1{fill:url(#SVGID_2_);}
	.st2{fill:url(#SVGID_3_);}
	.st3{fill:url(#SVGID_4_);}
	.st4{fill:url(#SVGID_5_);}
	.st5{fill:url(#SVGID_6_);}
</style>
<g>
	<g>
		<linearGradient id="SVGID_1_" gradientUnits="userSpaceOnUse" x1="26.5604" y1="0.4494" x2="26.5604" y2="22.3205">
			<stop  offset="0.3791" style="stop-color:#F15A24"/>
			<stop  offset="1" style="stop-color:#FBB03B"/>
		</linearGradient>
		<polygon class="st0" points="29.5,0.4 13.1,10.9 29.5,21.5 29.5,17.1 40,17.1 40,4.7 29.5,4.7 		"/>
		<linearGradient id="SVGID_2_" gradientUnits="userSpaceOnUse" x1="13.2219" y1="6.4769" x2="40.3004" y2="6.4769">
			<stop  offset="0" style="stop-color:#F15A24"/>
			<stop  offset="1" style="stop-color:#FBB03B"/>
		</linearGradient>
		<path class="st1" d="M29.5,0.4L13.1,10.9l0.2,0.1c2.8,1,5.8,1.5,8.9,1.5c6.8,0,13-2.5,17.8-6.7V4.7H29.5V0.4z"/>
		<linearGradient id="SVGID_3_" gradientUnits="userSpaceOnUse" x1="26.7811" y1="36.9013" x2="26.7811" y2="-0.2449">
			<stop  offset="0" style="stop-color:#FF94B5"/>
			<stop  offset="1" style="stop-color:#FBAE17"/>
		</linearGradient>
		<polygon class="st2" points="39.7,5.1 29.2,5.1 29.2,1 13.9,10.8 15.2,10.8 28.5,2.3 28.5,5.8 39.7,5.8 		"/>
	</g>
	<g>
		
			<linearGradient id="SVGID_4_" gradientUnits="userSpaceOnUse" x1="-66.4396" y1="14.4494" x2="-66.4396" y2="36.3205" gradientTransform="matrix(-1 0 0 1 -52.8792 0)">
			<stop  offset="0.3791" style="stop-color:#F15A24"/>
			<stop  offset="1" style="stop-color:#FBB03B"/>
		</linearGradient>
		<polygon class="st3" points="10.6,14.4 27,24.9 10.6,35.5 10.6,31.1 0.1,31.1 0.1,18.7 10.6,18.7 		"/>
		
			<linearGradient id="SVGID_5_" gradientUnits="userSpaceOnUse" x1="-79.7781" y1="20.4769" x2="-52.6996" y2="20.4769" gradientTransform="matrix(-1 0 0 1 -52.8792 0)">
			<stop  offset="0" style="stop-color:#F15A24"/>
			<stop  offset="1" style="stop-color:#FBB03B"/>
		</linearGradient>
		<path class="st4" d="M10.6,14.4L27,24.9L26.8,25c-2.8,1-5.8,1.5-8.9,1.5c-6.8,0-13-2.5-17.8-6.7v-1.1h10.5V14.4z"/>
		
			<linearGradient id="SVGID_6_" gradientUnits="userSpaceOnUse" x1="-66.2188" y1="50.9013" x2="-66.2188" y2="13.7551" gradientTransform="matrix(-1 0 0 1 -52.8792 0)">
			<stop  offset="0" style="stop-color:#FF94B5"/>
			<stop  offset="1" style="stop-color:#FBAE17"/>
		</linearGradient>
		<polygon class="st5" points="0.5,19.1 11,19.1 11,15 26.2,24.8 24.9,24.8 11.6,16.3 11.6,19.8 0.5,19.8 		"/>
	</g>
</g>
</svg>
