<?xml version="1.0" encoding="utf-8"?>
<!-- Generator: Adobe Illustrator 22.0.1, SVG Export Plug-In . SVG Version: 6.00 Build 0)  -->
<svg version="1.1" id="Layer_1" xmlns="http://www.w3.org/2000/svg" xmlns:xlink="http://www.w3.org/1999/xlink" x="0px" y="0px"
	 viewBox="0 0 40 40" style="enable-background:new 0 0 40 40;" xml:space="preserve">
<style type="text/css">
	.st0{fill:#F79420;}
	.st1{fill:url(#SVGID_1_);}
	.st2{fill:#FFFFFF;}
	.st3{fill:none;stroke:#000000;stroke-width:1.5;stroke-miterlimit:10;}
	.st4{fill:url(#SVGID_2_);}
	.st5{fill:url(#SVGID_3_);}
	.st6{fill:url(#SVGID_4_);}
	.st7{fill:url(#SVGID_5_);}
	.st8{fill:#F9F1DA;}
</style>
<symbol  id="star" viewBox="-9.8 -10.4 19.6 20.8">
	<g>
		<polygon class="st0" points="-0.9,2.3 9.8,3.2 9.8,1 5.6,-2.9 7.1,-10.4 0,-7.2 -6.9,-10 -5.5,-2.9 -9.8,1 -9.8,3.2 		"/>
	</g>
	<g>
		<linearGradient id="SVGID_1_" gradientUnits="userSpaceOnUse" x1="0" y1="2.7649" x2="1.486709e-15" y2="-21.5149">
			<stop  offset="0" style="stop-color:#F8F10F"/>
			<stop  offset="1" style="stop-color:#FCC00F"/>
		</linearGradient>
		<polygon class="st1" points="0,10.4 3,4.2 9.8,3.2 4.9,-1.5 6,-8.1 0,-5.1 -6,-8.1 -4.9,-1.5 -9.8,3.2 -3,4.2 		"/>
	</g>
	<g>
		<polygon class="st2" points="-2.6,2.5 0,7.2 2.4,2.5 8.5,2 9.8,3.2 3,4.2 0,10.4 -3,4.2 -9.8,3.2 -8.5,2 		"/>
	</g>
</symbol>
<g>
	<g>
		<path class="st3" d="M1.3,20.2C1.3,30.6,8.1,39,16.5,39c0.7,0,2.5,0,3.1,0c8.4,0,15.2-8.4,15.2-18.8S28.1,1.3,19.7,1.3
			c-0.7,0-2.5,0-3.1,0C8.1,1.3,1.3,9.8,1.3,20.2z"/>
		
			<linearGradient id="SVGID_2_" gradientUnits="userSpaceOnUse" x1="108.7898" y1="-106.2274" x2="108.7898" y2="-75.1562" gradientTransform="matrix(-1 0 0 1 126.9 109.9)">
			<stop  offset="0" style="stop-color:#F8F10F"/>
			<stop  offset="1" style="stop-color:#FCC00F"/>
		</linearGradient>
		<path class="st4" d="M1.3,20.2C1.3,30.6,8.1,39,16.5,39c0.7,0,2.5,0,3.1,0c8.4,0,15.2-8.4,15.2-18.8S28.1,1.3,19.7,1.3
			c-0.7,0-2.5,0-3.1,0C8.1,1.3,1.3,9.8,1.3,20.2z"/>
	</g>
	<g>
		
			<linearGradient id="SVGID_3_" gradientUnits="userSpaceOnUse" x1="110.3623" y1="-65.9758" x2="110.3623" y2="-121.7738" gradientTransform="matrix(-1 0 0 1 126.9 109.9)">
			<stop  offset="0" style="stop-color:#F8F10F"/>
			<stop  offset="1" style="stop-color:#FCC00F"/>
		</linearGradient>
		<ellipse class="st5" cx="16.5" cy="20.2" rx="15.2" ry="18.8"/>
	</g>
	
		<linearGradient id="SVGID_4_" gradientUnits="userSpaceOnUse" x1="107.8439" y1="-86.1847" x2="115.0131" y2="-93.3539" gradientTransform="matrix(-1 0 0 1 126.9 109.9)">
		<stop  offset="0" style="stop-color:#F9F1DA"/>
		<stop  offset="1" style="stop-color:#E2804D"/>
	</linearGradient>
	<path class="st6" d="M3.5,20.2c0-8.1,5.4-14.7,12-14.7s12,6.6,12,14.7s-5.4,14.7-12,14.7S3.5,28.3,3.5,20.2z"/>
	
		<linearGradient id="SVGID_5_" gradientUnits="userSpaceOnUse" x1="111.2185" y1="-68.7001" x2="111.2185" y2="-101.8025" gradientTransform="matrix(-1 0 0 1 126.9 109.9)">
		<stop  offset="0" style="stop-color:#F8F10F"/>
		<stop  offset="1" style="stop-color:#FCC00F"/>
	</linearGradient>
	<ellipse class="st7" cx="15.7" cy="20.2" rx="10.5" ry="13"/>
	<g>
		<path class="st8" d="M4.1,9.4c2.7-4.9,7.3-8.1,12.5-8.1c8.4,0,15.2,8.4,15.2,18.8c0,4.5-1.3,8.7-3.5,12C30,29.1,31,25.4,31,21.4
			C31,11,24.2,2.6,15.8,2.6C11.1,2.6,6.9,5.2,4.1,9.4z"/>
	</g>
	
		<use xlink:href="#star"  width="19.6" height="20.8" x="-9.8" y="-10.4" transform="matrix(-0.692 0 0 -0.9229 15.7136 19.3897)" style="overflow:visible;"/>
</g>
</svg>
