<?xml version="1.0" encoding="utf-8"?>
<!-- Generator: Adobe Illustrator 22.0.1, SVG Export Plug-In . SVG Version: 6.00 Build 0)  -->
<svg version="1.1" id="Layer_1" xmlns="http://www.w3.org/2000/svg" xmlns:xlink="http://www.w3.org/1999/xlink" x="0px" y="0px"
	 viewBox="0 0 62 59.2" style="enable-background:new 0 0 62 59.2;" xml:space="preserve">
<style type="text/css">
	.st0{fill:url(#SVGID_1_);}
	.st1{fill:url(#SVGID_2_);}
	.st2{fill:url(#SVGID_3_);}
	.st3{fill:#F15A24;}
	.st4{fill:url(#SVGID_4_);}
	.st5{fill:url(#SVGID_5_);}
	.st6{fill:url(#SVGID_6_);}
</style>
<g>
	<linearGradient id="SVGID_1_" gradientUnits="userSpaceOnUse" x1="31.2642" y1="2.4165" x2="31.2642" y2="55.0835">
		<stop  offset="2.544301e-04" style="stop-color:#DF96CC"/>
		<stop  offset="1" style="stop-color:#E2804D"/>
	</linearGradient>
	<path class="st0" d="M57.7,26.2c-0.5-6.6-3.5-12.4-8-16.6C45.2,5.5,39.2,3,32.7,3c-0.6,0-1.3,0-2,0.1C23.4,3.6,16.8,7,12.2,12
		c-4.7,5-7.5,11.8-7.5,19.1c0,0.7,0,1.5,0.1,2.2C5.4,41.6,9.2,49,14.9,54.2l6.8-7.4c-2.8-2.6-5.2-6.7-6.3-10.5
		c0,0-2.9-10.6,4.2-17.4c3.2-3.1,7.2-5.4,11.9-5.8c0.4,0,0.8,0,1.2,0c3.9,0,7.5,1.5,10.2,4c2.7,2.5,4.5,5.9,4.8,9.9
		c0,0.4,0,0.8,0,1.2c0,1.6-0.3,3.1-0.7,4.3c-0.7,1.9-1.8,3.3-3.3,4.4c-1.5,1.1-3.5,1.9-6.1,2.1c-0.3,0-0.5,0-0.8,0
		c-2.6,0-4.7-1-6.4-2.6c-0.1-0.1-0.2-0.2-0.3-0.3l-1.6-1.4l-10,0l0.1,1.4c1,2.9,2.7,5.5,4.8,7.5c3.4,3.4,8.2,5.5,13.4,5.4
		c0.5,0,1,0,1.6-0.1c2.8-0.2,5.5-0.9,7.9-2c3.6-1.6,6.6-4.3,8.6-7.6c2-3.3,3.1-7.2,3.1-11.3C57.8,27.5,57.8,26.8,57.7,26.2z"/>
	<linearGradient id="SVGID_2_" gradientUnits="userSpaceOnUse" x1="4.7207" y1="17.6226" x2="54.7202" y2="17.6226">
		<stop  offset="0" style="stop-color:#DF96CC"/>
		<stop  offset="1" style="stop-color:#E2804D"/>
	</linearGradient>
	<path class="st1" d="M49.7,9.6C45.2,5.5,39.2,3,32.7,3c-0.6,0-1.3,0-2,0.1C23.4,3.6,16.8,7,12.2,12c-4.3,4.6-7,10.7-7.4,17.3
		c3.2,1.4,6.6,2.4,10.1,3c-0.2-3.7,0.4-9.3,4.7-13.4c3.2-3.1,7.2-5.4,11.9-5.8c0.4,0,0.8,0,1.2,0c3.9,0,7.5,1.5,10.2,4
		c1.6,1.5,2.8,3.2,3.7,5.3c2.6-2.5,4.9-5.4,6.8-8.5C52.3,12.2,51.1,10.9,49.7,9.6z"/>
	<linearGradient id="SVGID_3_" gradientUnits="userSpaceOnUse" x1="32.0112" y1="2.75" x2="32.0112" y2="26">
		<stop  offset="0" style="stop-color:#EBF4FF"/>
		<stop  offset="1" style="stop-color:#E2804D"/>
	</linearGradient>
	<path class="st2" d="M49.4,10c-4.6-4.2-10.5-6.5-16.7-6.5c-0.6,0-1.2,0-1.9,0.1c-7,0.5-13.5,3.7-18.2,8.8C12,13,11.5,13.6,11,14.2
		h1.2c0.3-0.4,0.7-0.8,1.1-1.2c4.6-5,10.8-8,17.6-8.5c0.7,0,1.3-0.1,1.8-0.1c6,0,11.6,2.2,16,6.3c1.2,1.1,2.2,2.3,3.1,3.6h1.2
		C52,12.7,50.8,11.3,49.4,10z"/>
	<path class="st3" d="M15,28.3l-5.1,6.9h5.3C15,33.8,14.7,31.2,15,28.3z"/>
	<linearGradient id="SVGID_4_" gradientUnits="userSpaceOnUse" x1="24.1054" y1="2.4165" x2="24.1054" y2="55.0835">
		<stop  offset="0" style="stop-color:#DF96CC"/>
		<stop  offset="1" style="stop-color:#E2804D"/>
	</linearGradient>
	<path class="st4" d="M28.6,34.1H36l-11.8-16l-11.9,16h5.6c0.2,0.7,0.4,1.4,0.6,2h11.6C29.5,35.5,29,34.9,28.6,34.1z"/>
	<linearGradient id="SVGID_5_" gradientUnits="userSpaceOnUse" x1="4.498" y1="31.9473" x2="54.1293" y2="16.2614">
		<stop  offset="0" style="stop-color:#DF96CC"/>
		<stop  offset="1" style="stop-color:#E2804D"/>
	</linearGradient>
	<path class="st5" d="M24.1,18.1l-10.4,14c2.2,0.4,4.4,0.6,6.7,0.6c4.5,0,8.8-0.8,12.9-2.2L24.1,18.1z"/>
	<linearGradient id="SVGID_6_" gradientUnits="userSpaceOnUse" x1="24.1054" y1="18.1533" x2="24.1054" y2="58.4719">
		<stop  offset="0" style="stop-color:#EBF4FF"/>
		<stop  offset="1" style="stop-color:#E2804D"/>
	</linearGradient>
	<polygon class="st6" points="24.1,20.8 33.2,33.1 34.6,33.1 24.1,19 13.6,33.1 15,33.1 	"/>
</g>
</svg>
