<?xml version="1.0" encoding="utf-8"?>
<!-- Generator: Adobe Illustrator 22.0.1, SVG Export Plug-In . SVG Version: 6.00 Build 0)  -->
<svg version="1.1" id="Layer_1" xmlns="http://www.w3.org/2000/svg" xmlns:xlink="http://www.w3.org/1999/xlink" x="0px" y="0px"
	 viewBox="0 0 800 801.9" style="enable-background:new 0 0 800 801.9;" xml:space="preserve">
<style type="text/css">
	.st0{fill:#E2804C;stroke:#E2804C;stroke-miterlimit:10;}
</style>
<g>
	<path class="st0" d="M107.1,750.8c-4.3,2-8.4,4.3-12.9,5.8c-11.7,4.1-22.4,2.9-32-3.8c-10.8-7.6-15.6-17.3-17.1-28.1
		c-3.5-24.8,7.6-44.5,35.5-58.5c5.9-2.9,11.5-6.1,17.2-9.3c21.4-11.9,28.5-28.3,26.1-47.6c-1.3-10.2-5.1-19.9-14-28
		c-9.9-9.1-22.5-13.6-38.3-11.2c-7.4,1.2-13,4.7-17.8,8.9c-3.6,3.2-6.9,6.6-10.9,10.5c-6.4-14.2-8.2-27.9,2.1-40.8
		c10.1-12.8,33.4-15.9,50.7-6.8c19.6,10.4,31.7,24.9,37.1,42.5c9.6,31-0.2,57.8-30.2,80.5c-10.9,8.3-21,17.4-29.9,26.9
		c-10.4,11.2-12.9,23.9-7,37.2c6.1,13.8,18.7,20.7,37.8,20.5c1,0,2,0,3.1,0C106.8,750.1,106.9,750.4,107.1,750.8z"/>
	<path class="st0" d="M43.1,212.5c4,3.9,7.1,7.2,10.7,10.3c14.3,12.3,34.7,13.2,50.8,2.2c13.5-9.2,18.3-21.4,19.6-34.6
		c1.8-19.5-7-35.4-28.8-46.7c-6.9-3.6-13.6-7.2-20.4-10.9c-33.9-18.6-36.1-50.8-24.3-71.5c4.8-8.4,12.4-15.4,24.8-17.7
		c12.4-2.3,22.2,2.3,32.6,8.7c-3.9,0-6.4-0.1-8.8,0c-13.4,0.5-23.6,5-29.9,14c-8.6,12.4-9.3,25.1-1.2,37.9
		c7.1,11.2,17.6,20.4,29.1,28.9c13.6,10,25.2,21,32.5,34.5c12.1,22.4,9.3,63.8-26.3,87.8c-7.5,5-15.7,8.7-25.9,9.5
		c-14.7,1.2-29.1-4.5-35-14.8C35.6,237.8,36.8,225.4,43.1,212.5z"/>
	<path class="st0" d="M692.6,52.3c12-10.9,31.6-12.1,44.8-3.1c10.8,7.4,15.4,17.1,17,27.7c3.6,24.7-7.2,44.6-35.1,58.7
		c-6,3-11.8,6.3-17.7,9.5c-21.4,11.9-28.5,28.3-26,47.6c1.3,10.2,5.2,19.9,14,28c10.1,9.2,22.8,13.8,38.9,11
		c7.5-1.3,13.1-5.1,17.9-9.5c3.3-3,6.4-6.2,10-9.8c6.3,13.7,7.9,26.8-1,39.5c-8.8,12.7-30.8,17.2-48.1,9.7
		c-19.7-8.6-32.1-22-38.6-38.3c-13-32.6-4.6-61.4,27.7-86.1c11.3-8.6,21.7-18,30.8-27.9c10.5-11.4,12.3-24.3,5.8-37.6
		c-6.3-13-18.4-19.4-36.8-19.3C695.3,52.3,694.1,52.3,692.6,52.3z"/>
	<path class="st0" d="M692.4,749.7c33.3-0.2,52.3-21.2,42-45.8c-4.6-11-13.6-19.9-23.6-28.2c-5.9-4.9-12-9.5-18.1-14.2
		c-44.9-34.5-34.2-89.1,2-114.1c8-5.5,16.5-9.6,27.6-10.4c14.4-1,28.7,4.7,34.5,14.8c7.2,12.3,6,24.7-0.3,37.8
		c-2.8-2.9-5.1-5.2-7.4-7.6c-17.6-17.2-44.5-16.7-61.3,1.1c-22,23.3-15.3,57,14.7,74.2c7.1,4.1,14.4,7.8,21.6,11.7
		c34.5,18.7,36.3,50.9,24.9,71.3c-1.9,3.5-4.9,6.7-8.1,9.6C726.2,763.4,706.9,760.5,692.4,749.7z"/>
	<path class="st0" d="M702,260.6c5.4,3.5,11.2,6.7,16.2,10.4c16.4,12.4,31.4,25.8,42.4,41.4c11.1,15.7,14.4,32.3,10.3,49.7
		c-4.8,20.6-24.2,34.3-51.6,37.1c-15.3,1.5-30.3,1.2-44.8-3.3c-27.6-8.5-34.3-38.7-11.8-53.3c8.3-5.4,17.8-7.1,28.4-4.9
		c12.7,2.6,19.9,12.6,15.6,21.9c-1,2.3-3.5,4.2-5.2,6.3c-0.5-0.2-1-0.3-1.4-0.5c0.1-0.7,0.1-1.4,0.2-2.1c0.8-5.5-1-8.5-6.1-9.8
		c-5.4-1.4-11.5,0.4-14.9,4.5c-8.8,10.6-2.2,24.9,13.4,29.1c22.1,5.9,48.1-3.7,55.4-20.5c5.9-13.6,4.5-27.3-0.5-40.8
		c-6.5-17.7-18.6-33.1-33.1-47.7c-5.2-5.2-9.7-10.8-14.5-16.2C700.6,261.6,701.3,261.1,702,260.6z"/>
	<path class="st0" d="M699.6,435.9c6.1,2.5,7.8,6.2,8.1,10.3c1.2,13.8-16.6,22.7-35.2,17.6c-17.8-4.9-27.8-21.7-21.8-36.9
		c5.6-14.3,19.2-21.7,38.1-24c14.1-1.7,28.2-1.3,41.9,1.8c23,5.2,38.9,20.8,41.2,39.9c2.1,17.4-2.4,33.7-14.1,48.9
		c-12.5,16.1-29.2,29.6-46.3,42.8c-2.7,2.1-6.8,3-11.1,4.1c2.2-2.9,4.1-6,6.6-8.8c6.3-6.9,13.2-13.4,19.1-20.4
		c14.3-16.8,25-34.7,25.4-55.1c0.1-7-1.1-14.3-3.8-21c-6.7-16.7-33-26.1-55-20.3c-15.9,4.2-22.6,18.8-13.4,29.4
		c3.5,4,9.7,5.8,15.1,4.2c4.8-1.4,6.5-4.3,5.7-9.6C700.1,438,700,437.4,699.6,435.9z"/>
	<path class="st0" d="M99.8,436.6c-0.1,0.6-0.3,1.3-0.4,1.9c-0.9,5.4,1,8.5,6,9.8c5.4,1.4,11.5-0.4,14.9-4.5
		c9.5-11.3,1.4-26.5-15.9-29.7c-26.2-4.9-49.9,6.8-55.1,27.3c-4.5,17.8,0.2,34.8,10.7,50.6c7.6,11.4,17.5,22,26.5,32.8
		c4.2,5.1,8.7,10,13.1,15c-0.4,0.4-0.9,0.7-1.3,1.1c-4.3-2.2-9.2-4-12.7-6.8c-14.5-11.1-28.4-22.6-39.7-35.8
		c-15.5-18-22.1-37.3-17.1-58.6c4.8-20.5,24.2-34.3,51.6-37.1c15.1-1.5,29.9-1.2,44.3,3.1c26.9,8.1,34.8,36.7,14.3,52.1
		c-8.5,6.4-18.7,8.7-30.4,6.3c-12.7-2.6-19.9-12.6-15.6-21.9c1.1-2.3,3.5-4.2,5.3-6.3C98.7,436.2,99.2,436.4,99.8,436.6z"/>
	<path class="st0" d="M99.7,262.2c-5,5.5-9.6,11.2-14.9,16.5c-16.3,16.3-29.4,33.8-34.9,54.1c-3.1,11.6-3.2,23.1,1.9,34.5
		c7.5,16.5,33.5,25.9,55.3,20c15.6-4.2,22.2-18.5,13.2-29.1c-3.5-4.1-9.5-5.9-15-4.5c-5,1.3-6.8,4.4-6,9.8c0.1,0.6,0.3,1.3,0.4,1.9
		c-0.5,0.2-0.9,0.4-1.4,0.6c-1.9-2.1-4.5-4.1-5.5-6.4c-5.9-13.2,10.3-25.4,29.6-22.3c15.5,2.4,26.8,13.4,27.9,26.7
		c1.4,18.2-14,31.9-39.9,35.2c-12.6,1.6-25.3,1.3-37.7-1c-25.4-4.7-42.6-20.2-45.1-40.5c-2.2-17.6,2.3-33.9,14.2-49.2
		c12.4-16,29-29.4,46-42.5c2.8-2.1,7-3.2,10.6-4.7C98.8,261.6,99.2,261.9,99.7,262.2z"/>
	<path class="st0" d="M232.3,768c-9.2,1.2-13.7,4.4-14.5,10.5c-0.7,4.8,0.9,9.2,6.7,11.7c6.9,3,14.1,2.5,20.5-1
		c9-4.9,10.7-11.8,8.7-19.7c-4.9-19.9-30.6-27.3-51.3-14.5c-4.7,2.9-8.2,6.9-11.9,10.6c-4.9,4.9-9.2,10.2-14.1,15.1
		C164.3,792.7,147.9,796,129,793c-17-2.7-30.7-18.6-27.1-31.4c0.8-2.9,3.1-5.6,5.9-8.1c0,0.7,0.1,1.5,0,2.2
		c-3.2,15.7,13.8,24.5,31.4,23.7c11.8-0.5,21.3-5,29.7-10.9c7.6-5.3,14.8-10.9,22.5-16.1c12.8-8.6,27.8-12.6,45-11.2
		c14.6,1.2,25.8,6.5,30.7,17.4c5.5,12.1,4.7,24-7.4,33.8c-10.3,8.4-23.8,10.9-38.3,7.8c-16.9-3.6-24.6-17.5-16.6-28.9
		C210.5,763.3,225,761.5,232.3,768z"/>
	<path class="st0" d="M232.8,33.9c-9.2,6.8-23.5,4.4-28.7-4.4c-7.6-12.6,3.3-26.9,21.8-28.8c23.1-2.3,42.4,9.4,44,26.7
		c1.8,19.9-13,33-37.7,33.5c-15,0.3-28.2-3.2-39.4-10.6c-7.6-5-14.8-10.5-22.1-15.7c-8.4-6-17.6-10.9-29.6-11.9
		c-17.2-1.5-37,6.9-33.1,24.3c0.1,0.5,0,1,0,2.1c-6.5-5.4-7.5-11.3-5.8-17.6c5.9-22.7,43.3-31.8,66.7-16.1c5.7,3.9,10.2,8.8,15,13.5
		c4.6,4.6,8.5,9.6,13.2,14c7.5,7,17.5,10.5,29.5,10.3C239.6,53,250.2,45,253.6,33c1.4-4.9,1.5-9.8-1.8-14.4
		c-3.1-4.3-7.6-7.2-14.1-8.2c-10.1-1.5-18.3,2.2-19.9,8.9C216.1,27.2,221.7,32.8,232.8,33.9z"/>
	<path class="st0" d="M691.8,49.1c-0.1-1-0.2-1.5-0.1-1.9c4.5-17.8-17.1-27.8-38-23.9c-9.4,1.7-17,5.9-24,10.8
		c-7.2,5.2-14.2,10.5-21.7,15.5c-9.9,6.6-21.4,10.6-34.8,11.2c-39.1,1.8-48.5-22.7-41.7-40.3c5.7-14.8,27.7-23.6,47-18.9
		c15.7,3.8,23.3,15.9,17.3,27.3c-5,9.3-20,12.1-29,4.9c8.7-0.1,13.4-3.7,14.8-9.7c1-4.4-0.1-8.6-5-11.5c-5.5-3.2-11.7-3.3-18-1.5
		c-8.9,2.5-14.5,9.8-13.5,17.5c0.3,2.2,0.9,4.3,1.7,6.4c7.7,19.5,33.8,24.6,52.9,10.2c5.2-3.9,8.9-8.9,13.5-13.3
		c5.9-5.7,11.1-12,18.2-16.7c23.2-15.5,60.4-6.1,66.1,16.4C699.1,37.7,698.1,43.6,691.8,49.1z"/>
	<path class="st0" d="M567.2,768.1c7.2-6.7,22.1-4.8,27.8,3.6c8.5,12.6-2.4,27.6-21.3,29.5c-22.9,2.3-42-9.2-43.9-26.2
		c-2.2-20,12.7-33.4,37.7-33.9c15.4-0.3,28.8,3.5,40.3,11.1c7.7,5.1,15,10.7,22.5,16.1c8.1,5.7,17,10.1,28.4,11.1
		c17.3,1.6,37-7,33.1-24.3c-0.1-0.5,0-1,0-2.3c7.8,7.1,7.8,14.3,4.4,21.7c-9,19.8-43.7,26.5-64.8,12.3c-6.6-4.5-11.7-10.4-17.2-15.7
		c-3.7-3.6-6.7-7.5-10.3-11.1c-6.1-6-14.2-9.7-24.1-10.9c-11.2-1.3-20.5,1.1-26.9,8.4c-5.9,6.7-9.4,14-6.8,22.1
		c2,6.2,7.1,10.4,15.5,11.9c10.2,1.8,18.8-2,20.3-8.9C583.5,774.8,577.9,769.2,567.2,768.1z"/>
	<path class="st0" d="M146.4,258.5c10.6,10.1,12.7,26.4,4.7,36.8c-7,9.1-17.8,13.4-31.8,12.6c-11.9-0.7-19.8-5.8-22.6-15.2
		c-3.4-11.4-3-22.5,6.9-32.8c0.8,7.6,0.5,15.6,9.6,20.2c3.8,2,9.5,2.7,14.3,2.6C140.8,282.3,146.1,275.3,146.4,258.5z"/>
	<path class="st0" d="M103.5,541.7c-9.3-9.3-9.6-19.8-7.3-30.6c1.6-7.3,6.1-13.3,15.9-15.8c11.5-3,22.4-1.5,31.5,4.5
		c13.2,8.7,14.5,20,10.4,32c-1.4,4-4.1,7.7-7.2,11.2c-0.6-4.1-0.7-8.3-1.9-12.3c-2.4-7.6-9.4-11.5-19.6-11.6
		c-9.9-0.1-16.6,3.6-19.4,11.2C104.6,533.9,104.3,537.8,103.5,541.7z"/>
	<path class="st0" d="M653.2,543.5c-15.8-14.8-11.7-38,7.7-46.3c19.6-8.4,39.7-1,42.9,15.7c1.9,10.2,1,20.1-7.5,28.8
		c-5.1-19.3-9.6-23.5-24.2-22.5C658.7,520.1,653.4,526.8,653.2,543.5z"/>
	<path class="st0" d="M653.1,259.1c0.7,16.9,6,23.2,19.9,23.8c14.1,0.6,19-4.1,23.1-22.8c10,10.8,10.5,22.6,5.8,34.5
		c-5.5,14-29.4,18-45.5,7.9c-11.7-7.3-14.6-17.2-12.2-27.8c1.2-5.5,4.5-10.8,6.9-16.1C651.8,258.8,652.4,259,653.1,259.1z"/>
	<path class="st0" d="M466.8,779.6c0.3-0.7,0.5-1.2,0.7-1.7c2.1-4.3,0.9-7-3.5-8c-5.2-1.1-10.4,1.3-11.5,5.3
		c-1.4,5.1,2.7,10.6,10.7,12.8c15.2,4.1,29.7,2.9,41.1-6.2c7-5.6,12.4-12.4,18.4-18.7c3.1-3.3,5.9-6.8,9.2-10.1
		c-4.1,11.5-8.3,22.9-17.8,32.7c-11.8,12.2-27.3,18.2-47.5,15.5c-17.4-2.4-28.5-15.4-23.8-27.5c3.3-8.6,15.7-12.7,26-8.6
		c4.6,1.8,6.8,5,5.9,8.5c-0.5,2.2-3.5,4-5.5,5.9C469,779.8,467.9,779.6,466.8,779.6z"/>
	<path class="st0" d="M266.2,48.3c5.6-9.7,10.4-19.7,17-29c7.8-11,20.6-17.4,37.2-19c18.4-1.8,34.5,6.7,37.1,19.9
		c1.2,6-0.5,11.6-7,15.6c-5.3,3.2-11.7,3.5-18,1.8c-5.2-1.4-7.7-4.5-7.8-8.5c0-3.1,1.6-5.6,6-6.5c0.5-0.1,1,0,2,0.1
		c-0.2,0.6-0.5,1.1-0.5,1.5c0.1,2.3-0.7,5.1,0.8,6.7c1.1,1.2,5.7,1.9,7.7,1.2c2.7-1,5.5-3.3,6.3-5.4c1.9-5-2.6-10.2-10.3-12.4
		c-13-3.6-25.6-3.1-37.1,3.3c-9.8,5.5-16.2,13.2-22.2,21c-2.8,3.6-6,7.1-9.1,10.6C267.5,48.8,266.9,48.5,266.2,48.3z"/>
	<path class="st0" d="M531.5,49.1c-2.9-3.3-5.6-6.7-8.6-9.9c-6-6.3-11.4-13.1-18.3-18.7c-11.3-9.1-25.7-10.5-41-6.5
		c-5.6,1.4-9.6,4.3-11,8.9c-0.4,1.3-0.4,2.8,0,4.1c1,4,6.4,6.4,11.6,5.2c4.6-1.1,5.5-3.9,2.9-9.2c4.9-0.3,7.9,2,8,6
		c0,4-3.2,7.4-8.3,8.7c-12.8,3.3-24.3-3.1-24.9-13.8C441,9.5,458.9-1.8,479.2,0.2c14,1.4,25.4,6.2,33.7,14.9
		c7.2,7.5,12.6,15.6,15.5,24.7c1,3,2.6,5.9,3.9,8.9C532,48.8,531.8,48.9,531.5,49.1z"/>
	<path class="st0" d="M281.8,782.3c-1.1-1.8-2.2-3.7-3.3-5.5c-2.2-3.9-4.6-7.7-6.5-11.7c-1.8-3.8-3.1-7.8-4.1-12.1
		c2.9,3.3,5.6,6.7,8.7,9.8c6.2,6.5,11.9,13.5,19.1,19.3c10.2,8.3,23.7,9.4,37.7,6.6c6-1.2,10.9-3.7,13.1-8.5
		c2.2-4.9-0.6-9.8-6.5-10.4c-2.4-0.3-5.8,0.2-7.3,1.4c-1.4,1.2-1.1,3.7-1.2,5.6c-0.1,0.7,0.8,1.5,1.2,2.3c-5.2,0.2-8.2-2.1-8.2-6.1
		c0-4.2,3.3-7.5,8.9-8.8c12.8-2.9,23.8,3.4,24.3,14c0.7,14.3-17.1,25.5-37.5,23.5c-14.9-1.5-26.5-6.9-35-16.2
		c-1.1-1.2-2.4-2.3-3.7-3.4C281.6,782.2,281.8,782.3,281.8,782.3z"/>
	<path class="st0" d="M406.7,766.9c1.6,14.9,10.9,19.7,33.1,17.7c0.2,2.8-3.1,5.1-9.6,6.5c-10.4,2.3-21.1-0.4-25.9-6.5
		C399.9,779,399.7,770.2,406.7,766.9z"/>
	<path class="st0" d="M359.5,17.9c0.6-3.7,5.2-6.4,11.9-7.3c11-1.5,20.1,1.2,24.4,7.4c4,5.7,3.8,13.9-2.8,17.2
		c-0.3-6.5-2.6-12.2-10.1-15.8C375.7,16,367.9,15.8,359.5,17.9z"/>
	<path class="st0" d="M406.9,35.1c-6.3-4-7.4-10-3.4-16.5c4.2-6.7,13.5-9.7,24.9-8c6.7,1,11.3,3.7,11.6,7.2
		c-8.2-2-16.1-1.9-23.3,1.6C409.3,23.1,406.7,28.6,406.9,35.1z"/>
	<path class="st0" d="M392.9,766.9c6.7,3.3,7,11.8,2.4,17.7c-4.6,6-15.5,8.7-25.9,6.4c-6.4-1.4-9.7-3.7-9.6-6.5
		C382.1,786.6,391.4,781.7,392.9,766.9z"/>
</g>
</svg>
