<?xml version="1.0" encoding="utf-8"?>
<!-- Generator: Adobe Illustrator 22.0.1, SVG Export Plug-In . SVG Version: 6.00 Build 0)  -->
<svg version="1.1" id="Layer_1" xmlns="http://www.w3.org/2000/svg" xmlns:xlink="http://www.w3.org/1999/xlink" x="0px" y="0px"
	 viewBox="0 0 800 801.9" style="enable-background:new 0 0 800 801.9;" xml:space="preserve">
<style type="text/css">
	.st0{fill:#E2804C;stroke:#E2804C;stroke-miterlimit:10;}
	.st1{display:none;}
	.st2{display:inline;fill:#E2804C;stroke:#E2804C;stroke-miterlimit:10;}
</style>
<g>
	<path class="st0" d="M85.9,750.8c-4.6,2-9,4.3-13.8,5.8c-12.5,4.1-24.1,2.9-34.4-3.8c-11.6-7.6-16.7-17.3-18.3-28.1
		c-3.8-24.8,8.2-44.5,38.1-58.5c6.3-2.9,12.4-6.1,18.5-9.3c23-11.9,30.6-28.3,28-47.6c-1.4-10.2-5.5-19.9-15-28
		c-10.6-9.1-24.1-13.6-41.1-11.2c-7.9,1.2-13.9,4.7-19.1,8.9c-3.9,3.2-7.4,6.6-11.7,10.5c-6.9-14.2-8.8-27.9,2.2-40.8
		c10.9-12.8,35.8-15.9,54.4-6.8c21.1,10.4,34,24.9,39.8,42.5c10.3,31-0.2,57.8-32.4,80.5c-11.7,8.3-22.6,17.4-32.1,26.9
		c-11.2,11.2-13.8,23.9-7.5,37.2c6.6,13.8,20,20.7,40.6,20.5c1.1,0,2.2,0,3.3,0C85.6,750.1,85.8,750.4,85.9,750.8z"/>
	<path class="st0" d="M17.2,212.5c4.3,3.9,7.6,7.2,11.4,10.3c15.4,12.3,37.2,13.2,54.6,2.2c14.4-9.2,19.7-21.4,21-34.6
		c2-19.5-7.6-35.4-30.9-46.7c-7.4-3.6-14.6-7.2-21.9-10.9c-36.3-18.6-38.8-50.8-26-71.5c5.2-8.4,13.3-15.4,26.6-17.7
		c13.3-2.3,23.9,2.3,35,8.7c-4.2,0-6.8-0.1-9.4,0c-14.4,0.5-25.3,5-32,14c-9.2,12.4-10,25.1-1.3,37.9c7.6,11.2,18.8,20.4,31.2,28.9
		c14.6,10,27.1,21,34.9,34.5c13,22.4,9.9,63.8-28.2,87.8c-8,5-16.8,8.7-27.8,9.5c-15.8,1.2-31.2-4.5-37.6-14.8
		C9.2,237.8,10.5,225.4,17.2,212.5z"/>
	<path class="st0" d="M714.2,52.3c12.9-10.9,33.9-12.1,48.1-3.1c11.6,7.4,16.6,17.1,18.2,27.7c3.9,24.7-7.7,44.6-37.6,58.7
		c-6.5,3-12.7,6.3-19,9.5c-23,11.9-30.5,28.3-27.9,47.6c1.4,10.2,5.5,19.9,15,28c10.8,9.2,24.5,13.8,41.7,11
		c8.1-1.3,14.1-5.1,19.2-9.5c3.6-3,6.8-6.2,10.8-9.8c6.8,13.7,8.4,26.8-1,39.5c-9.4,12.7-33,17.2-51.6,9.7
		c-21.2-8.6-34.5-22-41.4-38.3c-13.9-32.6-4.9-61.4,29.7-86.1c12.1-8.6,23.3-18,33.1-27.9c11.3-11.4,13.2-24.3,6.2-37.6
		c-6.8-13-19.8-19.4-39.4-19.3C717.1,52.3,715.8,52.3,714.2,52.3z"/>
	<path class="st0" d="M714,749.7c35.7-0.2,56.1-21.2,45.1-45.8c-4.9-11-14.6-19.9-25.3-28.2c-6.3-4.9-12.9-9.5-19.4-14.2
		c-48.2-34.5-36.7-89.1,2.1-114.1c8.5-5.5,17.8-9.6,29.6-10.4c15.4-1,30.8,4.7,37.1,14.8c7.7,12.3,6.4,24.7-0.3,37.8
		c-3-2.9-5.4-5.2-8-7.6c-18.9-17.2-47.7-16.7-65.7,1.1c-23.6,23.3-16.5,57,15.7,74.2c7.6,4.1,15.5,7.8,23.2,11.7
		c37,18.7,39,50.9,26.7,71.3c-2.1,3.5-5.2,6.7-8.7,9.6C750.2,763.4,729.5,760.5,714,749.7z"/>
	<path class="st0" d="M724.3,260.6c5.8,3.5,12,6.7,17.4,10.4c17.6,12.4,33.7,25.8,45.5,41.4c11.9,15.7,15.4,32.3,11,49.7
		c-5.2,20.6-25.9,34.3-55.3,37.1c-16.4,1.5-32.6,1.2-48.1-3.3c-29.6-8.5-36.8-38.7-12.6-53.3c8.9-5.4,19.1-7.1,30.5-4.9
		c13.7,2.6,21.3,12.6,16.7,21.9c-1.1,2.3-3.7,4.2-5.6,6.3c-0.5-0.2-1-0.3-1.5-0.5c0.1-0.7,0.1-1.4,0.2-2.1c0.9-5.5-1.1-8.5-6.5-9.8
		c-5.8-1.4-12.4,0.4-16,4.5c-9.5,10.6-2.4,24.9,14.4,29.1c23.7,5.9,51.6-3.7,59.5-20.5c6.3-13.6,4.9-27.3-0.5-40.8
		c-7-17.7-19.9-33.1-35.6-47.7c-5.6-5.2-10.4-10.8-15.6-16.2C722.8,261.6,723.5,261.1,724.3,260.6z"/>
	<path class="st0" d="M721.7,435.9c6.6,2.5,8.3,6.2,8.7,10.3c1.3,13.8-17.8,22.7-37.7,17.6c-19.1-4.9-29.8-21.7-23.4-36.9
		c6-14.3,20.6-21.7,40.9-24c15.1-1.7,30.2-1.3,45,1.8c24.6,5.2,41.7,20.8,44.2,39.9c2.2,17.4-2.5,33.7-15.2,48.9
		c-13.4,16.1-31.3,29.6-49.7,42.8c-2.9,2.1-7.3,3-11.9,4.1c2.3-2.9,4.4-6,7.1-8.8c6.7-6.9,14.1-13.4,20.5-20.4
		c15.3-16.8,26.8-34.7,27.3-55.1c0.1-7-1.2-14.3-4.1-21c-7.2-16.7-35.4-26.1-59-20.3c-17.1,4.2-24.2,18.8-14.3,29.4
		c3.8,4,10.4,5.8,16.2,4.2c5.1-1.4,7-4.3,6.1-9.6C722.2,438,722.1,437.4,721.7,435.9z"/>
	<path class="st0" d="M78.1,436.6c-0.1,0.6-0.3,1.3-0.4,1.9c-1,5.4,1.1,8.5,6.4,9.8c5.8,1.4,12.3-0.4,16-4.5
		c10.2-11.3,1.5-26.5-17-29.7C55,409.3,29.5,421,24,441.5c-4.8,17.8,0.2,34.8,11.4,50.6c8.1,11.4,18.8,22,28.4,32.8
		c4.5,5.1,9.3,10,14,15c-0.5,0.4-0.9,0.7-1.4,1.1c-4.6-2.2-9.8-4-13.7-6.8c-15.6-11.1-30.5-22.6-42.6-35.8
		c-16.6-18-23.7-37.3-18.4-58.6c5.2-20.5,25.9-34.3,55.3-37.1c16.2-1.5,32.1-1.2,47.6,3.1c28.8,8.1,37.3,36.7,15.3,52.1
		c-9.1,6.4-20.1,8.7-32.6,6.3c-13.6-2.6-21.4-12.6-16.7-21.9c1.1-2.3,3.7-4.2,5.6-6.3C76.9,436.2,77.5,436.4,78.1,436.6z"/>
	<path class="st0" d="M78,262.2c-5.3,5.5-10.3,11.2-16,16.5c-17.5,16.3-31.6,33.8-37.5,54.1c-3.4,11.6-3.5,23.1,2,34.5
		c8,16.5,35.9,25.9,59.4,20c16.8-4.2,23.8-18.5,14.2-29.1c-3.7-4.1-10.2-5.9-16-4.5c-5.3,1.3-7.3,4.4-6.4,9.8
		c0.1,0.6,0.3,1.3,0.4,1.9c-0.5,0.2-1,0.4-1.5,0.6c-2-2.1-4.8-4.1-5.9-6.4c-6.4-13.2,11-25.4,31.8-22.3
		c16.6,2.4,28.8,13.4,29.9,26.7c1.5,18.2-15.1,31.9-42.8,35.2c-13.5,1.6-27.1,1.3-40.5-1c-27.3-4.7-45.7-20.2-48.4-40.5
		c-2.3-17.6,2.5-33.9,15.2-49.2c13.3-16,31.1-29.4,49.3-42.5c3-2.1,7.5-3.2,11.4-4.7C77,261.6,77.5,261.9,78,262.2z"/>
	<path class="st0" d="M128.2,258.5c11.4,10.1,13.6,26.4,5.1,36.8c-7.5,9.1-19.1,13.4-34.1,12.6c-12.8-0.7-21.3-5.8-24.2-15.2
		c-3.6-11.4-3.2-22.5,7.4-32.8c0.9,7.6,0.6,15.6,10.3,20.2c4.1,2,10.2,2.7,15.3,2.6C122.1,282.3,127.8,275.3,128.2,258.5z"/>
	<path class="st0" d="M82.1,541.7c-10-9.3-10.3-19.8-7.8-30.6c1.7-7.3,6.5-13.3,17.1-15.8c12.4-3,24-1.5,33.8,4.5
		c14.1,8.7,15.6,20,11.1,32c-1.5,4-4.4,7.7-7.7,11.2c-0.7-4.1-0.7-8.3-2.1-12.3c-2.6-7.6-10.1-11.5-21.1-11.6
		c-10.6-0.1-17.8,3.6-20.8,11.2C83.3,533.9,82.9,537.8,82.1,541.7z"/>
	<path class="st0" d="M671.8,543.5c-17-14.8-12.5-38,8.3-46.3c21-8.4,42.6-1,46,15.7c2.1,10.2,1.1,20.1-8.1,28.8
		c-5.5-19.3-10.3-23.5-25.9-22.5C677.8,520.1,672.1,526.8,671.8,543.5z"/>
	<path class="st0" d="M671.7,259.1c0.8,16.9,6.5,23.2,21.4,23.8c15.2,0.6,20.3-4.1,24.8-22.8c10.7,10.8,11.3,22.6,6.3,34.5
		c-5.9,14-31.5,18-48.9,7.9c-12.5-7.3-15.6-17.2-13.1-27.8c1.3-5.5,4.8-10.8,7.4-16.1C670.4,258.8,671.1,259,671.7,259.1z"/>
</g>
<g class="st1">
	<path class="st2" d="M295.9,750.8c-4.6,2-9,4.3-13.8,5.8c-12.5,4.1-24.1,2.9-34.4-3.8c-11.6-7.6-16.7-17.3-18.3-28.1
		c-3.8-24.8,8.2-44.5,38.1-58.5c6.3-2.9,12.4-6.1,18.5-9.3c23-11.9,30.6-28.3,28-47.6c-1.4-10.2-5.5-19.9-15-28
		c-10.6-9.1-24.1-13.6-41.1-11.2c-7.9,1.2-13.9,4.7-19.1,8.9c-3.9,3.2-7.4,6.6-11.7,10.5c-6.9-14.2-8.8-27.9,2.2-40.8
		c10.9-12.8,35.8-15.9,54.4-6.8c21.1,10.4,34,24.9,39.8,42.5c10.3,31-0.2,57.8-32.4,80.5c-11.7,8.3-22.6,17.4-32.1,26.9
		c-11.2,11.2-13.8,23.9-7.5,37.2c6.6,13.8,20,20.7,40.6,20.5c1.1,0,2.2,0,3.3,0C295.6,750.1,295.8,750.4,295.9,750.8z"/>
	<path class="st2" d="M227.2,212.5c4.3,3.9,7.6,7.2,11.4,10.3c15.4,12.3,37.2,13.2,54.6,2.2c14.4-9.2,19.7-21.4,21-34.6
		c2-19.5-7.6-35.4-30.9-46.7c-7.4-3.6-14.6-7.2-21.9-10.9c-36.3-18.6-38.8-50.8-26-71.5c5.2-8.4,13.3-15.4,26.6-17.7
		c13.3-2.3,23.9,2.3,35,8.7c-4.2,0-6.8-0.1-9.4,0c-14.4,0.5-25.3,5-32,14c-9.2,12.4-10,25.1-1.3,37.9c7.6,11.2,18.8,20.4,31.2,28.9
		c14.6,10,27.1,21,34.9,34.5c13,22.4,9.9,63.8-28.2,87.8c-8,5-16.8,8.7-27.8,9.5c-15.8,1.2-31.2-4.5-37.6-14.8
		C219.2,237.8,220.5,225.4,227.2,212.5z"/>
	<path class="st2" d="M924.2,52.3c12.9-10.9,33.9-12.1,48.1-3.1c11.6,7.4,16.6,17.1,18.2,27.7c3.9,24.7-7.7,44.6-37.6,58.7
		c-6.5,3-12.7,6.3-19,9.5c-23,11.9-30.5,28.3-27.9,47.6c1.4,10.2,5.5,19.9,15,28c10.8,9.2,24.5,13.8,41.7,11
		c8.1-1.3,14.1-5.1,19.2-9.5c3.6-3,6.8-6.2,10.8-9.8c6.8,13.7,8.4,26.8-1,39.5c-9.4,12.7-33,17.2-51.6,9.7
		c-21.2-8.6-34.5-22-41.4-38.3c-13.9-32.6-4.9-61.4,29.7-86.1c12.1-8.6,23.3-18,33.1-27.9c11.3-11.4,13.2-24.3,6.2-37.6
		c-6.8-13-19.8-19.4-39.4-19.3C927.1,52.3,925.8,52.3,924.2,52.3z"/>
	<path class="st2" d="M924,749.7c35.7-0.2,56.1-21.2,45.1-45.8c-4.9-11-14.6-19.9-25.3-28.2c-6.3-4.9-12.9-9.5-19.4-14.2
		c-48.2-34.5-36.7-89.1,2.1-114.1c8.5-5.5,17.8-9.6,29.6-10.4c15.4-1,30.8,4.7,37.1,14.8c7.7,12.3,6.4,24.7-0.3,37.8
		c-3-2.9-5.4-5.2-8-7.6c-18.9-17.2-47.7-16.7-65.7,1.1c-23.6,23.3-16.5,57,15.7,74.2c7.6,4.1,15.5,7.8,23.2,11.7
		c37,18.7,39,50.9,26.7,71.3c-2.1,3.5-5.2,6.7-8.7,9.6C960.2,763.4,939.5,760.5,924,749.7z"/>
	<path class="st2" d="M934.3,260.6c5.8,3.5,12,6.7,17.4,10.4c17.6,12.4,33.7,25.8,45.5,41.4c11.9,15.7,15.4,32.3,11,49.7
		c-5.2,20.6-25.9,34.3-55.3,37.1c-16.4,1.5-32.6,1.2-48.1-3.3c-29.6-8.5-36.8-38.7-12.6-53.3c8.9-5.4,19.1-7.1,30.5-4.9
		c13.7,2.6,21.3,12.6,16.7,21.9c-1.1,2.3-3.7,4.2-5.6,6.3c-0.5-0.2-1-0.3-1.5-0.5c0.1-0.7,0.1-1.4,0.2-2.1c0.9-5.5-1.1-8.5-6.5-9.8
		c-5.8-1.4-12.4,0.4-16,4.5c-9.5,10.6-2.4,24.9,14.4,29.1c23.7,5.9,51.6-3.7,59.5-20.5c6.3-13.6,4.9-27.3-0.5-40.8
		c-7-17.7-19.9-33.1-35.6-47.7c-5.6-5.2-10.4-10.8-15.6-16.2C932.8,261.6,933.5,261.1,934.3,260.6z"/>
	<path class="st2" d="M931.7,435.9c6.6,2.5,8.3,6.2,8.7,10.3c1.3,13.8-17.8,22.7-37.7,17.6c-19.1-4.9-29.8-21.7-23.4-36.9
		c6-14.3,20.6-21.7,40.9-24c15.1-1.7,30.2-1.3,45,1.8c24.6,5.2,41.7,20.8,44.2,39.9c2.2,17.4-2.5,33.7-15.2,48.9
		c-13.4,16.1-31.3,29.6-49.7,42.8c-2.9,2.1-7.3,3-11.9,4.1c2.3-2.9,4.4-6,7.1-8.8c6.7-6.9,14.1-13.4,20.5-20.4
		c15.3-16.8,26.8-34.7,27.3-55.1c0.1-7-1.2-14.3-4.1-21c-7.2-16.7-35.4-26.1-59-20.3c-17.1,4.2-24.2,18.8-14.3,29.4
		c3.8,4,10.4,5.8,16.2,4.2c5.1-1.4,7-4.3,6.1-9.6C932.2,438,932.1,437.4,931.7,435.9z"/>
	<path class="st2" d="M288.1,436.6c-0.1,0.6-0.3,1.3-0.4,1.9c-1,5.4,1.1,8.5,6.4,9.8c5.8,1.4,12.3-0.4,16-4.5
		c10.2-11.3,1.5-26.5-17-29.7c-28.1-4.9-53.5,6.8-59.1,27.3c-4.8,17.8,0.2,34.8,11.4,50.6c8.1,11.4,18.8,22,28.4,32.8
		c4.5,5.1,9.3,10,14,15c-0.5,0.4-0.9,0.7-1.4,1.1c-4.6-2.2-9.8-4-13.7-6.8c-15.6-11.1-30.5-22.6-42.6-35.8
		c-16.6-18-23.7-37.3-18.4-58.6c5.2-20.5,25.9-34.3,55.3-37.1c16.2-1.5,32.1-1.2,47.6,3.1c28.8,8.1,37.3,36.7,15.3,52.1
		c-9.1,6.4-20.1,8.7-32.6,6.3c-13.6-2.6-21.4-12.6-16.7-21.9c1.1-2.3,3.7-4.2,5.6-6.3C286.9,436.2,287.5,436.4,288.1,436.6z"/>
	<path class="st2" d="M288,262.2c-5.3,5.5-10.3,11.2-16,16.5c-17.5,16.3-31.6,33.8-37.5,54.1c-3.4,11.6-3.5,23.1,2,34.5
		c8,16.5,35.9,25.9,59.4,20c16.8-4.2,23.8-18.5,14.2-29.1c-3.7-4.1-10.2-5.9-16-4.5c-5.3,1.3-7.3,4.4-6.4,9.8
		c0.1,0.6,0.3,1.3,0.4,1.9c-0.5,0.2-1,0.4-1.5,0.6c-2-2.1-4.8-4.1-5.9-6.4c-6.4-13.2,11-25.4,31.8-22.3
		c16.6,2.4,28.8,13.4,29.9,26.7c1.5,18.2-15.1,31.9-42.8,35.2c-13.5,1.6-27.1,1.3-40.5-1c-27.3-4.7-45.7-20.2-48.4-40.5
		c-2.3-17.6,2.5-33.9,15.2-49.2c13.3-16,31.1-29.4,49.3-42.5c3-2.1,7.5-3.2,11.4-4.7C287,261.6,287.5,261.9,288,262.2z"/>
	<path class="st2" d="M430.3,768c-9.9,1.2-14.7,4.4-15.6,10.5c-0.7,4.8,1,9.2,7.2,11.7c7.4,3,15.1,2.5,22-1
		c9.7-4.9,11.4-11.8,9.4-19.7c-5.2-19.9-32.8-27.3-55-14.5c-5,2.9-8.8,6.9-12.8,10.6c-5.3,4.9-9.9,10.2-15.2,15.1
		c-13,12.1-30.5,15.4-50.8,12.4c-18.3-2.7-33-18.6-29.1-31.4c0.9-2.9,3.3-5.6,6.3-8.1c0,0.7,0.1,1.5,0,2.2
		c-3.4,15.7,14.8,24.5,33.7,23.7c12.7-0.5,22.8-5,31.8-10.9c8.1-5.3,15.8-10.9,24.1-16.1c13.7-8.6,29.9-12.6,48.3-11.2
		c15.7,1.2,27.7,6.5,33,17.4c5.9,12.1,5,24-8,33.8c-11.1,8.4-25.5,10.9-41.1,7.8c-18.2-3.6-26.4-17.5-17.8-28.9
		C406.9,763.3,422.5,761.5,430.3,768z"/>
	<path class="st2" d="M430.8,33.9c-9.9,6.8-25.2,4.4-30.8-4.4c-8.1-12.6,3.5-26.9,23.4-28.8c24.7-2.3,45.4,9.4,47.2,26.7
		c2,19.9-13.9,33-40.4,33.5c-16.1,0.3-30.3-3.2-42.3-10.6c-8.2-5-15.8-10.5-23.8-15.7c-9-6-18.9-10.9-31.8-11.9
		c-18.4-1.5-39.7,6.9-35.5,24.3c0.1,0.5,0,1,0,2.1c-7-5.4-8-11.3-6.3-17.6c6.4-22.7,46.4-31.8,71.5-16.1c6.1,3.9,11,8.8,16.1,13.5
		c5,4.6,9.1,9.6,14.2,14c8,7,18.8,10.5,31.6,10.3C438.1,53,449.5,45,453.1,33c1.5-4.9,1.6-9.8-1.9-14.4c-3.3-4.3-8.1-7.2-15.1-8.2
		c-10.8-1.5-19.7,2.2-21.3,8.9C412.9,27.2,418.9,32.8,430.8,33.9z"/>
	<path class="st2" d="M923.3,49.1c-0.1-1-0.2-1.5-0.1-1.9c4.8-17.8-18.3-27.8-40.8-23.9c-10.1,1.7-18.3,5.9-25.7,10.8
		c-7.8,5.2-15.3,10.5-23.3,15.5c-10.6,6.6-22.9,10.6-37.3,11.2c-42,1.8-52.1-22.7-44.7-40.3C757.5,5.7,781.1-3,801.8,1.7
		c16.8,3.8,25,15.9,18.5,27.3C815,38.2,799,41,789.3,33.9c9.4-0.1,14.4-3.7,15.9-9.7c1.1-4.4-0.1-8.6-5.4-11.5
		c-5.9-3.2-12.6-3.3-19.3-1.5c-9.5,2.5-15.5,9.8-14.5,17.5c0.3,2.2,0.9,4.3,1.8,6.4c8.3,19.5,36.3,24.6,56.8,10.2
		c5.6-3.9,9.5-8.9,14.4-13.3c6.3-5.7,11.9-12,19.5-16.7c24.9-15.5,64.8-6.1,71,16.4C931.2,37.7,930.1,43.6,923.3,49.1z"/>
	<path class="st2" d="M789.6,768.1c7.7-6.7,23.7-4.8,29.8,3.6c9.1,12.6-2.5,27.6-22.9,29.5c-24.5,2.3-45.1-9.2-47.1-26.2
		c-2.4-20,13.7-33.4,40.4-33.9c16.5-0.3,30.9,3.5,43.2,11.1c8.3,5.1,16,10.7,24.1,16.1c8.7,5.7,18.3,10.1,30.5,11.1
		c18.6,1.6,39.7-7,35.5-24.3c-0.1-0.5,0-1,0-2.3c8.3,7.1,8.3,14.3,4.7,21.7c-9.7,19.8-46.8,26.5-69.6,12.3
		c-7.1-4.5-12.5-10.4-18.5-15.7c-3.9-3.6-7.2-7.5-11.1-11.1c-6.5-6-15.2-9.7-25.8-10.9c-12-1.3-22,1.1-28.8,8.4
		c-6.3,6.7-10.1,14-7.3,22.1c2.1,6.2,7.6,10.4,16.6,11.9c11,1.8,20.2-2,21.8-8.9C807.1,774.8,801.1,769.2,789.6,768.1z"/>
	<path class="st2" d="M338.2,258.5c11.4,10.1,13.6,26.4,5.1,36.8c-7.5,9.1-19.1,13.4-34.1,12.6c-12.8-0.7-21.3-5.8-24.2-15.2
		c-3.6-11.4-3.2-22.5,7.4-32.8c0.9,7.6,0.6,15.6,10.3,20.2c4.1,2,10.2,2.7,15.3,2.6C332.1,282.3,337.8,275.3,338.2,258.5z"/>
	<path class="st2" d="M292.1,541.7c-10-9.3-10.3-19.8-7.8-30.6c1.7-7.3,6.5-13.3,17.1-15.8c12.4-3,24-1.5,33.8,4.5
		c14.1,8.7,15.6,20,11.1,32c-1.5,4-4.4,7.7-7.7,11.2c-0.7-4.1-0.7-8.3-2.1-12.3c-2.6-7.6-10.1-11.5-21.1-11.6
		c-10.6-0.1-17.8,3.6-20.8,11.2C293.3,533.9,292.9,537.8,292.1,541.7z"/>
	<path class="st2" d="M881.8,543.5c-17-14.8-12.5-38,8.3-46.3c21-8.4,42.6-1,46,15.7c2.1,10.2,1.1,20.1-8.1,28.8
		c-5.5-19.3-10.3-23.5-25.9-22.5C887.8,520.1,882.1,526.8,881.8,543.5z"/>
	<path class="st2" d="M881.7,259.1c0.8,16.9,6.5,23.2,21.4,23.8c15.2,0.6,20.3-4.1,24.8-22.8c10.7,10.8,11.3,22.6,6.3,34.5
		c-5.9,14-31.5,18-48.9,7.9c-12.5-7.3-15.6-17.2-13.1-27.8c1.3-5.5,4.8-10.8,7.4-16.1C880.4,258.8,881.1,259,881.7,259.1z"/>
	<path class="st2" d="M681.9,779.6c0.3-0.7,0.5-1.2,0.7-1.7c2.3-4.3,1-7-3.8-8c-5.5-1.1-11.1,1.3-12.3,5.3
		c-1.5,5.1,2.9,10.6,11.5,12.8c16.3,4.1,31.8,2.9,44.1-6.2c7.5-5.6,13.3-12.4,19.7-18.7c3.4-3.3,6.4-6.8,9.9-10.1
		c-4.4,11.5-9,22.9-19.1,32.7c-12.6,12.2-29.3,18.2-50.9,15.5c-18.6-2.4-30.5-15.4-25.6-27.5c3.5-8.6,16.8-12.7,27.9-8.6
		c4.9,1.8,7.3,5,6.4,8.5c-0.5,2.2-3.8,4-5.9,5.9C684.2,779.8,683.1,779.6,681.9,779.6z"/>
	<path class="st2" d="M466.7,48.3c6-9.7,11.2-19.7,18.2-29c8.3-11,22.1-17.4,39.9-19c19.8-1.8,37,6.7,39.8,19.9
		c1.3,6-0.5,11.6-7.6,15.6c-5.7,3.2-12.5,3.5-19.4,1.8c-5.6-1.4-8.3-4.5-8.3-8.5c0-3.1,1.8-5.6,6.5-6.5c0.5-0.1,1.1,0,2.1,0.1
		c-0.2,0.6-0.5,1.1-0.5,1.5c0.1,2.3-0.7,5.1,0.8,6.7c1.2,1.2,6.1,1.9,8.2,1.2c2.9-1,5.9-3.3,6.8-5.4c2-5-2.8-10.2-11.1-12.4
		c-13.9-3.6-27.5-3.1-39.8,3.3c-10.5,5.5-17.4,13.2-23.9,21c-3,3.6-6.5,7.1-9.7,10.6C468.1,48.8,467.4,48.5,466.7,48.3z"/>
	<path class="st2" d="M751.3,49.1c-3.1-3.3-6-6.7-9.2-9.9c-6.4-6.3-12.2-13.1-19.7-18.7c-12.1-9.1-27.6-10.5-44-6.5
		c-6,1.4-10.4,4.3-11.8,8.9c-0.4,1.3-0.4,2.8,0,4.1c1.1,4,6.9,6.4,12.4,5.2c5-1.1,5.9-3.9,3.1-9.2c5.2-0.3,8.5,2,8.6,6
		c0,4-3.4,7.4-8.9,8.7c-13.7,3.3-26.1-3.1-26.7-13.8c-0.8-14.3,18.4-25.6,40.1-23.6c15,1.4,27.3,6.2,36.2,14.9
		c7.7,7.5,13.5,15.6,16.6,24.7c1,3,2.7,5.9,4.1,8.9C751.9,48.8,751.6,48.9,751.3,49.1z"/>
	<path class="st2" d="M483.4,782.3c-1.2-1.8-2.4-3.7-3.5-5.5c-2.4-3.9-4.9-7.7-6.9-11.7c-1.9-3.8-3.3-7.8-4.3-12.1
		c3.1,3.3,6,6.7,9.3,9.8c6.7,6.5,12.8,13.5,20.5,19.3c11,8.3,25.4,9.4,40.4,6.6c6.4-1.2,11.7-3.7,14-8.5c2.4-4.9-0.7-9.8-6.9-10.4
		c-2.6-0.3-6.3,0.2-7.9,1.4c-1.5,1.2-1.2,3.7-1.3,5.6c-0.1,0.7,0.8,1.5,1.3,2.3c-5.6,0.2-8.8-2.1-8.8-6.1c0-4.2,3.6-7.5,9.6-8.8
		c13.7-2.9,25.5,3.4,26.1,14c0.8,14.3-18.4,25.5-40.2,23.5c-15.9-1.5-28.4-6.9-37.6-16.2c-1.2-1.2-2.6-2.3-3.9-3.4
		C483.2,782.2,483.4,782.3,483.4,782.3z"/>
	<path class="st2" d="M617.4,766.9c1.7,14.9,11.7,19.7,35.5,17.7c0.2,2.8-3.3,5.1-10.3,6.5c-11.1,2.3-22.7-0.4-27.8-6.5
		C610.1,779,609.9,770.2,617.4,766.9z"/>
	<path class="st2" d="M566.7,17.9c0.6-3.7,5.6-6.4,12.7-7.3c11.8-1.5,21.6,1.2,26.2,7.4c4.3,5.7,4,13.9-3,17.2
		c-0.4-6.5-2.8-12.2-10.8-15.8C584.2,16,575.8,15.8,566.7,17.9z"/>
	<path class="st2" d="M617.6,35.1c-6.8-4-8-10-3.6-16.5c4.5-6.7,14.5-9.7,26.7-8c7.2,1,12.1,3.7,12.4,7.2c-8.8-2-17.3-1.9-25,1.6
		C620.2,23.1,617.4,28.6,617.6,35.1z"/>
	<path class="st2" d="M602.6,766.9c7.2,3.3,7.5,11.8,2.5,17.7c-5,6-16.6,8.7-27.8,6.4c-6.9-1.4-10.5-3.7-10.3-6.5
		C591,786.6,601,781.7,602.6,766.9z"/>
</g>
<g class="st1">
	<path class="st2" d="M184.2,86.8c-1.2-4.6-2.6-9-3.6-13.8c-2.5-12.5-1.8-24.1,2.4-34.4c4.7-11.6,10.7-16.7,17.3-18.3
		c15.3-3.8,27.5,8.2,36.1,38.1c1.8,6.3,3.8,12.4,5.7,18.5c7.3,23,17.5,30.6,29.4,28c6.3-1.4,12.3-5.5,17.3-15
		c5.6-10.6,8.4-24.1,6.9-41.1c-0.7-7.9-2.9-13.9-5.5-19.1c-2-3.9-4.1-7.4-6.5-11.7c8.8-6.9,17.2-8.8,25.2,2.2
		c7.9,10.9,9.8,35.8,4.2,54.4c-6.4,21.1-15.4,34-26.2,39.8c-19.1,10.3-35.6-0.2-49.7-32.4C232,70.3,226.4,59.5,220.5,50
		c-6.9-11.2-14.7-13.8-22.9-7.5c-8.5,6.6-12.8,20-12.7,40.6c0,1.1,0,2.2,0,3.3C184.6,86.5,184.4,86.7,184.2,86.8z"/>
	<path class="st2" d="M516.3,18.1c-2.4,4.3-4.5,7.6-6.4,11.4c-7.6,15.4-8.1,37.2-1.3,54.6c5.7,14.4,13.2,19.7,21.3,21
		c12,2,21.8-7.6,28.8-30.9c2.2-7.4,4.5-14.6,6.7-21.9c11.5-36.3,31.3-38.8,44.1-26c5.2,5.2,9.5,13.3,10.9,26.6
		c1.4,13.3-1.4,23.9-5.4,35c0-4.2,0-6.8,0-9.4c-0.3-14.4-3.1-25.3-8.6-32c-7.6-9.2-15.5-10-23.4-1.3c-6.9,7.6-12.6,18.8-17.8,31.2
		c-6.2,14.6-12.9,27.1-21.3,34.9c-13.8,13-39.3,9.9-54.2-28.2c-3.1-8-5.4-16.8-5.8-27.8c-0.7-15.8,2.8-31.2,9.1-37.6
		C500.7,10.1,508.3,11.4,516.3,18.1z"/>
	<path class="st2" d="M615.1,715.1c6.7,12.9,7.5,33.9,1.9,48.1c-4.6,11.6-10.5,16.6-17.1,18.2c-15.3,3.9-27.5-7.7-36.2-37.6
		c-1.9-6.5-3.9-12.7-5.9-19c-7.3-23-17.5-30.5-29.4-27.9c-6.3,1.4-12.3,5.5-17.3,15c-5.7,10.8-8.5,24.5-6.8,41.7
		c0.8,8.1,3.2,14.1,5.9,19.2c1.9,3.6,3.8,6.8,6.1,10.8c-8.4,6.8-16.5,8.4-24.3-1c-7.8-9.4-10.6-33-6-51.6
		c5.3-21.2,13.6-34.5,23.6-41.4c20.1-13.9,37.9-4.9,53.1,29.7c5.3,12.1,11.1,23.3,17.2,33.1c7,11.3,15,13.2,23.2,6.2
		c8-6.8,12-19.8,11.9-39.4C615.1,718,615.1,716.7,615.1,715.1z"/>
	<path class="st2" d="M184.9,714.9c0.1,35.7,13.1,56.1,28.3,45.1c6.8-4.9,12.3-14.6,17.4-25.3c3-6.3,5.9-12.9,8.7-19.4
		c21.3-48.2,55-36.7,70.4,2.1c3.4,8.5,5.9,17.8,6.4,29.6c0.6,15.4-2.9,30.8-9.1,37.1c-7.6,7.7-15.3,6.4-23.3-0.3
		c1.8-3,3.2-5.4,4.7-8c10.6-18.9,10.3-47.7-0.7-65.7c-14.3-23.6-35.1-16.5-45.8,15.7c-2.5,7.6-4.8,15.5-7.2,23.2
		c-11.6,37-31.4,39-44,26.7c-2.1-2.1-4.2-5.2-6-8.7C176.4,751.1,178.2,730.4,184.9,714.9z"/>
	<path class="st2" d="M486.6,725.2c-2.1,5.8-4.1,12-6.4,17.4c-7.7,17.6-15.9,33.7-25.5,45.5c-9.7,11.9-19.9,15.4-30.7,11
		c-12.7-5.2-21.2-25.9-22.9-55.3c-0.9-16.4-0.8-32.6,2-48.1C408.3,666,427,658.8,436,683c3.3,8.9,4.4,19.1,3,30.5
		c-1.6,13.7-7.8,21.3-13.5,16.7c-1.4-1.1-2.6-3.7-3.9-5.6c0.1-0.5,0.2-1,0.3-1.5c0.4,0.1,0.9,0.1,1.3,0.2c3.4,0.9,5.2-1.1,6-6.5
		c0.9-5.8-0.3-12.4-2.8-16c-6.6-9.5-15.4-2.4-17.9,14.4c-3.6,23.7,2.3,51.6,12.6,59.5c8.4,6.3,16.8,4.9,25.2-0.5
		c10.9-7,20.4-19.9,29.4-35.6c3.2-5.6,6.6-10.4,10-15.6C486,723.7,486.3,724.4,486.6,725.2z"/>
	<path class="st2" d="M378.5,722.6c-1.6,6.6-3.8,8.3-6.3,8.7c-8.5,1.3-14-17.8-10.8-37.7c3-19.1,13.4-29.8,22.8-23.4
		c8.9,6,13.4,20.6,14.8,40.9c1,15.1,0.8,30.2-1.1,45c-3.2,24.6-12.8,41.7-24.6,44.2c-10.8,2.2-20.8-2.5-30.1-15.2
		c-10-13.4-18.2-31.3-26.4-49.7c-1.3-2.9-1.9-7.3-2.5-11.9c1.8,2.3,3.7,4.4,5.4,7.1c4.2,6.7,8.3,14.1,12.6,20.5
		c10.4,15.3,21.4,26.8,34,27.3c4.3,0.1,8.8-1.2,12.9-4.1c10.3-7.2,16.1-35.4,12.5-59c-2.6-17.1-11.6-24.2-18.1-14.3
		c-2.5,3.8-3.6,10.4-2.6,16.2c0.9,5.1,2.7,7,5.9,6.1C377.1,723.1,377.6,723,378.5,722.6z"/>
	<path class="st2" d="M378,79c-0.4-0.1-0.8-0.3-1.2-0.4c-3.3-1-5.2,1.1-6.1,6.4c-0.9,5.8,0.2,12.3,2.8,16c7,10.2,16.3,1.5,18.3-17
		c3-28.1-4.2-53.5-16.9-59.1c-11-4.8-21.5,0.2-31.2,11.4c-7,8.1-13.6,18.8-20.3,28.4c-3.1,4.5-6.2,9.3-9.2,14
		c-0.2-0.5-0.4-0.9-0.7-1.4c1.4-4.6,2.5-9.8,4.2-13.7c6.9-15.6,13.9-30.5,22.1-42.6C351,4.4,362.9-2.7,376,2.7
		c12.6,5.2,21.2,25.9,22.9,55.3c0.9,16.2,0.8,32.1-1.9,47.6c-5,28.8-22.6,37.3-32.1,15.3c-3.9-9.1-5.3-20.1-3.9-32.6
		c1.6-13.6,7.8-21.4,13.5-16.7c1.4,1.1,2.6,3.7,3.9,5.6C378.3,77.8,378.2,78.4,378,79z"/>
	<path class="st2" d="M485.7,78.9c-3.4-5.3-6.9-10.3-10.2-16c-10.1-17.5-20.9-31.6-33.4-37.5c-7.1-3.4-14.3-3.5-21.3,2
		c-10.2,8-15.9,35.9-12.3,59.4c2.6,16.8,11.4,23.8,18,14.2c2.5-3.7,3.7-10.2,2.8-16c-0.8-5.3-2.7-7.3-6.1-6.4
		c-0.4,0.1-0.8,0.3-1.2,0.4c-0.1-0.5-0.3-1-0.4-1.5c1.3-2,2.5-4.8,3.9-5.9c8.2-6.4,15.7,11,13.8,31.8c-1.5,16.6-8.2,28.8-16.5,29.9
		c-11.2,1.5-19.7-15.1-21.7-42.8c-1-13.5-0.8-27.1,0.6-40.5c2.9-27.3,12.5-45.7,25-48.4c10.8-2.3,20.9,2.5,30.4,15.2
		c9.9,13.3,18.1,31.1,26.2,49.3c1.3,3,2,7.5,2.9,11.4C486,77.9,485.8,78.4,485.7,78.9z"/>
	<path class="st2" d="M173.6,221.2c-0.7-9.9-2.7-14.7-6.5-15.6c-3-0.7-5.7,1-7.2,7.2c-1.8,7.4-1.5,15.1,0.6,22
		c3,9.7,7.3,11.4,12.2,9.4c12.3-5.2,16.8-32.8,8.9-55c-1.8-5-4.2-8.8-6.5-12.8c-3-5.3-6.3-9.9-9.3-15.2c-7.4-13-9.5-30.5-7.6-50.8
		c1.6-18.3,11.5-33,19.4-29.1c1.8,0.9,3.5,3.3,5,6.3c-0.5,0-0.9,0.1-1.4,0c-9.7-3.4-15.1,14.8-14.6,33.7c0.3,12.7,3.1,22.8,6.7,31.8
		c3.3,8.1,6.7,15.8,9.9,24.1c5.3,13.7,7.8,29.9,6.9,48.3c-0.8,15.7-4,27.7-10.7,33c-7.5,5.9-14.8,5-20.9-8
		c-5.2-11.1-6.7-25.5-4.8-41.1c2.2-18.2,10.8-26.4,17.8-17.8C176.5,197.8,177.6,213.4,173.6,221.2z"/>
	<path class="st2" d="M626.5,221.7c-4.2-9.9-2.7-25.2,2.7-30.8c7.8-8.1,16.6,3.5,17.7,23.4c1.4,24.7-5.8,45.4-16.4,47.2
		c-12.3,2-20.4-13.9-20.7-40.4c-0.2-16.1,2-30.3,6.5-42.3c3.1-8.2,6.5-15.8,9.7-23.8c3.7-9,6.7-18.9,7.4-31.8
		c0.9-18.4-4.2-39.7-15-35.5c-0.3,0.1-0.6,0-1.3,0c3.3-7,7-8,10.8-6.3c14,6.4,19.6,46.4,9.9,71.5c-2.4,6.1-5.4,11-8.3,16.1
		c-2.8,5-5.9,9.1-8.7,14.2c-4.3,8-6.5,18.8-6.4,31.6c0.1,14.2,5.1,25.6,12.5,29.2c3.1,1.5,6,1.6,8.9-1.9c2.7-3.3,4.5-8.1,5.1-15.1
		c0.9-10.8-1.3-19.7-5.5-21.3C630.6,203.8,627.1,209.8,626.5,221.7z"/>
	<path class="st2" d="M617.1,714.2c0.6-0.1,0.9-0.2,1.1-0.1c11,4.8,17.1-18.3,14.8-40.8c-1.1-10.1-3.6-18.3-6.7-25.7
		c-3.2-7.8-6.5-15.3-9.6-23.3c-4.1-10.6-6.5-22.9-6.9-37.3c-1.1-42,14-52.1,24.9-44.7c9.1,6.1,14.5,29.7,11.6,50.5
		c-2.3,16.8-9.8,25-16.8,18.5c-5.8-5.3-7.5-21.4-3.1-31.1c0.1,9.4,2.3,14.4,6,15.9c2.7,1.1,5.3-0.1,7.1-5.4c2-5.9,2-12.6,0.9-19.3
		c-1.6-9.5-6-15.5-10.8-14.5c-1.3,0.3-2.7,0.9-4,1.8c-12,8.3-15.2,36.3-6.3,56.8c2.4,5.6,5.5,9.5,8.2,14.4
		c3.5,6.3,7.4,11.9,10.3,19.5c9.6,24.9,3.8,64.8-10.1,71C624.1,722.1,620.5,721,617.1,714.2z"/>
	<path class="st2" d="M173.5,580.5c4.2,7.7,3,23.7-2.2,29.8c-7.8,9.1-17-2.5-18.2-22.9c-1.4-24.5,5.7-45.1,16.2-47.1
		c12.3-2.4,20.6,13.7,20.9,40.4c0.2,16.5-2.2,30.9-6.8,43.2c-3.2,8.3-6.6,16-9.9,24.1c-3.5,8.7-6.2,18.3-6.9,30.5
		c-1,18.6,4.3,39.7,15,35.5c0.3-0.1,0.6,0,1.4,0c-4.3,8.3-8.8,8.3-13.4,4.7c-12.2-9.7-16.4-46.8-7.6-69.6c2.8-7.1,6.4-12.5,9.7-18.5
		c2.2-3.9,4.6-7.2,6.8-11.1c3.7-6.5,6-15.2,6.7-25.8c0.8-12-0.7-22-5.2-28.8c-4.1-6.3-8.6-10.1-13.6-7.3c-3.8,2.1-6.4,7.6-7.3,16.6
		c-1.1,11,1.2,20.2,5.5,21.8C169.4,598,172.8,592,173.5,580.5z"/>
	<path class="st2" d="M487.9,129.1c-6.3,11.4-16.3,13.6-22.7,5.1c-5.6-7.5-8.3-19.1-7.8-34.1c0.4-12.8,3.6-21.3,9.4-24.2
		c7-3.6,13.9-3.2,20.3,7.4c-4.7,0.9-9.6,0.6-12.4,10.3c-1.2,4.1-1.7,10.2-1.6,15.3C473.3,123,477.6,128.7,487.9,129.1z"/>
	<path class="st2" d="M313.2,83c5.8-10,12.2-10.3,18.9-7.8c4.5,1.7,8.2,6.5,9.8,17.1c1.8,12.4,0.9,24-2.8,33.8
		c-5.4,14.1-12.3,15.6-19.7,11.1c-2.5-1.5-4.7-4.4-6.9-7.7c2.5-0.7,5.1-0.7,7.6-2.1c4.7-2.6,7.1-10.1,7.2-21.1
		c0.1-10.6-2.2-17.8-6.9-20.8C318,84.2,315.6,83.8,313.2,83z"/>
	<path class="st2" d="M312.1,672.7c9.2-17,23.5-12.5,28.6,8.3c5.2,21,0.6,42.6-9.7,46c-6.3,2.1-12.4,1.1-17.8-8.1
		c11.9-5.5,14.5-10.3,13.9-25.9C326.5,678.7,322.4,673,312.1,672.7z"/>
	<path class="st2" d="M487.5,672.6c-10.4,0.8-14.3,6.5-14.7,21.4c-0.4,15.2,2.5,20.3,14,24.8c-6.7,10.7-14,11.3-21.3,6.3
		c-8.7-5.9-11.1-31.5-4.9-48.9c4.5-12.5,10.6-15.6,17.2-13.1c3.4,1.3,6.6,4.8,10,7.4C487.7,671.3,487.6,672,487.5,672.6z"/>
	<path class="st2" d="M166.4,472.8c0.5,0.3,0.7,0.5,1,0.7c2.7,2.3,4.3,1,5-3.8c0.7-5.5-0.8-11.1-3.3-12.3c-3.2-1.5-6.5,2.9-7.9,11.5
		c-2.5,16.3-1.8,31.8,3.8,44.1c3.5,7.5,7.6,13.3,11.5,19.7c2,3.4,4.2,6.4,6.2,9.9c-7.1-4.4-14.2-9-20.2-19.1
		c-7.5-12.6-11.2-29.3-9.5-50.9c1.5-18.6,9.5-30.5,17-25.6c5.3,3.5,7.8,16.8,5.3,27.9c-1.1,4.9-3.1,7.3-5.2,6.4
		c-1.3-0.5-2.5-3.8-3.7-5.9C166.3,475.1,166.4,474,166.4,472.8z"/>
	<path class="st2" d="M617.6,257.6c6,6,12.2,11.2,17.9,18.2c6.8,8.3,10.7,22.1,11.7,39.9c1.1,19.8-4.2,37-12.3,39.8
		c-3.7,1.3-7.2-0.5-9.6-7.6c-2-5.7-2.2-12.5-1.1-19.4c0.9-5.6,2.8-8.3,5.3-8.3c1.9,0,3.5,1.8,4,6.5c0.1,0.5,0,1.1,0,2.1
		c-0.4-0.2-0.6-0.5-0.9-0.5c-1.4,0.1-3.1-0.7-4.1,0.8c-0.8,1.2-1.2,6.1-0.7,8.2c0.6,2.9,2,5.9,3.3,6.8c3.1,2,6.3-2.8,7.6-11.1
		c2.2-13.9,1.9-27.5-2.1-39.8c-3.4-10.5-8.1-17.4-13-23.9c-2.2-3-4.4-6.5-6.6-9.7C617.3,259,617.5,258.3,617.6,257.6z"/>
	<path class="st2" d="M617.1,542.2c2-3.1,4.1-6,6.1-9.2c3.9-6.4,8.1-12.2,11.6-19.7c5.6-12.1,6.5-27.6,4-44
		c-0.9-6-2.7-10.4-5.5-11.8c-0.8-0.4-1.7-0.4-2.5,0c-2.5,1.1-4,6.9-3.2,12.4c0.7,5,2.4,5.9,5.7,3.1c0.2,5.2-1.2,8.5-3.7,8.6
		c-2.5,0-4.6-3.4-5.4-8.9c-2-13.7,1.9-26.1,8.5-26.7c8.8-0.8,15.8,18.4,14.5,40.1c-0.9,15-3.8,27.3-9.2,36.2
		c-4.6,7.7-9.6,13.5-15.2,16.6c-1.9,1-3.7,2.7-5.5,4.1C617.3,542.8,617.2,542.5,617.1,542.2z"/>
	<path class="st2" d="M164.7,274.3c1.1-1.2,2.3-2.4,3.4-3.5c2.4-2.4,4.8-4.9,7.2-6.9c2.4-1.9,4.8-3.3,7.4-4.3c-2,3.1-4.1,6-6.1,9.3
		c-4,6.7-8.3,12.8-11.9,20.5c-5.1,11-5.8,25.4-4.1,40.4c0.7,6.4,2.3,11.7,5.2,14c3,2.4,6-0.7,6.4-6.9c0.2-2.6-0.1-6.3-0.9-7.9
		c-0.7-1.5-2.3-1.2-3.5-1.3c-0.4-0.1-0.9,0.8-1.4,1.3c-0.1-5.6,1.3-8.8,3.8-8.8c2.6,0,4.6,3.6,5.4,9.6c1.8,13.7-2.1,25.5-8.6,26.1
		c-8.8,0.8-15.7-18.4-14.5-40.2c0.9-15.9,4.3-28.4,10-37.6c0.7-1.2,1.4-2.6,2.1-3.9C164.8,274.1,164.7,274.3,164.7,274.3z"/>
	<path class="st2" d="M174.3,408.3c-9.2,1.7-12.2,11.7-10.9,35.5c-1.8,0.2-3.1-3.3-4-10.3c-1.4-11.1,0.2-22.7,4-27.8
		C166.8,401,172.2,400.8,174.3,408.3z"/>
	<path class="st2" d="M636.3,357.6c2.3,0.6,3.9,5.6,4.5,12.7c0.9,11.8-0.8,21.6-4.6,26.2c-3.5,4.3-8.6,4-10.6-3
		c4-0.4,7.5-2.8,9.7-10.8C637.5,375.1,637.7,366.7,636.3,357.6z"/>
	<path class="st2" d="M625.7,408.5c2.5-6.8,6.2-8,10.2-3.6c4.1,4.5,6,14.5,4.9,26.7c-0.6,7.2-2.3,12.1-4.5,12.4
		c1.2-8.8,1.2-17.3-1-25C633.2,411.1,629.8,408.3,625.7,408.5z"/>
	<path class="st2" d="M174.2,393.5c-2,7.2-7.3,7.5-10.9,2.5c-3.7-5-5.4-16.6-4-27.8c0.9-6.9,2.3-10.5,4-10.3
		C162.1,381.9,165.1,391.9,174.2,393.5z"/>
</g>
<g>
	<path class="st0" d="M50.2,87c-2-4.6-4.3-9-5.8-13.8c-4.1-12.5-2.9-24.1,3.8-34.4c7.6-11.6,17.3-16.7,28.1-18.3
		c24.8-3.8,44.5,8.2,58.5,38.1c2.9,6.3,6.1,12.4,9.3,18.5c11.9,23,28.3,30.6,47.6,28c10.2-1.4,19.9-5.5,28-15
		c9.1-10.6,13.6-24.1,11.2-41.1c-1.2-7.9-4.7-13.9-8.9-19.1c-3.2-3.9-6.6-7.4-10.5-11.7c14.2-6.9,27.9-8.8,40.8,2.2
		c12.8,10.9,15.9,35.8,6.8,54.4c-10.4,21.1-24.9,34-42.5,39.8c-31,10.3-57.8-0.2-80.5-32.4c-8.3-11.7-17.4-22.6-26.9-32.1
		c-11.2-11.2-23.9-13.8-37.2-7.5c-13.8,6.6-20.7,20-20.5,40.6c0,1.1,0,2.2,0,3.3C51,86.6,50.6,86.8,50.2,87z"/>
	<path class="st0" d="M588.5,18.2c-3.9,4.3-7.2,7.6-10.3,11.4c-12.3,15.4-13.2,37.2-2.2,54.6c9.2,14.4,21.4,19.7,34.6,21
		c19.5,2,35.4-7.6,46.7-30.9c3.6-7.4,7.2-14.6,10.9-21.9c18.6-36.3,50.8-38.8,71.5-26c8.4,5.2,15.4,13.3,17.7,26.6
		c2.3,13.3-2.3,23.9-8.7,35c0-4.2,0.1-6.8,0-9.4c-0.5-14.4-5-25.3-14-32c-12.4-9.2-25.1-10-37.9-1.3c-11.2,7.6-20.4,18.8-28.9,31.2
		c-10,14.6-21,27.1-34.5,34.9c-22.4,13-63.8,9.9-87.8-28.2c-5-8-8.7-16.8-9.5-27.8c-1.2-15.8,4.5-31.2,14.8-37.6
		C563.2,10.2,575.6,11.5,588.5,18.2z"/>
	<path class="st0" d="M748.7,715.2c10.9,12.9,12.1,33.9,3.1,48.1c-7.4,11.6-17.1,16.6-27.7,18.2c-24.7,3.9-44.6-7.7-58.7-37.6
		c-3-6.5-6.3-12.7-9.5-19c-11.9-23-28.3-30.5-47.6-27.9c-10.2,1.4-19.9,5.5-28,15c-9.2,10.8-13.8,24.5-11,41.7
		c1.3,8.1,5.1,14.1,9.5,19.2c3,3.6,6.2,6.8,9.8,10.8c-13.7,6.8-26.8,8.4-39.5-1c-12.7-9.4-17.2-33-9.7-51.6
		c8.6-21.2,22-34.5,38.3-41.4c32.6-13.9,61.4-4.9,86.1,29.7c8.6,12.1,18,23.3,27.9,33.1c11.4,11.3,24.3,13.2,37.6,6.2
		c13-6.8,19.4-19.8,19.3-39.4C748.7,718.1,748.7,716.8,748.7,715.2z"/>
	<path class="st0" d="M51.3,715c0.2,35.7,21.2,56.1,45.8,45.1c11-4.9,19.9-14.6,28.2-25.3c4.9-6.3,9.5-12.9,14.2-19.4
		c34.5-48.2,89.1-36.7,114.1,2.1c5.5,8.5,9.6,17.8,10.4,29.6c1,15.4-4.7,30.8-14.8,37.1c-12.3,7.7-24.7,6.4-37.8-0.3
		c2.9-3,5.2-5.4,7.6-8c17.2-18.9,16.7-47.7-1.1-65.7c-23.3-23.6-57-16.5-74.2,15.7c-4.1,7.6-7.8,15.5-11.7,23.2
		c-18.7,37-50.9,39-71.3,26.7c-3.5-2.1-6.7-5.2-9.6-8.7C37.7,751.2,40.5,730.5,51.3,715z"/>
	<path class="st0" d="M540.4,725.3c-3.5,5.8-6.7,12-10.4,17.4c-12.4,17.6-25.8,33.7-41.4,45.5c-15.7,11.9-32.3,15.4-49.7,11
		c-20.6-5.2-34.3-25.9-37.1-55.3c-1.5-16.4-1.2-32.6,3.3-48.1c8.5-29.6,38.7-36.8,53.3-12.6c5.4,8.9,7.1,19.1,4.9,30.5
		c-2.6,13.7-12.6,21.3-21.9,16.7c-2.3-1.1-4.2-3.7-6.3-5.6c0.2-0.5,0.3-1,0.5-1.5c0.7,0.1,1.4,0.1,2.1,0.2c5.5,0.9,8.5-1.1,9.8-6.5
		c1.4-5.8-0.4-12.4-4.5-16c-10.6-9.5-24.9-2.4-29.1,14.4c-5.9,23.7,3.7,51.6,20.5,59.5c13.6,6.3,27.3,4.9,40.8-0.5
		c17.7-7,33.1-19.9,47.7-35.6c5.2-5.6,10.8-10.4,16.2-15.6C539.4,723.8,539.9,724.5,540.4,725.3z"/>
	<path class="st0" d="M365.1,722.7c-2.5,6.6-6.2,8.3-10.3,8.7c-13.8,1.3-22.7-17.8-17.6-37.7c4.9-19.1,21.7-29.8,36.9-23.4
		c14.3,6,21.7,20.6,24,40.9c1.7,15.1,1.3,30.2-1.8,45c-5.2,24.6-20.8,41.7-39.9,44.2c-17.4,2.2-33.7-2.5-48.9-15.2
		c-16.1-13.4-29.6-31.3-42.8-49.7c-2.1-2.9-3-7.3-4.1-11.9c2.9,2.3,6,4.4,8.8,7.1c6.9,6.7,13.4,14.1,20.4,20.5
		c16.8,15.3,34.7,26.8,55.1,27.3c7,0.1,14.3-1.2,21-4.1c16.7-7.2,26.1-35.4,20.3-59c-4.2-17.1-18.8-24.2-29.4-14.3
		c-4,3.8-5.8,10.4-4.2,16.2c1.4,5.1,4.3,7,9.6,6.1C363,723.3,363.6,723.1,365.1,722.7z"/>
	<path class="st0" d="M364.4,79.1c-0.6-0.1-1.3-0.3-1.9-0.4c-5.4-1-8.5,1.1-9.8,6.4c-1.4,5.8,0.4,12.3,4.5,16
		c11.3,10.2,26.5,1.5,29.7-17C391.7,56,380,30.6,359.5,25c-17.8-4.8-34.8,0.2-50.6,11.4c-11.4,8.1-22,18.8-32.8,28.4
		c-5.1,4.5-10,9.3-15,14c-0.4-0.5-0.7-0.9-1.1-1.4c2.2-4.6,4-9.8,6.8-13.7c11.1-15.6,22.6-30.5,35.8-42.6
		c18-16.6,37.3-23.7,58.6-18.4c20.5,5.2,34.3,25.9,37.1,55.3c1.5,16.2,1.2,32.1-3.1,47.6c-8.1,28.8-36.7,37.3-52.1,15.3
		c-6.4-9.1-8.7-20.1-6.3-32.6c2.6-13.6,12.6-21.4,21.9-16.7c2.3,1.1,4.2,3.7,6.3,5.6C364.8,77.9,364.6,78.5,364.4,79.1z"/>
	<path class="st0" d="M538.9,79c-5.5-5.3-11.2-10.3-16.5-16c-16.3-17.5-33.8-31.6-54.1-37.5c-11.6-3.4-23.1-3.5-34.5,2
		c-16.5,8-25.8,35.9-20,59.4c4.2,16.8,18.5,23.8,29.1,14.2c4.1-3.7,5.9-10.2,4.5-16c-1.3-5.3-4.4-7.3-9.8-6.4
		c-0.6,0.1-1.3,0.3-1.9,0.4c-0.2-0.5-0.4-1-0.6-1.5c2.1-2,4.1-4.8,6.4-5.9c13.2-6.4,25.4,11,22.3,31.8
		c-2.4,16.6-13.4,28.8-26.7,29.9c-18.2,1.5-31.9-15.1-35.2-42.8c-1.6-13.5-1.3-27.1,1-40.5c4.7-27.3,20.2-45.7,40.5-48.4
		c17.6-2.3,33.9,2.5,49.2,15.2c16,13.3,29.4,31.1,42.5,49.3c2.1,3,3.2,7.5,4.7,11.4C539.4,78,539.1,78.5,538.9,79z"/>
	<path class="st0" d="M542.5,129.2c-10.1,11.4-26.4,13.6-36.8,5.1c-9.1-7.5-13.4-19.1-12.6-34.1c0.7-12.8,5.8-21.3,15.2-24.2
		c11.4-3.6,22.5-3.2,32.8,7.4c-7.6,0.9-15.6,0.6-20.2,10.3c-2,4.1-2.7,10.2-2.6,15.3C518.7,123.1,525.7,128.8,542.5,129.2z"/>
	<path class="st0" d="M259.3,83.1c9.3-10,19.8-10.3,30.6-7.8c7.3,1.7,13.3,6.5,15.8,17.1c3,12.4,1.5,24-4.5,33.8
		c-8.7,14.1-20,15.6-32,11.1c-4-1.5-7.7-4.4-11.2-7.7c4.1-0.7,8.3-0.7,12.3-2.1c7.6-2.6,11.5-10.1,11.6-21.1
		c0.1-10.6-3.6-17.8-11.2-20.8C267.1,84.3,263.3,83.9,259.3,83.1z"/>
	<path class="st0" d="M257.5,672.8c14.8-17,38-12.5,46.3,8.3c8.4,21,1,42.6-15.7,46c-10.2,2.1-20.1,1.1-28.8-8.1
		c19.3-5.5,23.5-10.3,22.5-25.9C280.9,678.8,274.3,673.1,257.5,672.8z"/>
	<path class="st0" d="M541.9,672.8c-16.9,0.8-23.2,6.5-23.8,21.4c-0.6,15.2,4.1,20.3,22.8,24.8c-10.8,10.7-22.6,11.3-34.5,6.3
		c-14-5.9-18-31.5-7.9-48.9c7.3-12.5,17.2-15.6,27.8-13.1c5.5,1.3,10.8,4.8,16.1,7.4C542.2,671.4,542.1,672.1,541.9,672.8z"/>
</g>
</svg>
