<?xml version="1.0" encoding="utf-8"?>
<!-- Generator: Adobe Illustrator 22.0.1, SVG Export Plug-In . SVG Version: 6.00 Build 0)  -->
<svg version="1.1" id="Layer_1" xmlns="http://www.w3.org/2000/svg" xmlns:xlink="http://www.w3.org/1999/xlink" x="0px" y="0px"
	 viewBox="0 0 363.9 356.3" style="enable-background:new 0 0 363.9 356.3;" xml:space="preserve">
<style type="text/css">
	.st0{display:none;}
	.st1{display:inline;fill:#371117;}
	.st2{display:inline;fill:#E2804C;stroke:#E2804C;stroke-miterlimit:10;}
	.st3{fill:#F8F1DA;}
	.st4{fill:#E2804C;}
	.st5{fill:none;stroke:#351519;stroke-miterlimit:10;}
</style>
<g class="st0">
	<path class="st1" d="M116.3,446.3c-1.4-1.5-2.9-2.9-4.2-4.5c-0.8-0.9-1.3-2-2.2-3.4c-0.7,2.9-1.1,5.4-2,7.8
		c-4.3,11.2-21.6,17.6-35.9,13.4c-11.7-3.4-16.7-13.5-10.6-21.6c2.9-3.9,7.5-5.6,13.3-5.4c5,0.2,8.4,2.2,10.2,5.3
		c-2.8,0.2-6-0.1-8.2,0.8c-1.8,0.8-3.2,3-3.6,4.7c-1.4,6,4.3,9.8,12.2,8.4c3.8-0.7,6.6-2.3,8.6-4.8c5.9-7.7-1.9-21.2-13.5-22.8
		c-8.3-1.2-15.6,1-21.3,5.6c-2.7,2.2-4.9,4.9-7.3,7.3c-3.3,3.4-6.3,7-9.9,10.1c-9.2,8.1-21.1,9.9-34.1,7.3
		c-14.2-2.9-22-15.6-16.8-27.2c-2,0.8-3.7,1.5-5.4,2c-8.5,2.8-16.2,2.1-23.3-2.7c-8.7-5.9-12.1-13.5-13-22c-1.8-17,6.1-30.5,25-40.2
		c4.6-2.3,9.1-4.8,13.6-7.4c10.7-6.2,16.2-14.4,16.9-24.6c0.6-8.5-1.4-16.5-7.3-23.9c-4-4.9-9.6-8.3-17.1-9.8
		c-7.8-1.5-14.7-0.3-20.2,4.1c-3.8,3-7,6.5-11,10.2c-1.1-2.4-2.4-4.6-3.2-6.8c-2-6-2.1-12.1,0.1-18.2c3.9-10.4,16.3-16.2,30.4-14.3
		c0.6,0.1,1.2,0.2,2.8,0.4c-3.4-2.7-6.2-4.9-8.9-7.1c-11.5-9.2-21.8-18.9-28.3-30.7c-5.9-10.8-7.2-22-3.1-33.2
		c4.7-13,16.2-20.9,33.9-23.3c0.5-0.1,0.9-0.2,2.5-0.5c-1.9-0.4-2.8-0.6-3.6-0.7c-20.1-3.2-33.5-15.4-34.7-31.4
		c-1-12.6,2.4-24.5,12-34.9c7.2-7.8,15.6-15,23.5-22.5c1.9-1.8,4.1-3.3,6.4-5.3c-21.4,3.2-34.3-7.6-34.3-21.4
		c0-4.5,1.3-9.1,2.3-13.6c0.3-1.3,1.5-2.5,2.4-4.1c2.7,2.7,4.8,5.2,7.3,7.5c10.5,9.8,26.5,9.9,37.5,0.4c6.5-5.6,9.4-12.4,10.3-19.7
		c1.9-14.3-4.2-26-20.4-34.2c-4.3-2.2-8.5-4.5-12.7-6.8c-24.1-13-26.5-35.5-18.2-50.6c2-3.6,5.4-6.9,9.1-9.7
		c6.7-5.2,14.8-5.7,23.4-2.8c1.7,0.6,3.3,1.2,5.4,2c-4-6.9-2.6-13.1,2.5-18.8c9.7-10.9,31.1-13,44.3-4.1c4,2.7,7.2,6.1,10.5,9.4
		c2.9,2.9,5.4,6,8.2,9c3.9,4.1,9.1,6.6,15.6,7.6c8,1.3,14.6-0.7,19-5.9c3.2-3.7,4.9-7.8,4.5-12.2c-0.6-6.6-8.8-11.2-16.8-9.3
		c-5.2,1.2-7.6,5.5-5.5,9.9c1.9,3.9,5.8,5,11.2,3.2c-1.5,5.3-10.5,8-17.5,4.7c-3-1.4-5.7-3.9-7-6.4c-4.8-9.9,4.5-19.8,18.7-20.4
		c15.8-0.7,27.6,6.6,30,18.5c0.2,1.1,0.4,2.3,0.7,4c1.2-1.8,2-3.1,2.9-4.4c5.1-7.9,12-14.4,23.6-17.2c13.9-3.4,25.9,0,33.3,9.8
		c4.7-3.2,10.2-4.4,16.4-3.7c6.6,0.7,10.7,3.7,12.8,8.6c4.6-9.8,18.9-11.2,29.6-5c3.9-6.2,10.3-9.8,19.3-10.6
		c12.2-1,22.3,2.2,29.9,9.3c4.1,3.8,7.1,8.3,10.4,12.4c0.5-2.2,0.9-4.7,1.8-7c4.4-11.6,22.9-18,37.3-13c10.4,3.6,14.7,12.7,9.7,20.4
		c-2.7,4.2-7.3,6.2-13.5,6.2c-5.2-0.1-8.7-2.1-10.8-5.7c2.7,0,5.8,0.7,7.7-0.2c2.1-0.9,3.8-3.1,4.3-5c1.5-5.9-4.3-9.8-12.1-8.4
		c-7.3,1.3-11.7,6.8-10.4,13.2c0,0.2,0.1,0.4,0.2,0.6c2.1,6.2,5.2,12.2,14.5,13.8c9.5,1.6,17.5-1.1,23.5-6.8
		c5.2-5,9.6-10.3,14.7-15.3c6.1-6,14.4-8.6,24.3-9.2c21.2-1.1,35.1,15.9,27.6,28.3c1.9-0.7,3.5-1.4,5.2-1.9c8.7-3,16.7-2.2,23.9,2.8
		c8.5,5.9,11.8,13.5,12.7,21.8c1.8,17-6.2,30.5-25.1,40.1c-5,2.6-9.9,5.3-14.7,8.1c-22.9,13.3-17.6,40.6-5,51.1
		c11.2,9.3,26.9,9.2,37.3-0.4c1.8-1.7,3.5-3.5,5.2-5.3c0.6-0.6,1.2-1.2,2.3-2.5c1.3,2.7,2.5,4.8,3.3,7c2,5.5,2.1,11.2,0.4,16.8
		c-3.4,11.7-16.2,17.7-33.5,15.5c1.6,1.3,2.7,2.2,3.9,3.2c10.9,8.4,21.1,17.3,28.8,27.7c9.1,12.3,12.1,25.4,7.7,39.1
		c-4.3,13.3-15.7,21.5-33.7,24.2c-0.6,0.1-1.2,0.2-1.9,0.8c1,0.2,1.9,0.3,2.9,0.5c20.1,3.3,33.3,15.6,34.5,31.6
		c0.9,13-2.8,25.1-12.8,35.6c-7.7,8.1-16.6,15.6-25,23.4c-1.2,1.1-2.5,2.1-3.3,2.7c5.1,0.4,10.5,0.1,15.4,1.3
		c9.5,2.2,14.9,7.6,17.1,14.9c1.9,6.5,1.5,12.9-1.2,19.3c-0.6,1.4-1.6,2.8-2.6,4.5c-2.5-2.6-4.6-4.9-6.8-7.1
		c-11-10.5-27.9-10.5-39,0c-6,5.7-8.5,12.3-9.4,19.4c-1.8,14.5,5,26,21.3,34.1c4.4,2.2,8.8,4.6,13,7c24,13.5,25.2,36.7,16.6,50.9
		c-1.9,3.1-4.9,6.1-8.1,8.5c-7.2,5.4-15.2,6.1-24.4,2.9c-1.5-0.5-2.9-1.1-3.9-1.5c0.4,3,1.5,6.2,1,9.3c-1.3,8-7,14.3-16.8,17.1
		c-11.1,3.2-22.5,2.4-31.8-3.8c-5.1-3.4-8.9-8-13.2-12.1c-2.3-2.3-4.3-4.8-6.6-7c-3.8-3.7-8.8-6-14.9-6.9
		c-8.2-1.3-14.8,0.9-19.1,6.2c-3,3.6-4.8,7.5-4.3,11.9c0.7,6.6,8.9,11.2,16.8,9.3c5.2-1.3,7.6-5.5,5.5-9.9c-1.9-3.8-5.8-5-11.2-3.2
		c0.9-3.1,3.9-5.2,8.4-5.9c5.3-0.8,11.1,1,14.3,4.5c4.9,5.5,3.7,14.1-2.7,18.8c-6,4.3-13.2,5.5-21.1,4.5c-14.7-2-21.9-8.7-23.9-21.8
		c-2.6,3.4-5.1,6.6-7.5,9.8c-6.9,9.1-22.6,14.5-35.7,12c-7.4-1.4-13.2-4.6-16.5-10.5c-4.9,3.5-10.5,4.5-16.7,3.8
		c-6.4-0.7-10.5-3.6-12.8-8.8c-2.2,5.1-6.2,8.2-12.6,8.8c-6.1,0.6-11.9-0.1-16.7-3.8c-4.3,7.2-11.7,10.5-21.3,11
		c-12.2,0.7-24.7-4.4-31.4-12.8c-0.4-0.5-0.4-1.3-0.6-1.9c0.9,0.8,1.8,1.5,2.6,2.4c6,6.5,14.1,10.3,24.5,11.3
		c14.2,1.4,26.7-6.4,26.2-16.4c-0.4-7.4-8.1-11.8-17-9.8c-3.9,0.9-6.2,3.2-6.2,6.1c0,2.8,2.1,4.4,5.7,4.3c-0.3-0.6-0.9-1.1-0.8-1.6
		c0.1-1.3-0.1-3.1,0.9-3.9c1-0.8,3.4-1.2,5.1-1c4.1,0.4,6.1,3.9,4.5,7.3c-1.5,3.3-4.9,5.1-9.1,5.9c-9.8,1.9-19.2,1.1-26.4-4.6
		c-5.1-4.1-9-8.9-13.4-13.5c-2.1-2.2-4-4.6-6.1-6.9c0.7,3,1.6,5.8,2.8,8.4c1.3,2.8,3,5.5,4.5,8.2C114.8,443.8,115.6,445,116.3,446.3
		z M-5.8,424.3c-0.1-0.3-0.2-0.5-0.3-0.8c-0.7,0-1.4,0-2.1,0c-13.4,0.1-22.2-4.7-26.5-14.4c-4.1-9.3-2.4-18.2,4.9-26
		c6.2-6.7,13.3-13.1,20.9-18.8c21-15.9,27.8-34.6,21.1-56.3c-3.8-12.3-12.2-22.5-26-29.7c-12.1-6.4-28.4-4.2-35.4,4.7
		c-7.2,9-6,18.6-1.5,28.5c2.8-2.7,5.1-5.1,7.6-7.3c3.3-3,7.2-5.4,12.4-6.2c11.1-1.7,19.9,1.5,26.8,7.8c6.2,5.6,8.9,12.4,9.8,19.6
		c1.7,13.5-3.3,25-18.2,33.3c-4,2.2-7.9,4.4-12.1,6.5c-19.5,9.8-27.3,23.6-24.8,40.9c1.1,7.5,4.4,14.3,11.9,19.6
		c6.7,4.7,14.2,5.6,22.4,2.7C-11.7,427.3-8.8,425.7-5.8,424.3z M-50.6,47.9c-4.4,9-5.2,17.7-0.2,26.3c4.2,7.1,14.2,11.1,24.5,10.3
		c7.1-0.6,12.9-3.1,18.1-6.6c24.9-16.8,26.8-45.8,18.4-61.4C5.1,7.1-3.1-0.6-12.6-7.6C-20.7-13.6-28-20-33-27.8
		c-5.7-8.9-5.2-17.8,0.9-26.5c4.4-6.3,11.5-9.5,20.9-9.8c1.7-0.1,3.4,0,6.1,0c-7.3-4.5-14.2-7.7-22.8-6.1c-8.7,1.6-14,6.5-17.4,12.3
		c-8.3,14.5-6.7,37,17,50c4.7,2.6,9.5,5.1,14.2,7.6C1.1,7.6,7.3,18.7,6,32.4C5.1,41.6,1.7,50.1-7.7,56.6
		c-11.3,7.7-25.5,7.1-35.6-1.5C-45.7,52.9-47.8,50.6-50.6,47.9z M403.6-64.2c1.1,0,1.9,0,2.7,0c12.8-0.1,21.3,4.4,25.7,13.5
		c4.5,9.3,3.3,18.3-4.1,26.3c-6.4,6.9-13.7,13.5-21.6,19.5c-22.6,17.2-28.4,37.4-19.3,60.2c4.5,11.3,13.2,20.8,27,26.8
		c12.1,5.3,27.5,2.1,33.6-6.8c6.2-8.9,5.1-18,0.7-27.6c-2.6,2.5-4.7,4.8-7,6.9c-3.4,3.1-7.3,5.7-12.5,6.6
		c-11.2,1.9-20.1-1.3-27.2-7.7c-6.2-5.6-8.9-12.4-9.8-19.6c-1.7-13.5,3.2-25,18.2-33.3c4.1-2.3,8.2-4.5,12.4-6.7
		c19.5-9.8,27.1-23.7,24.5-41c-1.1-7.4-4.3-14.2-11.9-19.3C425.7-72.6,412-71.8,403.6-64.2z M403.5,423.5
		c10.1,7.5,23.6,9.5,33.9,0.2c2.2-2,4.3-4.3,5.7-6.7c8-14.3,6.7-36.8-17.4-49.9c-5-2.7-10.2-5.3-15.1-8.2
		c-21-12.1-25.6-35.6-10.3-51.9c11.7-12.4,30.5-12.8,42.8-0.7c1.7,1.6,3.2,3.3,5.2,5.3c4.4-9.1,5.3-17.8,0.2-26.4
		c-4.1-7-14.1-11.1-24.2-10.3c-7.7,0.6-13.7,3.4-19.3,7.3c-25.3,17.5-32.8,55.7-1.4,79.8c4.3,3.3,8.6,6.5,12.7,9.9
		c7,5.8,13.3,12.1,16.5,19.7C440,408.7,426.8,423.4,403.5,423.5z M410.2,81.5c-0.5,0.3-1,0.7-1.5,1c3.4,3.8,6.5,7.7,10.2,11.3
		c10.2,10.1,18.6,21,23.2,33.3c3.5,9.5,4.5,19,0.3,28.6c-5.1,11.8-23.3,18.5-38.8,14.3c-10.9-2.9-15.6-12.9-9.4-20.3
		c2.4-2.9,6.6-4.2,10.4-3.2c3.5,0.9,4.8,3,4.3,6.8c-0.1,0.5-0.1,1-0.1,1.5c0.3,0.1,0.7,0.2,1,0.3c1.2-1.5,2.9-2.8,3.7-4.4
		c3-6.5-2-13.5-10.9-15.3c-7.4-1.5-14.1-0.3-19.9,3.4c-15.8,10.2-11.1,31.3,8.2,37.3c10.1,3.1,20.7,3.4,31.4,2.3
		c19.2-1.9,32.7-11.5,36.1-25.9c2.9-12.2,0.5-23.8-7.2-34.8c-7.7-10.9-18.2-20.3-29.7-28.9C418,86.2,414,83.9,410.2,81.5z
		 M408.5,204.1c0.2,1,0.3,1.5,0.4,1.9c0.6,3.7-0.7,5.7-4,6.7c-3.8,1.1-8.1-0.1-10.5-2.9c-6.4-7.4-1.8-17.6,9.3-20.5
		c15.3-4,33.7,2.5,38.4,14.2c1.9,4.7,2.8,9.8,2.7,14.7c-0.3,14.2-7.8,26.8-17.8,38.5c-4.2,4.9-9,9.5-13.4,14.3
		c-1.8,1.9-3.1,4.1-4.6,6.2c3-0.7,5.9-1.4,7.8-2.8c12-9.2,23.7-18.6,32.4-29.9c8.2-10.6,11.3-22,9.9-34.2
		c-1.6-13.4-12.7-24.3-28.8-27.9c-9.6-2.2-19.4-2.5-29.3-1.3c-13.2,1.6-22.7,6.7-26.7,16.8c-4.2,10.7,2.8,22.4,15.3,25.8
		c13,3.6,25.5-2.6,24.6-12.3C414,208.4,412.8,205.9,408.5,204.1z M-10.9,204.6c-0.4-0.1-0.8-0.3-1.2-0.4c-1.3,1.5-2.9,2.8-3.7,4.4
		c-3,6.5,2,13.5,10.9,15.3c8.2,1.7,15.3,0.1,21.3-4.4c14.3-10.8,8.8-30.8-10-36.4c-10.1-3-20.5-3.2-31-2.2
		c-19.2,1.9-32.7,11.6-36.1,25.9c-3.5,14.9,1.1,28.4,12,41c7.9,9.2,17.6,17.3,27.8,25c2.5,1.9,5.9,3.2,8.9,4.7
		c0.3-0.3,0.6-0.5,0.9-0.8c-3-3.5-6.2-6.9-9.1-10.5c-6.3-7.6-13.2-15-18.5-23c-7.3-11.1-10.6-22.9-7.5-35.4
		c3.6-14.4,20.2-22.5,38.5-19.1c12.1,2.2,17.8,12.9,11.1,20.8c-2.4,2.9-6.7,4.2-10.4,3.1c-3.5-0.9-4.8-3.1-4.2-6.9
		C-11.2,205.5-11,205-10.9,204.6z M-11,82.6c-0.3-0.2-0.6-0.4-0.9-0.6c-2.5,1.1-5.5,1.8-7.4,3.3c-11.9,9.2-23.5,18.5-32.1,29.7
		c-8.3,10.7-11.5,22.1-9.9,34.4c1.8,14.1,13.8,25,31.5,28.3c8.7,1.6,17.6,1.8,26.4,0.7c18.1-2.3,28.9-11.9,27.9-24.6
		c-0.7-9.3-8.7-16.9-19.5-18.6c-13.5-2.1-24.9,6.4-20.7,15.6c0.7,1.6,2.6,3,3.9,4.5c0.3-0.2,0.6-0.3,1-0.5c-0.1-0.4-0.2-0.9-0.3-1.3
		c-0.6-3.8,0.7-5.9,4.2-6.9c3.8-1,8,0.3,10.5,3.1c6.2,7.4,1.7,17.4-9.3,20.4c-15.3,4.1-33.5-2.4-38.7-14c-3.6-7.9-3.5-16-1.3-24.1
		c3.8-14.2,13-26.4,24.4-37.8C-17.8,90.4-14.5,86.4-11,82.6z M81.7,436.3c-5.1-4.6-15.2-3.3-19.3,2.4c-5.6,8-0.3,17.7,11.6,20.2
		c10.2,2.1,19.6,0.4,26.8-5.4c8.4-6.8,9-15.2,5.2-23.7c-3.4-7.6-11.3-11.3-21.5-12.2c-12-1-22.5,1.8-31.5,7.8
		c-5.4,3.6-10.4,7.5-15.7,11.2c-5.9,4.1-12.5,7.2-20.7,7.6c-12.3,0.6-24.2-5.6-22-16.6c0.1-0.5,0-1,0-1.6c-1.9,1.7-3.5,3.6-4.1,5.7
		c-2.5,9,7,20.1,18.9,22c13.2,2.1,24.6-0.2,33.1-8.7c3.4-3.4,6.5-7.1,9.9-10.5c2.6-2.6,5.1-5.4,8.3-7.4c14.5-9,32.5-3.8,35.9,10.1
		c1.4,5.5,0.2,10.4-6.1,13.8c-4.5,2.4-9.5,2.7-14.3,0.7c-4.1-1.8-5.2-4.8-4.7-8.2C72.1,439.4,75.3,437.1,81.7,436.3z M82-77
		c-7.7-0.8-11.7-4.7-10.4-10.2c1.1-4.7,6.8-7.3,13.9-6.2c4.6,0.7,7.7,2.7,9.9,5.7c2.3,3.2,2.2,6.6,1.2,10.1c-2.3,8.3-9.8,14-19,14.1
		c-8.3,0.1-15.4-2.3-20.6-7.2c-3.3-3.1-6-6.6-9.2-9.8c-3.3-3.3-6.5-6.7-10.5-9.4c-16.4-11-42.5-4.7-46.6,11.2
		c-1.1,4.4-0.5,8.5,4.1,12.3c0-0.8,0.1-1.1,0-1.5C-7.9-80.1,5.9-86,17.9-84.9c8.4,0.7,14.8,4.1,20.7,8.3c5.2,3.7,10.1,7.5,15.5,11
		c7.9,5.2,17.1,7.6,27.6,7.4c17.3-0.3,27.6-9.5,26.4-23.4c-1.1-12.1-14.6-20.3-30.7-18.6c-13,1.3-20.5,11.3-15.2,20.1
		C65.6-73.9,75.6-72.3,82-77z M403-66.4c4.4-3.9,5.1-7.9,4-12.2c-4-15.8-30-22.4-46.3-11.5c-4.9,3.3-8.6,7.7-12.7,11.7
		c-3.2,3.1-5.8,6.6-9.4,9.3c-13.4,10.1-31.6,6.5-37-7.1c-0.6-1.5-1-3-1.2-4.5c-0.7-5.4,3.2-10.5,9.4-12.2c4.4-1.2,8.8-1.2,12.6,1.1
		c3.4,2,4.2,5,3.5,8c-1,4.2-4.3,6.7-10.4,6.8c6.3,5,16.8,3.1,20.3-3.5c4.2-8-1.1-16.4-12.1-19.1c-13.5-3.3-28.9,2.9-32.9,13.2
		c-4.8,12.3,1.8,29.5,29.2,28.2c9.4-0.4,17.4-3.2,24.3-7.8c5.2-3.5,10.1-7.2,15.2-10.9c4.8-3.5,10.2-6.4,16.8-7.6
		c14.7-2.7,29.7,4.3,26.6,16.7C402.9-67.4,403-67.1,403-66.4z M315.9,436.4c7.5,0.8,11.4,4.7,10.2,10.1c-1,4.8-7.1,7.5-14.2,6.2
		c-5.9-1-9.4-4-10.8-8.3c-1.8-5.7,0.7-10.8,4.8-15.5c4.5-5.1,11-6.8,18.8-5.9c6.9,0.8,12.6,3.4,16.8,7.6c2.5,2.5,4.7,5.2,7.2,7.7
		c3.9,3.8,7.4,7.9,12,11c14.8,10,39,5.3,45.3-8.6c2.4-5.2,2.3-10.2-3.1-15.2c0,0.9-0.1,1.2,0,1.6c2.7,12.1-11.1,18.1-23.2,17
		c-8-0.7-14.2-3.8-19.9-7.8c-5.3-3.7-10.3-7.6-15.7-11.2c-8-5.3-17.4-8-28.2-7.8c-17.4,0.4-27.9,9.7-26.3,23.7
		c1.3,11.9,14.7,19.9,30.7,18.4c13.2-1.3,20.8-11.8,14.9-20.6C331.4,433,320.9,431.7,315.9,436.4z M21.7,80
		c-0.2,11.7-3.9,16.6-13.2,16.9c-3.3,0.1-7.3-0.4-10-1.8c-6.3-3.2-6.1-8.8-6.7-14.1c-6.9,7.2-7.2,15-4.8,23
		c1.9,6.5,7.5,10.1,15.8,10.6c9.7,0.6,17.3-2.4,22.2-8.8C30.6,98.5,29.1,87.1,21.7,80z M-8.4,278.1c0.6-2.8,0.8-5.4,1.7-8
		c1.9-5.3,6.6-7.9,13.5-7.8c7.2,0.1,12.1,2.8,13.7,8.1c0.9,2.8,0.9,5.7,1.4,8.6c2.1-2.4,4.1-5,5-7.8c2.9-8.4,1.9-16.3-7.3-22.4
		c-6.4-4.2-14-5.2-22-3.1c-6.9,1.8-10,6-11.1,11.1C-15.1,264.2-14.9,271.5-8.4,278.1z M376,279.3c0.2-11.7,3.9-16.4,13.2-17
		c10.2-0.7,13.3,2.2,16.9,15.7c6-6.1,6.6-13,5.3-20.1c-2.2-11.7-16.3-16.9-30-11C367.8,252.7,364.9,268.9,376,279.3z M375.9,80.5
		c-0.4-0.1-0.9-0.2-1.3-0.3c-1.6,3.8-4,7.4-4.8,11.3c-1.7,7.5,0.4,14.4,8.5,19.5c11.3,7.1,28,4.3,31.8-5.6
		c3.3-8.3,2.9-16.6-4.1-24.1c-2.9,13.1-6.3,16.4-16.2,15.9C380.2,96.7,376.5,92.2,375.9,80.5z M245.7,444.4c0.8,0,1.5,0.2,1.7,0
		c1.4-1.3,3.5-2.6,3.9-4.1c0.6-2.5-1-4.7-4.2-5.9c-7.2-2.9-15.9,0-18.2,6c-3.2,8.4,4.5,17.6,16.7,19.2c14.1,1.9,24.9-2.3,33.2-10.8
		c6.6-6.8,9.6-14.8,12.4-22.8c-2.3,2.3-4.2,4.7-6.4,7c-4.2,4.4-8,9.2-12.9,13.1c-8,6.4-18.1,7.2-28.7,4.3c-5.6-1.5-8.5-5.3-7.5-8.9
		c0.8-2.8,4.4-4.5,8-3.7c3.1,0.7,3.9,2.6,2.5,5.6C246,443.5,245.9,443.9,245.7,444.4z M105.4-67c0.4,0.2,0.9,0.4,1.3,0.6
		c2.1-2.5,4.4-4.9,6.3-7.4c4.2-5.5,8.7-10.8,15.5-14.7c8-4.5,16.9-4.9,25.9-2.3c5.4,1.5,8.5,5.2,7.2,8.7c-0.6,1.5-2.5,3.1-4.4,3.8
		c-1.4,0.5-4.6,0-5.4-0.8c-1-1.1-0.5-3.1-0.5-4.7c0-0.3,0.2-0.6,0.3-1.1c-0.7,0-1-0.1-1.4-0.1c-3.1,0.6-4.2,2.4-4.2,4.6
		c0,2.8,1.8,5,5.4,6c4.5,1.2,8.9,1,12.6-1.3c4.6-2.7,5.8-6.7,4.9-10.9c-1.8-9.2-13.1-15.1-26-13.9c-11.6,1.1-20.6,5.6-26,13.3
		C112.7-80.8,109.4-73.8,105.4-67z M290.9-66.4c0.2-0.1,0.3-0.2,0.5-0.3c-0.9-2.1-2-4.1-2.7-6.2c-2.1-6.3-5.8-12-10.9-17.2
		c-5.8-6-13.8-9.4-23.6-10.4C240-101.9,227.5-94,228-84c0.4,7.5,8.5,12,17.4,9.7c3.6-0.9,5.8-3.3,5.8-6.1c0-2.8-2.2-4.4-5.6-4.2
		c1.8,3.8,1.2,5.7-2,6.5c-3.6,0.8-7.4-0.8-8.1-3.7c-0.2-0.9-0.2-1.9,0-2.8c0.9-3.2,3.8-5.2,7.7-6.2c10.7-2.7,20.8-1.8,28.7,4.6
		c4.9,3.9,8.6,8.7,12.8,13.1C287-71.1,288.9-68.7,290.9-66.4z M203.6,435.5c-4.9,2.3-4.7,8.5-1.6,12.4c3.3,4.2,10.8,6.1,18.1,4.5
		c4.5-1,6.8-2.6,6.7-4.6C211.3,449.3,204.8,445.9,203.6,435.5z M170.6-88.2c5.9-1.5,11.4-1.3,16.4,1.1c5.2,2.5,6.8,6.5,7.1,11
		c4.6-2.3,4.7-8,1.9-12c-3-4.3-9.4-6.2-17.1-5.2C174.3-92.7,171-90.8,170.6-88.2z M203.8-76.2c-0.1-4.6,1.7-8.4,6.8-10.9
		c5.1-2.5,10.6-2.6,16.3-1.1c-0.2-2.5-3.4-4.4-8.1-5.1c-8-1.2-14.5,0.9-17.4,5.6C198.6-83.2,199.3-79,203.8-76.2z M194,435.5
		c-1,10.3-7.5,13.7-23.1,12.3c-0.1,2,2.2,3.6,6.7,4.5c7.3,1.6,14.8-0.3,18.1-4.5C198.9,443.8,198.7,437.8,194,435.5z"/>
	<path class="st2" d="M-5.8,424.3c-3,1.4-5.9,3-9,4.1c-8.2,2.9-15.7,2-22.4-2.7c-7.6-5.3-10.9-12.1-11.9-19.6
		c-2.5-17.3,5.3-31.1,24.8-40.9c4.1-2.1,8.1-4.3,12.1-6.5c15-8.3,19.9-19.8,18.2-33.3c-0.9-7.2-3.6-13.9-9.8-19.6
		c-6.9-6.4-15.7-9.5-26.8-7.8c-5.2,0.8-9.1,3.3-12.4,6.2c-2.5,2.2-4.8,4.6-7.6,7.3c-4.5-10-5.7-19.5,1.5-28.5
		c7.1-8.9,23.4-11.1,35.4-4.7c13.7,7.3,22.2,17.4,26,29.7c6.7,21.7-0.1,40.4-21.1,56.3c-7.6,5.8-14.7,12.2-20.9,18.8
		c-7.3,7.8-9,16.7-4.9,26c4.3,9.6,13.1,14.5,26.5,14.4c0.7,0,1.4,0,2.1,0C-6.1,423.8-6,424-5.8,424.3z"/>
	<path class="st2" d="M-50.6,47.9c2.8,2.7,5,5.1,7.5,7.2c10,8.6,24.3,9.2,35.6,1.5c9.4-6.4,12.8-15,13.7-24.2
		C7.5,18.8,1.3,7.6-13.9-0.3c-4.8-2.5-9.5-5-14.2-7.6c-23.7-13-25.3-35.5-17-50c3.4-5.9,8.7-10.8,17.4-12.3
		c8.7-1.6,15.6,1.6,22.8,6.1c-2.8,0-4.5-0.1-6.1,0c-9.4,0.3-16.5,3.5-20.9,9.8c-6,8.7-6.5,17.5-0.9,26.5
		c4.9,7.8,12.3,14.3,20.4,20.2c9.5,7,17.7,14.7,22.8,24.1C18.9,32.1,16.9,61.1-8,77.9c-5.2,3.5-11,6.1-18.1,6.6
		c-10.3,0.8-20.3-3.2-24.5-10.3C-55.8,65.6-55,56.9-50.6,47.9z"/>
	<path class="st2" d="M403.6-64.2c8.4-7.6,22.1-8.5,31.4-2.1c7.6,5.2,10.8,11.9,11.9,19.3c2.6,17.3-5,31.2-24.5,41
		c-4.2,2.1-8.3,4.4-12.4,6.7C395,9,390.1,20.5,391.8,34c0.9,7.2,3.6,13.9,9.8,19.6c7.1,6.4,16,9.6,27.2,7.7
		c5.3-0.9,9.2-3.6,12.5-6.6c2.3-2.1,4.5-4.3,7-6.9c4.4,9.6,5.5,18.7-0.7,27.6c-6.1,8.9-21.5,12-33.6,6.8c-13.8-6-22.5-15.4-27-26.8
		c-9.1-22.8-3.2-43,19.3-60.2c7.9-6,15.2-12.6,21.6-19.5c7.4-8,8.6-17,4.1-26.3c-4.4-9.1-12.9-13.6-25.7-13.5
		C405.5-64.1,404.7-64.2,403.6-64.2z"/>
	<path class="st2" d="M403.5,423.5c23.3-0.1,36.6-14.8,29.4-32c-3.2-7.7-9.5-13.9-16.5-19.7c-4.1-3.4-8.4-6.6-12.7-9.9
		c-31.4-24.1-23.9-62.3,1.4-79.8c5.6-3.8,11.6-6.7,19.3-7.3c10-0.7,20,3.3,24.2,10.3c5,8.6,4.2,17.3-0.2,26.4c-2-2-3.5-3.7-5.2-5.3
		c-12.3-12-31.1-11.7-42.8,0.7c-15.4,16.3-10.7,39.8,10.3,51.9c4.9,2.8,10.1,5.4,15.1,8.2c24.1,13.1,25.4,35.6,17.4,49.9
		c-1.4,2.4-3.4,4.7-5.7,6.7C427.1,433.1,413.6,431.1,403.5,423.5z"/>
	<path class="st2" d="M410.2,81.5c3.8,2.4,7.8,4.7,11.3,7.3c11.5,8.7,21.9,18,29.7,28.9c7.7,11,10,22.6,7.2,34.8
		c-3.4,14.4-16.9,24-36.1,25.9c-10.7,1.1-21.2,0.9-31.4-2.3c-19.3-6-24-27.1-8.2-37.3c5.8-3.8,12.5-4.9,19.9-3.4
		c8.9,1.8,13.9,8.8,10.9,15.3c-0.7,1.6-2.4,2.9-3.7,4.4c-0.3-0.1-0.7-0.2-1-0.3c0-0.5,0.1-1,0.1-1.5c0.6-3.8-0.7-5.9-4.3-6.8
		c-3.8-1-8.1,0.3-10.4,3.2c-6.2,7.4-1.6,17.4,9.4,20.3c15.5,4.1,33.6-2.6,38.8-14.3c4.1-9.5,3.2-19.1-0.3-28.6
		c-4.6-12.4-13-23.2-23.2-33.3c-3.6-3.6-6.8-7.5-10.2-11.3C409.2,82.2,409.7,81.9,410.2,81.5z"/>
	<path class="st2" d="M408.5,204.1c4.3,1.8,5.4,4.3,5.7,7.2c0.9,9.6-11.6,15.8-24.6,12.3c-12.4-3.4-19.4-15.1-15.3-25.8
		c3.9-10,13.4-15.2,26.7-16.8c9.9-1.2,19.7-0.9,29.3,1.3c16.1,3.6,27.2,14.5,28.8,27.9c1.4,12.2-1.7,23.5-9.9,34.2
		c-8.7,11.3-20.4,20.7-32.4,29.9c-1.9,1.4-4.7,2.1-7.8,2.8c1.5-2.1,2.8-4.2,4.6-6.2c4.4-4.8,9.2-9.4,13.4-14.3
		c10-11.7,17.5-24.3,17.8-38.5c0.1-4.9-0.8-10-2.7-14.7c-4.7-11.7-23.1-18.2-38.4-14.2c-11.1,2.9-15.8,13.1-9.3,20.5
		c2.4,2.8,6.8,4,10.5,2.9c3.3-1,4.6-3,4-6.7C408.9,205.6,408.7,205.1,408.5,204.1z"/>
	<path class="st2" d="M-10.9,204.6c-0.1,0.5-0.2,0.9-0.3,1.4c-0.6,3.8,0.7,5.9,4.2,6.9c3.8,1,8-0.3,10.4-3.1
		c6.7-7.9,1-18.5-11.1-20.8c-18.3-3.4-34.9,4.8-38.5,19.1c-3.2,12.4,0.1,24.3,7.5,35.4c5.3,8,12.2,15.4,18.5,23
		c2.9,3.5,6.1,7,9.1,10.5c-0.3,0.3-0.6,0.5-0.9,0.8c-3-1.6-6.4-2.8-8.9-4.7c-10.1-7.8-19.9-15.8-27.8-25c-10.8-12.6-15.4-26.1-12-41
		c3.4-14.3,16.9-24,36.1-25.9c10.5-1.1,20.9-0.9,31,2.2c18.8,5.7,24.3,25.6,10,36.4c-5.9,4.5-13.1,6.1-21.3,4.4
		c-8.9-1.8-13.9-8.8-10.9-15.3c0.7-1.6,2.4-2.9,3.7-4.4C-11.7,204.3-11.3,204.4-10.9,204.6z"/>
	<path class="st2" d="M-11,82.6c-3.5,3.9-6.7,7.8-10.4,11.5c-11.4,11.4-20.6,23.7-24.4,37.8c-2.2,8.1-2.3,16.2,1.3,24.1
		c5.2,11.6,23.4,18.1,38.7,14c10.9-2.9,15.5-13,9.3-20.4c-2.4-2.9-6.7-4.1-10.5-3.1c-3.5,0.9-4.8,3.1-4.2,6.9
		c0.1,0.4,0.2,0.9,0.3,1.3c-0.3,0.2-0.6,0.3-1,0.5c-1.3-1.5-3.1-2.8-3.9-4.5c-4.2-9.3,7.2-17.8,20.7-15.6
		c10.8,1.7,18.8,9.3,19.5,18.6c1,12.7-9.8,22.3-27.9,24.6c-8.8,1.1-17.7,0.9-26.4-0.7c-17.8-3.3-29.8-14.2-31.5-28.3
		c-1.5-12.3,1.6-23.7,9.9-34.4c8.7-11.2,20.3-20.5,32.1-29.7c1.9-1.5,4.9-2.2,7.4-3.3C-11.6,82.2-11.3,82.4-11,82.6z"/>
	<path class="st2" d="M81.7,436.3c-6.4,0.8-9.6,3.1-10.2,7.3c-0.5,3.4,0.6,6.4,4.7,8.2c4.8,2.1,9.9,1.7,14.3-0.7
		c6.3-3.4,7.5-8.3,6.1-13.8c-3.4-13.9-21.4-19.1-35.9-10.1c-3.3,2-5.8,4.8-8.3,7.4c-3.4,3.4-6.4,7.1-9.9,10.5
		c-8.4,8.4-19.9,10.7-33.1,8.7c-11.9-1.9-21.5-13-18.9-22c0.6-2,2.2-3.9,4.1-5.7c0,0.5,0.1,1.1,0,1.6c-2.2,11,9.6,17.1,22,16.6
		c8.3-0.4,14.9-3.5,20.7-7.6c5.3-3.7,10.3-7.6,15.7-11.2c8.9-6,19.5-8.8,31.5-7.8c10.2,0.9,18.1,4.6,21.5,12.2
		c3.8,8.5,3.3,16.8-5.2,23.7c-7.2,5.8-16.6,7.6-26.8,5.4c-11.8-2.5-17.2-12.2-11.6-20.2C66.5,433,76.6,431.8,81.7,436.3z"/>
	<path class="st2" d="M82-77c-6.4,4.7-16.4,3.1-20.1-3.1c-5.3-8.8,2.3-18.8,15.2-20.1c16.1-1.6,29.6,6.6,30.7,18.6
		c1.3,13.9-9.1,23.1-26.4,23.4c-10.5,0.2-19.7-2.3-27.6-7.4c-5.3-3.5-10.3-7.3-15.5-11c-5.9-4.2-12.3-7.6-20.7-8.3
		c-12-1.1-25.9,4.8-23.1,17c0.1,0.3,0,0.7,0,1.5c-4.6-3.8-5.2-7.9-4.1-12.3C-5.5-94.6,20.7-101,37-89.9c4,2.7,7.2,6.2,10.5,9.4
		c3.2,3.2,5.9,6.7,9.2,9.8c5.2,4.9,12.3,7.3,20.6,7.2c9.3-0.2,16.7-5.8,19-14.1c1-3.5,1.1-6.8-1.2-10.1c-2.1-3-5.3-5.1-9.9-5.7
		c-7.1-1.1-12.8,1.5-13.9,6.2C70.4-81.7,74.3-77.8,82-77z"/>
	<path class="st2" d="M403-66.4c-0.1-0.7-0.2-1-0.1-1.3c3.1-12.4-11.9-19.4-26.6-16.7c-6.6,1.2-11.9,4.1-16.8,7.6
		c-5.1,3.6-9.9,7.4-15.2,10.9c-6.9,4.6-15,7.4-24.3,7.8c-27.4,1.3-33.9-15.9-29.2-28.2c4-10.3,19.4-16.5,32.9-13.2
		c11,2.7,16.3,11.1,12.1,19.1c-3.5,6.5-14,8.5-20.3,3.5c6.1-0.1,9.4-2.6,10.4-6.8c0.7-3.1-0.1-6-3.5-8c-3.8-2.3-8.2-2.3-12.6-1.1
		c-6.2,1.8-10.1,6.9-9.4,12.2c0.2,1.5,0.6,3,1.2,4.5c5.4,13.6,23.7,17.2,37,7.1c3.6-2.7,6.2-6.3,9.4-9.3c4.1-4,7.8-8.4,12.7-11.7
		c16.3-11,42.3-4.4,46.4,11.4C408.2-74.4,407.5-70.3,403-66.4z"/>
	<path class="st2" d="M315.9,436.4c5-4.7,15.5-3.3,19.4,2.5c5.9,8.8-1.7,19.3-14.9,20.6c-16,1.6-29.4-6.4-30.7-18.4
		c-1.5-14,8.9-23.3,26.3-23.7c10.8-0.2,20.2,2.4,28.2,7.8c5.4,3.6,10.5,7.5,15.7,11.2c5.6,4,11.9,7.1,19.9,7.8
		c12.1,1.1,25.9-4.9,23.2-17c-0.1-0.3,0-0.7,0-1.6c5.4,4.9,5.4,10,3.1,15.2c-6.3,13.9-30.5,18.6-45.3,8.6c-4.6-3.1-8.2-7.2-12-11
		c-2.6-2.5-4.7-5.2-7.2-7.7c-4.2-4.2-9.9-6.8-16.8-7.6c-7.8-0.9-14.3,0.8-18.8,5.9c-4.1,4.7-6.6,9.8-4.8,15.5
		c1.4,4.3,4.9,7.3,10.8,8.3c7.2,1.3,13.2-1.4,14.2-6.2C327.3,441,323.4,437.2,315.9,436.4z"/>
	<path class="st2" d="M21.7,80c7.4,7.1,8.9,18.5,3.3,25.8c-4.9,6.4-12.5,9.4-22.2,8.8c-8.3-0.5-13.9-4.1-15.8-10.6
		c-2.4-7.9-2.1-15.7,4.8-23c0.6,5.3,0.4,10.9,6.7,14.1c2.7,1.4,6.7,1.9,10,1.8C17.7,96.6,21.4,91.7,21.7,80z"/>
	<path class="st2" d="M-8.4,278.1c-6.5-6.5-6.7-13.9-5.1-21.4c1.1-5.1,4.3-9.3,11.1-11.1c8.1-2.1,15.7-1.1,22,3.1
		c9.2,6.1,10.1,14,7.3,22.4c-1,2.8-2.9,5.4-5,7.8c-0.4-2.9-0.5-5.8-1.4-8.6c-1.7-5.3-6.6-8-13.7-8.1c-6.9-0.1-11.6,2.5-13.5,7.8
		C-7.6,272.6-7.8,275.3-8.4,278.1z"/>
	<path class="st2" d="M376,279.3c-11.1-10.4-8.2-26.6,5.4-32.4c13.7-5.9,27.8-0.7,30,11c1.3,7.2,0.7,14.1-5.3,20.1
		c-3.6-13.5-6.7-16.4-16.9-15.7C379.9,262.9,376.2,267.6,376,279.3z"/>
	<path class="st2" d="M375.9,80.5c0.5,11.8,4.2,16.2,13.9,16.7c9.9,0.5,13.3-2.8,16.2-15.9c7,7.6,7.3,15.8,4.1,24.1
		c-3.8,9.8-20.5,12.6-31.8,5.6c-8.2-5.1-10.2-12-8.5-19.5c0.9-3.9,3.2-7.5,4.8-11.3C375.1,80.2,375.5,80.3,375.9,80.5z"/>
	<path class="st2" d="M245.7,444.4c0.2-0.5,0.3-0.8,0.5-1.2c1.5-3,0.6-4.9-2.5-5.6c-3.6-0.8-7.3,0.9-8,3.7c-1,3.6,1.9,7.4,7.5,8.9
		c10.6,2.9,20.8,2,28.7-4.3c4.9-3.9,8.7-8.6,12.9-13.1c2.2-2.3,4.2-4.8,6.4-7c-2.9,8.1-5.8,16-12.4,22.8
		c-8.2,8.5-19.1,12.7-33.2,10.8c-12.1-1.6-19.9-10.8-16.7-19.2c2.3-6,11-8.9,18.2-6c3.2,1.3,4.7,3.5,4.2,5.9
		c-0.4,1.5-2.4,2.8-3.9,4.1C247.2,444.5,246.5,444.4,245.7,444.4z"/>
	<path class="st2" d="M105.4-67c3.9-6.8,7.3-13.8,11.9-20.3c5.4-7.7,14.4-12.2,26-13.3c12.9-1.2,24.1,4.7,26,13.9
		c0.8,4.2-0.3,8.1-4.9,10.9c-3.7,2.2-8.2,2.5-12.6,1.3c-3.7-1-5.4-3.1-5.4-6c0-2.1,1.2-3.9,4.2-4.6c0.3-0.1,0.7,0,1.4,0.1
		c-0.1,0.4-0.3,0.7-0.3,1.1c0.1,1.6-0.5,3.6,0.5,4.7c0.8,0.9,4,1.3,5.4,0.8c1.9-0.7,3.8-2.3,4.4-3.8c1.3-3.5-1.8-7.2-7.2-8.7
		c-9.1-2.5-17.9-2.2-25.9,2.3c-6.9,3.9-11.3,9.2-15.5,14.7c-2,2.5-4.2,5-6.3,7.4C106.3-66.6,105.9-66.8,105.4-67z"/>
	<path class="st2" d="M290.9-66.4c-2-2.3-3.9-4.7-6-6.9c-4.2-4.4-7.9-9.2-12.8-13.1c-7.9-6.4-18-7.3-28.7-4.6c-3.9,1-6.7,3-7.7,6.2
		c-0.3,0.9-0.3,1.9,0,2.8c0.7,2.8,4.5,4.5,8.1,3.7c3.2-0.8,3.8-2.7,2-6.5c3.4-0.2,5.6,1.4,5.6,4.2c0,2.8-2.2,5.2-5.8,6.1
		c-8.9,2.3-17-2.2-17.4-9.7c-0.5-10,12-17.9,26.2-16.5c9.8,1,17.8,4.3,23.6,10.4c5,5.2,8.8,10.9,10.9,17.2c0.7,2.1,1.8,4.1,2.7,6.2
		C291.3-66.6,291.1-66.5,290.9-66.4z"/>
	<path class="st2" d="M116.3,446.3c-0.8-1.3-1.5-2.6-2.3-3.9c-1.5-2.7-3.2-5.4-4.5-8.2c-1.3-2.7-2.1-5.4-2.8-8.4
		c2,2.3,3.9,4.7,6.1,6.9c4.4,4.6,8.3,9.4,13.4,13.5c7.2,5.8,16.5,6.6,26.4,4.6c4.2-0.8,7.6-2.6,9.1-5.9c1.6-3.4-0.4-6.8-4.5-7.3
		c-1.7-0.2-4.1,0.1-5.1,1c-1,0.8-0.8,2.6-0.9,3.9c0,0.5,0.5,1,0.8,1.6c-3.6,0.1-5.7-1.5-5.7-4.3c0-2.9,2.3-5.2,6.2-6.1
		c8.9-2.1,16.6,2.4,17,9.8c0.5,10-12,17.8-26.2,16.4c-10.4-1-18.5-4.8-24.5-11.3c-0.8-0.8-1.7-1.6-2.6-2.4
		C116.2,446.2,116.3,446.3,116.3,446.3z"/>
	<path class="st2" d="M203.6,435.5c1.1,10.4,7.6,13.8,23.1,12.3c0.1,2-2.1,3.5-6.7,4.6c-7.3,1.6-14.8-0.3-18.1-4.5
		C198.9,444,198.8,437.8,203.6,435.5z"/>
	<path class="st2" d="M170.6-88.2c0.4-2.6,3.7-4.5,8.3-5.1c7.7-1.1,14.1,0.9,17.1,5.2c2.8,4,2.6,9.7-1.9,12c-0.2-4.5-1.8-8.6-7.1-11
		C182-89.5,176.6-89.7,170.6-88.2z"/>
	<path class="st2" d="M203.8-76.2c-4.4-2.8-5.2-7-2.4-11.5c2.9-4.7,9.4-6.7,17.4-5.6c4.7,0.7,7.9,2.6,8.1,5.1
		c-5.7-1.4-11.3-1.3-16.3,1.1C205.5-84.6,203.7-80.8,203.8-76.2z"/>
	<path class="st2" d="M194,435.5c4.7,2.3,4.9,8.2,1.7,12.4c-3.3,4.2-10.8,6.1-18.1,4.5c-4.5-1-6.8-2.6-6.7-4.5
		C186.5,449.3,193,445.9,194,435.5z"/>
</g>
<g>
	<g>
		<path class="st3" d="M318.9,155.8c-0.9,0.6-2.8,1.7-3,2.7c-0.3,1.5,0.8,2.4,1.7,2.5c1.2,0.1,3.6-1.3,4.9-2.1
			c3.4-1.9,7.2-3.7,10.3-5.4c0.4-0.2,0.8-0.4,1.1-0.6c0.8-0.4,1.8-0.7,2.4-1.1c0.9-0.6,2.1-2.6,1.8-4.1c-0.2-1.1-2.2-2.1-3.4-1.8
			h-0.2c-2.6,1.4-5.4,3.4-8.3,5.3C323.8,152.8,321.3,154.4,318.9,155.8z"/>
		<path class="st3" d="M330.5,196.9c-2.9-1.8-5.2-3.8-7.7-5.6c-2.7-2-6.6-2.5-10.3-3c-3.7-0.4-7.1-2.6-8.2-5
			c-0.9-1.9-0.9-3.9-1.5-5.5c-1.9-5.3-6.2-7.1-12.9-8.1c-0.3-2.8-1.4-4.3-3.2-5.4c-1-0.6-2.3-0.7-3.2-1.4c-0.8-0.6-0.8-2-1.5-2.9
			c-1.5-1.9-4.8-1.9-6.9-3c-2-1-2.7-2.9-4.7-4.3c-1-0.7-1.9-0.9-3.3-1.3c-3.1-0.8-7.3-0.1-9.6,1.6c-0.9,0.7-1.8,2-2.9,3
			c-1,1-2,2.3-3.2,2.7c-0.8,0.3-1.7,0.3-2.5,0.6c-1.2,0.5-2.4,1.5-3.7,2.2c-2.7,1.6-4.4,3.1-6.6,5c-2,1.7-3.3,3.2-6.3,3.7
			c-1.1,0.2-2.6,0.2-3.8-0.5c-0.4-1,0-2.1,0.7-2.3c0.7-0.8,1-1.3,1.7-1.6c1.2-0.5,3.1-0.3,4.2-0.6c2.5-0.5,4.8-2.6,6.1-4.6
			c1.6-2.5,3.4-6.9,3-11.2c-0.1-1.2-1-2.7-0.7-4.1c0.2-0.7,1.1-1.1,1.7-1.6c1.9-1.6,3.7-3.5,4.9-5.1c1.6-2,2.3-4.2,2.6-7.3
			c0.1-1.1,0.4-2.3,0.5-3.3c0-3.5-0.6-7.2-0.8-10.5c-0.1-1.5,0.1-3.5,0-5.4c-0.1-1.7-0.8-3.7-0.5-5.3c0.2-0.9,1.4-2,1.9-2.9
			c0.6-1,1.2-2.2,1.6-3.2c0.9-2.3,0.8-5.4,1-8.6c0.2-3,1.1-5.3,1.7-7.9c0.8-3.1,2.4-7.3,0.9-10.4c-1.8-3.8-6.4-6.4-10.5-8.9
			c-1.8-1.1-3.7-2.7-5.7-4s-4.1-2.8-5.4-4.5s-1.6-4-2.1-6.2c-0.5-2.1-1.3-4.3-2.2-6.2c-2.8-6-8.2-12-13.8-15.3
			c-0.9-0.5-1.7-1.2-2.5-1.7c-2.6-1.4-6.5-1.9-9.9-2.5c-1.2-0.2-2.3-0.7-3.4-0.8c-1.3-0.1-2.5,0-3.7-0.1c-3.1-0.4-6.8-1.9-9.9-1.6
			c-5.2,0.5-10.6,0.5-15.7,1.5c-2.3,0.4-4.7,1.1-7.1,1.5s-5,0.6-7.1,1.5c-2.4,0.9-4.5,3.5-6.2,5.7c-1.8,2.4-3.6,4.9-5.3,6.7
			c-2.7,3.1-5.7,6.2-8.3,9.5c-0.9,1.2-2.1,2.4-2.5,3.5c-0.6,1.6,0,3.7-0.5,5.1c-0.3,0.9-1.5,1.4-2.5,2.1c-1.2,0.8-1.9,1.3-2.7,1.8
			c-3.9,2.5-6,5.7-9.1,9.1c-1.5,1.7-3.4,3.3-4.1,5.1c-0.6,1.6-0.8,3.9-0.6,5.7c0.2,1.8,1.2,3.6,0.9,5.5c-0.2,1.2-1.6,2-2.2,3.1
			c-2.4,4.4-1.5,10.1-0.2,14.6c0.5,1.7,1,3.5,1.6,4.9c0.4,1,1.4,1.8,1.6,2.9c0.6,3-0.6,5.9-1.4,8.6c-0.4,1.2-0.8,2.6-1,4
			c-0.3,1.5-0.7,3.3-0.5,4.7c0.2,1.4,1.2,2.9,1.9,4.2c0.7,1.4,1.4,2.9,2.2,4.1c1.6,2.6,3.7,5,4.2,8.3c0.4,2.7-0.1,5.3,1,7.4
			c1.9,3.7,7.2,4.4,11.5,5.6c1.3,1.1,2.7,2.7,3.2,4.2c-3.5,1.7-6.4,0.4-9-1c-6.3-3.5-9.9-8.4-15.1-12.7c-1-0.8-2.1-1.6-3.2-2.4
			c-1.2-0.8-2.1-1.8-3.2-2.4c-2-1.1-4.8-0.7-7.4-0.3c-2.1,0.3-4,0.6-5.8,0.9c-2.2,0.3-4.2,0.4-6.1,0.7c-4,0.6-7.1,1.9-9.4,4.2
			c-1.2,1.2-2.5,2.2-3.5,3.2c-1.2,1.2-2.4,2.1-3.7,3.1c-2.2,1.7-5.5,2.8-6.4,5.4c-0.8,2.2,0.5,5,1.3,6.6c0.4,0.9,2.5,2,2.4,3
			c-0.1,0.6-1.2,1.3-1.8,1.7c-2.1,1.7-4.4,2.8-5.6,5c-0.9,1.7-1.6,4.3-1.6,6.9c0,1.2,0.6,2.7,0.3,3.9c-0.2,1-1.7,2.1-2.3,3.1
			c-0.6,1-1.3,2.5-1.6,3.8c-1.6,6-3.4,10.8-6.6,15.1c-1.2,1.6-4,4.5-4.1,6.7c-0.1,2.7,1.6,5.5,3,6.6c1.9,1.6,5.8,1.6,8.1,0.6
			c1.7-0.8,3.2-2.3,4.7-3.4c0.6-0.4,1.6-1.1,2.3-1.8c0.9-0.9,1.1-1.9,2.1-2.1c0.8-0.1,2.3,0.6,3.5,0.8c2.6,0.4,5,0.2,6.7-0.6
			c1.1-0.5,1.9-1.7,2.9-1.8c0.8-0.1,2,0.5,2.7,0.8c2.6,1,4.9,2.4,8,2.6c0.2,0,0.4,0,0.7,0c2.4-0.3,5.5-0.6,7.4-1.4
			c3.2-1.2,5.4-3.1,7.8-5.1c1.8-1.6,3.4-3,4.5-5.1c0.4-0.7,0.6-1.6,1.1-2.2c1.3-1.4,3.8-1.4,5.8-2.2c1.6-0.6,3.3-1.8,4.5-2.6
			c2.9-2.2,4.6-4.4,6.9-7.3c0.4-0.6,1.1-1.2,1.6-1.9c0.6-0.9,0.8-1.7,1.5-2.2s1.8-0.7,2.6-1.1c2.4-1.3,3.9-2.5,5.7-4.2
			c0.4-0.4,1-0.8,1.6-1.5c0.4-0.4,1-1.5,1.7-1.4c0.7,0.2,1.3,2.1,1.7,3.1c0.5,1.2,0.9,2.4,1.5,3.3c0.4,0.6,1,0.9,1.4,1.5
			s0.5,1.4,0.9,2.1c-9.7,5.6-16.9,12.2-22.7,21c-5.7,8.7-10,19.3-10.5,33.2c-0.6,14.1,4,25.7,9.3,34.5c4.8,8,10.9,14.5,18.5,19.8
			c1.3,0.9,2.7,1.5,2.5,3c-0.2,1.7-2.2,1.4-3.7,1.7c-1.1,0.2-2.4,0.6-3.1,1c-1.5,0.8-3.4,2.6-4,4.2c-0.9,2.5-0.5,6.3-0.6,9.8
			c-0.1,2.7-0.4,5.5,0,7.3c0.8,3.4,4.8,5,8.3,6.2c10.1,3.5,22.2,4.8,35,4.8c12.4,0,25.7-0.6,35.6-3.8c3.4-1.1,6.8-2.5,8.1-5.1
			c1-2,1.3-4.7,1.4-7.7c0-2.8,0.4-6.1,0.1-8.7c-0.5-4-4.1-6.4-7.4-7.4c-1.1-0.3-3-0.1-3.8-1c-1.3-1.7,1-3.4,1.6-3.8
			c8.1-4.8,14.6-10.5,19.6-18c5.6-8.4,10.1-19.5,10.4-32.7c0.3-14.5-3.4-25.4-8.6-34.5c-4.8-8.5-11.8-15.5-19.5-20.8
			c-0.5-0.3-1.2-0.6-1.4-1.1c-0.2-1.4,0.3-2.1,0.9-2.6c0.5-0.7,0.7-1.7,1.5-2.1c2.8,0.6,3.9,2.4,5.4,4.3c0.9,1.1,1.9,2.2,2.7,3.2
			c1.9,2.2,3.4,4,6.1,5.7c2.5,1.6,4.8,3,8,3.8c3,0.7,6.4,1.2,10.6,1.1c2,2.3,3.6,5,6.5,6.9c1.2,0.7,3.1,1.6,4.5,2.3
			c0.8,0.4,2.1,0.7,3.2,0.6c1.3,1.7,2.9,3,4.8,3.8c0,1.4,1.4,3.1,2.7,3.7c3.2,1.4,7.5,0.5,10.6-0.9c6-2.8,10.1-7.3,15.9-9.9
			c1.5-0.7,3-1.3,4.2-2.2c1.3-0.9,2.1-2.3,3.4-3.1c1.3-0.8,4-1.7,5.6-1.7s2.2,1,3.4,1.8c2.5,1.8,5.6,3.8,9.1,4.2
			c2.3,0.3,5.6-1,7.2-2.1c1.5-1,3.9-3.4,3.8-5.9C337.1,200.1,333.4,198.7,330.5,196.9z"/>
		<path class="st3" d="M301.6,143.3c1.1,0,2.6-1.8,3.7-2.9c3.5-3.5,6.6-6.5,9.9-9.8c4-4,7.5-7.6,11.7-11.3c0.6-0.6,1.4-1.1,1.7-1.6
			c1.2-2.1,0.3-5.4-2.5-4.5c-2.1,0.5-3.2,2.2-4.7,3.8c-6.6,6.9-12.4,13.4-19,20.6c-1.1,1.2-2.9,2.5-2.9,3.8
			C299.5,142.2,300.1,143.3,301.6,143.3z"/>
		<path class="st3" d="M314.7,271.9c-1.9-0.6-4.5-0.6-6.7-0.9c-4.7-0.7-9-1.2-13.7-1.8c-4.6-0.6-9.3-1.3-13.7-1.8
			c-2.3-0.3-4.7-0.5-7-0.8c-4.5-0.7-8.9-1.6-13.5-2.1c-0.1,0-0.2,0.1-0.2,0.1c-1.1,0.3-1.6,1-1.5,2.2c0.2,1.9,3.5,2,5.7,2.4
			c7,1.4,14,2.5,20.7,3.8c7.2,1.4,13.5,2.5,20.6,3.9c3.8,0.7,8.5,2.1,11.3-0.1C318.8,275.1,316.7,272.6,314.7,271.9z"/>
		<path class="st3" d="M272.6,127.3c0.9-0.1,2-1.6,2.9-2.6c4.3-5.1,8.3-10.3,12.3-15.4c0.7-0.9,1.5-2,2.4-3.1c0.9-1,2.1-2.2,2.4-3.2
			c0.7-2.2-1.2-4-3.1-3.5c-1.2,0.3-2.1,2-2.9,3.1c-2.6,3.6-4.5,6-7.2,9.7c-2,2.7-4,5.3-5.9,8c-0.9,1.2-3.4,3.9-3.2,5.4
			C270.4,126.6,271.4,127.4,272.6,127.3z"/>
		<path class="st3" d="M280.2,246.1c2.6,0.3,5.2,0.8,7.7,0.8c2,0,4.1-0.4,4.2-2.2c0.1-1.1-1.1-2.6-2.2-3c-1-0.4-2.4-0.4-3.3-0.5
			c-7.6-0.8-17.8-1.1-24.7-1.7c-0.1,0-0.2,0.1-0.2,0.1c-1.4,0.2-2.4,0.7-2.4,2.1c-0.1,2.3,3.2,2.2,5.8,2.5
			C270.5,244.9,275.3,245.5,280.2,246.1z"/>
		<path class="st3" d="M278.8,291.9c-1.3-0.6-2.5-1.2-3.4-1.7c-6-2.9-11.8-5.2-17.4-8.3c-1.1-0.6-2.5-1.7-3.3-1.8
			c-1.4-0.2-2.2,1-2.3,1.7c-0.2,2.2,1.9,2,2.9,3.4c4.5,1.9,8.5,5,12.7,7.3c2.4,1.4,4.7,2.8,7.1,4.1c1,0.6,2,1.5,2.9,1.6
			c1.3,0.1,3.5-1,4-2.1C283.2,293.4,280.7,292.8,278.8,291.9z"/>
		<path class="st3" d="M254.7,305.5c-2.2-1.7-4.5-4.3-6.4-5.6c-0.3-0.2-0.9-0.4-1.4-0.7c-0.5-0.4-0.7-0.8-1.1-0.9s-1.3,0.1-1.5,0.1
			c-0.7,0.2-1.6,0.7-1.5,2.2c0.1,1.3,2,2.4,2.9,3.3c2.2,2.2,4,4.1,6.4,5.9c0.8,0.6,2.3,2.5,3.7,2.5c0.9,0,1.9-0.6,2.1-1.5
			s-0.4-2.9-0.9-3.7C256.5,306.6,255.6,306.2,254.7,305.5z"/>
		<path class="st3" d="M119.4,293.9c-3.6,1.9-6.2,3.5-10.7,6.1c-2.8,1.6-5.4,2.9-8.1,4.5c-1.1,0.6-2.3,1.1-2.5,1.7
			c-0.7,1.8,0.6,4.1,1.5,4.5c1.7,0.7,2.9-0.5,3.9-1.1c4.6-3.2,9.5-6.3,13.8-9.3c1-0.6,1.6-1.2,2.5-1.8c0.9-0.6,2.2-1,2.4-2.1
			C122.4,294.6,120.7,293.2,119.4,293.9z"/>
		<path class="st3" d="M107.9,274.8c0-1.7-1.5-2.4-3.4-1.9c-16.5,7-32.8,14.2-49.5,21c-1.3,1.1-2.9,2.5-2.6,4.5
			c0.3,2.1,3,2.3,5.5,2.2c7.9-4.2,16.5-8.1,25.2-12.6c6.3-3.2,12.5-6.5,19.1-9.4C104.1,277.7,107.9,276.8,107.9,274.8z"/>
		<path class="st3" d="M58.4,252.5c-2.3,0.4-4.6,0.8-5,1.9s0,3.2,0.8,3.7c0.7,0.4,2.7,0.4,3.8,0.3c1.9-0.2,3.8-1,5.7-1.4
			c11.6-2.6,23-5.4,35.2-7.5c2.2-0.4,4.5-1,4.6-2.6c0.1-2.2-2.1-2.1-4.1-1.9H99c-5.7,0.9-11.8,2.3-17.4,3.2
			c-6.2,1-10.8,2.1-17.6,3.2C62.8,251.6,60.4,252.1,58.4,252.5z"/>
		<path class="st3" d="M97.9,235.2c2.5,0.2,5,0.8,4.8-1.8c-0.1-1.9-2.5-2-5.1-2.4c-2.4-0.4-4.7-0.7-6.6-1c-4.9-0.8-8.9-1.7-13.1-2.1
			c-0.1,0-0.2,0.1-0.2,0.1c-1.8,0.1-2.3,0.5-3.1,1.6c-2.4,3.4,1.6,4,5,4.2C86.1,234.3,91.8,234.7,97.9,235.2z"/>
		<path class="st3" d="M96.1,131.7c0.8,1,1.9,2.3,2.9,2.4c1.2,0.1,2.3-0.8,2.2-2.2c-0.1-0.9-1.4-2-2.1-3
			c-4.4-6.1-8.5-11.5-12.8-17.4c-1.1-1.4-1.9-3.5-4.1-2.9c-0.9,0.2-2.1,1.3-2.2,2.5c0,1.1,1.2,2.3,1.9,3.2
			C86.9,120.3,91.4,125.8,96.1,131.7z"/>
		<path class="st3" d="M52.2,121.7c5.3,4.9,11,10.3,16.3,15.2c1.1,1,2.4,2.8,3.7,2.7c1.2,0,2-1,1.9-2.1c0-1-1.4-2.2-2.3-3.1
			c-4.5-4.5-8.7-9.5-13-13.8c-1.8-1.8-3.6-4-5.4-5.5c-0.8-0.7-1.9-1.3-3-2.1c-1-0.7-2.3-1.9-3.5-1.6c-0.8,0.2-1.4,0.8-1.5,1.7
			c-0.1,1.7,1.2,2.8,2.1,3.7C49.1,118.5,50.6,120.3,52.2,121.7z"/>
		<path class="st3" d="M54.2,161.9c1.3,0.1,2.7-1.1,2.1-2.9c-0.3-0.7-2.4-1.9-3.4-2.5c-1.3-0.8-2.9-1.9-3.7-2.4
			c-6.5-4.3-11.6-8-18.1-12.1c-1.6-1-2.9-2.6-5.3-2.3c-1.5,0.2-3.3,0.7-3.5,1.9c-0.4,1.8,0.9,3,2.2,3.7c2,1.1,4.2,2.3,5.9,3.3
			c2.8,1.6,5.2,3,7.9,4.5c3.9,2.2,7.7,4.5,11.8,6.7C51.2,160.4,53.3,161.8,54.2,161.9z"/>
	</g>
	<path class="st4" d="M231.5,167.8c1.1,0.7,2.6,0.6,3.8,0.5c3-0.4,4.3-1.9,6.3-3.7c2.2-1.9,3.9-3.4,6.6-5c1.2-0.7,2.4-1.7,3.7-2.2
		c0.8-0.3,1.7-0.3,2.5-0.6c1.2-0.5,2.2-1.8,3.2-2.7c1-1,1.9-2.3,2.9-3c2.3-1.7,6.5-2.4,9.6-1.6c1.4,0.3,2.3,0.5,3.3,1.3
		c2,1.4,2.7,3.3,4.7,4.3c2.1,1.1,5.4,1.1,6.9,3c0.7,0.9,0.7,2.3,1.5,2.9c0.9,0.7,2.2,0.8,3.2,1.4c1.8,1,2.9,2.6,3.2,5.4
		c6.7,1,11,2.8,12.9,8.1c0.6,1.6,0.6,3.5,1.5,5.5c1.1,2.4,4.5,4.6,8.2,5s7.6,1,10.3,3c2.4,1.8,4.8,3.8,7.7,5.6
		c2.9,1.8,6.6,3.3,6.7,7.2c0.1,2.6-2.2,4.9-3.8,5.9c-1.6,1.1-4.9,2.3-7.2,2.1c-3.5-0.4-6.7-2.5-9.1-4.2c-1.2-0.9-1.9-1.8-3.4-1.8
		c-1.6,0-4.3,0.9-5.6,1.7c-1.3,0.8-2.1,2.2-3.4,3.1c-1.3,0.9-2.7,1.5-4.2,2.2c-5.8,2.7-9.9,7.2-15.9,9.9c-3.1,1.5-7.4,2.3-10.6,0.9
		c-2-0.8-4.1-4.3-1.4-5.6c1.2-0.5,3.2,0.1,4.7,0.1c1.9,0,3.3-0.5,4.5-0.8c2.9-0.8,4.7-1.8,7.2-3.3c2.1-1.3,3.7-3.2,6.2-4.3
		c1.3-0.6,6.7-1.9,6.9-3.7c0.2-1.9-3.9-2.8-2.7-5.3c1.1-0.8,2,0.3,3,0.8c0.8,0.5,2.1,1,3.1,1.3c1.5,0.3,6,0.4,6.4-0.9s-1.5-1.7-1-3
		c0.6-1.6,3.3-0.3,4,0.3c0.5,0.5,0.8,1.2,1.4,1.6c0.7,0.5,1.1,0.8,1.6,1.3c0.9,1,2.1,1.9,3.2,2.6c2.1,1.4,4.1,3,7.2,1.4
		c0.7-0.4,2-1.2,1.9-2.2c0-1.2-2.1-1.7-3.4-2.3c-2.6-1.2-4.9-2.8-7-4.5c-1.1-0.9-2.1-2.1-3.4-2.6c-2-0.8-5.4-0.8-8-0.9
		c-1,0-2-0.3-2.6-0.2c-0.8,0.1-1.3,1-1.8,1.5c-1.1,1.1-2,1.5-4,1.8c-3.2,0.6-5.6-0.2-7.4-2.2c-0.5-0.5-1.1-1.3-1.7-1.4
		c-1.1-0.1-1.8,0.9-2.9,1.4c-3.2,1.4-6.8,0.3-9.5-1.1c-2.6-1.5-4.9-3.2-6.1-5.9c-0.6-1.3-1.1-3.8,0.5-4.2c1.6-0.5,3,1.5,3.7,2.2
		c1.1,1.1,2.3,1.9,3.3,2.6s2.6,1.7,4.1,1.8c1.7,0.2,4.2-0.3,4.3-1.6c0.2-1.6-3.3-3-4.7-3.2c-1.3-0.1-2.9,0.5-3.7,0
		c-0.8-0.6-0.4-2.9-0.5-4.1c-0.1-2.1-0.6-8.6-2.3-9.3c-0.9-0.3-2.6,0.3-3.8,0.5c-1.3,0.2-2.6,0.3-3.9,0c-2-0.5-4.6-1.5-6.2-2.5
		c-0.8-0.5-3.2-2.6-2.2-4.6s4.3,0,5.4,0.8c2.6,1.9,6,3.6,9.1,1.4c0.7-0.5,1.9-1.6,1.7-2.9c-0.2-1.7-3.6-1.7-5.4-2.3
		c-0.9-0.3-1.9-0.7-2.7-1.1c-1.8-0.9-3.7-2.2-6.5-1.9c-1.2,0.1-2.2,0.9-3.2,1.6c-0.8,0.5-1.6,1.2-2.3,1.7c-1.1,0.9-1.6,2.2-2.7,2.7
		c-4.1-0.6-6.1,2.7-8.1,5.4c-0.6,0.8-1.4,1.5-1.5,2.2c-0.1,1.2,1.1,2.4,0.1,3.2c-1.4,1.1-2.9-1.2-4.2-1.4c-0.9-0.1-2.3,0.2-3.4,0.2
		c-1.1,0.1-2.1,0.5-3.1,0.6c-2.7,0.3-5.4,0.5-7.9,0.1c-0.8-0.1-1.7,0.5-2.6,0.5c-1,0-2.2-0.7-3.1-1c-1-0.4-2-0.8-2.7-1.3
		c-2.1-1.3-3.5-3.6-5.6-4.7c-5,0.9-9.5-1.5-13.3-3c-1.5-0.6-2.8-1-4.6-1.9c-1.1-0.6-3.8-2.1-5-1c-0.8,0.7-0.3,2.2,0,3
		c0.7,1.5,2.9,3.8,4.7,4.7c1.5,0.8,3.6,1.5,5.7,2.3s4.4,1.3,6.4,1.6c1.8,0.2,3.6,0,3.9,1c0.3,1.2-1.1,1.6-1,2.7
		c0.1,1.4,3.2,2.4,4.8,3c1.4,0.5,3,1.4,4.7,2.1s3.5,1.1,4.8,1.8c1.4,0.8,2.8,2.2,4,3.4c3.6,3.7,7.5,7.2,12.2,9.9
		c1.5,0.9,3.1,1.8,5.1,2.3c1.9,0.4,4.2,0.6,6.7,0.7c2.4,0,4.7-0.1,7.1,0.3c1.6,0.3,4.6,1.1,4.6,2.7c0,0.7-0.5,1-0.7,1.1
		c-1.1,0.7-2.1-0.6-3.5-0.2c0,1,1.2,1.8,2.1,2.4c1.7,1.3,3.6,2.5,5.5,3.9c0.9,0.7,2.2,1.6,1.8,3.2c-0.4,1.8-3.4,1.3-4.8,0.6
		c-1.3-0.6-3.3-1.6-4.5-2.3c-2.9-1.8-4.5-4.5-6.5-6.9c-4.3,0.1-7.7-0.4-10.6-1.1c-3.2-0.8-5.5-2.2-8-3.8c-2.6-1.7-4.2-3.5-6.1-5.7
		c-0.8-1-1.9-2.1-2.7-3.2c-1.5-1.9-2.6-3.8-5.4-4.3c-0.8,0.4-1,1.3-1.5,2.1c-0.6,0.5-1.1,1.2-0.9,2.6c0.2,0.6,0.9,0.8,1.4,1.1
		c7.7,5.3,14.8,12.3,19.5,20.8c5.1,9.1,8.9,20,8.6,34.5c-0.3,13.1-4.8,24.3-10.4,32.7c-5.1,7.6-11.5,13.2-19.6,18.1
		c-0.6,0.3-2.9,2.1-1.6,3.8c0.7,0.9,2.7,0.7,3.8,1c3.3,1,6.9,3.4,7.4,7.4c0.3,2.6-0.1,5.9-0.1,8.7c0,2.9-0.4,5.7-1.4,7.7
		c-1.3,2.6-4.7,4.1-8.1,5.1c-10,3.2-23.3,3.8-35.6,3.8c-12.8,0-24.9-1.3-35-4.8c-3.5-1.2-7.6-2.8-8.3-6.2c-0.4-1.8-0.1-4.6,0-7.3
		c0.1-3.5-0.4-7.3,0.6-9.8c0.6-1.6,2.5-3.4,4-4.2c0.7-0.4,2-0.8,3.1-1c1.4-0.3,3.5,0,3.7-1.7c0.1-1.5-1.2-2.1-2.5-3
		c-7.6-5.3-13.7-11.8-18.5-19.8c-5.2-8.8-9.8-20.4-9.3-34.5c0.6-13.9,4.8-24.6,10.5-33.2c5.8-8.9,13-15.4,22.7-21
		c-0.4-0.7-0.5-1.4-0.9-2.1c-0.4-0.6-1-0.9-1.4-1.5c-0.6-0.9-1-2.1-1.5-3.3c-0.4-1-1-2.9-1.7-3.1c-0.7-0.1-1.4,1-1.7,1.4
		c-0.6,0.7-1.2,1.1-1.6,1.5c-1.8,1.7-3.3,2.9-5.7,4.2c-0.9,0.5-1.9,0.7-2.6,1.1c-0.7,0.5-0.9,1.3-1.5,2.2c-0.5,0.8-1.2,1.4-1.6,1.9
		c-2.2,2.9-3.9,5.2-6.9,7.3c-1.2,0.9-2.9,2-4.5,2.6c-2.1,0.8-4.5,0.8-5.8,2.2c-0.6,0.6-0.8,1.5-1.1,2.2c-1.1,2.1-2.6,3.6-4.5,5.1
		c-2.4,2.1-4.6,3.9-7.8,5.1c-1.9,0.7-5,1-7.4,1.4c-0.2,0-0.5,0-0.7,0c-3.1-0.2-5.4-1.7-8-2.6c-0.8-0.3-2-0.9-2.7-0.8
		c-0.9,0.1-1.8,1.3-2.9,1.8c-1.7,0.8-4.1,1-6.7,0.6c-1.2-0.2-2.7-0.9-3.5-0.8c-0.9,0.1-1.2,1.2-2.1,2.1c-0.7,0.7-1.7,1.4-2.3,1.8
		c-1.4,1.1-3,2.7-4.7,3.4c-2.3,1-6.2,1-8.1-0.6c-1.4-1.1-3.1-3.9-3-6.6c0.1-2.3,2.9-5.1,4.1-6.7c3.2-4.3,5.1-9.1,6.6-15.1
		c0.3-1.3,1-2.7,1.6-3.8c0.6-1,2.1-2.1,2.3-3.1c0.2-1.2-0.4-2.7-0.3-3.9c0-2.5,0.7-5.2,1.6-6.9c1.2-2.2,3.5-3.4,5.6-5
		c0.6-0.5,1.8-1.1,1.8-1.7c0.1-1-1.9-2-2.4-3c-0.8-1.6-2-4.4-1.3-6.6c0.9-2.6,4.2-3.7,6.4-5.4c1.2-1,2.5-1.9,3.7-3.1
		c1-1,2.4-2,3.5-3.2c2.3-2.3,5.4-3.6,9.4-4.2c1.9-0.3,3.9-0.4,6.1-0.7c1.8-0.3,3.7-0.6,5.8-0.9c2.7-0.4,5.4-0.7,7.4,0.3
		c1.1,0.6,2,1.6,3.2,2.4c1.1,0.8,2.2,1.6,3.2,2.4c5.2,4.3,8.8,9.2,15.1,12.7c2.6,1.4,5.5,2.7,9,1c-0.5-1.5-1.9-3.1-3.2-4.2
		c-4.3-1.2-9.7-1.9-11.5-5.6c-1.1-2.1-0.6-4.7-1-7.4c-0.5-3.3-2.6-5.7-4.2-8.3c-0.7-1.2-1.4-2.7-2.2-4.1c-0.7-1.4-1.7-2.9-1.9-4.2
		c-0.2-1.4,0.2-3.1,0.5-4.7c0.2-1.4,0.7-2.8,1-4c0.8-2.6,2-5.6,1.4-8.6c-0.2-1.1-1.2-1.9-1.6-2.9c-0.6-1.4-1.1-3.2-1.6-4.9
		c-1.3-4.5-2.2-10.2,0.2-14.6c0.6-1.1,2-1.9,2.2-3.1c0.3-1.9-0.7-3.7-0.9-5.5c-0.2-1.9,0-4.1,0.6-5.7c0.7-1.9,2.6-3.5,4.1-5.1
		c3.1-3.4,5.2-6.6,9.1-9.1c0.9-0.5,1.6-1.1,2.7-1.8c1-0.7,2.2-1.1,2.5-2.1c0.5-1.5-0.1-3.5,0.5-5.1c0.4-1.2,1.6-2.4,2.5-3.5
		c2.7-3.3,5.6-6.4,8.3-9.5c1.6-1.9,3.5-4.4,5.3-6.7c1.7-2.2,3.8-4.8,6.2-5.7c2.1-0.8,4.6-1.1,7.1-1.5c2.4-0.4,4.8-1,7.1-1.5
		c5.1-1,10.4-1,15.7-1.5c3.1-0.3,6.8,1.3,9.9,1.6c1.1,0.1,2.3,0,3.7,0.1c1.1,0.1,2.2,0.6,3.4,0.8c3.5,0.6,7.3,1.1,9.9,2.5
		c0.9,0.5,1.6,1.2,2.5,1.7c5.6,3.3,11,9.3,13.8,15.3c0.9,1.8,1.7,4,2.2,6.2s0.8,4.4,2.1,6.2c1.2,1.7,3.4,3.1,5.4,4.5
		c2,1.3,3.9,2.9,5.7,4c4.1,2.5,8.7,5.1,10.5,8.9c1.5,3.1-0.2,7.3-0.9,10.4c-0.6,2.6-1.5,4.9-1.7,7.9c-0.2,3.2-0.1,6.2-1,8.6
		c-0.4,1.1-1,2.2-1.6,3.2c-0.6,0.9-1.8,2-1.9,2.9c-0.3,1.5,0.4,3.5,0.5,5.3c0.1,1.9-0.1,3.8,0,5.4c0.2,3.3,0.8,7,0.8,10.5
		c0,1-0.3,2.2-0.5,3.3c-0.3,3.1-1.1,5.3-2.6,7.3c-1.3,1.6-3.1,3.5-4.9,5.1c-0.6,0.5-1.6,0.9-1.7,1.6c-0.3,1.4,0.6,3,0.7,4.1
		c0.4,4.3-1.4,8.7-3,11.2c-1.2,1.9-3.6,4.1-6.1,4.6c-1.2,0.2-3.1,0.1-4.2,0.6c-0.7,0.3-1,0.8-1.7,1.6
		C231.5,165.8,231.2,166.9,231.5,167.8z M191.6,35.8c-1.9-0.2-0.4-4.5-2.2-5.6c-0.6-0.3-1.5-0.3-2.5-0.2c-1.1,0.9-0.2,2.7-0.1,4.2
		c0.1,1.8-0.3,3.6,0.5,4.9c2,0.9,4.5-0.5,6.9-0.3c0.7,0.1,1.4,0.4,2.1,0c0.8-0.9-0.2-2.2-0.3-3.4c-0.3-2.3,0.2-5.1-2.5-5
		C191.8,31.2,194.1,36,191.6,35.8z M198.8,31.8c-0.7,2.1-0.4,9.5,1.9,9c0.9-0.2,0.9-1.8,1-3.3s0.6-2.9,0.7-3.8
		c0.2-2.3-0.4-3.7-2.3-3.2C199.5,30.7,198.9,31.2,198.8,31.8z M174,35c-0.1,2.3,0.8,5.9-1.1,6.1c-0.8,0.1-1.5-0.5-1.7-1
		c-0.6-1.5,1.4-6.9-0.2-7.8c-0.4-0.2-1.4-0.1-1.7,0.2c-0.4,0.4-0.3,1.5-0.3,2.4c-0.1,1.3-0.5,3.5-0.5,4.7c0,2.7,1.2,5.1,1.3,7
		c0.1,1.3-0.5,2.1,0.2,3c0.8,0.3,1.4-0.3,2.3-0.3c0.9-0.1,1.8,0.2,2.6,0.1c1.5-0.2,3.2-1.2,3.4-2.6c0.2-1.1-0.4-2.9-0.7-4.3
		c-0.3-1.3-0.7-2.8-0.8-4.2c-0.2-2.7,0.5-5-0.2-7C174.8,30.6,174.1,33.1,174,35z M211.7,37.7c0.1,1.4-0.2,3.6-0.5,4.5
		c-0.3,1-1.4,1.3-1.3,2.4c0.1,0.8,1.3,1.7,2.1,1.6c1.9-0.4,1.5-6.5,1.7-9.4c0.1-1.8,0.9-5.4-1.7-4.2
		C210.8,33.8,211.6,36.2,211.7,37.7z M218.9,45.7c0.6-1.5,0.5-3.6,0.7-5.6c0.1-0.7,0.4-1.6,0.2-2.2c-0.2-0.7-1.3-1.9-2.2-1.5
		c-1.4,0.7-0.7,5.9-1.1,7.8c-0.4,1.9-1.6,2.5-1.8,4.1C216.6,49.7,218.3,47.3,218.9,45.7z M156.4,44.5c-0.1,1.1,0.2,2.3,0.1,3.4
		c-0.1,0.8-0.4,1.7-0.3,2.4c0,0.7,0.3,1.4,0.6,2.1c0.5,1.3,1.9,5.4,2.9,5.6c0.8,0.2,1.8-1,1.9-1.7c0.3-1.9-1.2-3-1.6-4.3
		c-1.2-3.7,0.5-8.5-0.8-11.2C157.4,40,156.5,42.8,156.4,44.5z M222,45.8c-0.1,1-1.1,3.1-1.7,4.1c-0.6,1.1-1.2,0.7-1.1,1.8
		c0,0.7,1.1,1.4,1.7,1.4c0.6-0.1,1.4-1.2,1.9-2.1c0.4-0.7,1.2-2.1,1.4-2.6c0.1-0.7-0.1-1.8-0.1-2.5c0.1-1.8,1.5-5.4-1-4.6
		C221.5,41.9,222.2,43.7,222,45.8z M194.5,42.6c-3,0.1-5.2,0.5-7,1.5c-1.7,1-4,2.7-4.9,3.8c-0.5,0.6-1.1,1.7-1.5,2.5
		c-0.2,0.5-0.2,1.2-0.5,1.7c-0.3,0.6-0.9,1.1-1.1,1.8c-0.9,2.2-1.8,4.9-1.6,7.7c0.2,4,3.2,7.4,5.3,9.8c0.8,1,1.6,2.1,2.5,2.9
		c2.6,2.2,7.2,3.2,11,3.1c1.1,0,4.2-0.4,4.1-1.4c-0.1-0.8-1.3-0.7-2.4-0.9c-2.2-0.4-3-0.8-4.5-1.5c-1.8-0.8-2.7-1.2-4.1-2.3
		c-3.5-2.7-5.3-7.4-5-13.6c0.1-2.7,1.3-4.2,2.3-6.1c1.1-2.1,1.8-2.7,3.2-4.1c0.6-0.5,1.1-1.1,1.6-1.4c1.6-1.1,3.9-1.1,5-3
		C196.4,42.2,195.4,42.6,194.5,42.6z M152.3,50.1c-0.4,1.8,0.2,3.4,0.3,5c0,0.6,0,1.1,0,1.8c0.1,2,1.1,7.6,2.7,7.5
		c0.7,0,1.7-1.4,1.6-2.2c-0.1-1-0.9-1.3-1.6-2.5c-0.6-1.1-1.4-2.8-1.7-4.1c-0.3-1,0-2.4,0-3.7c0-1,0.1-2.4-1-2.3
		C152.4,49.8,152.3,49.9,152.3,50.1z M199.4,55.5c-2.2-0.2-1.2-3.5-2.7-4.5c-1.2-0.7-3.1,0.3-4.1,0.8c-0.9,0.5-1.5,1.4-1.4,2.3
		c0.2,1.4,2.2,1.4,2.3,2.9c0.2,2.4-3.2,1-3.7,2.9c-0.2,0.6,0.4,1.3,0.6,2.2c0.3,1.5-0.2,2.8,0.6,3.3c1.9,1.3,3.4-1.4,5.1-1
		s0.3,4.3,2.1,4.8c1.4,0.4,3.2-1.6,3.9-1.9c1.1-0.6,3-0.9,2.9-2.4c-0.1-1.3-2.1-1.8-2.1-3.5c0.1-2.1,2.1-2,3.9-3.1
		c-0.5-1.5-1.2-2.8-1.7-4.3C202.1,52.8,201.6,55.7,199.4,55.5z M232,83.9c-1.4-1.4-2.3-3.2-3.5-4.8c-0.6-0.8-1.4-1.4-1.9-2.3
		c-0.5-0.8-0.9-1.8-1.5-2.7c-1.2-1.9-2-3.7-2.7-5.7c-0.7-2.1-1.1-4.3-2.3-6.2c-0.7-1.1-2.3-2.7-3.2-3.5c-1.2-1.1-2.7-2.7-3.5-3
		c-0.5-0.2-1.6,1.6-2.1,2.2c-0.7,0.8-1.4,1.6-1.4,2.3c0,0.9,1.5,3.2,1.9,3.8c0.7,0.8,1.8,1.4,2.5,2.2c1.1,1.1,2.4,2.5,2.9,3.5
		c0.2,0.5,0.2,1.1,0.5,1.7c0.5,1.4,1.2,2.7,1.7,4.2c0.9,3,1.6,6.2,1.8,9.7c0.2,2.7,0.4,4.5,1.1,6.7c0.5,1.6,0.8,3.4,1.5,4.6
		c0.8,1.5,2.6,2.1,3.8,3.2c0.6,0.5,1,1.2,1.6,1.8c1.7,1.9,3.3,3.3,4.6,5.6c1.7,2.9,3.3,5.6,4.2,9.1c0.5,1.7,1.1,3.7,1.3,5.5
		c0,0.5-0.1,1.2,0,1.8c0.2,1.3,0.8,2.7,1,4.2c0.1,0.7,0.2,1.6,0.3,2.3c0.1,0.6-0.1,1.8,0.8,1.9c1.3-1,0.9-2.9,1-4.6
		c0.3-4.4,1.2-8.8-0.3-12.3c-0.6-1.5-1.5-3-2.3-4.1c-0.6-0.9-1.5-1.4-1.9-2.4c-0.5-1-0.7-2.2-1-3.9c-0.2-1.1-0.6-3.2,0.8-3.1
		c1.2,0.1,0.8,2.7,1.4,3.7c0.4,0.7,1.3,1.2,2.1,1.7c0.5,0.3,1.7,1.3,2.9,1c0.6-0.1,1.9-2,2.2-3.1c0.6-2.3-0.6-4.2-1.7-5.4
		c-1.3-1.4-3-1.9-4.7-2.9c-0.8-0.5-1.5-1.1-2.2-1.4c-0.4-0.2-1-0.1-1.8-0.5c-0.5-0.2-1.2-0.8-1.8-1.1c-2.2-1.4-3.4-2.3-5-4.2
		c-1.9-2.2-2.9-3.2-3.7-5.9c-0.7-2.5,0.2-2.3,0.5-2.4c0.9-0.2,1.8,1.7,2.4,2.3c0.7,0.7,1.7,1.9,2.4,2.3c1,0.6,2.6,1.4,3.7,0.3
		C233.7,84.5,232.8,84.7,232,83.9z M172.4,56.1c-2.8,0.8-3.8,2.9-5.1,5c-1.7,2.8-3.1,5.8-4.8,8.6c-1.1,1.8-2.3,3.6-3.5,5.4
		c-1.2,1.8-2.2,3.8-3.5,5.4c-2.9,3.3-6.6,5.3-10.2,7.5c-6.9,4.4-14.6,8.8-15.4,19.1c-0.1,1.1,0.1,2.4,0,3.3
		c-0.2,1.8-0.9,5.3,1.1,5.3c1.1,0,1.4-1.7,1.9-2.9c0.6-1.1,1.6-2.2,1.8-2.9c1-2.2,1-4.5,1.9-6.7c0.3-0.7,0.9-1.3,1.5-2.2
		c0.5-0.7,0.9-1.5,1.3-2.1c0.6-0.8,1.5-1.2,2.3-2.1c0.7-0.7,1.2-1.6,1.9-2.2c1.1-0.9,2.5-1.7,3.8-2.6c1.3-0.9,2.5-2.1,3.7-2.7
		c0.5-0.3,1-0.4,1.5-0.7c1.5-1,3.5-2.3,4.7-3.5c0.9-0.9,1.4-2.1,2.2-3c0.6-0.7,1.4-1,1.9-1.8c1.1-1.6,1.9-3.9,2.9-6.1
		c0.5-1,0.9-2.1,1.4-3.1s1.2-1.8,1.7-2.7c0.4-0.7,0.5-1.5,0.9-2.2c0.4-0.8,1.2-1.2,1.7-1.9c0.6-0.9,1-2.1,1.6-3
		c0.7-1,1.4-1.7,1.8-2.9c-0.1,0.2,1.2-2.5-0.5-2.5c-0.1,0-0.2,0.1-0.2,0.1C172.5,56.1,172.4,56.1,172.4,56.1z M141,62.2
		c0.3,2.7,2.6,6.4,3.4,8c0.4,0.7,0.6,2.1,1.7,1.9c1.6-0.3,0.4-2.7,0-3.4c-0.9-1.6-2-3.1-2.6-4.7c-0.5-1.2-0.8-5-2.3-3.5
		C140.9,60.8,140.9,61.4,141,62.2z M232.8,63.1c-0.2,0.2-0.4,1.4-0.5,1.5c-0.6,1-2,1.3-2.1,2.4c-0.1,0.9,0.7,2.3,1.4,2.3
		c0.8,0,1.9-1.7,2.2-2.2c0.2-0.4,0.3-1.3,0.7-2.1c0.5-0.8,2.3-1.5,2.2-2.7c-0.1-0.7-0.8-0.8-1.1-0.8C234.8,61.5,233,62.8,232.8,63.1
		z M137.2,64.5c-0.6,3.1,1.3,5.6,2.4,7.8c0.5,1,1.2,2.3,1.8,3.4c0.5,0.8,1.6,2.8,2.7,1.4c0.1-1.2-1.1-2-1.7-2.9s-1.3-1.9-1.8-3
		c-1.1-2.2-1.5-4.7-2.6-7c-0.1,0-0.2,0-0.2,0c0-0.1-0.1-0.1-0.1,0C137.3,64.1,137.4,64.5,137.2,64.5z M236.2,68.3
		c-0.3,0.8-2.1,3.5-2.6,4c-0.8,0.8-1.3,0.4-1.4,1.3c-0.2,1.4,1.7,2.5,3.2,1.9c0.6-0.2,1.5-1.5,2.1-2.6c0.4-0.8,0.4-2.2,0.7-3.2
		c0.5-1.6,1.7-4.5-0.6-4C236.1,66,236.7,67.1,236.2,68.3z M173.2,68.1c-0.7,0.4-2,2-2.2,2.4c-1,1.7-1.3,3.9-1.8,5.9
		c-1.2,4.1-2.9,7.4-5.4,10.4c-0.5,0.6-1.3,1.2-1.9,1.9c-0.7,0.8-1.1,1.7-1.7,2.3c-1.5,1.4-3.7,2-5.9,3.1c-0.9,0.5-2,1.2-3,1.8
		c-1.1,0.7-2.3,1.3-2.9,1.9c-1.2,1.3-1.6,3.2-2.6,4.6c-0.8,1.1-2.1,2-3.1,2.9c-1.1,0.9-2.5,1.6-3.2,2.7c-1.1,1.7-1.6,4.3-2.4,6.3
		c-0.2,0.6-0.7,1.1-1,1.7c-1.6,3.4-2.4,6.6-3.3,10.6c-0.4,1.9-1,7.1,0.7,7.3c1.9,0.3,2-3.5,2.3-5.4c0.8-5.9,1.8-7.6,3.2-12.1
		c0.7-2.1,1-4.4,1.7-6.1c1.5-3.2,3.8-4.8,6.5-6.7c1.3-0.9,2.7-1.9,4-2.5c0.6-0.3,1.3-0.5,1.9-0.8c2.6-1.4,4.4-3.9,6.7-5.5
		c1.5-1,3.6-1.9,4.7-3.2c2.4-2.7,2.6-7.6,4.2-11.3c0.5-1.1,1.5-2.4,2.3-3.5c0.9-1.2,1.9-2.2,2.9-3c0.9-0.7,3.6-1.6,3.7-3
		c0.1-1.2-1.6-3.2-2.7-3.3c-0.1,0-0.2,0.1-0.2,0.1C174.3,67.8,174.1,67.6,173.2,68.1z M209,70.7c0,0.1,0,0.2-0.1,0.2
		c0.1,1.1,1.4,1.4,2.3,1.7s2,1,3.1,0.7C214,71.1,211.2,70.3,209,70.7z M242.7,80.1c-0.6,0.6-1.4,1.3-2.3,2.2c-0.8,0.8-2,1.7-1.9,2.5
		c0,0.5,0.4,1.1,1.1,1.1c1,0.1,1.6-0.7,2.3-1.4c1.7-1.6,4.7-3.9,5.4-5.7c0.3-1,0.5-4.5-0.6-4.5C245.4,76,244.8,77.8,242.7,80.1z
		 M249.5,80c-0.3,0.8-1.1,1.8-1.8,2.9c-0.7,1-1.4,2.1-1.9,2.7c-0.8,0.9-3.6,2.4-3.5,3.7c0,0.7,1,2,1.8,1.9c0.3,0,0.9-0.6,1.4-1
		c1.7-1.5,2.3-2.4,3.8-4.8c0.9-1.5,2-2.8,2.4-3.8c0.5-1.3,0.6-3.6-0.5-4.1C249.4,77.9,250,78.7,249.5,80z M214.2,82.3
		c-1-0.9-1.6-2.4-2.4-2.9c-1.4-0.8-8.3-1.4-8.3,0.7c0,0.6,1.1,1.5,1.6,1.7c0.8,0.4,2,0.6,3.1,1c2.1,0.8,4.2,1.3,6.1,2.2
		c1,0.5,1.9,1.1,3,1C217.6,83.8,215.4,83.4,214.2,82.3z M130.7,83.8c0.4,0.8,0.9,2.3,1.9,2.2c1.8-0.2,0.2-2.2-0.5-3.3
		s-1.2-2.6-2.4-1.8C129.6,81.9,130.2,82.7,130.7,83.8z M186.8,80.9c-1.7,1-1.8,3.3-4.3,3.5c-2.1,0.2-2.4-1.3-4.2-1
		c-1.3,0.2-1.3,1.7-1.7,2.9c-0.2,0.6-0.5,1.4-0.7,1.8c-0.6,1.2-2.1,1.8-2.9,2.7c-0.6,0.7-0.8,1.9-1.9,2.3c-1.2,0.4-3-0.3-4.1,0.5
		c-0.7,0.4-0.9,1.4-1.5,2.1c-1.2,1.4-3.4,2.4-5.3,3.7c-0.9,0.6-1.6,1.4-2.4,2.1c-2.7,2-5.5,3.2-8.3,5c-1.8,1.1-3.8,2.6-4.9,4
		c-0.8,1.1-1.4,2.7-1.6,4.1c0.9,0.3,1.5-0.5,2.1-0.9c1.9-1.3,4.2-2.1,6.1-3.5c1.1-0.9,1.9-2.2,3.2-3.1c1.4-1,2.9-1.8,4.3-2.9
		c1.4-1.1,2.7-2.4,4.1-3.2c1.1-0.6,2.3-0.8,3.3-1.4c1.6-0.9,2.7-2.3,4.2-3.5c0.7-0.6,1.6-0.9,2.3-1.5c1.4-1.1,2.6-2.4,4.1-3.3
		c1.8-1.1,3.9-2.1,5.6-3c0.7-0.3,1.5-0.4,2.2-0.8c2.3-1.2,4.1-3,4.5-5.9C188.3,80.9,187.3,80.6,186.8,80.9z M230.6,108.8
		c-0.7-0.7-1.3-1.5-1.9-2.2c-0.5-0.5-1.3-0.9-1.8-1.5c-0.5-0.5-1-1.2-1.6-1.7c-2.6-2.1-5.7-3.1-8.8-4.9c-1.8-1.1-3.9-1.6-5.1-2.7
		c-1.4-1.3-1.4-2.9-2.3-4.7c-0.7-1.4-2.6-2.6-4.3-3.7c-1.8-1.1-3.7-2.3-4.7-3.3c-1.1-1-1.9-2.8-4.1-1.9c-0.7,1.1-0.1,2.6,0.3,3.5
		c0.9,2.3,2.2,3.6,3.7,5.4c1.6,1.9,2.6,3.4,4.6,4.7c0.8,0.6,1.9,0.8,2.7,1.4c1,0.6,1.7,1.6,2.6,2.3c3,2.1,6.1,3.5,9.7,5
		c3.5,1.5,6.7,3.1,9.5,5.3c0.8,0.6,1.7,1.9,3,1.5C232.3,110,231.3,109.4,230.6,108.8z M207.1,104c-1.9-0.9-3.5-1.9-5.1-3.1
		c-0.9-0.6-1.7-1.4-2.6-1.5c-1.7-0.2-3.7,1-5.7,1.1c-4.1,0.3-6.6-0.7-9.3-1.5c-2.6-0.8-5.6-1.5-8.2-0.3c-0.7,0.3-3.6,2.2-3.7,2.9
		s1.6,2.1,2.2,2.4c0.9,0.4,2,0.3,3.4,0.5c2.2,0.2,7,1.6,6.6,3.5c-0.2,1.1-1.5,0.8-3,1c-2.1,0.4-4.5,1.8-7.1,1.6
		c-2.2-0.2-3.5-2.1-5-2.3c-1.3-0.2-2.8,0.4-4.3,0.6c-1.5,0.2-3.3,0-3.7,1.3c0.9,0.6,2.1,0.3,3.1,0.3c3.5,0.3,7,0.7,9.3,2.2
		c1.1,0.8,2.2,2,3.1,3.1c0.7,0.9,1.8,2.3,1.6,3.9c-2.7,1-3.3-2.8-6.2-2.7c-0.7,1-1.3,2.2-1.5,3.8c0.8,0.9,2.4-0.4,3.2,0.5
		c0.2,1.7-0.4,3-1.4,3.7c-1.5,1.1-3.9,0.4-6.1,0c-1.5-0.3-3.1-1.1-4.1-0.1c-0.6,1.5,2.8,1.9,2.5,3.4c-0.3,1.1-2.1,0.8-3.3,0.8
		c-1,0-2.2,0.1-3.1,0.3c-1,0.3-1.8,0.9-2.7,1c-0.8,0.1-1.7-0.1-2.5-0.3s-1.6-0.8-2.4-0.6c-0.7,0.2-1.2,1.7-1.5,3.3
		c-0.1,0.6,0,1.1-0.1,1.7c-0.4,2.4-2.4,4.8-2.3,7.4c0,0.9,0.5,1.6,0.5,2.4c0,1.2-1.2,2.4-0.5,3.9c1.9,0.4,5.9-1.7,6.2,0.9
		c0.1,0.7-0.4,1.6-0.9,2.3c-1.1,1.4-3.7,2.4-4.1,4c-0.3,1.3,0.1,2.5,1.4,2.9c1,0.3,1.2-0.2,2.4,0c5.5-1.9,11.4-4.9,19.6-4
		c1.2,0.1,2.6,0.6,3.3,1.6c0.7,0.9,1.1,3.1,1,4.1c-0.2,4-2.6,7.8-5.8,10.4c-3.9,3.2-8.1,5.5-12.8,7c-2.1,1.9,0.4,3.9,0.8,5.9
		c1.1,1.1,2.3,2.1,3.8,2.7c3.2-1.3,6.6-2.5,10.5-3.1c-1.3-0.2-2.3-0.9-3-1.7c-0.5-0.5-0.7-1-0.7-1.6c0-1.9,1.6-1.9,3-1.7
		c0.4,0.1,1.1,0,1.6,0.1c0.6,0.2,1,0.9,1.6,1.1c0.5,0.2,1.5,0.4,2.3,0.7c1.8,0.6,3.2,0.9,5.5,1.1c1,0.1,2.3,0.4,3.3,0.3
		c2.3-0.1,4.6-0.7,6.9-1c1.1-0.1,2.4-0.1,3.7-0.3c2.4-0.4,4.9-1.1,5,1.4c0.1,1.2-0.9,1.7-0.8,2.1c4.3,0.9,7.9,2.5,11.7,4
		c1.1-1,3.3-0.9,3.3-3c-2.8-1.2-5.4-2.9-7.7-5.1c-0.8-0.8-1.4-1.9-2.2-2.2c-0.6-0.3-1.5-0.1-2.2-0.3c-1.3-0.4-2.8-0.8-3.9-1.4
		c-0.8-0.4-2.1-1.7-3.2-1.7c-0.8,0-1.5,0.9-2.6,1.4c-2.1,1-5.9,1.2-9.1,0.8c-2.5-0.3-4.1-2.1-6.4-2.3c-0.8-0.1-1.6-0.1-2.4,0
		c-1.2,0.2-2,1.1-3.4,0.8c-1-0.2-1.9-1.5-1.8-2.4c0.1-1.6,3-3.3,4.7-3.5c0.7-0.1,1.3,0.1,2.1,0c1.1-0.1,2.2-0.6,3.3-0.7
		c1.2-0.1,2.5,0.1,3.7-0.1c0.9-0.1,1.6-0.6,2.4-0.6c1,0,2,0.6,2.7-0.1c-0.2-2.1-1.7-3.3-2.2-5.1c-0.8-2.9-0.1-5.8,1.6-7.1
		c2.5-1.8,4.7-0.6,7.3,0.1c1.5,0.4,3.1,0.4,4.9,0.6c1.7,0.2,3.4,0.6,4.9,1s2.6,1.2,4.1,1.9c1.4,0.7,2.7,1.4,4,2.1
		c2.4,1.2,4.6,2.2,6.1,3.9c0.9,1,1.9,2.8,3.7,2.5c0.7-0.1,1.2-0.9,1.8-1.6c0.5-0.5,1.6-1,1.8-1.6c0.1-0.3-0.1-0.9,0-1.5
		c0.2-1.3,0.9-2.5,0.7-4c-1,0.4-1.6,0.9-2.3,1.6c-0.7,0.8-1,1.8-2.2,1.8c-1.1,0.1-2.1-0.7-2.2-1.7c-0.2-1.7,1.3-3.3,2.3-4.7
		c1.1-1.6,1.8-3.2,2.9-4.2c0.1-1.7,0.8-2.6,1.3-3.9c0.3-0.7,0.5-1.6,0.8-2.3c0.7-1.5,1.7-2.6,1.9-4.1c0.1-0.8-0.1-2,0-3
		c0.2-1.8,0.8-3.3-0.6-4.2c-1.3-0.9-2.9-0.1-4.6,0.1c-1.2,0.1-4,0.6-4.2-0.3c-0.2-0.7,0.7-1.2,1.5-1.6c1.6-0.9,5.2-2.5,5.1-4.2
		c-0.1-1.1-2.2-2.6-3.5-2.7c-1.5-0.1-3.4,0.7-5.1,1c-2.3,0.4-4.7,0.7-6.9,0.8c-2.1,0.1-2-0.3-2.9-1.8c-0.5-0.9-1-1.3-1.3-1.9
		c-0.5-1.2-0.4-2.6-1.3-3.5c-1.8-0.1-3.2,1.3-4.8,1.5c-1.4,0.2-3.5,0.1-3.7-1.1c-0.2-1.9,3-3.1,4-3.9c0.7-0.5,1.3-1.4,2.2-1.7
		c1.3-0.5,3-0.2,4.5-0.1c3.5,0.2,8.3-0.5,10.7-0.7c1.3-0.1,2.4,0,2.6-0.8c0.5-1.8-2.5-1.8-4.2-1.8c-3.3-0.1-6.9,1.2-9.7,1.3
		c-0.7,0-1.5-0.2-2.2-0.2c-1.5-0.1-3.1,0.4-4.5,0.2c-1.3-0.2-3.1-1.2-2.9-2.7c0.2-1.1,2-1.6,3.1-1.9c1.5-0.4,2.8-1,4.1-1
		c0.9,0,2,0.6,2.6-0.2C209.2,104.5,207.9,104.4,207.1,104z M164.6,115.7c-0.7,0.9,0,3,1,3.1c1.8,0.2,2.9-3.8,0.2-3.5
		C165.4,115.3,164.9,115.4,164.6,115.7z M220.9,121.8c0.6-0.9,0.3-4.9-1-5.5c-0.7-0.3-1.1-0.1-1.9,0c-0.9,1.4-0.3,4.6-0.2,6.2
		C218.9,122.6,220.3,122.8,220.9,121.8z M159.3,116.4c-1.7-0.3-3.4,0.5-3.3,1.8c0.1,1.4,3,2.1,4.3,1.8
		C160.6,118.7,159.9,117.4,159.3,116.4z M212.4,120.1c1.3-0.1,1.9-3.7-0.3-3C210.7,117.5,210.7,120.2,212.4,120.1z M134.4,144.8
		c-0.2,0.8-1.2,1.4-1.4,2.2c-0.3,1.4,0.6,3.9,1.3,4.5c0.6,0.6,3.2,1.5,4.1,1.3c1.6-0.5,1.3-3.3,0.5-4.3c-0.5-0.7-1.5-0.7-2.1-1.1
		c-1.3-0.9-1.6-2.5-0.6-4.1c0.5-0.8,1.9-1.5,1.7-2.7c-0.1-1.1-1.4-1.5-2.6-1.3C131.9,139.6,135,142.3,134.4,144.8z M237.1,149.6
		c0.1,0.6,0.6,1.2,0.7,1.7c0.2,2.4-2.8,4.2-1.5,6.3c0.7,0.1,1.1-0.5,1.6-0.8s1.2-0.5,1.6-0.9c0.6-0.6,1.9-3.1,1.8-4
		c-0.1-1.2-1.8-1.7-1.8-2.7c-0.1-1.2,1.5-1.5,1.1-2.9C239.1,145.3,237,148,237.1,149.6z M106.5,197.3c0.1-0.7,1.4-1.4,2.4-1.4
		c1.3,0,2.9,1.2,4.5,1.6c2,0.5,3.8,0.2,5.9-0.1c2.5-0.4,3.5-1,5-2.1c2.2-1.4,3.5-2.7,5.4-4.6c0.5-0.5,2.9-2.6,2.9-3.5
		c-0.1-0.7-1.4-1.4-1.5-2.4c-0.1-1.1,0.5-2.2,1.6-2.5c0.9-0.2,1.9,0.2,3.2,0.1c2.4-0.2,4.3-1.6,5.9-2.6c1.1-0.7,2.6-1.7,2.7-2.5
		c0.2-0.8-0.4-2-0.2-2.5c0.6-1.9,2.8-0.6,4.3-0.5c3.5,0.3,6-0.7,8.5-1.7c5.2-2.1,11.2-5.6,13-10.1c0.3-0.8,0.9-2.2,0.8-2.7
		c-0.4-1.9-4.2-0.7-5.3-0.3c-0.6,0.2-1.7,0.6-2.6,0.9c-1,0.3-1.8,0.8-2.5,1.1c-1.6,0.7-3.5,1-5.4,1.6c-1.6,0.5-3.2,1.4-4.8,2.2
		c-3.4,1.6-7,3.1-10.5,3.4c-1.2,0.1-2.4,0.1-3.5,0.3c-1.2,0.2-2.2,0.7-3.2,0.7c-0.9,0-2-0.3-3-0.5c-0.9-0.2-2-0.8-2.7-0.7
		c-1,0.2-1.1,1.6-2.3,1.6c-1.7,0-2.7-4.5-3.5-5.9c-0.6-1-1.1-2.1-1.7-3.1c-0.6-1.1-1-2.3-1.7-3.1c-0.5-0.5-1.5-1-2.4-1.7
		c-0.8-0.7-1.5-1.6-2.2-2.1c-1.3-0.9-3.3-1.6-5.1-2.5c-1.8-0.9-4.1-1.5-5.8-1.8c-4.2-0.8-9.2,0.6-10.9,2.7c-0.4,0.5-1.1,1.8-0.9,2.9
		c0.1,0.5,0.6,1.4,1.5,1.3c1.5-0.2,0.6-3,2.5-3.1c1.6,0,2.1,2.3,1.8,4.2c-0.2,1.4-1,1.9-0.8,3.2c0.7,0.6,2.8-0.7,4.1-1.3
		c0.8-0.4,3.5-2.1,4-0.7c0.2,0.6-0.6,1.6-1,2.2c-1.4,2-3.3,3.4-5.8,4.3c-1.5,0.6-3.1,0.9-3.7,1.7c-0.7,1.1-0.5,3.5-0.2,4.5
		c0.3,1.4,1,3.1,1.7,4.5c0.7,1.3,1.8,2.5,2.5,4c0.7,1.4,1.5,3.1,1.4,5.1c0,1.1-0.6,2.4-1.1,3.4c-1.3,2.5-3.1,4.9-5.8,5.7
		c-1.7,0.5-4.1-0.2-5.3-0.8c-0.8-0.4-2.1-1.7-2.6-3c-0.7-1.6-0.9-3.6-2.1-3.5c-2,0.1-0.4,3.4-0.1,5.1c0.1,0.5,0.1,1.6,0.2,2.2
		c0.3,1.2,0.9,2,0.9,3.7c0,1.2-0.4,2.5-0.9,3.4c-1.2,2.1-4.4,4.4-7.8,4c-2-0.2-2.8-1.8-3.8-3.4c-0.5-0.9-1.1-2.4-1.8-2.3
		c-0.8,0.1-0.6,1.1-0.8,1.6c-1.1,3.5-2.4,5.4-4.5,7.7c-0.9,1-1.9,2-2.4,2.5c-0.4,0.4-0.7,1.2-1.1,1.8c-0.4,0.5-1.1,0.8-1.1,1.8
		c0,0.7,0.4,1.8,1.6,1.9c1,0.1,2.2-0.8,3.1-1.5c2.2-1.6,3.8-3.5,5-6.1c0.6-1.2,1.5-3.7,2.9-3.7c1.6,0.1,1,1.9,1.8,3.3
		c1.7-0.1,2.7-3.4,4.8-3c1.2,0.3,1,1.9,0.6,3.1s-1.3,1.6-1.4,2.9c0.9,0.7,2.2,0.1,3.2-0.3c0.8-0.4,2-0.9,2.7-1.6
		c1-0.9,2.5-4.4,4.2-3.4c0.8,0.5,0.2,1.4,0.5,2.4c1.6,1,3.5,1.4,5.4,1.9c3.1,0.9,7,2.2,10.2,0.6c2.7-1.4,4.8-4.3,6.6-6.6
		c0.8-1,2-1.8,1.8-3.1C110.1,201.2,106,199.9,106.5,197.3z M77.1,163.7c0,1.1,0.8,2,1.5,2.5s1.9,1.3,2.9,1.3c1.5,0,3.9-2.6,4-4
		c0.1-2-2.2-3.2-4.5-2.9C79.2,160.9,77.1,161.8,77.1,163.7z M87.6,183.7c-0.9,3,1.1,5.4,3.3,5.1c1.8-0.2,3.9-3,3.4-5.6
		c-0.2-1.1-1.9-2.4-3.3-2.3C89.5,181.1,87.9,182.7,87.6,183.7z M301.8,190.3c1.2,0,3.2-0.6,3.1-1.5c-0.1-1-1.9-0.5-3-0.7
		c-1.9-0.3-4.3-1.3-5.5-1.6C295.2,188.4,299.9,190.4,301.8,190.3z M176.1,191.4c-2.6,0.4-5.2,1.2-7.3,1.9
		c-13.5,4.4-24.3,13.9-30.5,24.7c-2.2,3.9-4.2,8-5.5,12.9c-1.3,5-2.3,10.6-2.1,16.3c0.5,11.5,3.8,20.5,8.7,28.1
		c4.7,7.3,10.9,13.5,18.7,18c7.7,4.4,18,8,29.1,7.4c19.6-0.9,33.5-9.9,42.5-21.8c1.3-1.8,2.9-3.5,3.9-5.4c1.1-2,1.7-4.3,2.7-6.4
		c2.9-6,4.7-14.4,4.3-22.8c-1.1-22.4-12.2-37.2-27.1-46.2c-7.2-4.4-17.7-8.2-29-7.7C181.9,190.7,178.9,190.9,176.1,191.4z
		 M74.7,194.1c-1.5,1.1-2.9,6.1-0.7,7.5c1.3,0.8,3.3,0.3,4.3-0.5c2.9-2.1,1.5-8.2-2.4-7.5C75.5,193.7,75,193.9,74.7,194.1z
		 M165.2,310.1c1.8,1.7,3.5-1.4,2.7-3.7C165.4,303.8,163.2,308.3,165.2,310.1z M176.8,307.8c-0.7-1.1-3-1.3-3.8-0.1
		c-0.7,1.1,0,2.5,0.8,3.5C176.4,312.2,178.1,309.6,176.8,307.8z M183.9,312.4c1.3,0.1,1.4-2.8,0.9-4
		C182.6,307.5,182.4,312.3,183.9,312.4z M190.8,308.6c-0.5,1.6-0.4,4.7,1,4.7c1.3,0,2-3.4,1.7-4.6
		C193,308.1,191.4,308.1,190.8,308.6z M221,312.7c-9,2.4-20.1,3-31.1,3c-9,0-18.2-0.4-25.8-1.7c-1.8-0.3-3.9-0.8-5.6-0.9
		c-1.5-0.1-3.3-0.1-4.1,0.8c1.4,1.6,4.1,1.6,6.3,2.2c0.7,0.2,1.4,0.6,2.1,0.8c1.8,0.4,4,0.5,6.2,0.7c6.3,0.6,13.2,0.9,19.6,0.9
		c11.1-0.1,22.5-0.7,31.3-3.1c1.1-0.3,2.8-0.6,2.5-2.4C222,312.5,221.4,312.6,221,312.7z"/>
	<path class="st4" d="M194.9,53.9c2.2-0.8,4.1,3.7,1.8,4.2C194.9,58.6,192.6,54.7,194.9,53.9z"/>
	<path class="st4" d="M201.4,56.2c1.1-0.1,2.2,0.3,2.2,1.6c-0.1,1.3-4.6,3.3-4.9,1C198.4,57.4,200,56.4,201.4,56.2z"/>
	<path class="st4" d="M195.2,59.7c0.9-0.2,2.2-0.3,2.3,0.9c0.1,1.1-4.2,4.1-4.9,1.8C192.1,60.9,193.9,59.9,195.2,59.7z"/>
	<path class="st4" d="M198.9,61.7c2.6-0.9,3,3.3,1.1,3.5C198.5,65.4,196.8,62.4,198.9,61.7z"/>
	<path class="st4" d="M292.3,97.5c1.9-0.5,3.8,1.3,3.1,3.5c-0.3,1-1.5,2.2-2.4,3.2s-1.7,2.2-2.4,3.1c-4,5.1-8,10.3-12.3,15.4
		c-0.9,1-1.9,2.5-2.9,2.6c-1.1,0.1-2.2-0.6-2.3-1.7c-0.2-1.5,2.3-4.2,3.2-5.4c1.9-2.7,4-5.3,5.9-8c2.7-3.8,4.6-6.1,7.2-9.7
		C290.3,99.5,291.1,97.8,292.3,97.5z"/>
	<path class="st4" d="M85,106.8c2.2-0.6,3.1,1.4,4.1,2.9c4.3,5.8,8.4,11.3,12.8,17.4c0.7,1,2,2.1,2.1,3c0.1,1.4-1,2.2-2.2,2.2
		c-0.9-0.1-2.1-1.4-2.9-2.4c-4.7-5.9-9.2-11.5-14.2-17.3c-0.8-0.9-2-2.1-1.9-3.2C82.8,108.2,84.1,107.1,85,106.8z"/>
	<path class="st4" d="M49.8,109.6c1.3-0.3,2.5,0.9,3.5,1.6c1.1,0.8,2.2,1.4,3,2.1c1.8,1.5,3.6,3.7,5.4,5.5c4.4,4.4,8.5,9.3,13,13.8
		c0.9,0.9,2.3,2.1,2.3,3.1c0,1.1-0.7,2-1.9,2.1c-1.3,0-2.6-1.7-3.7-2.7c-5.3-4.9-11-10.3-16.3-15.2c-1.6-1.4-3.1-3.2-4.7-4.8
		c-0.9-0.9-2.2-2-2.1-3.7C48.4,110.3,49,109.8,49.8,109.6z"/>
	<path class="st4" d="M328.9,111.3c2.8-0.9,3.7,2.4,2.5,4.5c-0.3,0.5-1.1,1-1.7,1.6c-4.1,3.7-7.6,7.3-11.7,11.3
		c-3.4,3.4-6.4,6.3-9.9,9.8c-1,1-2.5,2.8-3.7,2.9c-1.5,0-2-1.1-2.1-1.9c0-1.3,1.8-2.6,2.9-3.8c6.6-7.2,12.4-13.6,19-20.6
		C325.7,113.5,326.7,111.8,328.9,111.3z"/>
	<path class="st4" d="M202.6,143.2c0,1,0,2.1,0,3.1c-0.7,1.1-0.8,2.2-2.2,2.4c-2.3,0.3-2.4-2.8-3.9-3.8c-1.4-0.3-2.5,0-3.5-0.7
		c-1.2-0.8-1.2-2.2-2.4-2.6c-0.8-0.2-2.1-0.1-3.2-0.1s-2.2-0.2-3.2,0c-0.7,0.1-1.5,0.9-1.9,1.5c-0.5,0.7-0.7,1.5-1.5,1.8
		c-0.9,0.3-2-0.3-3,0c-0.6,0.2-1.2,0.8-1.4,1.5c-0.1,0.7,0.2,1.3,0,1.9c-0.3,0.9-1.1,1.4-2.1,1.4c-1.2-0.1-1.4-0.7-1.7-1.5
		c-0.3-0.7-0.7-1.6-0.8-2.3c-0.2-2.3,1-5.1,2.7-5.9c1.8-0.9,5.1-0.9,5.1-3.1c0-3.4-4.9-0.3-7.8-1.1c-1.2-0.4-2.6-1.8-2.6-2.7
		c0-2.1,3.4-2,5.1-2.7c1.5-0.6,2.9-2.5,3.5-3.9c0.6-1.3,0.4-2.2,1.4-2.9c0.7-0.5,1.7-0.4,2.3-0.8c0.5-0.8,0.2-2,0.3-3.2
		c0.1-0.8,0.5-1.9,0.7-3c0.2-1.8,0.4-4.8,2.1-4.9c2-0.1,1,3,1.4,4.6c0.2,0.7,0.7,1.2,1.3,1.9c0.4,0.6,0.8,1.7,1.5,1.7
		c1.1,0,1.7-2.8,2.1-3.8c0.5-1.6,1.2-3.2,2.6-3.2c2.2,0.1,2.5,4.5,3.3,6.9c0.2,0.5,0.8,1.5,0.9,2.2c0.1,1-0.5,1.6-0.5,2.9
		c0.1,2.4,2.3,3.5,3.9,4.7c1,0.7,2.4,1.4,2.5,2.6c0.1,0.9-0.2,1.5-0.3,1.6c-1.4,1.7-4.9-0.7-6.6-0.3c-1.1,0.2-1.7,2.1-1.1,3.7
		c0.3,0.9,2.1,1.4,3.1,2.1C200.3,140,202,141.3,202.6,143.2z"/>
	<path class="st4" d="M201.6,121.7c1.8-0.5,3.6,0.7,5,1.6c1,0.7,3,2.9,0.9,3.4c-1.9,0.4-2.6-1.6-4.3-2.5c-0.6-0.3-2.6-0.4-2.6-1.5
		C200.6,121.8,201.3,121.8,201.6,121.7z"/>
	<path class="st4" d="M223.3,126.4c0.4,0.7,0.2,2.6-0.3,3.2c-0.7,0.8-2.8,0.8-4,1.4c-1.2,0.6-1.9,2.1-3,2.2c-1.5,0.1-2.7-2-3.4-3.1
		c-0.3-0.4-1-1.1-0.9-1.6c0.2-1,1.5-0.7,2.7-0.7c2.7,0,5.9-0.5,7.5-1.3C222.2,126.4,222.8,126.1,223.3,126.4z"/>
	<path class="st4" d="M28.8,137.8c2.3-0.3,3.6,1.2,5.3,2.3c6.4,4.1,11.6,7.8,18,12.1c0.8,0.5,2.3,1.6,3.7,2.4c1,0.7,3.2,1.8,3.4,2.5
		c0.7,1.8-0.8,2.9-2.1,2.9c-0.9-0.1-3.1-1.5-4.1-2.1c-4.1-2.3-7.9-4.6-11.8-6.7c-2.7-1.5-5.1-2.9-7.9-4.5c-1.7-1-3.9-2.2-5.9-3.3
		c-1.2-0.7-2.5-1.8-2.2-3.7C25.5,138.5,27.3,138,28.8,137.8z"/>
	<path class="st4" d="M337.7,144.1c1.3-0.3,3.2,0.7,3.4,1.8c0.3,1.5-1,3.5-1.8,4.1c-0.6,0.4-1.6,0.8-2.4,1.1
		c-0.4,0.2-0.8,0.4-1.1,0.6c-3.1,1.7-6.9,3.4-10.3,5.4c-1.4,0.8-3.8,2.2-4.9,2.1c-0.9-0.1-2-1-1.7-2.5c0.2-1.1,2.1-2.2,3-2.7
		c2.3-1.5,4.9-3,7.3-4.6c2.9-1.8,5.7-3.8,8.3-5.3C337.5,144.1,337.6,144.1,337.7,144.1z"/>
	<path class="st4" d="M179.1,147.6c0.2,0,0.7-0.1,1.1,0c1.7,0.4,5.7,1.4,5.1,3.3c-0.4,1.2-3.2,0.4-4.5,0.1c-1.5-0.3-3.5-0.7-3.3-2.3
		C177.7,148.1,178.3,147.8,179.1,147.6z"/>
	<path class="st4" d="M194.9,148.3c1.1-0.2,2.3-0.1,2.4,1c0.2,1.5-1.7,2.1-3.1,2.4c-1.3,0.3-3.9,1-4.1-0.3c-0.2-1.1,2.9-2.6,3.7-2.9
		C194.1,148.4,194.4,148.4,194.9,148.3z"/>
	<path class="st4" d="M98.9,177.8c-1.4-1.7-0.2-5,0.9-6.3c0.9-0.9,2.9-1.5,3.3-2.6c0.5-1.4-0.5-4.4,1.8-4.1c1.1,0.2,2.3,1.5,2.5,2.9
		c0.3,2.2-0.9,4.3-2.2,5.5c-0.5,0.5-1.7,0.7-2.2,1.4c-0.6,0.8-0.5,2-1.3,2.7C101.2,177.9,99.9,178,98.9,177.8z"/>
	<path class="st4" d="M257,165.6c3-0.8,3.9,2.5,6.4,3.7c1.1,0.5,2.3,0.7,2.5,1.5c0.7,3.1-4.6,2.3-6.3,1.5
		C258.2,171.5,253.3,166.5,257,165.6z"/>
	<path class="st4" d="M274,172.9c2.4-0.5,2.9,6.2,0.6,6.2C272.8,179,271.9,173.3,274,172.9z"/>
	<path class="st4" d="M254.1,174.6c2.1-0.2,2.7,1.9,4.3,2.7c0.8,0.4,1.9,0.5,2.9,0.8c2.6,0.8,5.5,1.5,7.8,3.1c0.8,0.6,2.8,2.5,3.4,4
		c0.6,1.3,0.8,3.7-0.8,4c-2.3,0.5-3.3-2.8-4.5-3.8c-1-0.9-2.3-1.5-4-1.8c-1.6-0.3-3.5-0.2-5.1-0.7c-1.7-0.5-4.2-1.9-5.1-3.1
		C251.6,178.1,251.1,174.9,254.1,174.6z"/>
	<path class="st4" d="M288.6,195.6c1.9-0.5,8.5,2.6,6.1,5.3c-0.7,0.8-2.8,0.9-4,0.5c-1.3-0.5-3.5-2.4-3.3-4.3
		C287.4,196.1,287.9,195.8,288.6,195.6z"/>
	<path class="st4" d="M162.9,260.6c-1.6-1-2.3-3.5-4.8-2.7c-2.2,0.6-0.5,3.7-1,5.6c-0.3,1.2-1.8,1.2-2.7,2.5
		c-1.8,2.4-0.4,6.7,0.3,9.4c0.6,2.1,1.5,5.2-1.1,5.4c-0.6,0-0.9-0.1-1.5-0.6c-2.5-1.9-5-5-6.6-7.5c-2.3-3.7-3.5-7.6-5-11.2
		c-0.4-1-1.3-2.1-1.5-3.1c-0.3-1.2-0.2-2.6-0.3-3.9c-0.3-3-0.7-6.8-0.3-10.4c0.1-1.1,0.4-2,0.6-3.1c0.1-1.1,0.1-2.2,0.2-3.3
		c0.2-1.8,0.9-3.7,1.4-5.5c1.8-6.9,5.1-12.9,8.5-18.4c0.4-0.7,0.9-1.3,1.4-1.9c0.5-0.7,0.9-1.4,1.4-1.9c1.5-1.8,3.7-3.2,5.6-4.8
		c2-1.6,4.2-2.9,6.4-3.9c2.6-1.1,5-1.9,8-2.3c1.4-0.2,2.9-0.6,4.3-0.8c4-0.6,7.1-0.7,11.2,0.3c3.6,0.9,5.9,1.5,7.5,4.2
		c0.6,1,1.4,2.6,1.3,3.9c-0.2,1.6-2.4,3.2-3.3,4.3c-1.2,1.5-2.7,2.7-3.7,4c-0.4,0.5-0.8,1.6-1.1,2.1c-0.6,0.7-1.5,1.1-2.2,1.8
		c-0.6,0.6-0.9,1.5-1.6,2.2c-0.6,0.6-1.4,1.1-1.9,1.7c-1.7,2-3.2,4.7-4.8,7.2c-1.2,1.8-2.2,3.7-3.3,5.7c-0.8,1.4-1.3,2.7-2.3,4.3
		c-1.2,2-1.9,3.7-2.6,6.6c-0.4,1.8,0.4,5.4-0.7,6.4c-0.8,0.7-3.2-0.2-3.8,0.9c-0.5,0.9,1,2.9,1.6,3.9c0.4,0.6,0.7,1.2,1,1.8
		c0.4,0.7,0.8,1.2,0.7,2.1c-0.1,0.9-0.8,1.7-2.1,1.7C164,263.3,164.2,261.8,162.9,260.6z M164.7,207.8c-1.5,0.8-3.3,2-5.1,3.5
		c-0.9,0.7-3.2,2.8-2.9,4c0.2,0.7,2.6,1.6,3.5,1.4c0.6-0.1,1.4-1.3,1.8-1.9c0.6-0.8,1.1-1.5,1.6-2.3c1-1.5,2.9-2.9,2.5-4.7
		C165.8,207.4,165,207.7,164.7,207.8z M166.4,215c-0.6,0.8-2.3,3.2-2.2,4c0.1,0.7,1.7,1.4,2.4,1.8c0.5,0.3,0.7,0.5,1.3,0.8
		c2.1,1.3,2,0,3.1-1.7c1.4-2,1.9-2.9,3.1-5.1c0.4-0.7,1.4-1.9,1.3-2.9c-0.2-1.1-2.7-2.1-3.8-1.9C168.9,210.3,167.9,213,166.4,215z
		 M148,238.3c0.6-1.2,1.3-2.5,2.2-3.5c0.6-0.7,1.5-1.1,2.1-1.8c1.3-1.7,2.4-5.2,3.3-7.3c0.4-0.8,1-2.1,0.9-2.6
		c-0.2-1.2-3.2-1.8-4.3-1.3c-1.1,0.5-1.6,2.8-2.1,4c-1.4,3.8-2.7,7.9-3.3,12.1c-0.1,0.9-0.4,2,0,2.6
		C147.8,240.2,147.7,239,148,238.3z M162.1,241.4c0.9-3.2,2.1-5.8,3-9.1c0.4-1.5,1.4-3.9,1.1-5c-0.2-1.2-3.6-2.8-4.8-2.1
		c-1.3,1.1-1.8,3.2-2.6,5.3c-0.5,1.2-2.1,3.7-1.9,5c0.1,0.7,1.1,1.6,1.5,2.4c1,2.1,0.6,4.8,1.4,7.2
		C161.8,245.4,161.7,242.9,162.1,241.4z"/>
	<path class="st4" d="M225.1,215c1.5-0.2,1.7,0.3,2.9,1.7c0.7,0.8,1.4,1.5,1.8,2.1c0.8,1.2,1.4,3.1,2.2,4.9
		c1.5,3.4,2.3,6.8,3.1,11.1c0.3,2,1,4.9,0.6,6.5c-0.4,1.8-2.4,3.6-4.1,3.3c-2.7-0.4-1.7-4.7-1.8-7.4c-0.2-3.6-1.5-7.8-2.9-10.6
		c-0.9-1.9-2.3-4.6-3.4-6.6c-0.4-0.7-1-1.4-0.9-2.4C222.6,216.1,224,215.2,225.1,215z"/>
	<path class="st4" d="M80.4,226.1c0,0,0.1-0.1,0.2-0.1c4.2,0.4,8.3,1.2,13.1,2.1c1.9,0.3,4.3,0.6,6.6,1c2.6,0.4,5,0.5,5.1,2.4
		c0.2,2.6-2.3,2.1-4.8,1.8c-6-0.5-11.8-0.9-18.4-1.4c-3.4-0.2-7.4-0.9-5-4.2C78.1,226.6,78.6,226.2,80.4,226.1z"/>
	<path class="st4" d="M264.6,237.8c0,0,0.1-0.1,0.2-0.1c6.9,0.6,17.1,0.9,24.7,1.7c0.9,0.1,2.3,0.1,3.3,0.5c1.1,0.4,2.2,1.8,2.2,3
		c-0.1,1.7-2.3,2.1-4.2,2.2c-2.5,0-5-0.5-7.7-0.8c-4.9-0.6-9.7-1.2-15.1-1.8c-2.6-0.3-5.9-0.2-5.8-2.5
		C262.2,238.4,263.1,237.9,264.6,237.8z"/>
	<path class="st4" d="M102.1,243c2-0.2,4.2-0.3,4.1,1.9c0,1.7-2.4,2.2-4.6,2.6c-12.2,2.1-23.6,5-35.2,7.5c-1.9,0.4-3.8,1.2-5.7,1.4
		c-1.1,0.1-3,0.1-3.8-0.3c-0.8-0.5-1.2-2.5-0.8-3.7c0.5-1.2,2.8-1.5,5-1.9c2.1-0.4,4.4-0.9,5.7-1.1c6.8-1.1,11.4-2.2,17.6-3.2
		c5.6-0.9,11.7-2.3,17.4-3.2C102,243,102,243,102.1,243z"/>
	<path class="st4" d="M231.9,250.7c0.3,0,1.1-0.2,1.6,0c1.5,0.5,2.4,2.7,2.5,4.3c0.1,1.6-0.2,3.6-0.5,5c-0.4,2.5-1.7,5.3-2.7,7.7
		c-0.4,0.9-0.5,1.8-0.9,2.5c-0.3,0.6-0.9,1.1-1.3,1.8c-3.2,5.5-7.2,10.9-12.3,14.3c-1.1,0.7-2,1.6-3.1,2.2c-1,0.6-2.2,1-3.3,1.6
		c-2.1,1.2-4.3,2.1-7,2.6c-1.2,0.3-2.7,0.7-4,0.8c-5.3,0.5-9-0.6-13.7-1.1c-2-0.3-3.9-1.2-5.6-1.8c-1.5-0.6-4-1.7-3.9-3.5
		c0.2-2.6,3.2-1.7,5.3-1.4c3,0.5,4.5,0.8,6.6,0.9c7.9,0.5,15.2-1.6,20.6-5c2.4-1.5,5.1-3.7,7.3-5.5c3.9-3.1,6.5-5.7,8.2-10.6
		c0.6-1.5,1-2.5,1.4-4C228.2,257,227.1,251.2,231.9,250.7z"/>
	<path class="st4" d="M262.7,262.7c0.1,0,0.1-0.1,0.2-0.1c4.5,0.4,9,1.4,13.5,2.1c2.3,0.3,4.7,0.5,7,0.8c4.4,0.5,9.1,1.2,13.7,1.8
		c4.7,0.7,9,1.1,13.7,1.8c2.2,0.3,4.9,0.3,6.7,0.9c2,0.7,4.1,3.2,1.9,4.8c-2.8,2.2-7.5,0.8-11.3,0.1c-7.1-1.4-13.3-2.5-20.6-3.9
		c-6.7-1.3-13.6-2.3-20.7-3.8c-2.2-0.4-5.5-0.5-5.7-2.4C261.1,263.7,261.6,262.9,262.7,262.7z"/>
	<path class="st4" d="M107.4,270.9c2-0.4,3.5,0.2,3.4,1.9c0,2-3.8,2.9-5.7,3.8c-6.6,2.9-12.8,6.2-19.1,9.4
		c-8.7,4.4-17.3,8.4-25.2,12.6c-2.5,0.2-5.2-0.1-5.5-2.2c-0.3-2,1.4-3.4,2.6-4.5C74.6,285.1,90.9,277.9,107.4,270.9z"/>
	<path class="st4" d="M258.2,283.2c-0.9-1.4-3.1-1.2-2.9-3.4c0.1-0.7,0.9-1.9,2.3-1.7c0.8,0.1,2.2,1.2,3.3,1.8
		c5.6,3.1,11.4,5.4,17.4,8.3c1,0.5,2.2,1.1,3.4,1.7c1.8,0.9,4.3,1.5,3.1,4.2c-0.5,1.1-2.7,2.2-4,2.1c-0.8-0.1-1.9-1-2.9-1.6
		c-2.4-1.4-4.6-2.7-7.1-4.1C266.6,288.2,262.7,285.2,258.2,283.2z"/>
	<path class="st4" d="M120,298.2c-4.4,3-9.2,6.1-13.8,9.3c-1,0.7-2.2,1.8-3.9,1.1c-0.9-0.4-2.2-2.7-1.5-4.5c0.2-0.6,1.4-1.1,2.5-1.7
		c2.8-1.6,5.3-2.9,8.1-4.5c4.5-2.6,7.2-4.2,10.7-6.1c1.3-0.7,3.1,0.7,2.7,2.4c-0.2,1.1-1.5,1.5-2.4,2.1
		C121.6,297,121.1,297.5,120,298.2z"/>
	<path class="st4" d="M247.2,296.5c0.2-0.1,1.1-0.2,1.5-0.1s0.6,0.5,1.1,0.9c0.5,0.3,1,0.5,1.4,0.7c1.9,1.3,4.2,3.9,6.4,5.6
		c0.8,0.7,1.8,1.1,2.2,1.7c0.5,0.7,1.1,2.7,0.9,3.7c-0.2,0.9-1.2,1.5-2.1,1.5c-1.4,0-2.8-1.9-3.7-2.5c-2.4-1.9-4.2-3.7-6.4-5.9
		c-0.9-0.9-2.7-2-2.9-3.3C245.5,297.2,246.5,296.7,247.2,296.5z"/>
</g>
<rect x="-339" y="445" class="st5" width="363.9" height="356.3"/>
</svg>
