<?xml version="1.0" encoding="utf-8"?>
<!-- Generator: Adobe Illustrator 22.0.1, SVG Export Plug-In . SVG Version: 6.00 Build 0)  -->
<svg version="1.1" id="Layer_1" xmlns="http://www.w3.org/2000/svg" xmlns:xlink="http://www.w3.org/1999/xlink" x="0px" y="0px"
	 viewBox="0 0 841.9 595.3" style="enable-background:new 0 0 841.9 595.3;" xml:space="preserve">
<style type="text/css">
	.st0{fill:#DA96C2;stroke:#E2804C;stroke-miterlimit:10;}
	.st1{fill:#E2804C;stroke:#E2804C;stroke-miterlimit:10;}
	.st2{fill:#F8F1DA;}
	.st3{fill-rule:evenodd;clip-rule:evenodd;fill:#E2804C;}
</style>
<g>
	<path class="st0" d="M361.3,564.3c-1.4-1.5-2.9-2.9-4.2-4.5c-0.8-0.9-1.3-2-2.2-3.4c-0.7,2.9-1.1,5.4-2,7.8
		c-4.3,11.2-21.6,17.6-35.9,13.4c-11.7-3.4-16.7-13.5-10.6-21.6c2.9-3.9,7.5-5.6,13.3-5.4c5,0.2,8.4,2.2,10.2,5.3
		c-2.8,0.2-6-0.1-8.2,0.8c-1.8,0.8-3.2,3-3.6,4.7c-1.4,6,4.3,9.8,12.2,8.4c3.8-0.7,6.6-2.3,8.6-4.8c5.9-7.7-1.9-21.2-13.5-22.8
		c-8.3-1.2-15.6,1-21.3,5.6c-2.7,2.2-4.9,4.9-7.3,7.3c-3.3,3.4-6.3,7-9.9,10.1c-9.2,8.1-21.1,9.9-34.1,7.3
		c-14.2-2.9-22-15.6-16.8-27.2c-2,0.8-3.7,1.5-5.4,2c-8.5,2.8-16.2,2.1-23.3-2.7c-8.7-5.9-12.1-13.5-13-22c-1.8-17,6.1-30.5,25-40.2
		c4.6-2.3,9.1-4.8,13.6-7.4c10.7-6.2,16.2-14.4,16.9-24.6c0.6-8.5-1.4-16.5-7.3-23.9c-4-4.9-9.6-8.3-17.1-9.8
		c-7.8-1.5-14.7-0.3-20.2,4.1c-3.8,3-7,6.5-11,10.2c-1.1-2.4-2.4-4.6-3.2-6.8c-2-6-2.1-12.1,0.1-18.2c3.9-10.4,16.3-16.2,30.4-14.3
		c0.6,0.1,1.2,0.2,2.8,0.4c-3.4-2.7-6.2-4.9-8.9-7.1c-11.5-9.2-21.8-18.9-28.3-30.7c-5.9-10.8-7.2-22-3.1-33.2
		c4.7-13,16.2-20.9,33.9-23.3c0.5-0.1,0.9-0.2,2.5-0.5c-1.9-0.4-2.8-0.6-3.6-0.7c-20.1-3.2-33.5-15.4-34.7-31.4
		c-1-12.6,2.4-24.5,12-34.9c7.2-7.8,15.6-15,23.5-22.5c1.9-1.8,4.1-3.3,6.4-5.3c-21.4,3.2-34.3-7.6-34.3-21.4
		c0-4.5,1.3-9.1,2.3-13.6c0.3-1.3,1.5-2.5,2.4-4.1c2.7,2.7,4.8,5.2,7.3,7.5c10.5,9.8,26.5,9.9,37.5,0.4c6.5-5.6,9.4-12.4,10.3-19.7
		c1.9-14.3-4.2-26-20.4-34.2c-4.3-2.2-8.5-4.5-12.7-6.8c-24.1-13-26.5-35.5-18.2-50.6c2-3.6,5.4-6.9,9.1-9.7
		c6.7-5.2,14.8-5.7,23.4-2.8c1.7,0.6,3.3,1.2,5.4,2c-4-6.9-2.6-13.1,2.5-18.8c9.7-10.9,31.1-13,44.3-4.1c4,2.7,7.2,6.1,10.5,9.4
		c2.9,2.9,5.4,6,8.2,9c3.9,4.1,9.1,6.6,15.6,7.6c8,1.3,14.6-0.7,19-5.9c3.2-3.7,4.9-7.8,4.5-12.2c-0.6-6.6-8.8-11.2-16.8-9.3
		c-5.2,1.2-7.6,5.5-5.5,9.9c1.9,3.9,5.8,5,11.2,3.2c-1.5,5.3-10.5,8-17.5,4.7c-3-1.4-5.7-3.9-7-6.4c-4.8-9.9,4.5-19.8,18.7-20.4
		c15.8-0.7,27.6,6.6,30,18.5c0.2,1.1,0.4,2.3,0.7,4c1.2-1.8,2-3.1,2.9-4.4c5.1-7.9,12-14.4,23.6-17.2c13.9-3.4,25.9,0,33.3,9.8
		c4.7-3.2,10.2-4.4,16.4-3.7c6.6,0.7,10.7,3.7,12.8,8.6c4.6-9.8,18.9-11.2,29.6-5c3.9-6.2,10.3-9.8,19.3-10.6
		c12.2-1,22.3,2.2,29.9,9.3c4.1,3.8,7.1,8.3,10.4,12.4c0.5-2.2,0.9-4.7,1.8-7c4.4-11.6,22.9-18,37.3-13c10.4,3.6,14.7,12.7,9.7,20.4
		c-2.7,4.2-7.3,6.2-13.5,6.2c-5.2-0.1-8.7-2.1-10.8-5.7c2.7,0,5.8,0.7,7.7-0.2c2.1-0.9,3.8-3.1,4.3-5c1.5-5.9-4.3-9.8-12.1-8.4
		c-7.3,1.3-11.7,6.8-10.4,13.2c0,0.2,0.1,0.4,0.2,0.6c2.1,6.2,5.2,12.2,14.5,13.8c9.5,1.6,17.5-1.1,23.5-6.8
		c5.2-5,9.6-10.3,14.7-15.3c6.1-6,14.4-8.6,24.3-9.2c21.2-1.1,35.1,15.9,27.6,28.3c1.9-0.7,3.5-1.4,5.2-1.9c8.7-3,16.7-2.2,23.9,2.8
		c8.5,5.9,11.8,13.5,12.7,21.8c1.8,17-6.2,30.5-25.1,40.1c-5,2.6-9.9,5.3-14.7,8.1c-22.9,13.3-17.6,40.6-5,51.1
		c11.2,9.3,26.9,9.2,37.3-0.4c1.8-1.7,3.5-3.5,5.2-5.3c0.6-0.6,1.2-1.2,2.3-2.5c1.3,2.7,2.5,4.8,3.3,7c2,5.5,2.1,11.2,0.4,16.8
		c-3.4,11.7-16.2,17.7-33.5,15.5c1.6,1.3,2.7,2.2,3.9,3.2c10.9,8.4,21.1,17.3,28.8,27.7c9.1,12.3,12.1,25.4,7.7,39.1
		c-4.3,13.3-15.7,21.5-33.7,24.2c-0.6,0.1-1.2,0.2-1.9,0.8c1,0.2,1.9,0.3,2.9,0.5c20.1,3.3,33.3,15.6,34.5,31.6
		c0.9,13-2.8,25.1-12.8,35.6c-7.7,8.1-16.6,15.6-25,23.4c-1.2,1.1-2.5,2.1-3.3,2.7c5.1,0.4,10.5,0.1,15.4,1.3
		c9.5,2.2,14.9,7.6,17.1,14.9c1.9,6.5,1.5,12.9-1.2,19.3c-0.6,1.4-1.6,2.8-2.6,4.5c-2.5-2.6-4.6-4.9-6.8-7.1
		c-11-10.5-27.9-10.5-39,0c-6,5.7-8.5,12.3-9.4,19.4c-1.8,14.5,5,26,21.3,34.1c4.4,2.2,8.8,4.6,13,7c24,13.5,25.2,36.7,16.6,50.9
		c-1.9,3.1-4.9,6.1-8.1,8.5c-7.2,5.4-15.2,6.1-24.4,2.9c-1.5-0.5-2.9-1.1-3.9-1.5c0.4,3,1.5,6.2,1,9.3c-1.3,8-7,14.3-16.8,17.1
		c-11.1,3.2-22.5,2.4-31.8-3.8c-5.1-3.4-8.9-8-13.2-12.1c-2.3-2.3-4.3-4.8-6.6-7c-3.8-3.7-8.8-6-14.9-6.9
		c-8.2-1.3-14.8,0.9-19.1,6.2c-3,3.6-4.8,7.5-4.3,11.9c0.7,6.6,8.9,11.2,16.8,9.3c5.2-1.3,7.6-5.5,5.5-9.9c-1.9-3.8-5.8-5-11.2-3.2
		c0.9-3.1,3.9-5.2,8.4-5.9c5.3-0.8,11.1,1,14.3,4.5c4.9,5.5,3.7,14.1-2.7,18.8c-6,4.3-13.2,5.5-21.1,4.5c-14.7-2-21.9-8.7-23.9-21.8
		c-2.6,3.4-5.1,6.6-7.5,9.8c-6.9,9.1-22.6,14.5-35.7,12c-7.4-1.4-13.2-4.6-16.5-10.5c-4.9,3.5-10.5,4.5-16.7,3.8
		c-6.4-0.7-10.5-3.6-12.8-8.8c-2.2,5.1-6.2,8.2-12.6,8.8c-6.1,0.6-11.9-0.1-16.7-3.8c-4.3,7.2-11.7,10.5-21.3,11
		c-12.2,0.7-24.7-4.4-31.4-12.8c-0.4-0.5-0.4-1.3-0.6-1.9c0.9,0.8,1.8,1.5,2.6,2.4c6,6.5,14.1,10.3,24.5,11.3
		c14.2,1.4,26.7-6.4,26.2-16.4c-0.4-7.4-8.1-11.8-17-9.8c-3.9,0.9-6.2,3.2-6.2,6.1c0,2.8,2.1,4.4,5.7,4.3c-0.3-0.6-0.9-1.1-0.8-1.6
		c0.1-1.3-0.1-3.1,0.9-3.9c1-0.8,3.4-1.2,5.1-1c4.1,0.4,6.1,3.9,4.5,7.3c-1.5,3.3-4.9,5.1-9.1,5.9c-9.8,1.9-19.2,1.1-26.4-4.6
		c-5.1-4.1-9-8.9-13.4-13.5c-2.1-2.2-4-4.6-6.1-6.9c0.7,3,1.6,5.8,2.8,8.4c1.3,2.8,3,5.5,4.5,8.2C359.8,561.8,360.6,563,361.3,564.3
		z M239.2,542.3c-0.1-0.3-0.2-0.5-0.3-0.8c-0.7,0-1.4,0-2.1,0c-13.4,0.1-22.2-4.7-26.5-14.4c-4.1-9.3-2.4-18.2,4.9-26
		c6.2-6.7,13.3-13.1,20.9-18.8c21-15.9,27.8-34.6,21.1-56.3c-3.8-12.3-12.2-22.5-26-29.7c-12.1-6.4-28.4-4.2-35.4,4.7
		c-7.2,9-6,18.6-1.5,28.5c2.8-2.7,5.1-5.1,7.6-7.3c3.3-3,7.2-5.4,12.4-6.2c11.1-1.7,19.9,1.5,26.8,7.8c6.2,5.6,8.9,12.4,9.8,19.6
		c1.7,13.5-3.3,25-18.2,33.3c-4,2.2-7.9,4.4-12.1,6.5c-19.5,9.8-27.3,23.6-24.8,40.9c1.1,7.5,4.4,14.3,11.9,19.6
		c6.7,4.7,14.2,5.6,22.4,2.7C233.3,545.3,236.2,543.7,239.2,542.3z M194.4,165.9c-4.4,9-5.2,17.7-0.2,26.3
		c4.2,7.1,14.2,11.1,24.5,10.3c7.1-0.6,12.9-3.1,18.1-6.6c24.9-16.8,26.8-45.8,18.4-61.4c-5.1-9.4-13.3-17.1-22.8-24.1
		c-8.1-6-15.4-12.4-20.4-20.2c-5.7-8.9-5.2-17.8,0.9-26.5c4.4-6.3,11.5-9.5,20.9-9.8c1.7-0.1,3.4,0,6.1,0
		c-7.3-4.5-14.2-7.7-22.8-6.1c-8.7,1.6-14,6.5-17.4,12.3c-8.3,14.5-6.7,37,17,50c4.7,2.6,9.5,5.1,14.2,7.6
		c15.2,7.9,21.4,19,20.1,32.7c-0.9,9.2-4.3,17.7-13.7,24.2c-11.3,7.7-25.5,7.1-35.6-1.5C199.3,170.9,197.2,168.6,194.4,165.9z
		 M648.6,53.8c1.1,0,1.9,0,2.7,0c12.8-0.1,21.3,4.4,25.7,13.5c4.5,9.3,3.3,18.3-4.1,26.3c-6.4,6.9-13.7,13.5-21.6,19.5
		c-22.6,17.2-28.4,37.4-19.3,60.2c4.5,11.3,13.2,20.8,27,26.8c12.1,5.3,27.5,2.1,33.6-6.8c6.2-8.9,5.1-18,0.7-27.6
		c-2.6,2.5-4.7,4.8-7,6.9c-3.4,3.1-7.3,5.7-12.5,6.6c-11.2,1.9-20.1-1.3-27.2-7.7c-6.2-5.6-8.9-12.4-9.8-19.6
		c-1.7-13.5,3.2-25,18.2-33.3c4.1-2.3,8.2-4.5,12.4-6.7c19.5-9.8,27.1-23.7,24.5-41c-1.1-7.4-4.3-14.2-11.9-19.3
		C670.7,45.4,657,46.2,648.6,53.8z M648.5,541.5c10.1,7.5,23.6,9.5,33.9,0.2c2.2-2,4.3-4.3,5.7-6.7c8-14.3,6.7-36.8-17.4-49.9
		c-5-2.7-10.2-5.3-15.1-8.2c-21-12.1-25.6-35.6-10.3-51.9c11.7-12.4,30.5-12.8,42.8-0.7c1.7,1.6,3.2,3.3,5.2,5.3
		c4.4-9.1,5.3-17.8,0.2-26.4c-4.1-7-14.1-11.1-24.2-10.3c-7.7,0.6-13.7,3.4-19.3,7.3c-25.3,17.5-32.8,55.7-1.4,79.8
		c4.3,3.3,8.6,6.5,12.7,9.9c7,5.8,13.3,12.1,16.5,19.7C685,526.7,671.8,541.4,648.5,541.5z M655.2,199.5c-0.5,0.3-1,0.7-1.5,1
		c3.4,3.8,6.5,7.7,10.2,11.3c10.2,10.1,18.6,21,23.2,33.3c3.5,9.5,4.5,19,0.3,28.6c-5.1,11.8-23.3,18.5-38.8,14.3
		c-10.9-2.9-15.6-12.9-9.4-20.3c2.4-2.9,6.6-4.2,10.4-3.2c3.5,0.9,4.8,3,4.3,6.8c-0.1,0.5-0.1,1-0.1,1.5c0.3,0.1,0.7,0.2,1,0.3
		c1.2-1.5,2.9-2.8,3.7-4.4c3-6.5-2-13.5-10.9-15.3c-7.4-1.5-14.1-0.3-19.9,3.4c-15.8,10.2-11.1,31.3,8.2,37.3
		c10.1,3.1,20.7,3.4,31.4,2.3c19.2-1.9,32.7-11.5,36.1-25.9c2.9-12.2,0.5-23.8-7.2-34.8c-7.7-10.9-18.2-20.3-29.7-28.9
		C663,204.2,659,201.9,655.2,199.5z M653.5,322.1c0.2,1,0.3,1.5,0.4,1.9c0.6,3.7-0.7,5.7-4,6.7c-3.8,1.1-8.1-0.1-10.5-2.9
		c-6.4-7.4-1.8-17.6,9.3-20.5c15.3-4,33.7,2.5,38.4,14.2c1.9,4.7,2.8,9.8,2.7,14.7c-0.3,14.2-7.8,26.8-17.8,38.5
		c-4.2,4.9-9,9.5-13.4,14.3c-1.8,1.9-3.1,4.1-4.6,6.2c3-0.7,5.9-1.4,7.8-2.8c12-9.2,23.7-18.6,32.4-29.9c8.2-10.6,11.3-22,9.9-34.2
		c-1.6-13.4-12.7-24.3-28.8-27.9c-9.6-2.2-19.4-2.5-29.3-1.3c-13.2,1.6-22.7,6.7-26.7,16.8c-4.2,10.7,2.8,22.4,15.3,25.8
		c13,3.6,25.5-2.6,24.6-12.3C659,326.4,657.8,323.9,653.5,322.1z M234.1,322.6c-0.4-0.1-0.8-0.3-1.2-0.4c-1.3,1.5-2.9,2.8-3.7,4.4
		c-3,6.5,2,13.5,10.9,15.3c8.2,1.7,15.3,0.1,21.3-4.4c14.3-10.8,8.8-30.8-10-36.4c-10.1-3-20.5-3.2-31-2.2
		c-19.2,1.9-32.7,11.6-36.1,25.9c-3.5,14.9,1.1,28.4,12,41c7.9,9.2,17.6,17.3,27.8,25c2.5,1.9,5.9,3.2,8.9,4.7
		c0.3-0.3,0.6-0.5,0.9-0.8c-3-3.5-6.2-6.9-9.1-10.5c-6.3-7.6-13.2-15-18.5-23c-7.3-11.1-10.6-22.9-7.5-35.4
		c3.6-14.4,20.2-22.5,38.5-19.1c12.1,2.2,17.8,12.9,11.1,20.8c-2.4,2.9-6.7,4.2-10.4,3.1c-3.5-0.9-4.8-3.1-4.2-6.9
		C233.8,323.5,234,323,234.1,322.6z M234,200.6c-0.3-0.2-0.6-0.4-0.9-0.6c-2.5,1.1-5.5,1.8-7.4,3.3c-11.9,9.2-23.5,18.5-32.1,29.7
		c-8.3,10.7-11.5,22.1-9.9,34.4c1.8,14.1,13.8,25,31.5,28.3c8.7,1.6,17.6,1.8,26.4,0.7c18.1-2.3,28.9-11.9,27.9-24.6
		c-0.7-9.3-8.7-16.9-19.5-18.6c-13.5-2.1-24.9,6.4-20.7,15.6c0.7,1.6,2.6,3,3.9,4.5c0.3-0.2,0.6-0.3,1-0.5c-0.1-0.4-0.2-0.9-0.3-1.3
		c-0.6-3.8,0.7-5.9,4.2-6.9c3.8-1,8,0.3,10.5,3.1c6.2,7.4,1.7,17.4-9.3,20.4c-15.3,4.1-33.5-2.4-38.7-14c-3.6-7.9-3.5-16-1.3-24.1
		c3.8-14.2,13-26.4,24.4-37.8C227.2,208.4,230.5,204.4,234,200.6z M326.7,554.3c-5.1-4.6-15.2-3.3-19.3,2.4
		c-5.6,8-0.3,17.7,11.6,20.2c10.2,2.1,19.6,0.4,26.8-5.4c8.4-6.8,9-15.2,5.2-23.7c-3.4-7.6-11.3-11.3-21.5-12.2
		c-12-1-22.5,1.8-31.5,7.8c-5.4,3.6-10.4,7.5-15.7,11.2c-5.9,4.1-12.5,7.2-20.7,7.6c-12.3,0.6-24.2-5.6-22-16.6c0.1-0.5,0-1,0-1.6
		c-1.9,1.7-3.5,3.6-4.1,5.7c-2.5,9,7,20.1,18.9,22c13.2,2.1,24.6-0.2,33.1-8.7c3.4-3.4,6.5-7.1,9.9-10.5c2.6-2.6,5.1-5.4,8.3-7.4
		c14.5-9,32.5-3.8,35.9,10.1c1.4,5.5,0.2,10.4-6.1,13.8c-4.5,2.4-9.5,2.7-14.3,0.7c-4.1-1.8-5.2-4.8-4.7-8.2
		C317.1,557.4,320.3,555.1,326.7,554.3z M327,41c-7.7-0.8-11.7-4.7-10.4-10.2c1.1-4.7,6.8-7.3,13.9-6.2c4.6,0.7,7.7,2.7,9.9,5.7
		c2.3,3.2,2.2,6.6,1.2,10.1c-2.3,8.3-9.8,14-19,14.1c-8.3,0.1-15.4-2.3-20.6-7.2c-3.3-3.1-6-6.6-9.2-9.8c-3.3-3.3-6.5-6.7-10.5-9.4
		c-16.4-11-42.5-4.7-46.6,11.2c-1.1,4.4-0.5,8.5,4.1,12.3c0-0.8,0.1-1.1,0-1.5c-2.7-12.2,11.1-18.1,23.1-17
		c8.4,0.7,14.8,4.1,20.7,8.3c5.2,3.7,10.1,7.5,15.5,11c7.9,5.2,17.1,7.6,27.6,7.4c17.3-0.3,27.6-9.5,26.4-23.4
		c-1.1-12.1-14.6-20.3-30.7-18.6c-13,1.3-20.5,11.3-15.2,20.1C310.6,44.1,320.6,45.7,327,41z M648,51.6c4.4-3.9,5.1-7.9,4-12.2
		c-4-15.8-30-22.4-46.3-11.5c-4.9,3.3-8.6,7.7-12.7,11.7c-3.2,3.1-5.8,6.6-9.4,9.3c-13.4,10.1-31.6,6.5-37-7.1c-0.6-1.5-1-3-1.2-4.5
		c-0.7-5.4,3.2-10.5,9.4-12.2c4.4-1.2,8.8-1.2,12.6,1.1c3.4,2,4.2,5,3.5,8c-1,4.2-4.3,6.7-10.4,6.8c6.3,5,16.8,3.1,20.3-3.5
		c4.2-8-1.1-16.4-12.1-19.1c-13.5-3.3-28.9,2.9-32.9,13.2c-4.8,12.3,1.8,29.5,29.2,28.2c9.4-0.4,17.4-3.2,24.3-7.8
		c5.2-3.5,10.1-7.2,15.2-10.9c4.8-3.5,10.2-6.4,16.8-7.6c14.7-2.7,29.7,4.3,26.6,16.7C647.9,50.6,648,50.9,648,51.6z M560.9,554.4
		c7.5,0.8,11.4,4.7,10.2,10.1c-1,4.8-7.1,7.5-14.2,6.2c-5.9-1-9.4-4-10.8-8.3c-1.8-5.7,0.7-10.8,4.8-15.5c4.5-5.1,11-6.8,18.8-5.9
		c6.9,0.8,12.6,3.4,16.8,7.6c2.5,2.5,4.7,5.2,7.2,7.7c3.9,3.8,7.4,7.9,12,11c14.8,10,39,5.3,45.3-8.6c2.4-5.2,2.3-10.2-3.1-15.2
		c0,0.9-0.1,1.2,0,1.6c2.7,12.1-11.1,18.1-23.2,17c-8-0.7-14.2-3.8-19.9-7.8c-5.3-3.7-10.3-7.6-15.7-11.2c-8-5.3-17.4-8-28.2-7.8
		c-17.4,0.4-27.9,9.7-26.3,23.7c1.3,11.9,14.7,19.9,30.7,18.4c13.2-1.3,20.8-11.8,14.9-20.6C576.4,551,565.9,549.7,560.9,554.4z
		 M266.7,198c-0.2,11.7-3.9,16.6-13.2,16.9c-3.3,0.1-7.3-0.4-10-1.8c-6.3-3.2-6.1-8.8-6.7-14.1c-6.9,7.2-7.2,15-4.8,23
		c1.9,6.5,7.5,10.1,15.8,10.6c9.7,0.6,17.3-2.4,22.2-8.8C275.6,216.5,274.1,205.1,266.7,198z M236.6,396.1c0.6-2.8,0.8-5.4,1.7-8
		c1.9-5.3,6.6-7.9,13.5-7.8c7.2,0.1,12.1,2.8,13.7,8.1c0.9,2.8,0.9,5.7,1.4,8.6c2.1-2.4,4.1-5,5-7.8c2.9-8.4,1.9-16.3-7.3-22.4
		c-6.4-4.2-14-5.2-22-3.1c-6.9,1.8-10,6-11.1,11.1C229.9,382.2,230.1,389.5,236.6,396.1z M621,397.3c0.2-11.7,3.9-16.4,13.2-17
		c10.2-0.7,13.3,2.2,16.9,15.7c6-6.1,6.6-13,5.3-20.1c-2.2-11.7-16.3-16.9-30-11C612.8,370.7,609.9,386.9,621,397.3z M620.9,198.5
		c-0.4-0.1-0.9-0.2-1.3-0.3c-1.6,3.8-4,7.4-4.8,11.3c-1.7,7.5,0.4,14.4,8.5,19.5c11.3,7.1,28,4.3,31.8-5.6
		c3.3-8.3,2.9-16.6-4.1-24.1c-2.9,13.1-6.3,16.4-16.2,15.9C625.2,214.7,621.5,210.2,620.9,198.5z M490.7,562.4c0.8,0,1.5,0.2,1.7,0
		c1.4-1.3,3.5-2.6,3.9-4.1c0.6-2.5-1-4.7-4.2-5.9c-7.2-2.9-15.9,0-18.2,6c-3.2,8.4,4.5,17.6,16.7,19.2c14.1,1.9,24.9-2.3,33.2-10.8
		c6.6-6.8,9.6-14.8,12.4-22.8c-2.3,2.3-4.2,4.7-6.4,7c-4.2,4.4-8,9.2-12.9,13.1c-8,6.4-18.1,7.2-28.7,4.3c-5.6-1.5-8.5-5.3-7.5-8.9
		c0.8-2.8,4.4-4.5,8-3.7c3.1,0.7,3.9,2.6,2.5,5.6C491,561.5,490.9,561.9,490.7,562.4z M350.4,51c0.4,0.2,0.9,0.4,1.3,0.6
		c2.1-2.5,4.4-4.9,6.3-7.4c4.2-5.5,8.7-10.8,15.5-14.7c8-4.5,16.9-4.9,25.9-2.3c5.4,1.5,8.5,5.2,7.2,8.7c-0.6,1.5-2.5,3.1-4.4,3.8
		c-1.4,0.5-4.6,0-5.4-0.8c-1-1.1-0.5-3.1-0.5-4.7c0-0.3,0.2-0.6,0.3-1.1c-0.7,0-1-0.1-1.4-0.1c-3.1,0.6-4.2,2.4-4.2,4.6
		c0,2.8,1.8,5,5.4,6c4.5,1.2,8.9,1,12.6-1.3c4.6-2.7,5.8-6.7,4.9-10.9c-1.8-9.2-13.1-15.1-26-13.9c-11.6,1.1-20.6,5.6-26,13.3
		C357.7,37.2,354.4,44.2,350.4,51z M535.9,51.6c0.2-0.1,0.3-0.2,0.5-0.3c-0.9-2.1-2-4.1-2.7-6.2c-2.1-6.3-5.8-12-10.9-17.2
		c-5.8-6-13.8-9.4-23.6-10.4c-14.2-1.4-26.7,6.5-26.2,16.5c0.4,7.5,8.5,12,17.4,9.7c3.6-0.9,5.8-3.3,5.8-6.1c0-2.8-2.2-4.4-5.6-4.2
		c1.8,3.8,1.2,5.7-2,6.5c-3.6,0.8-7.4-0.8-8.1-3.7c-0.2-0.9-0.2-1.9,0-2.8c0.9-3.2,3.8-5.2,7.7-6.2c10.7-2.7,20.8-1.8,28.7,4.6
		c4.9,3.9,8.6,8.7,12.8,13.1C532,46.9,533.9,49.3,535.9,51.6z M448.6,553.5c-4.9,2.3-4.7,8.5-1.6,12.4c3.3,4.2,10.8,6.1,18.1,4.5
		c4.5-1,6.8-2.6,6.7-4.6C456.3,567.3,449.8,563.9,448.6,553.5z M415.6,29.8c5.9-1.5,11.4-1.3,16.4,1.1c5.2,2.5,6.8,6.5,7.1,11
		c4.6-2.3,4.7-8,1.9-12c-3-4.3-9.4-6.2-17.1-5.2C419.3,25.3,416,27.2,415.6,29.8z M448.8,41.8c-0.1-4.6,1.7-8.4,6.8-10.9
		c5.1-2.5,10.6-2.6,16.3-1.1c-0.2-2.5-3.4-4.4-8.1-5.1c-8-1.2-14.5,0.9-17.4,5.6C443.6,34.8,444.3,39,448.8,41.8z M439,553.5
		c-1,10.3-7.5,13.7-23.1,12.3c-0.1,2,2.2,3.6,6.7,4.5c7.3,1.6,14.8-0.3,18.1-4.5C443.9,561.8,443.7,555.8,439,553.5z"/>
	<path class="st1" d="M239.2,542.3c-3,1.4-5.9,3-9,4.1c-8.2,2.9-15.7,2-22.4-2.7c-7.6-5.3-10.9-12.1-11.9-19.6
		c-2.5-17.3,5.3-31.1,24.8-40.9c4.1-2.1,8.1-4.3,12.1-6.5c15-8.3,19.9-19.8,18.2-33.3c-0.9-7.2-3.6-13.9-9.8-19.6
		c-6.9-6.4-15.7-9.5-26.8-7.8c-5.2,0.8-9.1,3.3-12.4,6.2c-2.5,2.2-4.8,4.6-7.6,7.3c-4.5-10-5.7-19.5,1.5-28.5
		c7.1-8.9,23.4-11.1,35.4-4.7c13.7,7.3,22.2,17.4,26,29.7c6.7,21.7-0.1,40.4-21.1,56.3c-7.6,5.8-14.7,12.2-20.9,18.8
		c-7.3,7.8-9,16.7-4.9,26c4.3,9.6,13.1,14.5,26.5,14.4c0.7,0,1.4,0,2.1,0C238.9,541.8,239,542,239.2,542.3z"/>
	<path class="st1" d="M194.4,165.9c2.8,2.7,5,5.1,7.5,7.2c10,8.6,24.3,9.2,35.6,1.5c9.4-6.4,12.8-15,13.7-24.2
		c1.3-13.6-4.9-24.8-20.1-32.7c-4.8-2.5-9.5-5-14.2-7.6c-23.7-13-25.3-35.5-17-50c3.4-5.9,8.7-10.8,17.4-12.3
		c8.7-1.6,15.6,1.6,22.8,6.1c-2.8,0-4.5-0.1-6.1,0c-9.4,0.3-16.5,3.5-20.9,9.8c-6,8.7-6.5,17.5-0.9,26.5
		c4.9,7.8,12.3,14.3,20.4,20.2c9.5,7,17.7,14.7,22.8,24.1c8.5,15.6,6.5,44.6-18.4,61.4c-5.2,3.5-11,6.1-18.1,6.6
		c-10.3,0.8-20.3-3.2-24.5-10.3C189.2,183.6,190,174.9,194.4,165.9z"/>
	<path class="st1" d="M648.6,53.8c8.4-7.6,22.1-8.5,31.4-2.1c7.6,5.2,10.8,11.9,11.9,19.3c2.6,17.3-5,31.2-24.5,41
		c-4.2,2.1-8.3,4.4-12.4,6.7c-15,8.3-19.9,19.8-18.2,33.3c0.9,7.2,3.6,13.9,9.8,19.6c7.1,6.4,16,9.6,27.2,7.7
		c5.3-0.9,9.2-3.6,12.5-6.6c2.3-2.1,4.5-4.3,7-6.9c4.4,9.6,5.5,18.7-0.7,27.6c-6.1,8.9-21.5,12-33.6,6.8c-13.8-6-22.5-15.4-27-26.8
		c-9.1-22.8-3.2-43,19.3-60.2c7.9-6,15.2-12.6,21.6-19.5c7.4-8,8.6-17,4.1-26.3c-4.4-9.1-12.9-13.6-25.7-13.5
		C650.5,53.9,649.7,53.8,648.6,53.8z"/>
	<path class="st1" d="M648.5,541.5c23.3-0.1,36.6-14.8,29.4-32c-3.2-7.7-9.5-13.9-16.5-19.7c-4.1-3.4-8.4-6.6-12.7-9.9
		c-31.4-24.1-23.9-62.3,1.4-79.8c5.6-3.8,11.6-6.7,19.3-7.3c10-0.7,20,3.3,24.2,10.3c5,8.6,4.2,17.3-0.2,26.4c-2-2-3.5-3.7-5.2-5.3
		c-12.3-12-31.1-11.7-42.8,0.7c-15.4,16.3-10.7,39.8,10.3,51.9c4.9,2.8,10.1,5.4,15.1,8.2c24.1,13.1,25.4,35.6,17.4,49.9
		c-1.4,2.4-3.4,4.7-5.7,6.7C672.1,551.1,658.6,549.1,648.5,541.5z"/>
	<path class="st1" d="M655.2,199.5c3.8,2.4,7.8,4.7,11.3,7.3c11.5,8.7,21.9,18,29.7,28.9c7.7,11,10,22.6,7.2,34.8
		c-3.4,14.4-16.9,24-36.1,25.9c-10.7,1.1-21.2,0.9-31.4-2.3c-19.3-6-24-27.1-8.2-37.3c5.8-3.8,12.5-4.9,19.9-3.4
		c8.9,1.8,13.9,8.8,10.9,15.3c-0.7,1.6-2.4,2.9-3.7,4.4c-0.3-0.1-0.7-0.2-1-0.3c0-0.5,0.1-1,0.1-1.5c0.6-3.8-0.7-5.9-4.3-6.8
		c-3.8-1-8.1,0.3-10.4,3.2c-6.2,7.4-1.6,17.4,9.4,20.3c15.5,4.1,33.6-2.6,38.8-14.3c4.1-9.5,3.2-19.1-0.3-28.6
		c-4.6-12.4-13-23.2-23.2-33.3c-3.6-3.6-6.8-7.5-10.2-11.3C654.2,200.2,654.7,199.9,655.2,199.5z"/>
	<path class="st1" d="M653.5,322.1c4.3,1.8,5.4,4.3,5.7,7.2c0.9,9.6-11.6,15.8-24.6,12.3c-12.4-3.4-19.4-15.1-15.3-25.8
		c3.9-10,13.4-15.2,26.7-16.8c9.9-1.2,19.7-0.9,29.3,1.3c16.1,3.6,27.2,14.5,28.8,27.9c1.4,12.2-1.7,23.5-9.9,34.2
		c-8.7,11.3-20.4,20.7-32.4,29.9c-1.9,1.4-4.7,2.1-7.8,2.8c1.5-2.1,2.8-4.2,4.6-6.2c4.4-4.8,9.2-9.4,13.4-14.3
		c10-11.7,17.5-24.3,17.8-38.5c0.1-4.9-0.8-10-2.7-14.7c-4.7-11.7-23.1-18.2-38.4-14.2c-11.1,2.9-15.8,13.1-9.3,20.5
		c2.4,2.8,6.8,4,10.5,2.9c3.3-1,4.6-3,4-6.7C653.9,323.6,653.7,323.1,653.5,322.1z"/>
	<path class="st1" d="M234.1,322.6c-0.1,0.5-0.2,0.9-0.3,1.4c-0.6,3.8,0.7,5.9,4.2,6.9c3.8,1,8-0.3,10.4-3.1
		c6.7-7.9,1-18.5-11.1-20.8c-18.3-3.4-34.9,4.8-38.5,19.1c-3.2,12.4,0.1,24.3,7.5,35.4c5.3,8,12.2,15.4,18.5,23
		c2.9,3.5,6.1,7,9.1,10.5c-0.3,0.3-0.6,0.5-0.9,0.8c-3-1.6-6.4-2.8-8.9-4.7c-10.1-7.8-19.9-15.8-27.8-25c-10.8-12.6-15.4-26.1-12-41
		c3.4-14.3,16.9-24,36.1-25.9c10.5-1.1,20.9-0.9,31,2.2c18.8,5.7,24.3,25.6,10,36.4c-5.9,4.5-13.1,6.1-21.3,4.4
		c-8.9-1.8-13.9-8.8-10.9-15.3c0.7-1.6,2.4-2.9,3.7-4.4C233.3,322.3,233.7,322.4,234.1,322.6z"/>
	<path class="st1" d="M234,200.6c-3.5,3.9-6.7,7.8-10.4,11.5c-11.4,11.4-20.6,23.7-24.4,37.8c-2.2,8.1-2.3,16.2,1.3,24.1
		c5.2,11.6,23.4,18.1,38.7,14c10.9-2.9,15.5-13,9.3-20.4c-2.4-2.9-6.7-4.1-10.5-3.1c-3.5,0.9-4.8,3.1-4.2,6.9
		c0.1,0.4,0.2,0.9,0.3,1.3c-0.3,0.2-0.6,0.3-1,0.5c-1.3-1.5-3.1-2.8-3.9-4.5c-4.2-9.3,7.2-17.8,20.7-15.6
		c10.8,1.7,18.8,9.3,19.5,18.6c1,12.7-9.8,22.3-27.9,24.6c-8.8,1.1-17.7,0.9-26.4-0.7c-17.8-3.3-29.8-14.2-31.5-28.3
		c-1.5-12.3,1.6-23.7,9.9-34.4c8.7-11.2,20.3-20.5,32.1-29.7c1.9-1.5,4.9-2.2,7.4-3.3C233.4,200.2,233.7,200.4,234,200.6z"/>
	<path class="st1" d="M326.7,554.3c-6.4,0.8-9.6,3.1-10.2,7.3c-0.5,3.4,0.6,6.4,4.7,8.2c4.8,2.1,9.9,1.7,14.3-0.7
		c6.3-3.4,7.5-8.3,6.1-13.8c-3.4-13.9-21.4-19.1-35.9-10.1c-3.3,2-5.8,4.8-8.3,7.4c-3.4,3.4-6.4,7.1-9.9,10.5
		c-8.4,8.4-19.9,10.7-33.1,8.7c-11.9-1.9-21.5-13-18.9-22c0.6-2,2.2-3.9,4.1-5.7c0,0.5,0.1,1.1,0,1.6c-2.2,11,9.6,17.1,22,16.6
		c8.3-0.4,14.9-3.5,20.7-7.6c5.3-3.7,10.3-7.6,15.7-11.2c8.9-6,19.5-8.8,31.5-7.8c10.2,0.9,18.1,4.6,21.5,12.2
		c3.8,8.5,3.3,16.8-5.2,23.7c-7.2,5.8-16.6,7.6-26.8,5.4c-11.8-2.5-17.2-12.2-11.6-20.2C311.5,551,321.6,549.8,326.7,554.3z"/>
	<path class="st1" d="M327,41c-6.4,4.7-16.4,3.1-20.1-3.1c-5.3-8.8,2.3-18.8,15.2-20.1c16.1-1.6,29.6,6.6,30.7,18.6
		c1.3,13.9-9.1,23.1-26.4,23.4c-10.5,0.2-19.7-2.3-27.6-7.4c-5.3-3.5-10.3-7.3-15.5-11c-5.9-4.2-12.3-7.6-20.7-8.3
		c-12-1.1-25.9,4.8-23.1,17c0.1,0.3,0,0.7,0,1.5c-4.6-3.8-5.2-7.9-4.1-12.3c4.1-15.9,30.3-22.3,46.6-11.2c4,2.7,7.2,6.2,10.5,9.4
		c3.2,3.2,5.9,6.7,9.2,9.8c5.2,4.9,12.3,7.3,20.6,7.2c9.3-0.2,16.7-5.8,19-14.1c1-3.5,1.1-6.8-1.2-10.1c-2.1-3-5.3-5.1-9.9-5.7
		c-7.1-1.1-12.8,1.5-13.9,6.2C315.4,36.3,319.3,40.2,327,41z"/>
	<path class="st1" d="M648,51.6c-0.1-0.7-0.2-1-0.1-1.3c3.1-12.4-11.9-19.4-26.6-16.7c-6.6,1.2-11.9,4.1-16.8,7.6
		c-5.1,3.6-9.9,7.4-15.2,10.9c-6.9,4.6-15,7.4-24.3,7.8c-27.4,1.3-33.9-15.9-29.2-28.2c4-10.3,19.4-16.5,32.9-13.2
		c11,2.7,16.3,11.1,12.1,19.1c-3.5,6.5-14,8.5-20.3,3.5c6.1-0.1,9.4-2.6,10.4-6.8c0.7-3.1-0.1-6-3.5-8c-3.8-2.3-8.2-2.3-12.6-1.1
		c-6.2,1.8-10.1,6.9-9.4,12.2c0.2,1.5,0.6,3,1.2,4.5c5.4,13.6,23.7,17.2,37,7.1c3.6-2.7,6.2-6.3,9.4-9.3c4.1-4,7.8-8.4,12.7-11.7
		C622,17,648,23.6,652.1,39.4C653.2,43.6,652.5,47.7,648,51.6z"/>
	<path class="st1" d="M560.9,554.4c5-4.7,15.5-3.3,19.4,2.5c5.9,8.8-1.7,19.3-14.9,20.6c-16,1.6-29.4-6.4-30.7-18.4
		c-1.5-14,8.9-23.3,26.3-23.7c10.8-0.2,20.2,2.4,28.2,7.8c5.4,3.6,10.5,7.5,15.7,11.2c5.6,4,11.9,7.1,19.9,7.8
		c12.1,1.1,25.9-4.9,23.2-17c-0.1-0.3,0-0.7,0-1.6c5.4,4.9,5.4,10,3.1,15.2c-6.3,13.9-30.5,18.6-45.3,8.6c-4.6-3.1-8.2-7.2-12-11
		c-2.6-2.5-4.7-5.2-7.2-7.7c-4.2-4.2-9.9-6.8-16.8-7.6c-7.8-0.9-14.3,0.8-18.8,5.9c-4.1,4.7-6.6,9.8-4.8,15.5
		c1.4,4.3,4.9,7.3,10.8,8.3c7.2,1.3,13.2-1.4,14.2-6.2C572.3,559,568.4,555.2,560.9,554.4z"/>
	<path class="st1" d="M266.7,198c7.4,7.1,8.9,18.5,3.3,25.8c-4.9,6.4-12.5,9.4-22.2,8.8c-8.3-0.5-13.9-4.1-15.8-10.6
		c-2.4-7.9-2.1-15.7,4.8-23c0.6,5.3,0.4,10.9,6.7,14.1c2.7,1.4,6.7,1.9,10,1.8C262.7,214.6,266.4,209.7,266.7,198z"/>
	<path class="st1" d="M236.6,396.1c-6.5-6.5-6.7-13.9-5.1-21.4c1.1-5.1,4.3-9.3,11.1-11.1c8.1-2.1,15.7-1.1,22,3.1
		c9.2,6.1,10.1,14,7.3,22.4c-1,2.8-2.9,5.4-5,7.8c-0.4-2.9-0.5-5.8-1.4-8.6c-1.7-5.3-6.6-8-13.7-8.1c-6.9-0.1-11.6,2.5-13.5,7.8
		C237.4,390.6,237.2,393.3,236.6,396.1z"/>
	<path class="st1" d="M621,397.3c-11.1-10.4-8.2-26.6,5.4-32.4c13.7-5.9,27.8-0.7,30,11c1.3,7.2,0.7,14.1-5.3,20.1
		c-3.6-13.5-6.7-16.4-16.9-15.7C624.9,380.9,621.2,385.6,621,397.3z"/>
	<path class="st1" d="M620.9,198.5c0.5,11.8,4.2,16.2,13.9,16.7c9.9,0.5,13.3-2.8,16.2-15.9c7,7.6,7.3,15.8,4.1,24.1
		c-3.8,9.8-20.5,12.6-31.8,5.6c-8.2-5.1-10.2-12-8.5-19.5c0.9-3.9,3.2-7.5,4.8-11.3C620.1,198.2,620.5,198.3,620.9,198.5z"/>
	<path class="st1" d="M490.7,562.4c0.2-0.5,0.3-0.8,0.5-1.2c1.5-3,0.6-4.9-2.5-5.6c-3.6-0.8-7.3,0.9-8,3.7c-1,3.6,1.9,7.4,7.5,8.9
		c10.6,2.9,20.8,2,28.7-4.3c4.9-3.9,8.7-8.6,12.9-13.1c2.2-2.3,4.2-4.8,6.4-7c-2.9,8.1-5.8,16-12.4,22.8
		c-8.2,8.5-19.1,12.7-33.2,10.8c-12.1-1.6-19.9-10.8-16.7-19.2c2.3-6,11-8.9,18.2-6c3.2,1.3,4.7,3.5,4.2,5.9
		c-0.4,1.5-2.4,2.8-3.9,4.1C492.2,562.5,491.5,562.4,490.7,562.4z"/>
	<path class="st1" d="M350.4,51c3.9-6.8,7.3-13.8,11.9-20.3c5.4-7.7,14.4-12.2,26-13.3c12.9-1.2,24.1,4.7,26,13.9
		c0.8,4.2-0.3,8.1-4.9,10.9c-3.7,2.2-8.2,2.5-12.6,1.3c-3.7-1-5.4-3.1-5.4-6c0-2.1,1.2-3.9,4.2-4.6c0.3-0.1,0.7,0,1.4,0.1
		c-0.1,0.4-0.3,0.7-0.3,1.1c0.1,1.6-0.5,3.6,0.5,4.7c0.8,0.9,4,1.3,5.4,0.8c1.9-0.7,3.8-2.3,4.4-3.8c1.3-3.5-1.8-7.2-7.2-8.7
		c-9.1-2.5-17.9-2.2-25.9,2.3c-6.9,3.9-11.3,9.2-15.5,14.7c-2,2.5-4.2,5-6.3,7.4C351.3,51.4,350.9,51.2,350.4,51z"/>
	<path class="st1" d="M535.9,51.6c-2-2.3-3.9-4.7-6-6.9c-4.2-4.4-7.9-9.2-12.8-13.1c-7.9-6.4-18-7.3-28.7-4.6c-3.9,1-6.7,3-7.7,6.2
		c-0.3,0.9-0.3,1.9,0,2.8c0.7,2.8,4.5,4.5,8.1,3.7c3.2-0.8,3.8-2.7,2-6.5c3.4-0.2,5.6,1.4,5.6,4.2c0,2.8-2.2,5.2-5.8,6.1
		c-8.9,2.3-17-2.2-17.4-9.7c-0.5-10,12-17.9,26.2-16.5c9.8,1,17.8,4.3,23.6,10.4c5,5.2,8.8,10.9,10.9,17.2c0.7,2.1,1.8,4.1,2.7,6.2
		C536.3,51.4,536.1,51.5,535.9,51.6z"/>
	<path class="st1" d="M361.3,564.3c-0.8-1.3-1.5-2.6-2.3-3.9c-1.5-2.7-3.2-5.4-4.5-8.2c-1.3-2.7-2.1-5.4-2.8-8.4
		c2,2.3,3.9,4.7,6.1,6.9c4.4,4.6,8.3,9.4,13.4,13.5c7.2,5.8,16.5,6.6,26.4,4.6c4.2-0.8,7.6-2.6,9.1-5.9c1.6-3.4-0.4-6.8-4.5-7.3
		c-1.7-0.2-4.1,0.1-5.1,1c-1,0.8-0.8,2.6-0.9,3.9c0,0.5,0.5,1,0.8,1.6c-3.6,0.1-5.7-1.5-5.7-4.3c0-2.9,2.3-5.2,6.2-6.1
		c8.9-2.1,16.6,2.4,17,9.8c0.5,10-12,17.8-26.2,16.4c-10.4-1-18.5-4.8-24.5-11.3c-0.8-0.8-1.7-1.6-2.6-2.4
		C361.2,564.2,361.3,564.3,361.3,564.3z"/>
	<path class="st1" d="M448.6,553.5c1.1,10.4,7.6,13.8,23.1,12.3c0.1,2-2.1,3.5-6.7,4.6c-7.3,1.6-14.8-0.3-18.1-4.5
		C443.9,562,443.8,555.8,448.6,553.5z"/>
	<path class="st1" d="M415.6,29.8c0.4-2.6,3.7-4.5,8.3-5.1c7.7-1.1,14.1,0.9,17.1,5.2c2.8,4,2.6,9.7-1.9,12c-0.2-4.5-1.8-8.6-7.1-11
		C427,28.5,421.6,28.3,415.6,29.8z"/>
	<path class="st1" d="M448.8,41.8c-4.4-2.8-5.2-7-2.4-11.5c2.9-4.7,9.4-6.7,17.4-5.6c4.7,0.7,7.9,2.6,8.1,5.1
		c-5.7-1.4-11.3-1.3-16.3,1.1C450.5,33.4,448.7,37.2,448.8,41.8z"/>
	<path class="st1" d="M439,553.5c4.7,2.3,4.9,8.2,1.7,12.4c-3.3,4.2-10.8,6.1-18.1,4.5c-4.5-1-6.8-2.6-6.7-4.5
		C431.5,567.3,438,563.9,439,553.5z"/>
</g>
<g>
	<g>
		<path class="st2" d="M574.9,250.4c-0.9,0.6-2.8,1.7-3,2.7c-0.3,1.5,0.8,2.4,1.7,2.5c1.2,0.1,3.6-1.3,4.9-2.1
			c3.4-1.9,7.2-3.7,10.3-5.4c0.4-0.2,0.8-0.4,1.1-0.6c0.8-0.4,1.8-0.7,2.4-1.1c0.9-0.6,2.1-2.6,1.8-4.1c-0.2-1.1-2.2-2.1-3.4-1.8
			h-0.2c-2.6,1.4-5.4,3.4-8.3,5.3C579.8,247.4,577.3,249,574.9,250.4z"/>
		<path class="st2" d="M586.5,291.5c-2.9-1.8-5.2-3.8-7.7-5.6c-2.7-2-6.6-2.5-10.3-3c-3.7-0.4-7.1-2.6-8.2-5
			c-0.9-1.9-0.9-3.9-1.5-5.5c-1.9-5.3-6.2-7.1-12.9-8.1c-0.3-2.8-1.4-4.3-3.2-5.4c-1-0.6-2.3-0.7-3.2-1.4c-0.8-0.6-0.8-2-1.5-2.9
			c-1.5-1.9-4.8-1.9-6.9-3c-2-1-2.7-2.9-4.7-4.3c-1-0.7-1.9-0.9-3.3-1.3c-3.1-0.8-7.3-0.1-9.6,1.6c-0.9,0.7-1.8,2-2.9,3
			c-1,1-2,2.3-3.2,2.7c-0.8,0.3-1.7,0.3-2.5,0.6c-1.2,0.5-2.4,1.5-3.7,2.2c-2.7,1.6-4.4,3.1-6.6,5c-2,1.7-3.3,3.2-6.3,3.7
			c-1.1,0.2-2.6,0.2-3.8-0.5c-0.4-1,0-2.1,0.7-2.3c0.7-0.8,1-1.3,1.7-1.6c1.2-0.5,3.1-0.3,4.2-0.6c2.5-0.5,4.8-2.6,6.1-4.6
			c1.6-2.5,3.4-6.9,3-11.2c-0.1-1.2-1-2.7-0.7-4.1c0.2-0.7,1.1-1.1,1.7-1.6c1.9-1.6,3.7-3.5,4.9-5.1c1.6-2,2.3-4.2,2.6-7.3
			c0.1-1.1,0.4-2.3,0.5-3.3c0-3.5-0.6-7.2-0.8-10.5c-0.1-1.5,0.1-3.5,0-5.4c-0.1-1.7-0.8-3.7-0.5-5.3c0.2-0.9,1.4-2,1.9-2.9
			c0.6-1,1.2-2.2,1.6-3.2c0.9-2.3,0.8-5.4,1-8.6c0.2-3,1.1-5.3,1.7-7.9c0.8-3.1,2.4-7.3,0.9-10.4c-1.8-3.8-6.4-6.4-10.5-8.9
			c-1.8-1.1-3.7-2.7-5.7-4c-2-1.3-4.1-2.8-5.4-4.5c-1.3-1.7-1.6-4-2.1-6.2c-0.5-2.1-1.3-4.3-2.2-6.2c-2.8-6-8.2-12-13.8-15.3
			c-0.9-0.5-1.7-1.2-2.5-1.7c-2.6-1.4-6.5-1.9-9.9-2.5c-1.2-0.2-2.3-0.7-3.4-0.8c-1.3-0.1-2.5,0-3.7-0.1c-3.1-0.4-6.8-1.9-9.9-1.6
			c-5.2,0.5-10.6,0.5-15.7,1.5c-2.3,0.4-4.7,1.1-7.1,1.5c-2.4,0.4-5,0.6-7.1,1.5c-2.4,0.9-4.5,3.5-6.2,5.7c-1.8,2.4-3.6,4.9-5.3,6.7
			c-2.7,3.1-5.7,6.2-8.3,9.5c-0.9,1.2-2.1,2.4-2.5,3.5c-0.6,1.6,0,3.7-0.5,5.1c-0.3,0.9-1.5,1.4-2.5,2.1c-1.2,0.8-1.9,1.3-2.7,1.8
			c-3.9,2.5-6,5.7-9.1,9.1c-1.5,1.7-3.4,3.3-4.1,5.1c-0.6,1.6-0.8,3.9-0.6,5.7c0.2,1.8,1.2,3.6,0.9,5.5c-0.2,1.2-1.6,2-2.2,3.1
			c-2.4,4.4-1.5,10.1-0.2,14.6c0.5,1.7,1,3.5,1.6,4.9c0.4,1,1.4,1.8,1.6,2.9c0.6,3-0.6,5.9-1.4,8.6c-0.4,1.2-0.8,2.6-1,4
			c-0.3,1.5-0.7,3.3-0.5,4.7c0.2,1.4,1.2,2.9,1.9,4.2c0.7,1.4,1.4,2.9,2.2,4.1c1.6,2.6,3.7,5,4.2,8.3c0.4,2.7-0.1,5.3,1,7.4
			c1.9,3.7,7.2,4.4,11.5,5.6c1.3,1.1,2.7,2.7,3.2,4.2c-3.5,1.7-6.4,0.4-9-1c-6.3-3.5-9.9-8.4-15.1-12.7c-1-0.8-2.1-1.6-3.2-2.4
			c-1.2-0.8-2.1-1.8-3.2-2.4c-2-1.1-4.8-0.7-7.4-0.3c-2.1,0.3-4,0.6-5.8,0.9c-2.2,0.3-4.2,0.4-6.1,0.7c-4,0.6-7.1,1.9-9.4,4.2
			c-1.2,1.2-2.5,2.2-3.5,3.2c-1.2,1.2-2.4,2.1-3.7,3.1c-2.2,1.7-5.5,2.8-6.4,5.4c-0.8,2.2,0.5,5,1.3,6.6c0.4,0.9,2.5,2,2.4,3
			c-0.1,0.6-1.2,1.3-1.8,1.7c-2.1,1.7-4.4,2.8-5.6,5c-0.9,1.7-1.6,4.3-1.6,6.9c0,1.2,0.6,2.7,0.3,3.9c-0.2,1-1.7,2.1-2.3,3.1
			c-0.6,1-1.3,2.5-1.6,3.8c-1.6,6-3.4,10.8-6.6,15.1c-1.2,1.6-4,4.5-4.1,6.7c-0.1,2.7,1.6,5.5,3,6.6c1.9,1.6,5.8,1.6,8.1,0.6
			c1.7-0.8,3.2-2.3,4.7-3.4c0.6-0.4,1.6-1.1,2.3-1.8c0.9-0.9,1.1-1.9,2.1-2.1c0.8-0.1,2.3,0.6,3.5,0.8c2.6,0.4,5,0.2,6.7-0.6
			c1.1-0.5,1.9-1.7,2.9-1.8c0.8-0.1,2,0.5,2.7,0.8c2.6,1,4.9,2.4,8,2.6c0.2,0,0.4,0,0.7,0c2.4-0.3,5.5-0.6,7.4-1.4
			c3.2-1.2,5.4-3.1,7.8-5.1c1.8-1.6,3.4-3,4.5-5.1c0.4-0.7,0.6-1.6,1.1-2.2c1.3-1.4,3.8-1.4,5.8-2.2c1.6-0.6,3.3-1.8,4.5-2.6
			c2.9-2.2,4.6-4.4,6.9-7.3c0.4-0.6,1.1-1.2,1.6-1.9c0.6-0.9,0.8-1.7,1.5-2.2c0.7-0.5,1.8-0.7,2.6-1.1c2.4-1.3,3.9-2.5,5.7-4.2
			c0.4-0.4,1-0.8,1.6-1.5c0.4-0.4,1-1.5,1.7-1.4c0.7,0.2,1.3,2.1,1.7,3.1c0.5,1.2,0.9,2.4,1.5,3.3c0.4,0.6,1,0.9,1.4,1.5
			c0.4,0.6,0.5,1.4,0.9,2.1c-9.7,5.6-16.9,12.2-22.7,21c-5.7,8.7-10,19.3-10.5,33.2c-0.6,14.1,4,25.7,9.3,34.5
			c4.8,8,10.9,14.5,18.5,19.8c1.3,0.9,2.7,1.5,2.5,3c-0.2,1.7-2.2,1.4-3.7,1.7c-1.1,0.2-2.4,0.6-3.1,1c-1.5,0.8-3.4,2.6-4,4.2
			c-0.9,2.5-0.5,6.3-0.6,9.8c-0.1,2.7-0.4,5.5,0,7.3c0.8,3.4,4.8,5,8.3,6.2c10.1,3.5,22.2,4.8,35,4.8c12.4,0,25.7-0.6,35.6-3.8
			c3.4-1.1,6.8-2.5,8.1-5.1c1-2,1.3-4.7,1.4-7.7c0-2.8,0.4-6.1,0.1-8.7c-0.5-4-4.1-6.4-7.4-7.4c-1.1-0.3-3-0.1-3.8-1
			c-1.3-1.7,1-3.4,1.6-3.8c8.1-4.8,14.6-10.5,19.6-18c5.6-8.4,10.1-19.5,10.4-32.7c0.3-14.5-3.4-25.4-8.6-34.5
			c-4.8-8.5-11.8-15.5-19.5-20.8c-0.5-0.3-1.2-0.6-1.4-1.1c-0.2-1.4,0.3-2.1,0.9-2.6c0.5-0.7,0.7-1.7,1.5-2.1
			c2.8,0.6,3.9,2.4,5.4,4.3c0.9,1.1,1.9,2.2,2.7,3.2c1.9,2.2,3.4,4,6.1,5.7c2.5,1.6,4.8,3,8,3.8c3,0.7,6.4,1.2,10.6,1.1
			c2,2.3,3.6,5,6.5,6.9c1.2,0.7,3.1,1.6,4.5,2.3c0.8,0.4,2.1,0.7,3.2,0.6c1.3,1.7,2.9,3,4.8,3.8c0,1.4,1.4,3.1,2.7,3.7
			c3.2,1.4,7.5,0.5,10.6-0.9c6-2.8,10.1-7.3,15.9-9.9c1.5-0.7,3-1.3,4.2-2.2c1.3-0.9,2.1-2.3,3.4-3.1c1.3-0.8,4-1.7,5.6-1.7
			c1.6,0,2.2,1,3.4,1.8c2.5,1.8,5.6,3.8,9.1,4.2c2.3,0.3,5.6-1,7.2-2.1c1.5-1,3.9-3.4,3.8-5.9C593.1,294.7,589.4,293.3,586.5,291.5z
			"/>
		<path class="st2" d="M557.6,237.9c1.1,0,2.6-1.8,3.7-2.9c3.5-3.5,6.6-6.5,9.9-9.8c4-4,7.5-7.6,11.7-11.3c0.6-0.6,1.4-1.1,1.7-1.6
			c1.2-2.1,0.3-5.4-2.5-4.5c-2.1,0.5-3.2,2.2-4.7,3.8c-6.6,6.9-12.4,13.4-19,20.6c-1.1,1.2-2.9,2.5-2.9,3.8
			C555.5,236.8,556.1,237.9,557.6,237.9z"/>
		<path class="st2" d="M570.7,366.5c-1.9-0.6-4.5-0.6-6.7-0.9c-4.7-0.7-9-1.2-13.7-1.8c-4.6-0.6-9.3-1.3-13.7-1.8
			c-2.3-0.3-4.7-0.5-7-0.8c-4.5-0.7-8.9-1.6-13.5-2.1c-0.1,0-0.2,0.1-0.2,0.1c-1.1,0.3-1.6,1-1.5,2.2c0.2,1.9,3.5,2,5.7,2.4
			c7,1.4,14,2.5,20.7,3.8c7.2,1.4,13.5,2.5,20.6,3.9c3.8,0.7,8.5,2.1,11.3-0.1C574.8,369.7,572.7,367.2,570.7,366.5z"/>
		<path class="st2" d="M528.6,221.9c0.9-0.1,2-1.6,2.9-2.6c4.3-5.1,8.3-10.3,12.3-15.4c0.7-0.9,1.5-2,2.4-3.1c0.9-1,2.1-2.2,2.4-3.2
			c0.7-2.2-1.2-4-3.1-3.5c-1.2,0.3-2.1,2-2.9,3.1c-2.6,3.6-4.5,6-7.2,9.7c-2,2.7-4,5.3-5.9,8c-0.9,1.2-3.4,3.9-3.2,5.4
			C526.4,221.2,527.4,222,528.6,221.9z"/>
		<path class="st2" d="M536.2,340.7c2.6,0.3,5.2,0.8,7.7,0.8c2,0,4.1-0.4,4.2-2.2c0.1-1.1-1.1-2.6-2.2-3c-1-0.4-2.4-0.4-3.3-0.5
			c-7.6-0.8-17.8-1.1-24.7-1.7c-0.1,0-0.2,0.1-0.2,0.1c-1.4,0.2-2.4,0.7-2.4,2.1c-0.1,2.3,3.2,2.2,5.8,2.5
			C526.5,339.5,531.3,340.1,536.2,340.7z"/>
		<path class="st2" d="M534.8,386.5c-1.3-0.6-2.5-1.2-3.4-1.7c-6-2.9-11.8-5.2-17.4-8.3c-1.1-0.6-2.5-1.7-3.3-1.8
			c-1.4-0.2-2.2,1-2.3,1.7c-0.2,2.2,1.9,2,2.9,3.4c4.5,1.9,8.5,5,12.7,7.3c2.4,1.4,4.7,2.8,7.1,4.1c1,0.6,2,1.5,2.9,1.6
			c1.3,0.1,3.5-1,4-2.1C539.2,388,536.7,387.4,534.8,386.5z"/>
		<path class="st2" d="M510.7,400.1c-2.2-1.7-4.5-4.3-6.4-5.6c-0.3-0.2-0.9-0.4-1.4-0.7c-0.5-0.4-0.7-0.8-1.1-0.9
			c-0.4-0.1-1.3,0.1-1.5,0.1c-0.7,0.2-1.6,0.7-1.5,2.2c0.1,1.3,2,2.4,2.9,3.3c2.2,2.2,4,4.1,6.4,5.9c0.8,0.6,2.3,2.5,3.7,2.5
			c0.9,0,1.9-0.6,2.1-1.5c0.2-0.9-0.4-2.9-0.9-3.7C512.5,401.2,511.6,400.8,510.7,400.1z"/>
		<path class="st2" d="M375.4,388.5c-3.6,1.9-6.2,3.5-10.7,6.1c-2.8,1.6-5.4,2.9-8.1,4.5c-1.1,0.6-2.3,1.1-2.5,1.7
			c-0.7,1.8,0.6,4.1,1.5,4.5c1.7,0.7,2.9-0.5,3.9-1.1c4.6-3.2,9.5-6.3,13.8-9.3c1-0.6,1.6-1.2,2.5-1.8c0.9-0.6,2.2-1,2.4-2.1
			C378.4,389.2,376.7,387.8,375.4,388.5z"/>
		<path class="st2" d="M363.9,369.4c0-1.7-1.5-2.4-3.4-1.9c-16.5,7-32.8,14.2-49.5,21c-1.3,1.1-2.9,2.5-2.6,4.5
			c0.3,2.1,3,2.3,5.5,2.2c7.9-4.2,16.5-8.1,25.2-12.6c6.3-3.2,12.5-6.5,19.1-9.4C360.1,372.3,363.9,371.4,363.9,369.4z"/>
		<path class="st2" d="M314.4,347.1c-2.3,0.4-4.6,0.8-5,1.9c-0.4,1.1,0,3.2,0.8,3.7c0.7,0.4,2.7,0.4,3.8,0.3c1.9-0.2,3.8-1,5.7-1.4
			c11.6-2.6,23-5.4,35.2-7.5c2.2-0.4,4.5-1,4.6-2.6c0.1-2.2-2.1-2.1-4.1-1.9H355c-5.7,0.9-11.8,2.3-17.4,3.2
			c-6.2,1-10.8,2.1-17.6,3.2C318.8,346.2,316.4,346.7,314.4,347.1z"/>
		<path class="st2" d="M353.9,329.8c2.5,0.2,5,0.8,4.8-1.8c-0.1-1.9-2.5-2-5.1-2.4c-2.4-0.4-4.7-0.7-6.6-1
			c-4.9-0.8-8.9-1.7-13.1-2.1c-0.1,0-0.2,0.1-0.2,0.1c-1.8,0.1-2.3,0.5-3.1,1.6c-2.4,3.4,1.6,4,5,4.2
			C342.1,328.9,347.8,329.3,353.9,329.8z"/>
		<path class="st2" d="M352.1,226.3c0.8,1,1.9,2.3,2.9,2.4c1.2,0.1,2.3-0.8,2.2-2.2c-0.1-0.9-1.4-2-2.1-3
			c-4.4-6.1-8.5-11.5-12.8-17.4c-1.1-1.4-1.9-3.5-4.1-2.9c-0.9,0.2-2.1,1.3-2.2,2.5c0,1.1,1.2,2.3,1.9,3.2
			C342.9,214.9,347.4,220.4,352.1,226.3z"/>
		<path class="st2" d="M308.2,216.3c5.3,4.9,11,10.3,16.3,15.2c1.1,1,2.4,2.8,3.7,2.7c1.2,0,2-1,1.9-2.1c0-1-1.4-2.2-2.3-3.1
			c-4.5-4.5-8.7-9.5-13-13.8c-1.8-1.8-3.6-4-5.4-5.5c-0.8-0.7-1.9-1.3-3-2.1c-1-0.7-2.3-1.9-3.5-1.6c-0.8,0.2-1.4,0.8-1.5,1.7
			c-0.1,1.7,1.2,2.8,2.1,3.7C305.1,213.1,306.6,214.9,308.2,216.3z"/>
		<path class="st2" d="M310.2,256.5c1.3,0.1,2.7-1.1,2.1-2.9c-0.3-0.7-2.4-1.9-3.4-2.5c-1.3-0.8-2.9-1.9-3.7-2.4
			c-6.5-4.3-11.6-8-18.1-12.1c-1.6-1-2.9-2.6-5.3-2.3c-1.5,0.2-3.3,0.7-3.5,1.9c-0.4,1.8,0.9,3,2.2,3.7c2,1.1,4.2,2.3,5.9,3.3
			c2.8,1.6,5.2,3,7.9,4.5c3.9,2.2,7.7,4.5,11.8,6.7C307.2,255,309.3,256.4,310.2,256.5z"/>
	</g>
	<path class="st3" d="M487.5,262.4c1.1,0.7,2.6,0.6,3.8,0.5c3-0.4,4.3-1.9,6.3-3.7c2.2-1.9,3.9-3.4,6.6-5c1.2-0.7,2.4-1.7,3.7-2.2
		c0.8-0.3,1.7-0.3,2.5-0.6c1.2-0.5,2.2-1.8,3.2-2.7c1-1,1.9-2.3,2.9-3c2.3-1.7,6.5-2.4,9.6-1.6c1.4,0.3,2.3,0.5,3.3,1.3
		c2,1.4,2.7,3.3,4.7,4.3c2.1,1.1,5.4,1.1,6.9,3c0.7,0.9,0.7,2.3,1.5,2.9c0.9,0.7,2.2,0.8,3.2,1.4c1.8,1,2.9,2.6,3.2,5.4
		c6.7,1,11,2.8,12.9,8.1c0.6,1.6,0.6,3.5,1.5,5.5c1.1,2.4,4.5,4.6,8.2,5c3.7,0.4,7.6,1,10.3,3c2.4,1.8,4.8,3.8,7.7,5.6
		c2.9,1.8,6.6,3.3,6.7,7.2c0.1,2.6-2.2,4.9-3.8,5.9c-1.6,1.1-4.9,2.3-7.2,2.1c-3.5-0.4-6.7-2.5-9.1-4.2c-1.2-0.9-1.9-1.8-3.4-1.8
		c-1.6,0-4.3,0.9-5.6,1.7c-1.3,0.8-2.1,2.2-3.4,3.1c-1.3,0.9-2.7,1.5-4.2,2.2c-5.8,2.7-9.9,7.2-15.9,9.9c-3.1,1.5-7.4,2.3-10.6,0.9
		c-2-0.8-4.1-4.3-1.4-5.6c1.2-0.5,3.2,0.1,4.7,0.1c1.9,0,3.3-0.5,4.5-0.8c2.9-0.8,4.7-1.8,7.2-3.3c2.1-1.3,3.7-3.2,6.2-4.3
		c1.3-0.6,6.7-1.9,6.9-3.7c0.2-1.9-3.9-2.8-2.7-5.3c1.1-0.8,2,0.3,3,0.8c0.8,0.5,2.1,1,3.1,1.3c1.5,0.3,6,0.4,6.4-0.9
		c0.4-1.3-1.5-1.7-1-3c0.6-1.6,3.3-0.3,4,0.3c0.5,0.5,0.8,1.2,1.4,1.6c0.7,0.5,1.1,0.8,1.6,1.3c0.9,1,2.1,1.9,3.2,2.6
		c2.1,1.4,4.1,3,7.2,1.4c0.7-0.4,2-1.2,1.9-2.2c0-1.2-2.1-1.7-3.4-2.3c-2.6-1.2-4.9-2.8-7-4.5c-1.1-0.9-2.1-2.1-3.4-2.6
		c-2-0.8-5.4-0.8-8-0.9c-1,0-2-0.3-2.6-0.2c-0.8,0.1-1.3,1-1.8,1.5c-1.1,1.1-2,1.5-4,1.8c-3.2,0.6-5.6-0.2-7.4-2.2
		c-0.5-0.5-1.1-1.3-1.7-1.4c-1.1-0.1-1.8,0.9-2.9,1.4c-3.2,1.4-6.8,0.3-9.5-1.1c-2.6-1.5-4.9-3.2-6.1-5.9c-0.6-1.3-1.1-3.8,0.5-4.2
		c1.6-0.5,3,1.5,3.7,2.2c1.1,1.1,2.3,1.9,3.3,2.6c1,0.7,2.6,1.7,4.1,1.8c1.7,0.2,4.2-0.3,4.3-1.6c0.2-1.6-3.3-3-4.7-3.2
		c-1.3-0.1-2.9,0.5-3.7,0c-0.8-0.6-0.4-2.9-0.5-4.1c-0.1-2.1-0.6-8.6-2.3-9.3c-0.9-0.3-2.6,0.3-3.8,0.5c-1.3,0.2-2.6,0.3-3.9,0
		c-2-0.5-4.6-1.5-6.2-2.5c-0.8-0.5-3.2-2.6-2.2-4.6c1-2,4.3,0,5.4,0.8c2.6,1.9,6,3.6,9.1,1.4c0.7-0.5,1.9-1.6,1.7-2.9
		c-0.2-1.7-3.6-1.7-5.4-2.3c-0.9-0.3-1.9-0.7-2.7-1.1c-1.8-0.9-3.7-2.2-6.5-1.9c-1.2,0.1-2.2,0.9-3.2,1.6c-0.8,0.5-1.6,1.2-2.3,1.7
		c-1.1,0.9-1.6,2.2-2.7,2.7c-4.1-0.6-6.1,2.7-8.1,5.4c-0.6,0.8-1.4,1.5-1.5,2.2c-0.1,1.2,1.1,2.4,0.1,3.2c-1.4,1.1-2.9-1.2-4.2-1.4
		c-0.9-0.1-2.3,0.2-3.4,0.2c-1.1,0.1-2.1,0.5-3.1,0.6c-2.7,0.3-5.4,0.5-7.9,0.1c-0.8-0.1-1.7,0.5-2.6,0.5c-1,0-2.2-0.7-3.1-1
		c-1-0.4-2-0.8-2.7-1.3c-2.1-1.3-3.5-3.6-5.6-4.7c-5,0.9-9.5-1.5-13.3-3c-1.5-0.6-2.8-1-4.6-1.9c-1.1-0.6-3.8-2.1-5-1
		c-0.8,0.7-0.3,2.2,0,3c0.7,1.5,2.9,3.8,4.7,4.7c1.5,0.8,3.6,1.5,5.7,2.3c2.1,0.8,4.4,1.3,6.4,1.6c1.8,0.2,3.6,0,3.9,1
		c0.3,1.2-1.1,1.6-1,2.7c0.1,1.4,3.2,2.4,4.8,3c1.4,0.5,3,1.4,4.7,2.1c1.7,0.7,3.5,1.1,4.8,1.8c1.4,0.8,2.8,2.2,4,3.4
		c3.6,3.7,7.5,7.2,12.2,9.9c1.5,0.9,3.1,1.8,5.1,2.3c1.9,0.4,4.2,0.6,6.7,0.7c2.4,0,4.7-0.1,7.1,0.3c1.6,0.3,4.6,1.1,4.6,2.7
		c0,0.7-0.5,1-0.7,1.1c-1.1,0.7-2.1-0.6-3.5-0.2c0,1,1.2,1.8,2.1,2.4c1.7,1.3,3.6,2.5,5.5,3.9c0.9,0.7,2.2,1.6,1.8,3.2
		c-0.4,1.8-3.4,1.3-4.8,0.6c-1.3-0.6-3.3-1.6-4.5-2.3c-2.9-1.8-4.5-4.5-6.5-6.9c-4.3,0.1-7.7-0.4-10.6-1.1c-3.2-0.8-5.5-2.2-8-3.8
		c-2.6-1.7-4.2-3.5-6.1-5.7c-0.8-1-1.9-2.1-2.7-3.2c-1.5-1.9-2.6-3.8-5.4-4.3c-0.8,0.4-1,1.3-1.5,2.1c-0.6,0.5-1.1,1.2-0.9,2.6
		c0.2,0.6,0.9,0.8,1.4,1.1c7.7,5.3,14.8,12.3,19.5,20.8c5.1,9.1,8.9,20,8.6,34.5c-0.3,13.1-4.8,24.3-10.4,32.7
		c-5.1,7.6-11.5,13.2-19.6,18.1c-0.6,0.3-2.9,2.1-1.6,3.8c0.7,0.9,2.7,0.7,3.8,1c3.3,1,6.9,3.4,7.4,7.4c0.3,2.6-0.1,5.9-0.1,8.7
		c0,2.9-0.4,5.7-1.4,7.7c-1.3,2.6-4.7,4.1-8.1,5.1c-10,3.2-23.3,3.8-35.6,3.8c-12.8,0-24.9-1.3-35-4.8c-3.5-1.2-7.6-2.8-8.3-6.2
		c-0.4-1.8-0.1-4.6,0-7.3c0.1-3.5-0.4-7.3,0.6-9.8c0.6-1.6,2.5-3.4,4-4.2c0.7-0.4,2-0.8,3.1-1c1.4-0.3,3.5,0,3.7-1.7
		c0.1-1.5-1.2-2.1-2.5-3c-7.6-5.3-13.7-11.8-18.5-19.8c-5.2-8.8-9.8-20.4-9.3-34.5c0.6-13.9,4.8-24.6,10.5-33.2
		c5.8-8.9,13-15.4,22.7-21c-0.4-0.7-0.5-1.4-0.9-2.1c-0.4-0.6-1-0.9-1.4-1.5c-0.6-0.9-1-2.1-1.5-3.3c-0.4-1-1-2.9-1.7-3.1
		c-0.7-0.1-1.4,1-1.7,1.4c-0.6,0.7-1.2,1.1-1.6,1.5c-1.8,1.7-3.3,2.9-5.7,4.2c-0.9,0.5-1.9,0.7-2.6,1.1c-0.7,0.5-0.9,1.3-1.5,2.2
		c-0.5,0.8-1.2,1.4-1.6,1.9c-2.2,2.9-3.9,5.2-6.9,7.3c-1.2,0.9-2.9,2-4.5,2.6c-2.1,0.8-4.5,0.8-5.8,2.2c-0.6,0.6-0.8,1.5-1.1,2.2
		c-1.1,2.1-2.6,3.6-4.5,5.1c-2.4,2.1-4.6,3.9-7.8,5.1c-1.9,0.7-5,1-7.4,1.4c-0.2,0-0.5,0-0.7,0c-3.1-0.2-5.4-1.7-8-2.6
		c-0.8-0.3-2-0.9-2.7-0.8c-0.9,0.1-1.8,1.3-2.9,1.8c-1.7,0.8-4.1,1-6.7,0.6c-1.2-0.2-2.7-0.9-3.5-0.8c-0.9,0.1-1.2,1.2-2.1,2.1
		c-0.7,0.7-1.7,1.4-2.3,1.8c-1.4,1.1-3,2.7-4.7,3.4c-2.3,1-6.2,1-8.1-0.6c-1.4-1.1-3.1-3.9-3-6.6c0.1-2.3,2.9-5.1,4.1-6.7
		c3.2-4.3,5.1-9.1,6.6-15.1c0.3-1.3,1-2.7,1.6-3.8c0.6-1,2.1-2.1,2.3-3.1c0.2-1.2-0.4-2.7-0.3-3.9c0-2.5,0.7-5.2,1.6-6.9
		c1.2-2.2,3.5-3.4,5.6-5c0.6-0.5,1.8-1.1,1.8-1.7c0.1-1-1.9-2-2.4-3c-0.8-1.6-2-4.4-1.3-6.6c0.9-2.6,4.2-3.7,6.4-5.4
		c1.2-1,2.5-1.9,3.7-3.1c1-1,2.4-2,3.5-3.2c2.3-2.3,5.4-3.6,9.4-4.2c1.9-0.3,3.9-0.4,6.1-0.7c1.8-0.3,3.7-0.6,5.8-0.9
		c2.7-0.4,5.4-0.7,7.4,0.3c1.1,0.6,2,1.6,3.2,2.4c1.1,0.8,2.2,1.6,3.2,2.4c5.2,4.3,8.8,9.2,15.1,12.7c2.6,1.4,5.5,2.7,9,1
		c-0.5-1.5-1.9-3.1-3.2-4.2c-4.3-1.2-9.7-1.9-11.5-5.6c-1.1-2.1-0.6-4.7-1-7.4c-0.5-3.3-2.6-5.7-4.2-8.3c-0.7-1.2-1.4-2.7-2.2-4.1
		c-0.7-1.4-1.7-2.9-1.9-4.2c-0.2-1.4,0.2-3.1,0.5-4.7c0.2-1.4,0.7-2.8,1-4c0.8-2.6,2-5.6,1.4-8.6c-0.2-1.1-1.2-1.9-1.6-2.9
		c-0.6-1.4-1.1-3.2-1.6-4.9c-1.3-4.5-2.2-10.2,0.2-14.6c0.6-1.1,2-1.9,2.2-3.1c0.3-1.9-0.7-3.7-0.9-5.5c-0.2-1.9,0-4.1,0.6-5.7
		c0.7-1.9,2.6-3.5,4.1-5.1c3.1-3.4,5.2-6.6,9.1-9.1c0.9-0.5,1.6-1.1,2.7-1.8c1-0.7,2.2-1.1,2.5-2.1c0.5-1.5-0.1-3.5,0.5-5.1
		c0.4-1.2,1.6-2.4,2.5-3.5c2.7-3.3,5.6-6.4,8.3-9.5c1.6-1.9,3.5-4.4,5.3-6.7c1.7-2.2,3.8-4.8,6.2-5.7c2.1-0.8,4.6-1.1,7.1-1.5
		c2.4-0.4,4.8-1,7.1-1.5c5.1-1,10.4-1,15.7-1.5c3.1-0.3,6.8,1.3,9.9,1.6c1.1,0.1,2.3,0,3.7,0.1c1.1,0.1,2.2,0.6,3.4,0.8
		c3.5,0.6,7.3,1.1,9.9,2.5c0.9,0.5,1.6,1.2,2.5,1.7c5.6,3.3,11,9.3,13.8,15.3c0.9,1.8,1.7,4,2.2,6.2c0.5,2.2,0.8,4.4,2.1,6.2
		c1.2,1.7,3.4,3.1,5.4,4.5c2,1.3,3.9,2.9,5.7,4c4.1,2.5,8.7,5.1,10.5,8.9c1.5,3.1-0.2,7.3-0.9,10.4c-0.6,2.6-1.5,4.9-1.7,7.9
		c-0.2,3.2-0.1,6.2-1,8.6c-0.4,1.1-1,2.2-1.6,3.2c-0.6,0.9-1.8,2-1.9,2.9c-0.3,1.5,0.4,3.5,0.5,5.3c0.1,1.9-0.1,3.8,0,5.4
		c0.2,3.3,0.8,7,0.8,10.5c0,1-0.3,2.2-0.5,3.3c-0.3,3.1-1.1,5.3-2.6,7.3c-1.3,1.6-3.1,3.5-4.9,5.1c-0.6,0.5-1.6,0.9-1.7,1.6
		c-0.3,1.4,0.6,3,0.7,4.1c0.4,4.3-1.4,8.7-3,11.2c-1.2,1.9-3.6,4.1-6.1,4.6c-1.2,0.2-3.1,0.1-4.2,0.6c-0.7,0.3-1,0.8-1.7,1.6
		C487.5,260.4,487.2,261.5,487.5,262.4z M447.6,130.4c-1.9-0.2-0.4-4.5-2.2-5.6c-0.6-0.3-1.5-0.3-2.5-0.2c-1.1,0.9-0.2,2.7-0.1,4.2
		c0.1,1.8-0.3,3.6,0.5,4.9c2,0.9,4.5-0.5,6.9-0.3c0.7,0.1,1.4,0.4,2.1,0c0.8-0.9-0.2-2.2-0.3-3.4c-0.3-2.3,0.2-5.1-2.5-5
		C447.8,125.8,450.1,130.6,447.6,130.4z M454.8,126.4c-0.7,2.1-0.4,9.5,1.9,9c0.9-0.2,0.9-1.8,1-3.3c0.1-1.5,0.6-2.9,0.7-3.8
		c0.2-2.3-0.4-3.7-2.3-3.2C455.5,125.3,454.9,125.8,454.8,126.4z M430,129.6c-0.1,2.3,0.8,5.9-1.1,6.1c-0.8,0.1-1.5-0.5-1.7-1
		c-0.6-1.5,1.4-6.9-0.2-7.8c-0.4-0.2-1.4-0.1-1.7,0.2c-0.4,0.4-0.3,1.5-0.3,2.4c-0.1,1.3-0.5,3.5-0.5,4.7c0,2.7,1.2,5.1,1.3,7
		c0.1,1.3-0.5,2.1,0.2,3c0.8,0.3,1.4-0.3,2.3-0.3c0.9-0.1,1.8,0.2,2.6,0.1c1.5-0.2,3.2-1.2,3.4-2.6c0.2-1.1-0.4-2.9-0.7-4.3
		c-0.3-1.3-0.7-2.8-0.8-4.2c-0.2-2.7,0.5-5-0.2-7C430.8,125.2,430.1,127.7,430,129.6z M467.7,132.3c0.1,1.4-0.2,3.6-0.5,4.5
		c-0.3,1-1.4,1.3-1.3,2.4c0.1,0.8,1.3,1.7,2.1,1.6c1.9-0.4,1.5-6.5,1.7-9.4c0.1-1.8,0.9-5.4-1.7-4.2
		C466.8,128.4,467.6,130.8,467.7,132.3z M474.9,140.3c0.6-1.5,0.5-3.6,0.7-5.6c0.1-0.7,0.4-1.6,0.2-2.2c-0.2-0.7-1.3-1.9-2.2-1.5
		c-1.4,0.7-0.7,5.9-1.1,7.8c-0.4,1.9-1.6,2.5-1.8,4.1C472.6,144.3,474.3,141.9,474.9,140.3z M412.4,139.1c-0.1,1.1,0.2,2.3,0.1,3.4
		c-0.1,0.8-0.4,1.7-0.3,2.4c0,0.7,0.3,1.4,0.6,2.1c0.5,1.3,1.9,5.4,2.9,5.6c0.8,0.2,1.8-1,1.9-1.7c0.3-1.9-1.2-3-1.6-4.3
		c-1.2-3.7,0.5-8.5-0.8-11.2C413.4,134.6,412.5,137.4,412.4,139.1z M478,140.4c-0.1,1-1.1,3.1-1.7,4.1c-0.6,1.1-1.2,0.7-1.1,1.8
		c0,0.7,1.1,1.4,1.7,1.4c0.6-0.1,1.4-1.2,1.9-2.1c0.4-0.7,1.2-2.1,1.4-2.6c0.1-0.7-0.1-1.8-0.1-2.5c0.1-1.8,1.5-5.4-1-4.6
		C477.5,136.5,478.2,138.3,478,140.4z M450.5,137.2c-3,0.1-5.2,0.5-7,1.5c-1.7,1-4,2.7-4.9,3.8c-0.5,0.6-1.1,1.7-1.5,2.5
		c-0.2,0.5-0.2,1.2-0.5,1.7c-0.3,0.6-0.9,1.1-1.1,1.8c-0.9,2.2-1.8,4.9-1.6,7.7c0.2,4,3.2,7.4,5.3,9.8c0.8,1,1.6,2.1,2.5,2.9
		c2.6,2.2,7.2,3.2,11,3.1c1.1,0,4.2-0.4,4.1-1.4c-0.1-0.8-1.3-0.7-2.4-0.9c-2.2-0.4-3-0.8-4.5-1.5c-1.8-0.8-2.7-1.2-4.1-2.3
		c-3.5-2.7-5.3-7.4-5-13.6c0.1-2.7,1.3-4.2,2.3-6.1c1.1-2.1,1.8-2.7,3.2-4.1c0.6-0.5,1.1-1.1,1.6-1.4c1.6-1.1,3.9-1.1,5-3
		C452.4,136.8,451.4,137.2,450.5,137.2z M408.3,144.7c-0.4,1.8,0.2,3.4,0.3,5c0,0.6,0,1.1,0,1.8c0.1,2,1.1,7.6,2.7,7.5
		c0.7,0,1.7-1.4,1.6-2.2c-0.1-1-0.9-1.3-1.6-2.5c-0.6-1.1-1.4-2.8-1.7-4.1c-0.3-1,0-2.4,0-3.7c0-1,0.1-2.4-1-2.3
		C408.4,144.4,408.3,144.5,408.3,144.7z M455.4,150.1c-2.2-0.2-1.2-3.5-2.7-4.5c-1.2-0.7-3.1,0.3-4.1,0.8c-0.9,0.5-1.5,1.4-1.4,2.3
		c0.2,1.4,2.2,1.4,2.3,2.9c0.2,2.4-3.2,1-3.7,2.9c-0.2,0.6,0.4,1.3,0.6,2.2c0.3,1.5-0.2,2.8,0.6,3.3c1.9,1.3,3.4-1.4,5.1-1
		c1.7,0.4,0.3,4.3,2.1,4.8c1.4,0.4,3.2-1.6,3.9-1.9c1.1-0.6,3-0.9,2.9-2.4c-0.1-1.3-2.1-1.8-2.1-3.5c0.1-2.1,2.1-2,3.9-3.1
		c-0.5-1.5-1.2-2.8-1.7-4.3C458.1,147.4,457.6,150.3,455.4,150.1z M488,178.5c-1.4-1.4-2.3-3.2-3.5-4.8c-0.6-0.8-1.4-1.4-1.9-2.3
		c-0.5-0.8-0.9-1.8-1.5-2.7c-1.2-1.9-2-3.7-2.7-5.7c-0.7-2.1-1.1-4.3-2.3-6.2c-0.7-1.1-2.3-2.7-3.2-3.5c-1.2-1.1-2.7-2.7-3.5-3
		c-0.5-0.2-1.6,1.6-2.1,2.2c-0.7,0.8-1.4,1.6-1.4,2.3c0,0.9,1.5,3.2,1.9,3.8c0.7,0.8,1.8,1.4,2.5,2.2c1.1,1.1,2.4,2.5,2.9,3.5
		c0.2,0.5,0.2,1.1,0.5,1.7c0.5,1.4,1.2,2.7,1.7,4.2c0.9,3,1.6,6.2,1.8,9.7c0.2,2.7,0.4,4.5,1.1,6.7c0.5,1.6,0.8,3.4,1.5,4.6
		c0.8,1.5,2.6,2.1,3.8,3.2c0.6,0.5,1,1.2,1.6,1.8c1.7,1.9,3.3,3.3,4.6,5.6c1.7,2.9,3.3,5.6,4.2,9.1c0.5,1.7,1.1,3.7,1.3,5.5
		c0,0.5-0.1,1.2,0,1.8c0.2,1.3,0.8,2.7,1,4.2c0.1,0.7,0.2,1.6,0.3,2.3c0.1,0.6-0.1,1.8,0.8,1.9c1.3-1,0.9-2.9,1-4.6
		c0.3-4.4,1.2-8.8-0.3-12.3c-0.6-1.5-1.5-3-2.3-4.1c-0.6-0.9-1.5-1.4-1.9-2.4c-0.5-1-0.7-2.2-1-3.9c-0.2-1.1-0.6-3.2,0.8-3.1
		c1.2,0.1,0.8,2.7,1.4,3.7c0.4,0.7,1.3,1.2,2.1,1.7c0.5,0.3,1.7,1.3,2.9,1c0.6-0.1,1.9-2,2.2-3.1c0.6-2.3-0.6-4.2-1.7-5.4
		c-1.3-1.4-3-1.9-4.7-2.9c-0.8-0.5-1.5-1.1-2.2-1.4c-0.4-0.2-1-0.1-1.8-0.5c-0.5-0.2-1.2-0.8-1.8-1.1c-2.2-1.4-3.4-2.3-5-4.2
		c-1.9-2.2-2.9-3.2-3.7-5.9c-0.7-2.5,0.2-2.3,0.5-2.4c0.9-0.2,1.8,1.7,2.4,2.3c0.7,0.7,1.7,1.9,2.4,2.3c1,0.6,2.6,1.4,3.7,0.3
		C489.7,179.1,488.8,179.3,488,178.5z M428.4,150.7c-2.8,0.8-3.8,2.9-5.1,5c-1.7,2.8-3.1,5.8-4.8,8.6c-1.1,1.8-2.3,3.6-3.5,5.4
		c-1.2,1.8-2.2,3.8-3.5,5.4c-2.9,3.3-6.6,5.3-10.2,7.5c-6.9,4.4-14.6,8.8-15.4,19.1c-0.1,1.1,0.1,2.4,0,3.3
		c-0.2,1.8-0.9,5.3,1.1,5.3c1.1,0,1.4-1.7,1.9-2.9c0.6-1.1,1.6-2.2,1.8-2.9c1-2.2,1-4.5,1.9-6.7c0.3-0.7,0.9-1.3,1.5-2.2
		c0.5-0.7,0.9-1.5,1.3-2.1c0.6-0.8,1.5-1.2,2.3-2.1c0.7-0.7,1.2-1.6,1.9-2.2c1.1-0.9,2.5-1.7,3.8-2.6c1.3-0.9,2.5-2.1,3.7-2.7
		c0.5-0.3,1-0.4,1.5-0.7c1.5-1,3.5-2.3,4.7-3.5c0.9-0.9,1.4-2.1,2.2-3c0.6-0.7,1.4-1,1.9-1.8c1.1-1.6,1.9-3.9,2.9-6.1
		c0.5-1,0.9-2.1,1.4-3.1c0.5-1,1.2-1.8,1.7-2.7c0.4-0.7,0.5-1.5,0.9-2.2c0.4-0.8,1.2-1.2,1.7-1.9c0.6-0.9,1-2.1,1.6-3
		c0.7-1,1.4-1.7,1.8-2.9c-0.1,0.2,1.2-2.5-0.5-2.5c-0.1,0-0.2,0.1-0.2,0.1C428.5,150.7,428.4,150.7,428.4,150.7z M397,156.8
		c0.3,2.7,2.6,6.4,3.4,8c0.4,0.7,0.6,2.1,1.7,1.9c1.6-0.3,0.4-2.7,0-3.4c-0.9-1.6-2-3.1-2.6-4.7c-0.5-1.2-0.8-5-2.3-3.5
		C396.9,155.4,396.9,156,397,156.8z M488.8,157.7c-0.2,0.2-0.4,1.4-0.5,1.5c-0.6,1-2,1.3-2.1,2.4c-0.1,0.9,0.7,2.3,1.4,2.3
		c0.8,0,1.9-1.7,2.2-2.2c0.2-0.4,0.3-1.3,0.7-2.1c0.5-0.8,2.3-1.5,2.2-2.7c-0.1-0.7-0.8-0.8-1.1-0.8
		C490.8,156.1,489,157.4,488.8,157.7z M393.2,159.1c-0.6,3.1,1.3,5.6,2.4,7.8c0.5,1,1.2,2.3,1.8,3.4c0.5,0.8,1.6,2.8,2.7,1.4
		c0.1-1.2-1.1-2-1.7-2.9c-0.6-0.9-1.3-1.9-1.8-3c-1.1-2.2-1.5-4.7-2.6-7c-0.1,0-0.2,0-0.2,0c0-0.1-0.1-0.1-0.1,0
		C393.3,158.7,393.4,159.1,393.2,159.1z M492.2,162.9c-0.3,0.8-2.1,3.5-2.6,4c-0.8,0.8-1.3,0.4-1.4,1.3c-0.2,1.4,1.7,2.5,3.2,1.9
		c0.6-0.2,1.5-1.5,2.1-2.6c0.4-0.8,0.4-2.2,0.7-3.2c0.5-1.6,1.7-4.5-0.6-4C492.1,160.6,492.7,161.7,492.2,162.9z M429.2,162.7
		c-0.7,0.4-2,2-2.2,2.4c-1,1.7-1.3,3.9-1.8,5.9c-1.2,4.1-2.9,7.4-5.4,10.4c-0.5,0.6-1.3,1.2-1.9,1.9c-0.7,0.8-1.1,1.7-1.7,2.3
		c-1.5,1.4-3.7,2-5.9,3.1c-0.9,0.5-2,1.2-3,1.8c-1.1,0.7-2.3,1.3-2.9,1.9c-1.2,1.3-1.6,3.2-2.6,4.6c-0.8,1.1-2.1,2-3.1,2.9
		c-1.1,0.9-2.5,1.6-3.2,2.7c-1.1,1.7-1.6,4.3-2.4,6.3c-0.2,0.6-0.7,1.1-1,1.7c-1.6,3.4-2.4,6.6-3.3,10.6c-0.4,1.9-1,7.1,0.7,7.3
		c1.9,0.3,2-3.5,2.3-5.4c0.8-5.9,1.8-7.6,3.2-12.1c0.7-2.1,1-4.4,1.7-6.1c1.5-3.2,3.8-4.8,6.5-6.7c1.3-0.9,2.7-1.9,4-2.5
		c0.6-0.3,1.3-0.5,1.9-0.8c2.6-1.4,4.4-3.9,6.7-5.5c1.5-1,3.6-1.9,4.7-3.2c2.4-2.7,2.6-7.6,4.2-11.3c0.5-1.1,1.5-2.4,2.3-3.5
		c0.9-1.2,1.9-2.2,2.9-3c0.9-0.7,3.6-1.6,3.7-3c0.1-1.2-1.6-3.2-2.7-3.3c-0.1,0-0.2,0.1-0.2,0.1
		C430.3,162.4,430.1,162.2,429.2,162.7z M465,165.3c0,0.1,0,0.2-0.1,0.2c0.1,1.1,1.4,1.4,2.3,1.7c0.9,0.3,2,1,3.1,0.7
		C470,165.7,467.2,164.9,465,165.3z M498.7,174.7c-0.6,0.6-1.4,1.3-2.3,2.2c-0.8,0.8-2,1.7-1.9,2.5c0,0.5,0.4,1.1,1.1,1.1
		c1,0.1,1.6-0.7,2.3-1.4c1.7-1.6,4.7-3.9,5.4-5.7c0.3-1,0.5-4.5-0.6-4.5C501.4,170.6,500.8,172.4,498.7,174.7z M505.5,174.6
		c-0.3,0.8-1.1,1.8-1.8,2.9c-0.7,1-1.4,2.1-1.9,2.7c-0.8,0.9-3.6,2.4-3.5,3.7c0,0.7,1,2,1.8,1.9c0.3,0,0.9-0.6,1.4-1
		c1.7-1.5,2.3-2.4,3.8-4.8c0.9-1.5,2-2.8,2.4-3.8c0.5-1.3,0.6-3.6-0.5-4.1C505.4,172.5,506,173.3,505.5,174.6z M470.2,176.9
		c-1-0.9-1.6-2.4-2.4-2.9c-1.4-0.8-8.3-1.4-8.3,0.7c0,0.6,1.1,1.5,1.6,1.7c0.8,0.4,2,0.6,3.1,1c2.1,0.8,4.2,1.3,6.1,2.2
		c1,0.5,1.9,1.1,3,1C473.6,178.4,471.4,178,470.2,176.9z M386.7,178.4c0.4,0.8,0.9,2.3,1.9,2.2c1.8-0.2,0.2-2.2-0.5-3.3
		c-0.7-1.1-1.2-2.6-2.4-1.8C385.6,176.5,386.2,177.3,386.7,178.4z M442.8,175.5c-1.7,1-1.8,3.3-4.3,3.5c-2.1,0.2-2.4-1.3-4.2-1
		c-1.3,0.2-1.3,1.7-1.7,2.9c-0.2,0.6-0.5,1.4-0.7,1.8c-0.6,1.2-2.1,1.8-2.9,2.7c-0.6,0.7-0.8,1.9-1.9,2.3c-1.2,0.4-3-0.3-4.1,0.5
		c-0.7,0.4-0.9,1.4-1.5,2.1c-1.2,1.4-3.4,2.4-5.3,3.7c-0.9,0.6-1.6,1.4-2.4,2.1c-2.7,2-5.5,3.2-8.3,5c-1.8,1.1-3.8,2.6-4.9,4
		c-0.8,1.1-1.4,2.7-1.6,4.1c0.9,0.3,1.5-0.5,2.1-0.9c1.9-1.3,4.2-2.1,6.1-3.5c1.1-0.9,1.9-2.2,3.2-3.1c1.4-1,2.9-1.8,4.3-2.9
		c1.4-1.1,2.7-2.4,4.1-3.2c1.1-0.6,2.3-0.8,3.3-1.4c1.6-0.9,2.7-2.3,4.2-3.5c0.7-0.6,1.6-0.9,2.3-1.5c1.4-1.1,2.6-2.4,4.1-3.3
		c1.8-1.1,3.9-2.1,5.6-3c0.7-0.3,1.5-0.4,2.2-0.8c2.3-1.2,4.1-3,4.5-5.9C444.3,175.5,443.3,175.2,442.8,175.5z M486.6,203.4
		c-0.7-0.7-1.3-1.5-1.9-2.2c-0.5-0.5-1.3-0.9-1.8-1.5c-0.5-0.5-1-1.2-1.6-1.7c-2.6-2.1-5.7-3.1-8.8-4.9c-1.8-1.1-3.9-1.6-5.1-2.7
		c-1.4-1.3-1.4-2.9-2.3-4.7c-0.7-1.4-2.6-2.6-4.3-3.7c-1.8-1.1-3.7-2.3-4.7-3.3c-1.1-1-1.9-2.8-4.1-1.9c-0.7,1.1-0.1,2.6,0.3,3.5
		c0.9,2.3,2.2,3.6,3.7,5.4c1.6,1.9,2.6,3.4,4.6,4.7c0.8,0.6,1.9,0.8,2.7,1.4c1,0.6,1.7,1.6,2.6,2.3c3,2.1,6.1,3.5,9.7,5
		c3.5,1.5,6.7,3.1,9.5,5.3c0.8,0.6,1.7,1.9,3,1.5C488.3,204.6,487.3,204,486.6,203.4z M463.1,198.6c-1.9-0.9-3.5-1.9-5.1-3.1
		c-0.9-0.6-1.7-1.4-2.6-1.5c-1.7-0.2-3.7,1-5.7,1.1c-4.1,0.3-6.6-0.7-9.3-1.5c-2.6-0.8-5.6-1.5-8.2-0.3c-0.7,0.3-3.6,2.2-3.7,2.9
		c-0.1,0.7,1.6,2.1,2.2,2.4c0.9,0.4,2,0.3,3.4,0.5c2.2,0.2,7,1.6,6.6,3.5c-0.2,1.1-1.5,0.8-3,1c-2.1,0.4-4.5,1.8-7.1,1.6
		c-2.2-0.2-3.5-2.1-5-2.3c-1.3-0.2-2.8,0.4-4.3,0.6c-1.5,0.2-3.3,0-3.7,1.3c0.9,0.6,2.1,0.3,3.1,0.3c3.5,0.3,7,0.7,9.3,2.2
		c1.1,0.8,2.2,2,3.1,3.1c0.7,0.9,1.8,2.3,1.6,3.9c-2.7,1-3.3-2.8-6.2-2.7c-0.7,1-1.3,2.2-1.5,3.8c0.8,0.9,2.4-0.4,3.2,0.5
		c0.2,1.7-0.4,3-1.4,3.7c-1.5,1.1-3.9,0.4-6.1,0c-1.5-0.3-3.1-1.1-4.1-0.1c-0.6,1.5,2.8,1.9,2.5,3.4c-0.3,1.1-2.1,0.8-3.3,0.8
		c-1,0-2.2,0.1-3.1,0.3c-1,0.3-1.8,0.9-2.7,1c-0.8,0.1-1.7-0.1-2.5-0.3c-0.8-0.2-1.6-0.8-2.4-0.6c-0.7,0.2-1.2,1.7-1.5,3.3
		c-0.1,0.6,0,1.1-0.1,1.7c-0.4,2.4-2.4,4.8-2.3,7.4c0,0.9,0.5,1.6,0.5,2.4c0,1.2-1.2,2.4-0.5,3.9c1.9,0.4,5.9-1.7,6.2,0.9
		c0.1,0.7-0.4,1.6-0.9,2.3c-1.1,1.4-3.7,2.4-4.1,4c-0.3,1.3,0.1,2.5,1.4,2.9c1,0.3,1.2-0.2,2.4,0c5.5-1.9,11.4-4.9,19.6-4
		c1.2,0.1,2.6,0.6,3.3,1.6c0.7,0.9,1.1,3.1,1,4.1c-0.2,4-2.6,7.8-5.8,10.4c-3.9,3.2-8.1,5.5-12.8,7c-2.1,1.9,0.4,3.9,0.8,5.9
		c1.1,1.1,2.3,2.1,3.8,2.7c3.2-1.3,6.6-2.5,10.5-3.1c-1.3-0.2-2.3-0.9-3-1.7c-0.5-0.5-0.7-1-0.7-1.6c0-1.9,1.6-1.9,3-1.7
		c0.4,0.1,1.1,0,1.6,0.1c0.6,0.2,1,0.9,1.6,1.1c0.5,0.2,1.5,0.4,2.3,0.7c1.8,0.6,3.2,0.9,5.5,1.1c1,0.1,2.3,0.4,3.3,0.3
		c2.3-0.1,4.6-0.7,6.9-1c1.1-0.1,2.4-0.1,3.7-0.3c2.4-0.4,4.9-1.1,5,1.4c0.1,1.2-0.9,1.7-0.8,2.1c4.3,0.9,7.9,2.5,11.7,4
		c1.1-1,3.3-0.9,3.3-3c-2.8-1.2-5.4-2.9-7.7-5.1c-0.8-0.8-1.4-1.9-2.2-2.2c-0.6-0.3-1.5-0.1-2.2-0.3c-1.3-0.4-2.8-0.8-3.9-1.4
		c-0.8-0.4-2.1-1.7-3.2-1.7c-0.8,0-1.5,0.9-2.6,1.4c-2.1,1-5.9,1.2-9.1,0.8c-2.5-0.3-4.1-2.1-6.4-2.3c-0.8-0.1-1.6-0.1-2.4,0
		c-1.2,0.2-2,1.1-3.4,0.8c-1-0.2-1.9-1.5-1.8-2.4c0.1-1.6,3-3.3,4.7-3.5c0.7-0.1,1.3,0.1,2.1,0c1.1-0.1,2.2-0.6,3.3-0.7
		c1.2-0.1,2.5,0.1,3.7-0.1c0.9-0.1,1.6-0.6,2.4-0.6c1,0,2,0.6,2.7-0.1c-0.2-2.1-1.7-3.3-2.2-5.1c-0.8-2.9-0.1-5.8,1.6-7.1
		c2.5-1.8,4.7-0.6,7.3,0.1c1.5,0.4,3.1,0.4,4.9,0.6c1.7,0.2,3.4,0.6,4.9,1c1.5,0.4,2.6,1.2,4.1,1.9c1.4,0.7,2.7,1.4,4,2.1
		c2.4,1.2,4.6,2.2,6.1,3.9c0.9,1,1.9,2.8,3.7,2.5c0.7-0.1,1.2-0.9,1.8-1.6c0.5-0.5,1.6-1,1.8-1.6c0.1-0.3-0.1-0.9,0-1.5
		c0.2-1.3,0.9-2.5,0.7-4c-1,0.4-1.6,0.9-2.3,1.6c-0.7,0.8-1,1.8-2.2,1.8c-1.1,0.1-2.1-0.7-2.2-1.7c-0.2-1.7,1.3-3.3,2.3-4.7
		c1.1-1.6,1.8-3.2,2.9-4.2c0.1-1.7,0.8-2.6,1.3-3.9c0.3-0.7,0.5-1.6,0.8-2.3c0.7-1.5,1.7-2.6,1.9-4.1c0.1-0.8-0.1-2,0-3
		c0.2-1.8,0.8-3.3-0.6-4.2c-1.3-0.9-2.9-0.1-4.6,0.1c-1.2,0.1-4,0.6-4.2-0.3c-0.2-0.7,0.7-1.2,1.5-1.6c1.6-0.9,5.2-2.5,5.1-4.2
		c-0.1-1.1-2.2-2.6-3.5-2.7c-1.5-0.1-3.4,0.7-5.1,1c-2.3,0.4-4.7,0.7-6.9,0.8c-2.1,0.1-2-0.3-2.9-1.8c-0.5-0.9-1-1.3-1.3-1.9
		c-0.5-1.2-0.4-2.6-1.3-3.5c-1.8-0.1-3.2,1.3-4.8,1.5c-1.4,0.2-3.5,0.1-3.7-1.1c-0.2-1.9,3-3.1,4-3.9c0.7-0.5,1.3-1.4,2.2-1.7
		c1.3-0.5,3-0.2,4.5-0.1c3.5,0.2,8.3-0.5,10.7-0.7c1.3-0.1,2.4,0,2.6-0.8c0.5-1.8-2.5-1.8-4.2-1.8c-3.3-0.1-6.9,1.2-9.7,1.3
		c-0.7,0-1.5-0.2-2.2-0.2c-1.5-0.1-3.1,0.4-4.5,0.2c-1.3-0.2-3.1-1.2-2.9-2.7c0.2-1.1,2-1.6,3.1-1.9c1.5-0.4,2.8-1,4.1-1
		c0.9,0,2,0.6,2.6-0.2C465.2,199.1,463.9,199,463.1,198.6z M420.6,210.3c-0.7,0.9,0,3,1,3.1c1.8,0.2,2.9-3.8,0.2-3.5
		C421.4,209.9,420.9,210,420.6,210.3z M476.9,216.4c0.6-0.9,0.3-4.9-1-5.5c-0.7-0.3-1.1-0.1-1.9,0c-0.9,1.4-0.3,4.6-0.2,6.2
		C474.9,217.2,476.3,217.4,476.9,216.4z M415.3,211c-1.7-0.3-3.4,0.5-3.3,1.8c0.1,1.4,3,2.1,4.3,1.8
		C416.6,213.3,415.9,212,415.3,211z M468.4,214.7c1.3-0.1,1.9-3.7-0.3-3C466.7,212.1,466.7,214.8,468.4,214.7z M390.4,239.4
		c-0.2,0.8-1.2,1.4-1.4,2.2c-0.3,1.4,0.6,3.9,1.3,4.5c0.6,0.6,3.2,1.5,4.1,1.3c1.6-0.5,1.3-3.3,0.5-4.3c-0.5-0.7-1.5-0.7-2.1-1.1
		c-1.3-0.9-1.6-2.5-0.6-4.1c0.5-0.8,1.9-1.5,1.7-2.7c-0.1-1.1-1.4-1.5-2.6-1.3C387.9,234.2,391,236.9,390.4,239.4z M493.1,244.2
		c0.1,0.6,0.6,1.2,0.7,1.7c0.2,2.4-2.8,4.2-1.5,6.3c0.7,0.1,1.1-0.5,1.6-0.8c0.5-0.3,1.2-0.5,1.6-0.9c0.6-0.6,1.9-3.1,1.8-4
		c-0.1-1.2-1.8-1.7-1.8-2.7c-0.1-1.2,1.5-1.5,1.1-2.9C495.1,239.9,493,242.6,493.1,244.2z M362.5,291.9c0.1-0.7,1.4-1.4,2.4-1.4
		c1.3,0,2.9,1.2,4.5,1.6c2,0.5,3.8,0.2,5.9-0.1c2.5-0.4,3.5-1,5-2.1c2.2-1.4,3.5-2.7,5.4-4.6c0.5-0.5,2.9-2.6,2.9-3.5
		c-0.1-0.7-1.4-1.4-1.5-2.4c-0.1-1.1,0.5-2.2,1.6-2.5c0.9-0.2,1.9,0.2,3.2,0.1c2.4-0.2,4.3-1.6,5.9-2.6c1.1-0.7,2.6-1.7,2.7-2.5
		c0.2-0.8-0.4-2-0.2-2.5c0.6-1.9,2.8-0.6,4.3-0.5c3.5,0.3,6-0.7,8.5-1.7c5.2-2.1,11.2-5.6,13-10.1c0.3-0.8,0.9-2.2,0.8-2.7
		c-0.4-1.9-4.2-0.7-5.3-0.3c-0.6,0.2-1.7,0.6-2.6,0.9c-1,0.3-1.8,0.8-2.5,1.1c-1.6,0.7-3.5,1-5.4,1.6c-1.6,0.5-3.2,1.4-4.8,2.2
		c-3.4,1.6-7,3.1-10.5,3.4c-1.2,0.1-2.4,0.1-3.5,0.3c-1.2,0.2-2.2,0.7-3.2,0.7c-0.9,0-2-0.3-3-0.5c-0.9-0.2-2-0.8-2.7-0.7
		c-1,0.2-1.1,1.6-2.3,1.6c-1.7,0-2.7-4.5-3.5-5.9c-0.6-1-1.1-2.1-1.7-3.1c-0.6-1.1-1-2.3-1.7-3.1c-0.5-0.5-1.5-1-2.4-1.7
		c-0.8-0.7-1.5-1.6-2.2-2.1c-1.3-0.9-3.3-1.6-5.1-2.5c-1.8-0.9-4.1-1.5-5.8-1.8c-4.2-0.8-9.2,0.6-10.9,2.7c-0.4,0.5-1.1,1.8-0.9,2.9
		c0.1,0.5,0.6,1.4,1.5,1.3c1.5-0.2,0.6-3,2.5-3.1c1.6,0,2.1,2.3,1.8,4.2c-0.2,1.4-1,1.9-0.8,3.2c0.7,0.6,2.8-0.7,4.1-1.3
		c0.8-0.4,3.5-2.1,4-0.7c0.2,0.6-0.6,1.6-1,2.2c-1.4,2-3.3,3.4-5.8,4.3c-1.5,0.6-3.1,0.9-3.7,1.7c-0.7,1.1-0.5,3.5-0.2,4.5
		c0.3,1.4,1,3.1,1.7,4.5c0.7,1.3,1.8,2.5,2.5,4c0.7,1.4,1.5,3.1,1.4,5.1c0,1.1-0.6,2.4-1.1,3.4c-1.3,2.5-3.1,4.9-5.8,5.7
		c-1.7,0.5-4.1-0.2-5.3-0.8c-0.8-0.4-2.1-1.7-2.6-3c-0.7-1.6-0.9-3.6-2.1-3.5c-2,0.1-0.4,3.4-0.1,5.1c0.1,0.5,0.1,1.6,0.2,2.2
		c0.3,1.2,0.9,2,0.9,3.7c0,1.2-0.4,2.5-0.9,3.4c-1.2,2.1-4.4,4.4-7.8,4c-2-0.2-2.8-1.8-3.8-3.4c-0.5-0.9-1.1-2.4-1.8-2.3
		c-0.8,0.1-0.6,1.1-0.8,1.6c-1.1,3.5-2.4,5.4-4.5,7.7c-0.9,1-1.9,2-2.4,2.5c-0.4,0.4-0.7,1.2-1.1,1.8c-0.4,0.5-1.1,0.8-1.1,1.8
		c0,0.7,0.4,1.8,1.6,1.9c1,0.1,2.2-0.8,3.1-1.5c2.2-1.6,3.8-3.5,5-6.1c0.6-1.2,1.5-3.7,2.9-3.7c1.6,0.1,1,1.9,1.8,3.3
		c1.7-0.1,2.7-3.4,4.8-3c1.2,0.3,1,1.9,0.6,3.1c-0.4,1.2-1.3,1.6-1.4,2.9c0.9,0.7,2.2,0.1,3.2-0.3c0.8-0.4,2-0.9,2.7-1.6
		c1-0.9,2.5-4.4,4.2-3.4c0.8,0.5,0.2,1.4,0.5,2.4c1.6,1,3.5,1.4,5.4,1.9c3.1,0.9,7,2.2,10.2,0.6c2.7-1.4,4.8-4.3,6.6-6.6
		c0.8-1,2-1.8,1.8-3.1C366.1,295.8,362,294.5,362.5,291.9z M333.1,258.3c0,1.1,0.8,2,1.5,2.5c0.7,0.5,1.9,1.3,2.9,1.3
		c1.5,0,3.9-2.6,4-4c0.1-2-2.2-3.2-4.5-2.9C335.2,255.5,333.1,256.4,333.1,258.3z M343.6,278.3c-0.9,3,1.1,5.4,3.3,5.1
		c1.8-0.2,3.9-3,3.4-5.6c-0.2-1.1-1.9-2.4-3.3-2.3C345.5,275.7,343.9,277.3,343.6,278.3z M557.8,284.9c1.2,0,3.2-0.6,3.1-1.5
		c-0.1-1-1.9-0.5-3-0.7c-1.9-0.3-4.3-1.3-5.5-1.6C551.2,283,555.9,285,557.8,284.9z M432.1,286c-2.6,0.4-5.2,1.2-7.3,1.9
		c-13.5,4.4-24.3,13.9-30.5,24.7c-2.2,3.9-4.2,8-5.5,12.9c-1.3,5-2.3,10.6-2.1,16.3c0.5,11.5,3.8,20.5,8.7,28.1
		c4.7,7.3,10.9,13.5,18.7,18c7.7,4.4,18,8,29.1,7.4c19.6-0.9,33.5-9.9,42.5-21.8c1.3-1.8,2.9-3.5,3.9-5.4c1.1-2,1.7-4.3,2.7-6.4
		c2.9-6,4.7-14.4,4.3-22.8c-1.1-22.4-12.2-37.2-27.1-46.2c-7.2-4.4-17.7-8.2-29-7.7C437.9,285.3,434.9,285.5,432.1,286z
		 M330.7,288.7c-1.5,1.1-2.9,6.1-0.7,7.5c1.3,0.8,3.3,0.3,4.3-0.5c2.9-2.1,1.5-8.2-2.4-7.5C331.5,288.3,331,288.5,330.7,288.7z
		 M421.2,404.7c1.8,1.7,3.5-1.4,2.7-3.7C421.4,398.4,419.2,402.9,421.2,404.7z M432.8,402.4c-0.7-1.1-3-1.3-3.8-0.1
		c-0.7,1.1,0,2.5,0.8,3.5C432.4,406.8,434.1,404.2,432.8,402.4z M439.9,407c1.3,0.1,1.4-2.8,0.9-4
		C438.6,402.1,438.4,406.9,439.9,407z M446.8,403.2c-0.5,1.6-0.4,4.7,1,4.7c1.3,0,2-3.4,1.7-4.6C449,402.7,447.4,402.7,446.8,403.2z
		 M477,407.3c-9,2.4-20.1,3-31.1,3c-9,0-18.2-0.4-25.8-1.7c-1.8-0.3-3.9-0.8-5.6-0.9c-1.5-0.1-3.3-0.1-4.1,0.8
		c1.4,1.6,4.1,1.6,6.3,2.2c0.7,0.2,1.4,0.6,2.1,0.8c1.8,0.4,4,0.5,6.2,0.7c6.3,0.6,13.2,0.9,19.6,0.9c11.1-0.1,22.5-0.7,31.3-3.1
		c1.1-0.3,2.8-0.6,2.5-2.4C478,407.1,477.4,407.2,477,407.3z"/>
	<path class="st3" d="M450.9,148.5c2.2-0.8,4.1,3.7,1.8,4.2C450.9,153.2,448.6,149.3,450.9,148.5z"/>
	<path class="st3" d="M457.4,150.8c1.1-0.1,2.2,0.3,2.2,1.6c-0.1,1.3-4.6,3.3-4.9,1C454.4,152,456,151,457.4,150.8z"/>
	<path class="st3" d="M451.2,154.3c0.9-0.2,2.2-0.3,2.3,0.9c0.1,1.1-4.2,4.1-4.9,1.8C448.1,155.5,449.9,154.5,451.2,154.3z"/>
	<path class="st3" d="M454.9,156.3c2.6-0.9,3,3.3,1.1,3.5C454.5,160,452.8,157,454.9,156.3z"/>
	<path class="st3" d="M548.3,192.1c1.9-0.5,3.8,1.3,3.1,3.5c-0.3,1-1.5,2.2-2.4,3.2c-0.9,1-1.7,2.2-2.4,3.1c-4,5.1-8,10.3-12.3,15.4
		c-0.9,1-1.9,2.5-2.9,2.6c-1.1,0.1-2.2-0.6-2.3-1.7c-0.2-1.5,2.3-4.2,3.2-5.4c1.9-2.7,4-5.3,5.9-8c2.7-3.8,4.6-6.1,7.2-9.7
		C546.3,194.1,547.1,192.4,548.3,192.1z"/>
	<path class="st3" d="M341,201.4c2.2-0.6,3.1,1.4,4.1,2.9c4.3,5.8,8.4,11.3,12.8,17.4c0.7,1,2,2.1,2.1,3c0.1,1.4-1,2.2-2.2,2.2
		c-0.9-0.1-2.1-1.4-2.9-2.4c-4.7-5.9-9.2-11.5-14.2-17.3c-0.8-0.9-2-2.1-1.9-3.2C338.8,202.8,340.1,201.7,341,201.4z"/>
	<path class="st3" d="M305.8,204.2c1.3-0.3,2.5,0.9,3.5,1.6c1.1,0.8,2.2,1.4,3,2.1c1.8,1.5,3.6,3.7,5.4,5.5c4.4,4.4,8.5,9.3,13,13.8
		c0.9,0.9,2.3,2.1,2.3,3.1c0,1.1-0.7,2-1.9,2.1c-1.3,0-2.6-1.7-3.7-2.7c-5.3-4.9-11-10.3-16.3-15.2c-1.6-1.4-3.1-3.2-4.7-4.8
		c-0.9-0.9-2.2-2-2.1-3.7C304.4,204.9,305,204.4,305.8,204.2z"/>
	<path class="st3" d="M584.9,205.9c2.8-0.9,3.7,2.4,2.5,4.5c-0.3,0.5-1.1,1-1.7,1.6c-4.1,3.7-7.6,7.3-11.7,11.3
		c-3.4,3.4-6.4,6.3-9.9,9.8c-1,1-2.5,2.8-3.7,2.9c-1.5,0-2-1.1-2.1-1.9c0-1.3,1.8-2.6,2.9-3.8c6.6-7.2,12.4-13.6,19-20.6
		C581.7,208.1,582.7,206.4,584.9,205.9z"/>
	<path class="st3" d="M458.6,237.8c0,1,0,2.1,0,3.1c-0.7,1.1-0.8,2.2-2.2,2.4c-2.3,0.3-2.4-2.8-3.9-3.8c-1.4-0.3-2.5,0-3.5-0.7
		c-1.2-0.8-1.2-2.2-2.4-2.6c-0.8-0.2-2.1-0.1-3.2-0.1c-1.1,0-2.2-0.2-3.2,0c-0.7,0.1-1.5,0.9-1.9,1.5c-0.5,0.7-0.7,1.5-1.5,1.8
		c-0.9,0.3-2-0.3-3,0c-0.6,0.2-1.2,0.8-1.4,1.5c-0.1,0.7,0.2,1.3,0,1.9c-0.3,0.9-1.1,1.4-2.1,1.4c-1.2-0.1-1.4-0.7-1.7-1.5
		c-0.3-0.7-0.7-1.6-0.8-2.3c-0.2-2.3,1-5.1,2.7-5.9c1.8-0.9,5.1-0.9,5.1-3.1c0-3.4-4.9-0.3-7.8-1.1c-1.2-0.4-2.6-1.8-2.6-2.7
		c0-2.1,3.4-2,5.1-2.7c1.5-0.6,2.9-2.5,3.5-3.9c0.6-1.3,0.4-2.2,1.4-2.9c0.7-0.5,1.7-0.4,2.3-0.8c0.5-0.8,0.2-2,0.3-3.2
		c0.1-0.8,0.5-1.9,0.7-3c0.2-1.8,0.4-4.8,2.1-4.9c2-0.1,1,3,1.4,4.6c0.2,0.7,0.7,1.2,1.3,1.9c0.4,0.6,0.8,1.7,1.5,1.7
		c1.1,0,1.7-2.8,2.1-3.8c0.5-1.6,1.2-3.2,2.6-3.2c2.2,0.1,2.5,4.5,3.3,6.9c0.2,0.5,0.8,1.5,0.9,2.2c0.1,1-0.5,1.6-0.5,2.9
		c0.1,2.4,2.3,3.5,3.9,4.7c1,0.7,2.4,1.4,2.5,2.6c0.1,0.9-0.2,1.5-0.3,1.6c-1.4,1.7-4.9-0.7-6.6-0.3c-1.1,0.2-1.7,2.1-1.1,3.7
		c0.3,0.9,2.1,1.4,3.1,2.1C456.3,234.6,458,235.9,458.6,237.8z"/>
	<path class="st3" d="M457.6,216.3c1.8-0.5,3.6,0.7,5,1.6c1,0.7,3,2.9,0.9,3.4c-1.9,0.4-2.6-1.6-4.3-2.5c-0.6-0.3-2.6-0.4-2.6-1.5
		C456.6,216.4,457.3,216.4,457.6,216.3z"/>
	<path class="st3" d="M479.3,221c0.4,0.7,0.2,2.6-0.3,3.2c-0.7,0.8-2.8,0.8-4,1.4c-1.2,0.6-1.9,2.1-3,2.2c-1.5,0.1-2.7-2-3.4-3.1
		c-0.3-0.4-1-1.1-0.9-1.6c0.2-1,1.5-0.7,2.7-0.7c2.7,0,5.9-0.5,7.5-1.3C478.2,221,478.8,220.7,479.3,221z"/>
	<path class="st3" d="M284.8,232.4c2.3-0.3,3.6,1.2,5.3,2.3c6.4,4.1,11.6,7.8,18,12.1c0.8,0.5,2.3,1.6,3.7,2.4
		c1,0.7,3.2,1.8,3.4,2.5c0.7,1.8-0.8,2.9-2.1,2.9c-0.9-0.1-3.1-1.5-4.1-2.1c-4.1-2.3-7.9-4.6-11.8-6.7c-2.7-1.5-5.1-2.9-7.9-4.5
		c-1.7-1-3.9-2.2-5.9-3.3c-1.2-0.7-2.5-1.8-2.2-3.7C281.5,233.1,283.3,232.6,284.8,232.4z"/>
	<path class="st3" d="M593.7,238.7c1.3-0.3,3.2,0.7,3.4,1.8c0.3,1.5-1,3.5-1.8,4.1c-0.6,0.4-1.6,0.8-2.4,1.1
		c-0.4,0.2-0.8,0.4-1.1,0.6c-3.1,1.7-6.9,3.4-10.3,5.4c-1.4,0.8-3.8,2.2-4.9,2.1c-0.9-0.1-2-1-1.7-2.5c0.2-1.1,2.1-2.2,3-2.7
		c2.3-1.5,4.9-3,7.3-4.6c2.9-1.8,5.7-3.8,8.3-5.3C593.5,238.7,593.6,238.7,593.7,238.7z"/>
	<path class="st3" d="M435.1,242.2c0.2,0,0.7-0.1,1.1,0c1.7,0.4,5.7,1.4,5.1,3.3c-0.4,1.2-3.2,0.4-4.5,0.1c-1.5-0.3-3.5-0.7-3.3-2.3
		C433.7,242.7,434.3,242.4,435.1,242.2z"/>
	<path class="st3" d="M450.9,242.9c1.1-0.2,2.3-0.1,2.4,1c0.2,1.5-1.7,2.1-3.1,2.4c-1.3,0.3-3.9,1-4.1-0.3c-0.2-1.1,2.9-2.6,3.7-2.9
		C450.1,243,450.4,243,450.9,242.9z"/>
	<path class="st3" d="M354.9,272.4c-1.4-1.7-0.2-5,0.9-6.3c0.9-0.9,2.9-1.5,3.3-2.6c0.5-1.4-0.5-4.4,1.8-4.1
		c1.1,0.2,2.3,1.5,2.5,2.9c0.3,2.2-0.9,4.3-2.2,5.5c-0.5,0.5-1.7,0.7-2.2,1.4c-0.6,0.8-0.5,2-1.3,2.7
		C357.2,272.5,355.9,272.6,354.9,272.4z"/>
	<path class="st3" d="M513,260.2c3-0.8,3.9,2.5,6.4,3.7c1.1,0.5,2.3,0.7,2.5,1.5c0.7,3.1-4.6,2.3-6.3,1.5
		C514.2,266.1,509.3,261.1,513,260.2z"/>
	<path class="st3" d="M530,267.5c2.4-0.5,2.9,6.2,0.6,6.2C528.8,273.6,527.9,267.9,530,267.5z"/>
	<path class="st3" d="M510.1,269.2c2.1-0.2,2.7,1.9,4.3,2.7c0.8,0.4,1.9,0.5,2.9,0.8c2.6,0.8,5.5,1.5,7.8,3.1c0.8,0.6,2.8,2.5,3.4,4
		c0.6,1.3,0.8,3.7-0.8,4c-2.3,0.5-3.3-2.8-4.5-3.8c-1-0.9-2.3-1.5-4-1.8c-1.6-0.3-3.5-0.2-5.1-0.7c-1.7-0.5-4.2-1.9-5.1-3.1
		C507.6,272.7,507.1,269.5,510.1,269.2z"/>
	<path class="st3" d="M544.6,290.2c1.9-0.5,8.5,2.6,6.1,5.3c-0.7,0.8-2.8,0.9-4,0.5c-1.3-0.5-3.5-2.4-3.3-4.3
		C543.4,290.7,543.9,290.4,544.6,290.2z"/>
	<path class="st3" d="M418.9,355.2c-1.6-1-2.3-3.5-4.8-2.7c-2.2,0.6-0.5,3.7-1,5.6c-0.3,1.2-1.8,1.2-2.7,2.5
		c-1.8,2.4-0.4,6.7,0.3,9.4c0.6,2.1,1.5,5.2-1.1,5.4c-0.6,0-0.9-0.1-1.5-0.6c-2.5-1.9-5-5-6.6-7.5c-2.3-3.7-3.5-7.6-5-11.2
		c-0.4-1-1.3-2.1-1.5-3.1c-0.3-1.2-0.2-2.6-0.3-3.9c-0.3-3-0.7-6.8-0.3-10.4c0.1-1.1,0.4-2,0.6-3.1c0.1-1.1,0.1-2.2,0.2-3.3
		c0.2-1.8,0.9-3.7,1.4-5.5c1.8-6.9,5.1-12.9,8.5-18.4c0.4-0.7,0.9-1.3,1.4-1.9c0.5-0.7,0.9-1.4,1.4-1.9c1.5-1.8,3.7-3.2,5.6-4.8
		c2-1.6,4.2-2.9,6.4-3.9c2.6-1.1,5-1.9,8-2.3c1.4-0.2,2.9-0.6,4.3-0.8c4-0.6,7.1-0.7,11.2,0.3c3.6,0.9,5.9,1.5,7.5,4.2
		c0.6,1,1.4,2.6,1.3,3.9c-0.2,1.6-2.4,3.2-3.3,4.3c-1.2,1.5-2.7,2.7-3.7,4c-0.4,0.5-0.8,1.6-1.1,2.1c-0.6,0.7-1.5,1.1-2.2,1.8
		c-0.6,0.6-0.9,1.5-1.6,2.2c-0.6,0.6-1.4,1.1-1.9,1.7c-1.7,2-3.2,4.7-4.8,7.2c-1.2,1.8-2.2,3.7-3.3,5.7c-0.8,1.4-1.3,2.7-2.3,4.3
		c-1.2,2-1.9,3.7-2.6,6.6c-0.4,1.8,0.4,5.4-0.7,6.4c-0.8,0.7-3.2-0.2-3.8,0.9c-0.5,0.9,1,2.9,1.6,3.9c0.4,0.6,0.7,1.2,1,1.8
		c0.4,0.7,0.8,1.2,0.7,2.1c-0.1,0.9-0.8,1.7-2.1,1.7C420,357.9,420.2,356.4,418.9,355.2z M420.7,302.4c-1.5,0.8-3.3,2-5.1,3.5
		c-0.9,0.7-3.2,2.8-2.9,4c0.2,0.7,2.6,1.6,3.5,1.4c0.6-0.1,1.4-1.3,1.8-1.9c0.6-0.8,1.1-1.5,1.6-2.3c1-1.5,2.9-2.9,2.5-4.7
		C421.8,302,421,302.3,420.7,302.4z M422.4,309.6c-0.6,0.8-2.3,3.2-2.2,4c0.1,0.7,1.7,1.4,2.4,1.8c0.5,0.3,0.7,0.5,1.3,0.8
		c2.1,1.3,2,0,3.1-1.7c1.4-2,1.9-2.9,3.1-5.1c0.4-0.7,1.4-1.9,1.3-2.9c-0.2-1.1-2.7-2.1-3.8-1.9
		C424.9,304.9,423.9,307.6,422.4,309.6z M404,332.9c0.6-1.2,1.3-2.5,2.2-3.5c0.6-0.7,1.5-1.1,2.1-1.8c1.3-1.7,2.4-5.2,3.3-7.3
		c0.4-0.8,1-2.1,0.9-2.6c-0.2-1.2-3.2-1.8-4.3-1.3c-1.1,0.5-1.6,2.8-2.1,4c-1.4,3.8-2.7,7.9-3.3,12.1c-0.1,0.9-0.4,2,0,2.6
		C403.8,334.8,403.7,333.6,404,332.9z M418.1,336c0.9-3.2,2.1-5.8,3-9.1c0.4-1.5,1.4-3.9,1.1-5c-0.2-1.2-3.6-2.8-4.8-2.1
		c-1.3,1.1-1.8,3.2-2.6,5.3c-0.5,1.2-2.1,3.7-1.9,5c0.1,0.7,1.1,1.6,1.5,2.4c1,2.1,0.6,4.8,1.4,7.2C417.8,340,417.7,337.5,418.1,336
		z"/>
	<path class="st3" d="M481.1,309.6c1.5-0.2,1.7,0.3,2.9,1.7c0.7,0.8,1.4,1.5,1.8,2.1c0.8,1.2,1.4,3.1,2.2,4.9
		c1.5,3.4,2.3,6.8,3.1,11.1c0.3,2,1,4.9,0.6,6.5c-0.4,1.8-2.4,3.6-4.1,3.3c-2.7-0.4-1.7-4.7-1.8-7.4c-0.2-3.6-1.5-7.8-2.9-10.6
		c-0.9-1.9-2.3-4.6-3.4-6.6c-0.4-0.7-1-1.4-0.9-2.4C478.6,310.7,480,309.8,481.1,309.6z"/>
	<path class="st3" d="M336.4,320.7c0,0,0.1-0.1,0.2-0.1c4.2,0.4,8.3,1.2,13.1,2.1c1.9,0.3,4.3,0.6,6.6,1c2.6,0.4,5,0.5,5.1,2.4
		c0.2,2.6-2.3,2.1-4.8,1.8c-6-0.5-11.8-0.9-18.4-1.4c-3.4-0.2-7.4-0.9-5-4.2C334.1,321.2,334.6,320.8,336.4,320.7z"/>
	<path class="st3" d="M520.6,332.4c0,0,0.1-0.1,0.2-0.1c6.9,0.6,17.1,0.9,24.7,1.7c0.9,0.1,2.3,0.1,3.3,0.5c1.1,0.4,2.2,1.8,2.2,3
		c-0.1,1.7-2.3,2.1-4.2,2.2c-2.5,0-5-0.5-7.7-0.8c-4.9-0.6-9.7-1.2-15.1-1.8c-2.6-0.3-5.9-0.2-5.8-2.5
		C518.2,333,519.1,332.5,520.6,332.4z"/>
	<path class="st3" d="M358.1,337.6c2-0.2,4.2-0.3,4.1,1.9c0,1.7-2.4,2.2-4.6,2.6c-12.2,2.1-23.6,5-35.2,7.5
		c-1.9,0.4-3.8,1.2-5.7,1.4c-1.1,0.1-3,0.1-3.8-0.3c-0.8-0.5-1.2-2.5-0.8-3.7c0.5-1.2,2.8-1.5,5-1.9c2.1-0.4,4.4-0.9,5.7-1.1
		c6.8-1.1,11.4-2.2,17.6-3.2c5.6-0.9,11.7-2.3,17.4-3.2C358,337.6,358,337.6,358.1,337.6z"/>
	<path class="st3" d="M487.9,345.3c0.3,0,1.1-0.2,1.6,0c1.5,0.5,2.4,2.7,2.5,4.3c0.1,1.6-0.2,3.6-0.5,5c-0.4,2.5-1.7,5.3-2.7,7.7
		c-0.4,0.9-0.5,1.8-0.9,2.5c-0.3,0.6-0.9,1.1-1.3,1.8c-3.2,5.5-7.2,10.9-12.3,14.3c-1.1,0.7-2,1.6-3.1,2.2c-1,0.6-2.2,1-3.3,1.6
		c-2.1,1.2-4.3,2.1-7,2.6c-1.2,0.3-2.7,0.7-4,0.8c-5.3,0.5-9-0.6-13.7-1.1c-2-0.3-3.9-1.2-5.6-1.8c-1.5-0.6-4-1.7-3.9-3.5
		c0.2-2.6,3.2-1.7,5.3-1.4c3,0.5,4.5,0.8,6.6,0.9c7.9,0.5,15.2-1.6,20.6-5c2.4-1.5,5.1-3.7,7.3-5.5c3.9-3.1,6.5-5.7,8.2-10.6
		c0.6-1.5,1-2.5,1.4-4C484.2,351.6,483.1,345.8,487.9,345.3z"/>
	<path class="st3" d="M518.7,357.3c0.1,0,0.1-0.1,0.2-0.1c4.5,0.4,9,1.4,13.5,2.1c2.3,0.3,4.7,0.5,7,0.8c4.4,0.5,9.1,1.2,13.7,1.8
		c4.7,0.7,9,1.1,13.7,1.8c2.2,0.3,4.9,0.3,6.7,0.9c2,0.7,4.1,3.2,1.9,4.8c-2.8,2.2-7.5,0.8-11.3,0.1c-7.1-1.4-13.3-2.5-20.6-3.9
		c-6.7-1.3-13.6-2.3-20.7-3.8c-2.2-0.4-5.5-0.5-5.7-2.4C517.1,358.3,517.6,357.5,518.7,357.3z"/>
	<path class="st3" d="M363.4,365.5c2-0.4,3.5,0.2,3.4,1.9c0,2-3.8,2.9-5.7,3.8c-6.6,2.9-12.8,6.2-19.1,9.4
		c-8.7,4.4-17.3,8.4-25.2,12.6c-2.5,0.2-5.2-0.1-5.5-2.2c-0.3-2,1.4-3.4,2.6-4.5C330.6,379.7,346.9,372.5,363.4,365.5z"/>
	<path class="st3" d="M514.2,377.8c-0.9-1.4-3.1-1.2-2.9-3.4c0.1-0.7,0.9-1.9,2.3-1.7c0.8,0.1,2.2,1.2,3.3,1.8
		c5.6,3.1,11.4,5.4,17.4,8.3c1,0.5,2.2,1.1,3.4,1.7c1.8,0.9,4.3,1.5,3.1,4.2c-0.5,1.1-2.7,2.2-4,2.1c-0.8-0.1-1.9-1-2.9-1.6
		c-2.4-1.4-4.6-2.7-7.1-4.1C522.6,382.8,518.7,379.8,514.2,377.8z"/>
	<path class="st3" d="M376,392.8c-4.4,3-9.2,6.1-13.8,9.3c-1,0.7-2.2,1.8-3.9,1.1c-0.9-0.4-2.2-2.7-1.5-4.5c0.2-0.6,1.4-1.1,2.5-1.7
		c2.8-1.6,5.3-2.9,8.1-4.5c4.5-2.6,7.2-4.2,10.7-6.1c1.3-0.7,3.1,0.7,2.7,2.4c-0.2,1.1-1.5,1.5-2.4,2.1
		C377.6,391.6,377.1,392.1,376,392.8z"/>
	<path class="st3" d="M503.2,391.1c0.2-0.1,1.1-0.2,1.5-0.1c0.4,0.1,0.6,0.5,1.1,0.9c0.5,0.3,1,0.5,1.4,0.7c1.9,1.3,4.2,3.9,6.4,5.6
		c0.8,0.7,1.8,1.1,2.2,1.7c0.5,0.7,1.1,2.7,0.9,3.7c-0.2,0.9-1.2,1.5-2.1,1.5c-1.4,0-2.8-1.9-3.7-2.5c-2.4-1.9-4.2-3.7-6.4-5.9
		c-0.9-0.9-2.7-2-2.9-3.3C501.5,391.8,502.5,391.3,503.2,391.1z"/>
</g>
</svg>
